<svg xmlns="http://www.w3.org/2000/svg" width="35.53" height="35.53" viewBox="0 0 35.53 35.53">
  <g id="agriculture_sowing_seed_soil_ground_hole" data-name="agriculture, sowing, seed, soil, ground, hole" transform="translate(-10 -10)">
    <path id="Path_82543" data-name="Path 82543" d="M46.79,19.238l-8.376-8.375a2.968,2.968,0,0,0-4.185,0L21.666,23.425,30.04,31.8a5.921,5.921,0,0,1,8.373,0l8.376-8.376A2.97,2.97,0,0,0,46.79,19.238ZM25.854,23.425l2.093-2.094,5.8,5.8a8.874,8.874,0,0,0-3.35.835Zm12.559,4.189L30.04,19.238l6.279-6.28L44.7,21.331Z" transform="translate(-6.485 0)" fill="#a2ce4b"/>
    <path id="Path_82544" data-name="Path 82544" d="M46.426,27.877a4.222,4.222,0,0,0,6.271,0A4.224,4.224,0,0,0,46.426,27.877Z" transform="translate(-20.248 -9.163)" fill="#a2ce4b"/>
    <path id="Path_82545" data-name="Path 82545" d="M58.808,29.632a4.224,4.224,0,0,0,0,6.273A4.225,4.225,0,0,0,58.808,29.632Z" transform="translate(-26.356 -10.913)" fill="#a2ce4b"/>
    <path id="Path_82546" data-name="Path 82546" d="M51.667,69.812a3.845,3.845,0,0,0,1.48,2.961,3.845,3.845,0,0,0,1.48-2.961,1.48,1.48,0,1,0-2.961,0Z" transform="translate(-23.162 -32.425)" fill="#ffde2b"/>
    <path id="Path_82547" data-name="Path 82547" d="M45.241,61.909a3.856,3.856,0,0,0-3.14,1.046,1.481,1.481,0,1,0,2.094,2.094A3.847,3.847,0,0,0,45.241,61.909Z" transform="translate(-17.603 -28.837)" fill="#ffde2b"/>
    <path id="Path_82548" data-name="Path 82548" d="M34.1,76.665l-.823.682c-3.659,3.036-7.365,3.036-11.022,0l-.823-.682H10v2.961H20.363c4.934,4.1,10.229,3.8,14.8,0H45.53V76.665Z" transform="translate(0 -37.058)" fill="#a2ce4b"/>
  </g>
</svg>
