<svg xmlns="http://www.w3.org/2000/svg" width="39.782" height="39.782" viewBox="0 0 39.782 39.782">
  <g id="garden_watering_can_watering_plants_water" data-name="garden, watering can, watering, plants, water" transform="translate(113 92)">
    <path id="Path_82539" data-name="Path 82539" d="M58.641,21.076,59.813,19.9a5.8,5.8,0,0,0-8.206-8.2l-1.172,1.172-.586-.586a3.325,3.325,0,0,0-4.688,0L43.99,13.457l-2.344-2.344L36.956,15.8,39.3,18.145l-1.172,1.173a3.326,3.326,0,0,0,0,4.688l5.886,5.886H36.648V27.4H33.333v8.288h3.315V33.207H47.329l.177.176a3.324,3.324,0,0,0,4.688,0l7.034-7.033a3.325,3.325,0,0,0,0-4.688Zm-8.792,9.965-9.376-9.379,7.032-7.033,9.376,9.376ZM57.467,17.56,56.3,18.731l-3.517-3.516,1.172-1.172a2.487,2.487,0,0,1,3.516,3.517Z" transform="translate(-134.73 -102)" fill="#a2ce4b"/>
    <path id="Path_82540" data-name="Path 82540" d="M18.287,53.315a4.973,4.973,0,0,0-4.972,4.973v1.657H10V58.288A8.288,8.288,0,0,1,18.287,50Z" transform="translate(-123 -122.109)" fill="#ffde2b"/>
    <rect id="Rectangle_6878" data-name="Rectangle 6878" width="3.315" height="6.63" transform="translate(-113 -58.848)" fill="#ffde2b"/>
    <rect id="Rectangle_6879" data-name="Rectangle 6879" width="3.315" height="8.288" transform="translate(-107.198 -63.821)" fill="#ffde2b"/>
    <path id="Path_82541" data-name="Path 82541" d="M40.9,74.955h0a6.286,6.286,0,0,0-.931-8.288,6.292,6.292,0,0,0-.931,8.288h0a6.584,6.584,0,0,0-5.7-3.315,6.63,6.63,0,0,0,13.261,0A6.586,6.586,0,0,0,40.9,74.955Z" transform="translate(-134.73 -130.488)" fill="#a2ce4b"/>
    <path id="Path_82542" data-name="Path 82542" d="M70.987,74.8h0a6.274,6.274,0,0,0-1.02-8.133A6.281,6.281,0,0,0,68.944,74.8h0a6.583,6.583,0,0,0-5.607-3.16,6.63,6.63,0,0,0,13.261,0A6.583,6.583,0,0,0,70.987,74.8Z" transform="translate(-149.812 -130.488)" fill="#a2ce4b"/>
  </g>
</svg>
