<svg xmlns="http://www.w3.org/2000/svg" width="33.092" height="33.092" viewBox="0 0 33.092 33.092">
  <g id="garden_seed_seedling_plant" data-name="garden, seed, seedling, plant" transform="translate(-10 -10)">
    <path id="Path_82526" data-name="Path 82526" d="M32.061,15.515V10h-19.3v5.515c-3.676,6.09-3.676,15.971,0,22.061v5.516h19.3V37.577C35.739,31.486,35.739,21.605,32.061,15.515ZM15.515,12.757H29.3v2.758H15.515ZM29.3,40.334H15.515V37.577H29.3Zm1.1-5.516H14.417a21.5,21.5,0,0,1,0-16.546H30.4A21.49,21.49,0,0,1,30.4,34.819Z" fill="#a2ce4b"/>
    <path id="Path_82527" data-name="Path 82527" d="M30.222,53.555a6.559,6.559,0,0,0-6.885-6.886A6.561,6.561,0,0,0,30.222,53.555Z" transform="translate(-7.818 -21.498)" fill="#ffde2b"/>
    <path id="Path_82528" data-name="Path 82528" d="M46.888,46.67A6.557,6.557,0,0,0,40,53.556,6.562,6.562,0,0,0,46.888,46.67Z" transform="translate(-17.589 -21.499)" fill="#ffde2b"/>
    <circle id="Ellipse_812" data-name="Ellipse 812" cx="2.068" cy="2.068" r="2.068" transform="translate(20.341 21.031)" fill="#ffde2b"/>
    <path id="Path_82529" data-name="Path 82529" d="M76.667,53.046A3.585,3.585,0,0,0,78.046,55.8a3.585,3.585,0,0,0,1.379-2.757,1.379,1.379,0,0,0-2.757,0Z" transform="translate(-39.09 -24.432)" fill="#ffde2b"/>
    <path id="Path_82530" data-name="Path 82530" d="M86.091,22.758A3.587,3.587,0,0,0,84.712,20a3.587,3.587,0,0,0-1.379,2.758,1.379,1.379,0,1,0,2.758,0Z" transform="translate(-42.999 -5.864)" fill="#ffde2b"/>
    <path id="Path_82531" data-name="Path 82531" d="M73.738,32.352a3.584,3.584,0,0,0,2.924.975,3.579,3.579,0,0,0-.975-2.924,1.379,1.379,0,0,0-1.95,1.95Z" transform="translate(-37.136 -11.727)" fill="#ffde2b"/>
    <path id="Path_82532" data-name="Path 82532" d="M72.353,18.168a3.586,3.586,0,0,0,.975-2.925,3.583,3.583,0,0,0-2.924.975,1.379,1.379,0,0,0,1.95,1.95Z" transform="translate(-35.18 -3.056)" fill="#ffde2b"/>
    <path id="Path_82533" data-name="Path 82533" d="M84.231,42.956a3.584,3.584,0,0,0,.975-2.924,3.583,3.583,0,0,0-2.924.975,1.379,1.379,0,0,0,1.95,1.95Z" transform="translate(-42.146 -17.591)" fill="#ffde2b"/>
  </g>
</svg>
