<svg id="Group_18111" data-name="Group 18111" xmlns="http://www.w3.org/2000/svg" width="26.684" height="18.673" viewBox="0 0 26.684 18.673">
  <path id="Path_13397" data-name="Path 13397" d="M22.273,79.326a.8.8,0,0,0,.865.519c.624-.017,1.249,0,1.849,0a6.621,6.621,0,0,0,.4.785A2.658,2.658,0,0,0,30.1,80.1a.342.342,0,0,1,.389-.261q8.777.007,17.555,0a1.735,1.735,0,0,0,.437-.041.654.654,0,0,0,0-1.257,1.755,1.755,0,0,0-.437-.041q-8.765,0-17.529,0a.371.371,0,0,1-.423-.288A2.66,2.66,0,0,0,25.13,78.2c-.038.1-.074.192-.117.3-.626,0-1.251.012-1.875,0a.8.8,0,0,0-.865.519Zm4.008-.163A1.331,1.331,0,1,1,27.617,80.5,1.332,1.332,0,0,1,26.281,79.162Z" transform="translate(-22.273 -69.831)" fill="#383535"/>
  <path id="Path_13398" data-name="Path 13398" d="M22.273,113.212a.813.813,0,0,0,.865.519c3.2-.008,6.408,0,9.611-.009a.318.318,0,0,1,.369.25,2.656,2.656,0,0,0,4.994,0c.074-.208.177-.245.372-.245q4.793.008,9.585,0c.572,0,.892-.248.883-.685s-.32-.657-.884-.657q-4.78,0-9.559.005a.349.349,0,0,1-.406-.271,2.657,2.657,0,0,0-4.985.02.319.319,0,0,1-.369.25c-3.2-.006-6.408,0-9.611-.009a.812.812,0,0,0-.865.519Zm12.007-.165a1.334,1.334,0,1,1,1.339,1.343A1.34,1.34,0,0,1,34.28,113.047Z" transform="translate(-22.273 -97.046)" fill="#383535"/>
  <path id="Path_13399" data-name="Path 13399" d="M22.255,45.42a.812.812,0,0,0,.865.519q8.791-.009,17.582-.009c.218,0,.329.041.411.268A2.622,2.622,0,0,0,43.6,47.927a2.659,2.659,0,0,0,2.5-1.721c.033-.088.066-.176.1-.272.677,0,1.345.007,2.012,0a.669.669,0,0,0,.646-.981.7.7,0,0,0-.674-.359c-.659,0-1.319,0-1.907,0a8.115,8.115,0,0,0-.7-1.1,2.646,2.646,0,0,0-4.472.865c-.076.209-.179.244-.374.243q-8.8-.006-17.608-.008a.812.812,0,0,0-.865.519Zm22.674-.168A1.331,1.331,0,1,1,43.6,43.929,1.334,1.334,0,0,1,44.929,45.252Z" transform="translate(-22.255 -42.596)" fill="#383535"/>
</svg>
