<svg id="Group_18114" data-name="Group 18114" xmlns="http://www.w3.org/2000/svg" width="29.692" height="29.69" viewBox="0 0 29.692 29.69">
  <path id="Path_13408" data-name="Path 13408" d="M35.021,27a4.365,4.365,0,0,0-1.581.669,3.4,3.4,0,0,0-1.428,2.779c-.017,2.26-.013,4.52,0,6.78a3.47,3.47,0,0,0,3.452,3.452c2.231.011,4.462.006,6.693,0A3.48,3.48,0,0,0,45.637,37.8a.719.719,0,0,1,.052-.129V30.015a1.112,1.112,0,0,1-.056-.158A3.234,3.234,0,0,0,44.2,27.646,9.964,9.964,0,0,0,42.674,27Zm3.8,2.319q1.651,0,3.3,0a1.162,1.162,0,0,1,1.248,1.247q0,3.274,0,6.547a1.163,1.163,0,0,1-1.247,1.249q-3.274,0-6.547,0a1.163,1.163,0,0,1-1.249-1.247q0-3.274,0-6.547a1.162,1.162,0,0,1,1.247-1.249Q37.2,29.317,38.818,29.319Z" transform="translate(-15.998 -27)" fill="#383535"/>
  <path id="Path_13409" data-name="Path 13409" d="M94.445,27a4.359,4.359,0,0,0-1.581.669,3.4,3.4,0,0,0-1.429,2.779c-.017,2.259-.013,4.519,0,6.779a3.47,3.47,0,0,0,3.45,3.454q3.39.017,6.779,0a3.473,3.473,0,0,0,3.45-3.454c.009-2.231,0-4.461,0-6.692a3.478,3.478,0,0,0-2.885-3.481A.719.719,0,0,1,102.1,27Zm8.349,6.811c0,1.1,0,2.2,0,3.3a1.163,1.163,0,0,1-1.247,1.249q-3.274,0-6.547,0a1.163,1.163,0,0,1-1.249-1.247q0-3.274,0-6.547A1.162,1.162,0,0,1,95,29.32q3.274,0,6.547,0a1.162,1.162,0,0,1,1.249,1.247C102.8,31.648,102.794,32.73,102.794,33.811Z" transform="translate(-91.424 -27)" fill="#383535"/>
  <path id="Path_13410" data-name="Path 13410" d="M45.69,89.432a4.257,4.257,0,0,0-.7-1.628,3.377,3.377,0,0,0-2.715-1.381c-2.279-.019-4.558-.015-6.837,0a3.464,3.464,0,0,0-3.424,3.419q-.021,3.419,0,6.837a3.464,3.464,0,0,0,3.424,3.42c2.25.014,4.5.008,6.75,0a3.483,3.483,0,0,0,3.45-2.856,1.072,1.072,0,0,1,.056-.158Zm-11.364,3.82q0-1.622,0-3.245a1.165,1.165,0,0,1,1.255-1.271q3.274,0,6.547,0a1.161,1.161,0,0,1,1.241,1.254q0,3.274,0,6.547a1.162,1.162,0,0,1-1.254,1.242q-3.274,0-6.547,0a1.163,1.163,0,0,1-1.242-1.255C34.324,95.434,34.326,94.343,34.326,93.252Z" transform="translate(-15.998 -70.415)" fill="#383535"/>
  <path id="Path_13412" data-name="Path 13412" d="M91.429,93.273c0,1.1,0,2.2,0,3.3a3.479,3.479,0,0,0,3.52,3.534q3.318.008,6.636,0a3.479,3.479,0,0,0,3.526-3.527q.006-3.318,0-6.636a3.476,3.476,0,0,0-3.5-3.518q-3.332-.008-6.664,0a3.477,3.477,0,0,0-3.512,3.511C91.426,91.052,91.429,92.162,91.429,93.273Zm2.319.027q0-1.637,0-3.274a1.169,1.169,0,0,1,1.276-1.279q3.245,0,6.489,0a1.169,1.169,0,0,1,1.279,1.275q0,3.245,0,6.489a1.17,1.17,0,0,1-1.275,1.279q-3.245,0-6.489,0a1.171,1.171,0,0,1-1.279-1.276Q93.747,94.908,93.749,93.3Z" transform="translate(-91.423 -70.426)" fill="#383535"/>
</svg>
