<svg xmlns="http://www.w3.org/2000/svg" width="48.107" height="48.107" viewBox="0 0 48.107 48.107">
  <g id="Google" transform="translate(4.054 4.054)">
    <g id="Placeholder" transform="translate(-4.054 -4.054)" fill="none" stroke="#7fb283" stroke-width="1">
      <circle cx="24.054" cy="24.054" r="24.054" stroke="none"/>
      <circle cx="24.054" cy="24.054" r="23.554" fill="none"/>
    </g>
    <g id="Icon_Social_Google" data-name="Icon/Social/Google" transform="translate(14 14)">
      <path id="google-2" data-name="google" d="M11.893,4.8H6.127c0,.6,0,1.8,0,2.4H9.464A3.237,3.237,0,0,1,8.241,9.063s0,0,0,0a3.944,3.944,0,0,1-2.814.523A3.711,3.711,0,0,1,2.657,7.172s0-.019.006-.02a3.585,3.585,0,0,1,0-2.35h0A3.683,3.683,0,0,1,5.382,2.419,3.5,3.5,0,0,1,8.5,3.257c.116-.114,1.611-1.574,1.723-1.692A6.177,6.177,0,0,0,.654,3.307h0s0,0,0,.007h0A5.86,5.86,0,0,0,.657,8.692L.65,8.7a6.108,6.108,0,0,0,3.888,3.1,6.276,6.276,0,0,0,5.646-1.243l0,0A6.2,6.2,0,0,0,11.893,4.8" transform="translate(0.5 0.5)" fill="#7fb283"/>
    </g>
  </g>
</svg>
