<svg xmlns="http://www.w3.org/2000/svg" width="30" height="30" viewBox="0 0 30 30">
  <g id="Group_36487" data-name="Group 36487" transform="translate(-856 -1115.872)">
    <path id="Path_82356" data-name="Path 82356" d="M15,0A15,15,0,1,1,0,15,15,15,0,0,1,15,0Z" transform="translate(856 1115.872)" fill="#2d5f4f"/>
    <path id="website" d="M14.745,5.372a1.419,1.419,0,0,0-.251-.033,1.523,1.523,0,0,0-1.071.418,19.421,19.421,0,0,0-1.908-.736,25.37,25.37,0,0,0-3.046-.77,1.653,1.653,0,0,0-.452-.669A18.475,18.475,0,0,1,9.138,0a8.615,8.615,0,0,1,6.728,4.034,16.863,16.863,0,0,0-1.121,1.339ZM6.979,3.2a1.552,1.552,0,0,0-.82.234A19.663,19.663,0,0,0,3.431,1.724,8.347,8.347,0,0,1,8.084,0,17.338,17.338,0,0,0,7.029,3.2ZM1.172,4.235A8.98,8.98,0,0,1,2.611,2.427a20.592,20.592,0,0,1,2.36,1.439,14.132,14.132,0,0,0-3.8.368Zm4.2.669a1.547,1.547,0,0,0,.36.912,1.579,1.579,0,0,0,.812.527q-.1,1.172-.1,2.226,0,.736.05,1.691a1.6,1.6,0,0,0-.653.4,15.383,15.383,0,0,1-1.74-.8A1.665,1.665,0,0,0,4.285,9.1a1.551,1.551,0,0,0-.468-1.138A1.547,1.547,0,0,0,2.678,7.5a1.538,1.538,0,0,0-1.222.569A11.566,11.566,0,0,1,.2,6.745,7.492,7.492,0,0,1,.653,5.322,14.572,14.572,0,0,1,5.372,4.9ZM1.088,9.239a1.55,1.55,0,0,0,.51,1.046,1.539,1.539,0,0,0,1.08.427,1.37,1.37,0,0,0,.4-.067,14.883,14.883,0,0,0,2.293,1.071v.067A1.545,1.545,0,0,0,5.816,12.9a1.581,1.581,0,0,0,1.1.494,18.06,18.06,0,0,0,1.172,3.732,8.446,8.446,0,0,1-3.163-.812A8.462,8.462,0,0,1,.636,11.783,8.348,8.348,0,0,1,0,8.569q0-.017.017-.452A9.148,9.148,0,0,0,1.088,9.239Zm7.3,3.3a19.738,19.738,0,0,0,2.427.285,1.864,1.864,0,0,0,.368.619,20.832,20.832,0,0,0-.468,3.414,8.948,8.948,0,0,1-1.573.268,19,19,0,0,1-1.222-4.05,1.362,1.362,0,0,0,.468-.536Zm5.188.8a1.567,1.567,0,0,0,.3-.569,22.3,22.3,0,0,0,2.36-.318,8.512,8.512,0,0,1-2.209,2.728,14.649,14.649,0,0,0-.452-1.841Zm-2.728-1.59a15.98,15.98,0,0,1-2.31-.3,1.533,1.533,0,0,0-.954-1.155q-.067-.987-.067-1.724,0-1.1.1-2.293A.164.164,0,0,0,7.7,6.243a.175.175,0,0,1,.067-.033q.653.636,1.138,1.172a16.151,16.151,0,0,1,2.477,3.649,1.637,1.637,0,0,0-.536.72Zm1.49,2.176q.033,0,.184-.017a14.832,14.832,0,0,1,.418,2.025,9.606,9.606,0,0,1-1.172.569,20.511,20.511,0,0,1,.4-2.594q.134.017.168.017Zm-.084-4q-.017.033-.042.1t-.042.1A18.056,18.056,0,0,0,9.69,6.662Q9.171,6.076,8.452,5.39q.017,0,.025-.025l.009-.025a24.4,24.4,0,0,1,2.695.7,16.794,16.794,0,0,1,1.724.669,1.419,1.419,0,0,0-.033.251,1.541,1.541,0,0,0,.3.921,17.927,17.927,0,0,0-.921,2.042Zm.786.971q.2-.586.2-.6A19.087,19.087,0,0,1,14.075,8.5a1.418,1.418,0,0,0,.418.067,1.533,1.533,0,0,0,1.021-.385,16.647,16.647,0,0,1,1.607,1.272,8.456,8.456,0,0,1-.4,1.841,22.9,22.9,0,0,1-2.9.4,1.5,1.5,0,0,0-.786-.8ZM16.1,6.946a1.551,1.551,0,0,0-.368-1,10.691,10.691,0,0,1,.7-.82,8.431,8.431,0,0,1,.7,2.828q-.552-.418-1.071-.753a1.2,1.2,0,0,0,.033-.251Z" transform="translate(862.43 1121.971)" fill="#fff"/>
  </g>
</svg>
