<svg xmlns="http://www.w3.org/2000/svg" width="30" height="30" viewBox="0 0 30 30">
  <g id="Group_36483" data-name="Group 36483" transform="translate(-860.546 -1022.001)">
    <circle id="Ellipse_48" data-name="Ellipse 48" cx="15" cy="15" r="15" transform="translate(860.546 1022.001)" fill="#2d5f4f"/>
    <g id="telephone-fill" transform="translate(865.97 1027.422)">
      <path id="Path_82497" data-name="Path 82497" d="M3.17,1.681A1.893,1.893,0,0,1,6,1.857l1.945,2.5a1.888,1.888,0,0,1,.343,1.62L7.7,8.355a.736.736,0,0,0,.193.7l2.667,2.666a.736.736,0,0,0,.7.193l2.375-.594a1.893,1.893,0,0,1,1.621.343l2.5,1.945a1.893,1.893,0,0,1,.177,2.833l-1.123,1.123a3.016,3.016,0,0,1-3.121.762,20.219,20.219,0,0,1-7.605-4.8,20.219,20.219,0,0,1-4.8-7.605A3.017,3.017,0,0,1,2.047,2.8L3.17,1.68Z" fill="#fff" fill-rule="evenodd"/>
    </g>
  </g>
</svg>
