<svg xmlns="http://www.w3.org/2000/svg" width="47.893" height="47.893" viewBox="0 0 47.893 47.893">
  <g id="Twitter" transform="translate(3.946 3.946)">
    <g id="Placeholder" transform="translate(-3.946 -3.946)" fill="none" stroke="#7fb283" stroke-width="1">
      <circle cx="23.946" cy="23.946" r="23.946" stroke="none"/>
      <circle cx="23.946" cy="23.946" r="23.446" fill="none"/>
    </g>
    <g id="Icon_Social_Twitter" data-name="Icon/Social/Twitter" transform="translate(14 15)">
      <path id="Twitter-2" data-name="Twitter" d="M4.089,11a7.709,7.709,0,0,0,7.589-7.9c0-.12,0-.24-.008-.359A5.547,5.547,0,0,0,13,1.3a5.149,5.149,0,0,1-1.531.437A2.773,2.773,0,0,0,12.641.2a5.219,5.219,0,0,1-1.694.674A2.6,2.6,0,0,0,7.173.755,2.855,2.855,0,0,0,6.4,3.409,7.479,7.479,0,0,1,.9.507a2.849,2.849,0,0,0,.826,3.707A2.567,2.567,0,0,1,.52,3.867V3.9A2.754,2.754,0,0,0,2.66,6.625a2.551,2.551,0,0,1-1.2.047A2.685,2.685,0,0,0,3.947,8.6,5.217,5.217,0,0,1,.635,9.792,5.254,5.254,0,0,1,0,9.753,7.336,7.336,0,0,0,4.089,11" fill="#7fb283"/>
    </g>
  </g>
</svg>
