<svg xmlns="http://www.w3.org/2000/svg" width="72.216" height="79.895" viewBox="0 0 72.216 79.895">
  <g id="Group_41356" data-name="Group 41356" transform="translate(0.75 0)">
    <path id="Path_82570" data-name="Path 82570" d="M-5606.854,8686.479s.96,16.587-.813,28.506-7.651,22.913-7.651,22.913a68.336,68.336,0,0,1-17.424,18.225c-10.85,7.484-24.609,7.967-24.609,7.967a65.935,65.935,0,0,1-1.612-23.877,52.223,52.223,0,0,1,7.952-21.714c3.711-5.7,5.218-8.874,16.084-16.912S-5606.854,8686.479-5606.854,8686.479Z" transform="translate(5676.836 -8685.336)" fill="#eaefed"/>
    <g id="Group_41244" data-name="Group 41244" transform="translate(-758.541 -1542.025)">
      <path id="Subtraction_3" data-name="Subtraction 3" d="M2.893,79.895h0l-.206-.528a31.549,31.549,0,0,1-.992-3.243,54.46,54.46,0,0,1-1.465-8.6,56.646,56.646,0,0,1-.053-9.552l1.37,1A55.362,55.362,0,0,0,1.661,67.4,48.867,48.867,0,0,0,3.837,78.309a70.518,70.518,0,0,0,12.209-2.884A56.022,56.022,0,0,0,26.486,70.7a49.6,49.6,0,0,0,8.338-6.141A49.679,49.679,0,0,0,41.3,57.342a59.733,59.733,0,0,0,8.978-18.508,85.054,85.054,0,0,0,3.2-18.27,102.236,102.236,0,0,0,0-13.943c-.147-2.094-.328-3.681-.455-4.643A125,125,0,0,0,35.279,10.4c-1,.583-2,1.187-2.963,1.8l-1.251-.909c1.142-.729,2.316-1.444,3.491-2.128A127.473,127.473,0,0,1,53.349.312L54.172,0l.142.869,0,.01c.059.373.366,2.4.592,5.642a103.55,103.55,0,0,1,0,14.144,86.44,86.44,0,0,1-3.253,18.579,61.163,61.163,0,0,1-9.2,18.951,51.139,51.139,0,0,1-6.664,7.422,51.169,51.169,0,0,1-8.58,6.32,57.412,57.412,0,0,1-10.709,4.851A72.292,72.292,0,0,1,3.456,79.817l-.563.078Z" transform="translate(774.856 1542.025)" fill="#2d5f4f"/>
      <g id="Group_41248" data-name="Group 41248" transform="translate(854.184 1543.125)">
        <g id="Group_94" data-name="Group 94" transform="translate(-89.682 4.824)">
          <g id="Group_91" data-name="Group 91" transform="translate(0 16.399)">
            <path id="Path_1932" data-name="Path 1932" d="M-81.723,30.628c.716,3.767-2.04,7.454-2.04,7.454s-3.916-2.42-4.63-6.187,2.04-7.454,2.04-7.454S-82.438,26.861-81.723,30.628Z" transform="translate(88.512 -24.441)" fill="#eaefed" stroke="#2d5f4f" stroke-linecap="round" stroke-linejoin="round" stroke-width="1.5"/>
            <path id="Path_1933" data-name="Path 1933" d="M-76.638,35.2c-3.767.715-6.187,4.63-6.187,4.63s3.687,2.756,7.454,2.041,6.187-4.63,6.187-4.63S-72.871,34.485-76.638,35.2Z" transform="translate(87.579 -26.186)" fill="#eaefed" stroke="#2d5f4f" stroke-linecap="round" stroke-linejoin="round" stroke-width="1.5"/>
          </g>
          <g id="Group_92" data-name="Group 92" transform="translate(6.662 8.651)">
            <path id="Path_1935" data-name="Path 1935" d="M-69.841,24.868c-3.395.645-5.576,4.173-5.576,4.173s3.323,2.484,6.718,1.839,5.576-4.173,5.576-4.173S-66.446,24.224-69.841,24.868Z" transform="translate(79.702 -16.745)" fill="#eaefed" stroke="#2d5f4f" stroke-linecap="round" stroke-linejoin="round" stroke-width="1.5"/>
            <path id="Path_1934" data-name="Path 1934" d="M-74.424,20.748c.645,3.394-1.839,6.717-1.839,6.717s-3.529-2.181-4.173-5.576,1.839-6.717,1.839-6.717S-75.068,17.353-74.424,20.748Z" transform="translate(80.543 -15.172)" fill="#eaefed" stroke="#2d5f4f" stroke-linecap="round" stroke-linejoin="round" stroke-width="1.5"/>
          </g>
          <g id="Group_93" data-name="Group 93" transform="translate(12.779 1.704)">
            <path id="Path_1936" data-name="Path 1936" d="M-67.778,11.827c.574,3.023-1.638,5.981-1.638,5.981s-3.142-1.942-3.715-4.965,1.637-5.981,1.637-5.981S-68.352,8.8-67.778,11.827Z" transform="translate(73.226 -6.862)" fill="#eaefed" stroke="#2d5f4f" stroke-linecap="round" stroke-linejoin="round" stroke-width="1.5"/>
            <path id="Path_1937" data-name="Path 1937" d="M-63.7,15.5c-3.023.573-4.965,3.716-4.965,3.716s2.959,2.211,5.981,1.637,4.965-3.716,4.965-3.716S-60.674,14.922-63.7,15.5Z" transform="translate(72.477 -8.263)" fill="#eaefed" stroke="#2d5f4f" stroke-linecap="round" stroke-linejoin="round" stroke-width="1.5"/>
          </g>
          <path id="Path_1938" data-name="Path 1938" d="M-56.931,10.394c-2.589,1.664-6.16.72-6.16.72s.626-3.641,3.214-5.3,6.16-.72,6.16-.72S-54.343,8.731-56.931,10.394Z" transform="translate(84.342 -4.824)" fill="#eaefed" stroke="#2d5f4f" stroke-linecap="round" stroke-linejoin="round" stroke-width="1.5"/>
          <path id="Path_1939" data-name="Path 1939" d="M-86.882,44.525a41.629,41.629,0,0,1,3.518-8.34c.176-.335.361-.679.547-1.014.008-.009.008-.018.018-.027,1.542-2.8,3.341-5.668,5.157-8.383.6-.9,1.207-1.79,1.807-2.645,1.4-2.019,2.769-3.9,3.985-5.536.388-.5.749-.987,1.1-1.446,2.222-2.927,3.755-4.787,3.755-4.787" transform="translate(88.245 -6.058)" fill="#2d5f4f" stroke="#2d5f4f" stroke-linecap="round" stroke-linejoin="round" stroke-width="1.5"/>
        </g>
        <g id="Group_98" data-name="Group 98" transform="translate(-64.226 9.961)">
          <g id="Group_95" data-name="Group 95" transform="translate(0 20.732)">
            <path id="Path_1940" data-name="Path 1940" d="M-48.008,40.034c-2.4,1.574-2.955,4.977-2.955,4.977s3.341.851,5.742-.723,2.955-4.977,2.955-4.977S-45.606,38.46-48.008,40.034Z" transform="translate(56.897 -36.312)" fill="#eaefed" stroke="#2d5f4f" stroke-linecap="round" stroke-linejoin="round" stroke-width="1.5"/>
            <path id="Path_1941" data-name="Path 1941" d="M-52.855,38.724c1.574,2.4.723,5.742.723,5.742s-3.4-.553-4.977-2.955-.723-5.742-.723-5.742S-54.43,36.322-52.855,38.724Z" transform="translate(58.062 -35.769)" fill="#eaefed" stroke="#2d5f4f" stroke-linecap="round" stroke-linejoin="round" stroke-width="1.5"/>
          </g>
          <g id="Group_96" data-name="Group 96" transform="translate(2.266 13.523)">
            <path id="Path_1942" data-name="Path 1942" d="M-46.291,30.989c-2.164,1.419-2.663,4.485-2.663,4.485s3.011.767,5.176-.651,2.663-4.485,2.663-4.485S-44.126,29.571-46.291,30.989Z" transform="translate(54.302 -27.635)" fill="#eaefed" stroke="#2d5f4f" stroke-linecap="round" stroke-linejoin="round" stroke-width="1.5"/>
            <path id="Path_1943" data-name="Path 1943" d="M-50.66,29.808c1.419,2.164.652,5.175.652,5.175s-3.066-.5-4.485-2.663-.652-5.176-.652-5.176S-52.078,27.643-50.66,29.808Z" transform="translate(55.351 -27.145)" fill="#eaefed" stroke="#2d5f4f" stroke-linecap="round" stroke-linejoin="round" stroke-width="1.5"/>
          </g>
          <g id="Group_97" data-name="Group 97" transform="translate(4.384 7.025)">
            <path id="Path_1944" data-name="Path 1944" d="M-44.75,22.795a6.547,6.547,0,0,0-2.372,3.993,6.548,6.548,0,0,0,4.609-.581,6.544,6.544,0,0,0,2.371-3.993A6.546,6.546,0,0,0-44.75,22.795Z" transform="translate(51.884 -19.808)" fill="#eaefed" stroke="#2d5f4f" stroke-linecap="round" stroke-linejoin="round" stroke-width="1.5"/>
            <path id="Path_1945" data-name="Path 1945" d="M-48.641,21.743a6.548,6.548,0,0,1,.581,4.609,6.55,6.55,0,0,1-3.994-2.372,6.549,6.549,0,0,1-.58-4.608A6.544,6.544,0,0,1-48.641,21.743Z" transform="translate(52.818 -19.372)" fill="#eaefed" stroke="#2d5f4f" stroke-linecap="round" stroke-linejoin="round" stroke-width="1.5"/>
          </g>
          <path id="Path_1946" data-name="Path 1946" d="M-49.307,15.46a6.545,6.545,0,0,0,2.816,3.693A6.547,6.547,0,0,0-45.3,14.662a6.548,6.548,0,0,0-2.817-3.693A6.546,6.546,0,0,0-49.307,15.46Z" transform="translate(56.639 -10.969)" fill="#eaefed" stroke="#2d5f4f" stroke-linecap="round" stroke-linejoin="round" stroke-width="1.5"/>
          <path id="Path_1947" data-name="Path 1947" d="M-53.052,46.231a39.793,39.793,0,0,0,1.622-4.249c.1-.283.185-.564.273-.846,0-.009.008-.027.008-.036.706-2.283,1.314-4.725,1.825-7.1.176-.793.335-1.577.485-2.336.362-1.817.661-3.535.908-5.052.079-.476.15-.934.221-1.358.415-2.715.617-4.5.617-4.5" transform="translate(57.24 -12.575)" fill="#2d5f4f" stroke="#2d5f4f" stroke-linecap="round" stroke-linejoin="round" stroke-width="1.5"/>
        </g>
        <line id="Line_23" data-name="Line 23" x2="49.75" transform="translate(-95.643 50.258)" fill="none" stroke="#2d5f4f" stroke-linecap="round" stroke-linejoin="round" stroke-width="1.5"/>
        <path id="Path_1948" data-name="Path 1948" d="M-46.343,55.457a2.312,2.312,0,0,1-2.309,2.31H-91.8a2.312,2.312,0,0,1-2.31-2.31v-.37a2.585,2.585,0,0,1,.026-.361c.141-.838.926-4.1,4.443-3.632a2.145,2.145,0,0,0,1.076-.132c.873-.344,2.627-.8,3.711.423a2.3,2.3,0,0,0,2.663.512c2.036-.935,5.4-1.772,8.4.67a2.242,2.242,0,0,0,2.283.291c3.059-1.278,10.843-3.8,17.287.344a2.316,2.316,0,0,0,2.133.186c1.5-.609,4.126-1.261,5.431.9A2.35,2.35,0,0,1-46.343,55.457Z" transform="translate(-0.252 -7.506)" fill="#eaefed" stroke="#2d5f4f" stroke-linecap="round" stroke-linejoin="round" stroke-width="1.5"/>
      </g>
    </g>
  </g>
</svg>
