<svg xmlns="http://www.w3.org/2000/svg" width="70.396" height="70.853" viewBox="0 0 70.396 70.853">
  <g id="Group_36766" data-name="Group 36766" transform="translate(-575.351 -514.231)">
    <path id="Path_82468" data-name="Path 82468" d="M644.473,623.01H634.034c.2-3,1.584-14.027,10.912-21.262a.773.773,0,0,0-.948-1.222c-10.024,7.775-11.347,19.375-11.52,22.484h-6.263a21.267,21.267,0,0,1,2.713-11.962.773.773,0,1,0-1.338-.777,22.544,22.544,0,0,0-2.931,12.739h-8.635v-9.444H619.3a.773.773,0,0,0,.773-.774v-7.217h1.29a1.807,1.807,0,0,0,1.8-1.8v-6.984a1.806,1.806,0,0,0-1.8-1.8H599.737a1.806,1.806,0,0,0-1.8,1.8v6.984a1.806,1.806,0,0,0,1.8,1.8h1.29v7.217a.774.774,0,0,0,.773.774h3.273v9.444h-8.635a22.542,22.542,0,0,0-2.93-12.739.773.773,0,1,0-1.338.777,21.263,21.263,0,0,1,2.712,11.962H588.62c-.174-3.109-1.5-14.709-11.521-22.484a.773.773,0,0,0-.948,1.222c9.31,7.221,10.7,18.263,10.911,21.262H576.626a.773.773,0,0,0-.773.773v9.005a.773.773,0,0,0,.773.773h67.847a.773.773,0,0,0,.773-.773v-9.005A.773.773,0,0,0,644.473,623.01Zm-44.994-19.24v-6.984a.261.261,0,0,1,.258-.258h21.624a.261.261,0,0,1,.258.258v6.984a.261.261,0,0,1-.258.258H599.737A.261.261,0,0,1,599.479,603.77Zm3.1,1.8h15.95v6.444h-15.95Zm11.9,7.991v18.449h-7.857V613.566ZM577.4,624.557h27.675v7.458H577.4Zm66.3,7.458H616.024v-7.458H643.7Z" transform="translate(0 -48.978)" fill="#2d5f4f" stroke="rgba(0,0,0,0)" stroke-width="1"/>
    <path id="Path_82469" data-name="Path 82469" d="M735.054,517.539a.773.773,0,0,0,1.071-.222l.138-.21a.773.773,0,1,0-1.293-.849l-.138.211A.773.773,0,0,0,735.054,517.539Z" transform="translate(-96.95 -0.719)" fill="#2d5f4f" stroke="rgba(0,0,0,0)" stroke-width="1"/>
    <path id="Path_82470" data-name="Path 82470" d="M718.594,540.688a.772.772,0,0,0,1.071-.222l.943-1.436a.773.773,0,1,0-1.293-.849l-.943,1.437A.773.773,0,0,0,718.594,540.688Z" transform="translate(-86.903 -14.098)" fill="#2d5f4f" stroke="rgba(0,0,0,0)" stroke-width="1"/>
    <path id="Path_82471" data-name="Path 82471" d="M710.363,553.223a.773.773,0,0,0,1.071-.222l.943-1.437a.773.773,0,1,0-1.293-.849l-.943,1.437A.773.773,0,0,0,710.363,553.223Z" transform="translate(-81.88 -21.749)" fill="#2d5f4f" stroke="rgba(0,0,0,0)" stroke-width="1"/>
    <path id="Path_82472" data-name="Path 82472" d="M702.133,565.758a.773.773,0,0,0,1.071-.222l.943-1.437a.773.773,0,1,0-1.293-.849l-.943,1.437A.774.774,0,0,0,702.133,565.758Z" transform="translate(-76.857 -29.399)" fill="#2d5f4f" stroke="rgba(0,0,0,0)" stroke-width="1"/>
    <path id="Path_82473" data-name="Path 82473" d="M694.623,575.785l-.943,1.436a.773.773,0,1,0,1.293.849l.943-1.437a.773.773,0,0,0-1.293-.849Z" transform="translate(-71.834 -37.049)" fill="#2d5f4f" stroke="rgba(0,0,0,0)" stroke-width="1"/>
    <path id="Path_82474" data-name="Path 82474" d="M726.824,528.154a.773.773,0,0,0,1.071-.222l.943-1.437a.773.773,0,1,0-1.293-.849l-.943,1.436A.773.773,0,0,0,726.824,528.154Z" transform="translate(-91.927 -6.448)" fill="#2d5f4f" stroke="rgba(0,0,0,0)" stroke-width="1"/>
    <path id="Path_82475" data-name="Path 82475" d="M630.906,578.071a.773.773,0,1,0,1.293-.849l-.943-1.436a.773.773,0,0,0-1.293.849Z" transform="translate(-32.947 -37.049)" fill="#2d5f4f" stroke="rgba(0,0,0,0)" stroke-width="1"/>
    <path id="Path_82476" data-name="Path 82476" d="M606.214,540.466a.773.773,0,0,0,1.293-.849l-.943-1.437a.773.773,0,1,0-1.293.849Z" transform="translate(-17.877 -14.098)" fill="#2d5f4f" stroke="rgba(0,0,0,0)" stroke-width="1"/>
    <path id="Path_82477" data-name="Path 82477" d="M597.984,527.932a.773.773,0,1,0,1.293-.849l-.943-1.436a.773.773,0,1,0-1.293.849Z" transform="translate(-12.854 -6.448)" fill="#2d5f4f" stroke="rgba(0,0,0,0)" stroke-width="1"/>
    <path id="Path_82478" data-name="Path 82478" d="M614.445,553a.773.773,0,1,0,1.293-.849l-.943-1.437a.773.773,0,1,0-1.293.849Z" transform="translate(-22.9 -21.749)" fill="#2d5f4f" stroke="rgba(0,0,0,0)" stroke-width="1"/>
    <path id="Path_82479" data-name="Path 82479" d="M591.014,517.317a.773.773,0,1,0,1.293-.849l-.138-.211a.773.773,0,1,0-1.293.849Z" transform="translate(-9.092 -0.719)" fill="#2d5f4f" stroke="rgba(0,0,0,0)" stroke-width="1"/>
    <path id="Path_82480" data-name="Path 82480" d="M622.675,565.536a.773.773,0,1,0,1.293-.849l-.943-1.437a.773.773,0,1,0-1.293.849Z" transform="translate(-27.923 -29.399)" fill="#2d5f4f" stroke="rgba(0,0,0,0)" stroke-width="1"/>
    <path id="Path_82481" data-name="Path 82481" d="M663.678,518a.774.774,0,0,0,.774-.774V515.5a.773.773,0,1,0-1.547,0v1.719A.773.773,0,0,0,663.678,518Z" transform="translate(-53.129 0)" fill="#2d5f4f" stroke="rgba(0,0,0,0)" stroke-width="1"/>
    <path id="Path_82482" data-name="Path 82482" d="M663.678,562.983a.774.774,0,0,0,.774-.774v-1.719a.773.773,0,1,0-1.547,0v1.719A.773.773,0,0,0,663.678,562.983Z" transform="translate(-53.129 -27.455)" fill="#2d5f4f" stroke="rgba(0,0,0,0)" stroke-width="1"/>
    <path id="Path_82483" data-name="Path 82483" d="M663.678,532.992a.773.773,0,0,0,.774-.773V530.5a.773.773,0,1,0-1.547,0v1.719A.773.773,0,0,0,663.678,532.992Z" transform="translate(-53.129 -9.152)" fill="#2d5f4f" stroke="rgba(0,0,0,0)" stroke-width="1"/>
    <path id="Path_82484" data-name="Path 82484" d="M663.678,577.978a.773.773,0,0,0,.774-.773v-1.719a.773.773,0,1,0-1.547,0V577.2A.773.773,0,0,0,663.678,577.978Z" transform="translate(-53.129 -36.607)" fill="#2d5f4f" stroke="rgba(0,0,0,0)" stroke-width="1"/>
    <path id="Path_82485" data-name="Path 82485" d="M663.678,547.987a.773.773,0,0,0,.774-.773V545.5a.773.773,0,0,0-1.547,0v1.719A.773.773,0,0,0,663.678,547.987Z" transform="translate(-53.129 -18.304)" fill="#2d5f4f" stroke="rgba(0,0,0,0)" stroke-width="1"/>
    <path id="Path_82486" data-name="Path 82486" d="M692.455,535.591a.773.773,0,0,0,.984-.477l.564-1.623a.774.774,0,1,0-1.461-.508l-.564,1.623A.774.774,0,0,0,692.455,535.591Z" transform="translate(-70.847 -10.822)" fill="#2d5f4f" stroke="rgba(0,0,0,0)" stroke-width="1"/>
    <path id="Path_82487" data-name="Path 82487" d="M677.688,578.084a.772.772,0,0,0,.984-.477l.564-1.623a.774.774,0,1,0-1.461-.508l-.564,1.623A.773.773,0,0,0,677.688,578.084Z" transform="translate(-61.834 -36.756)" fill="#2d5f4f" stroke="rgba(0,0,0,0)" stroke-width="1"/>
    <path id="Path_82488" data-name="Path 82488" d="M687.533,549.755a.772.772,0,0,0,.984-.477l.564-1.623a.774.774,0,0,0-1.461-.508l-.564,1.623A.774.774,0,0,0,687.533,549.755Z" transform="translate(-67.843 -19.467)" fill="#2d5f4f" stroke="rgba(0,0,0,0)" stroke-width="1"/>
    <path id="Path_82489" data-name="Path 82489" d="M682.61,563.919a.774.774,0,0,0,.985-.477l.564-1.623a.774.774,0,1,0-1.461-.508l-.564,1.623A.774.774,0,0,0,682.61,563.919Z" transform="translate(-64.838 -28.111)" fill="#2d5f4f" stroke="rgba(0,0,0,0)" stroke-width="1"/>
    <path id="Path_82490" data-name="Path 82490" d="M633.033,535.113a.773.773,0,1,0,1.461-.508l-.564-1.623a.774.774,0,1,0-1.461.508Z" transform="translate(-34.527 -10.821)" fill="#2d5f4f" stroke="rgba(0,0,0,0)" stroke-width="1"/>
    <path id="Path_82491" data-name="Path 82491" d="M637.391,547.655l.564,1.623a.774.774,0,0,0,1.461-.508l-.564-1.623a.774.774,0,0,0-1.461.508Z" transform="translate(-37.531 -19.467)" fill="#2d5f4f" stroke="rgba(0,0,0,0)" stroke-width="1"/>
    <path id="Path_82492" data-name="Path 82492" d="M642.313,561.819l.564,1.623a.774.774,0,0,0,1.461-.508l-.564-1.623a.774.774,0,1,0-1.461.508Z" transform="translate(-40.535 -28.111)" fill="#2d5f4f" stroke="rgba(0,0,0,0)" stroke-width="1"/>
    <path id="Path_82493" data-name="Path 82493" d="M647.235,575.983l.564,1.623a.774.774,0,0,0,1.461-.508l-.564-1.623a.773.773,0,1,0-1.461.508Z" transform="translate(-43.54 -36.756)" fill="#2d5f4f" stroke="rgba(0,0,0,0)" stroke-width="1"/>
  </g>
</svg>
