<svg xmlns="http://www.w3.org/2000/svg" width="323" height="74.616" viewBox="0 0 323 74.616">
  <g id="Group_41420" data-name="Group 41420" transform="translate(1926 -3638.426)">
    <path id="Path_82702" data-name="Path 82702" d="M479.882-150.5a7.65,7.65,0,0,1-2.316,5.588,7.746,7.746,0,0,1-5.659,2.316,7.66,7.66,0,0,1-5.589-2.316,7.694,7.694,0,0,1-2.38-5.588v-17.815h-7.164V-150.5a17.405,17.405,0,0,0,.988,5.894,14.561,14.561,0,0,0,2.816,4.787,13.2,13.2,0,0,0,4.363,3.215,13.6,13.6,0,0,0,5.639,1.183,12.5,12.5,0,0,0,4.855-.927,15.264,15.264,0,0,0,3.9-2.4l.552-.472v2.873h7.164v-31.97h-7.164Z" transform="translate(-2382.773 3819.796)" fill="#215c50"/>
    <path id="Path_82703" data-name="Path 82703" d="M555.056-165.6a13.178,13.178,0,0,0-4.369-3.251,13.491,13.491,0,0,0-5.668-1.172,12.27,12.27,0,0,0-4.827.917,15.142,15.142,0,0,0-3.9,2.4l-.552.472v-2.875h-7.164v31.972h7.164v-17.746a7.729,7.729,0,0,1,2.323-5.654,7.7,7.7,0,0,1,5.647-2.318,7.679,7.679,0,0,1,5.609,2.329,7.478,7.478,0,0,1,2.366,5.643v17.746h7.163v-17.746a17.407,17.407,0,0,0-.994-5.892,14.915,14.915,0,0,0-2.8-4.82" transform="translate(-2416.331 3820.595)" fill="#215c50"/>
    <rect id="Rectangle_6986" data-name="Rectangle 6986" width="7.163" height="31.97" transform="translate(-1849.504 3651.485)" fill="#215c50"/>
    <path id="Path_82704" data-name="Path 82704" d="M638.338-191.672a15.216,15.216,0,0,0-4.979,3.32,15.159,15.159,0,0,0-3.323,4.955,16.277,16.277,0,0,0-1.212,5.861V-147.8h7.164v-22.258h6.5l-1.786-7.164h-4.709v-.334a7.506,7.506,0,0,1,.681-3.176,8.677,8.677,0,0,1,1.8-2.55,8.745,8.745,0,0,1,2.576-1.727,7.675,7.675,0,0,1,2.3-.607l.537-.054v-7.159l-.631.035a15.48,15.48,0,0,0-4.915,1.122" transform="translate(-2463.18 3831.255)" fill="#215c50"/>
    <path id="Path_82705" data-name="Path 82705" d="M693.475-165.087a17.234,17.234,0,0,0-5.377-3.62,17.361,17.361,0,0,0-13.189,0,16.912,16.912,0,0,0-5.377,3.617,16.915,16.915,0,0,0-3.615,5.376,16.558,16.558,0,0,0-1.314,6.593,16.358,16.358,0,0,0,1.314,6.525,16.88,16.88,0,0,0,3.615,5.381,16.96,16.96,0,0,0,5.377,3.618,17.053,17.053,0,0,0,6.627,1.31,16.953,16.953,0,0,0,7.069-1.506,16.1,16.1,0,0,0,4.637-3.187l.638-.638-7.584-3.034-.24.127a10.207,10.207,0,0,1-8.273.358,9.525,9.525,0,0,1-3.194-2.136,8.459,8.459,0,0,1-1.945-2.768l-.2-.469h25.583l.087-.487a16.188,16.188,0,0,0,.292-3.095,16.574,16.574,0,0,0-1.322-6.589,16.893,16.893,0,0,0-3.608-5.379M672.442-156.7l.2-.468A9.452,9.452,0,0,1,674.59-160a9.775,9.775,0,0,1,6.909-2.847,9.429,9.429,0,0,1,6.9,2.834,9.324,9.324,0,0,1,1.96,2.848l.2.468Z" transform="translate(-2479.901 3820.588)" fill="#215c50"/>
    <path id="Path_82706" data-name="Path 82706" d="M754.192-169.2a16.561,16.561,0,0,0-4.065,2.432l-.542.449v-2.921h-7.164v32.036h7.164v-16.051a9.716,9.716,0,0,1,2.821-6.881,9.444,9.444,0,0,1,6.032-2.82l.544-.043v-7.163l-.631.037a12.659,12.659,0,0,0-4.159.925" transform="translate(-2516.269 3820.662)" fill="#215c50"/>
    <path id="Path_82707" data-name="Path 82707" d="M801.976-150.923h-4.956a3.061,3.061,0,0,1-2.264-.947,3.185,3.185,0,0,1-.945-2.327v-10.45h6.431l-1.787-7.164h-4.644v-12.375l-7.164,1.792v28.2a10.157,10.157,0,0,0,.821,4.047,10.975,10.975,0,0,0,2.219,3.323,10.138,10.138,0,0,0,3.281,2.244,10.147,10.147,0,0,0,4.05.823h6.748Z" transform="translate(-2536.938 3827.215)" fill="#215c50"/>
    <path id="Path_82708" data-name="Path 82708" d="M607.613-93.815a4.088,4.088,0,0,1-4.087,4.087,4.087,4.087,0,0,1-4.088-4.087,4.087,4.087,0,0,1,4.088-4.088,4.088,4.088,0,0,1,4.087,4.088" transform="translate(-2449.447 3786.891)" fill="#76bd87"/>
    <path id="Path_82709" data-name="Path 82709" d="M832.01-167.794h6.01v31.717h-6.01Zm21.435,31.717V-155.24a7.269,7.269,0,0,0-2.17-5.575,7.643,7.643,0,0,0-5.442-2.037,8.17,8.17,0,0,0-3.939.936,7.523,7.523,0,0,0-2.8,2.6,7.274,7.274,0,0,0-1.068,4.006l-2.471-1.2a12.165,12.165,0,0,1,1.57-6.276,11.079,11.079,0,0,1,4.307-4.174,12.567,12.567,0,0,1,6.142-1.5,12.434,12.434,0,0,1,6.043,1.469,10.9,10.9,0,0,1,4.274,4.139,12.3,12.3,0,0,1,1.57,6.342v20.433Zm21.433,0V-155.24a7.271,7.271,0,0,0-2.17-5.575,7.554,7.554,0,0,0-5.376-2.037,8.364,8.364,0,0,0-3.973.936,7.435,7.435,0,0,0-2.836,2.6,7.259,7.259,0,0,0-1.068,4.006l-3.406-1.2a12.3,12.3,0,0,1,1.971-6.309,12.565,12.565,0,0,1,4.572-4.141,12.818,12.818,0,0,1,6.143-1.5,12.927,12.927,0,0,1,6.211,1.469,11.34,11.34,0,0,1,4.374,4.139,12.056,12.056,0,0,1,1.635,6.409v20.367Z" transform="translate(-2558.138 3819.866)" fill="#76bd87"/>
    <rect id="Rectangle_6987" data-name="Rectangle 6987" width="6.008" height="26.073" transform="translate(-1668.97 3657.717)" fill="#76bd87"/>
    <rect id="Rectangle_6988" data-name="Rectangle 6988" width="6.008" height="3.438" transform="translate(-1668.97 3651.812)" fill="#76bd87"/>
    <path id="Path_82710" data-name="Path 82710" d="M974.893-135.41a17.66,17.66,0,0,1-5.042-.7,16.67,16.67,0,0,1-4.373-2,15.025,15.025,0,0,1-3.473-3.106l3.873-3.873a11.045,11.045,0,0,0,4.006,3.174,12.091,12.091,0,0,0,5.076,1.035,8.142,8.142,0,0,0,4.34-.971,3.031,3.031,0,0,0,1.533-2.7,3.236,3.236,0,0,0-1.234-2.7,10.366,10.366,0,0,0-3.173-1.6c-1.289-.425-2.659-.843-4.106-1.269a22.915,22.915,0,0,1-4.105-1.633,8.8,8.8,0,0,1-3.172-2.738,7.8,7.8,0,0,1-1.235-4.608,8.779,8.779,0,0,1,1.4-4.977,9.093,9.093,0,0,1,3.906-3.239,14.636,14.636,0,0,1,6.043-1.133,16.059,16.059,0,0,1,6.643,1.3,11.6,11.6,0,0,1,4.774,3.906L982.7-159.38a8.961,8.961,0,0,0-3.305-2.672,10.241,10.241,0,0,0-4.438-.936,7.229,7.229,0,0,0-3.975.9,2.836,2.836,0,0,0-1.369,2.5,2.867,2.867,0,0,0,1.2,2.471,10.79,10.79,0,0,0,3.17,1.469q1.971.6,4.108,1.236a20.412,20.412,0,0,1,4.072,1.7,9.132,9.132,0,0,1,3.172,2.871,8.232,8.232,0,0,1,1.234,4.739,8.677,8.677,0,0,1-3.17,7.079,13.023,13.023,0,0,1-8.514,2.6" transform="translate(-2618.89 3819.866)" fill="#76bd87"/>
    <path id="Path_82711" data-name="Path 82711" d="M1020.8-167.795h6.01v31.717h-6.01Zm6.01,13.622-2.269-1q0-6.073,2.8-9.682a9.628,9.628,0,0,1,8.08-3.606,10.884,10.884,0,0,1,4.341.836,10.118,10.118,0,0,1,3.606,2.77l-3.94,4.074a5.99,5.99,0,0,0-2.2-1.535,7.7,7.7,0,0,0-2.8-.469,7.412,7.412,0,0,0-5.475,2.137q-2.137,2.139-2.137,6.477" transform="translate(-2646.366 3819.867)" fill="#76bd87"/>
    <path id="Path_82712" data-name="Path 82712" d="M654.454-85.814h1.559v7h-1.559Zm1.192,4.455v-1.209h1.507a1.173,1.173,0,0,0,.528-.12.951.951,0,0,0,.377-.347,1.078,1.078,0,0,0,.138-.556,1.052,1.052,0,0,0-.138-.547.925.925,0,0,0-.377-.347,1.174,1.174,0,0,0-.528-.12h-1.507v-1.211h1.734a2.667,2.667,0,0,1,1.2.268,2.071,2.071,0,0,1,.849.769,2.192,2.192,0,0,1,.314,1.187,2.188,2.188,0,0,1-.314,1.185,2.111,2.111,0,0,1-.849.775,2.627,2.627,0,0,1-1.2.271Z" transform="translate(-2475.158 3781.242)" fill="#333132"/>
    <path id="Path_82713" data-name="Path 82713" d="M670.489-78.793a3.752,3.752,0,0,1-1.463-.279,3.654,3.654,0,0,1-1.177-.773A3.511,3.511,0,0,1,667.064-81a3.668,3.668,0,0,1-.277-1.423,3.681,3.681,0,0,1,.277-1.43A3.576,3.576,0,0,1,667.839-85a3.552,3.552,0,0,1,1.167-.764,3.859,3.859,0,0,1,1.463-.273,3.841,3.841,0,0,1,1.452.273,3.632,3.632,0,0,1,1.172.764,3.507,3.507,0,0,1,.779,1.15,3.67,3.67,0,0,1,.277,1.436,3.636,3.636,0,0,1-.277,1.423,3.515,3.515,0,0,1-.775,1.149,3.57,3.57,0,0,1-1.164.77,3.707,3.707,0,0,1-1.443.279m-.02-1.419a2.141,2.141,0,0,0,1.1-.277,1.9,1.9,0,0,0,.729-.779,2.509,2.509,0,0,0,.258-1.157,2.571,2.571,0,0,0-.149-.9,2.011,2.011,0,0,0-.428-.694,1.827,1.827,0,0,0-.659-.447,2.276,2.276,0,0,0-.847-.153,2.143,2.143,0,0,0-1.1.273,1.849,1.849,0,0,0-.727.764,2.433,2.433,0,0,0-.261,1.155,2.592,2.592,0,0,0,.15.9,2.017,2.017,0,0,0,.423.7,1.839,1.839,0,0,0,.659.452,2.235,2.235,0,0,0,.854.159" transform="translate(-2480.922 3781.345)" fill="#333132"/>
    <path id="Path_82714" data-name="Path 82714" d="M684.59-78.81l-2.251-7h1.546l1.648,5.388h-.605l1.607-5.388h1.22l1.607,5.388h-.594l1.635-5.388h1.539l-2.251,7h-1.22L686.852-84.2h.576L685.81-78.81Z" transform="translate(-2488.19 3781.241)" fill="#333132"/>
    <path id="Path_82715" data-name="Path 82715" d="M703.249-85.814h1.56v7h-1.56Zm1.192,0h3.79v1.342h-3.79Zm0,2.779h3.493v1.3h-3.493Zm0,2.875h3.838v1.349h-3.838Z" transform="translate(-2497.962 3781.242)" fill="#333132"/>
    <path id="Path_82716" data-name="Path 82716" d="M716.01-85.814h1.56v7h-1.56ZM717.2-81.7v-1.152h1.478a1,1,0,0,0,.717-.238.842.842,0,0,0,.255-.646.843.843,0,0,0-.249-.624.96.96,0,0,0-.713-.249H717.2v-1.21h1.666a2.7,2.7,0,0,1,1.221.264,2.039,2.039,0,0,1,.823.729,1.952,1.952,0,0,1,.3,1.071,1.951,1.951,0,0,1-.3,1.078,2.018,2.018,0,0,1-.834.72,2.886,2.886,0,0,1-1.261.258Zm2.619,2.886-2.183-3.017,1.43-.386,2.6,3.4Z" transform="translate(-2503.926 3781.242)" fill="#333132"/>
    <path id="Path_82717" data-name="Path 82717" d="M729.2-85.814h1.56v7H729.2Zm1.191,0h3.79v1.342h-3.79Zm0,2.779h3.493v1.3h-3.493Zm0,2.875h3.838v1.349h-3.838Z" transform="translate(-2510.089 3781.242)" fill="#333132"/>
    <path id="Path_82718" data-name="Path 82718" d="M741.955-85.814h1.559v7h-1.559Zm1.052,7v-1.369h1.734a2.322,2.322,0,0,0,1.113-.253,1.736,1.736,0,0,0,.733-.738,2.415,2.415,0,0,0,.258-1.151,2.293,2.293,0,0,0-.264-1.14,1.808,1.808,0,0,0-.733-.735,2.25,2.25,0,0,0-1.107-.258h-1.784v-1.36h1.8a4.074,4.074,0,0,1,1.464.255,3.447,3.447,0,0,1,1.171.723,3.251,3.251,0,0,1,.774,1.111,3.583,3.583,0,0,1,.273,1.415,3.584,3.584,0,0,1-.273,1.406,3.233,3.233,0,0,1-.768,1.113,3.525,3.525,0,0,1-1.167.723,4.024,4.024,0,0,1-1.454.258Z" transform="translate(-2516.052 3781.242)" fill="#333132"/>
    <path id="Path_82719" data-name="Path 82719" d="M762.143-85.814h1.539v7h-1.539Zm1.192,7v-1.21h1.648a.935.935,0,0,0,.712-.268.9.9,0,0,0,.258-.655.936.936,0,0,0-.12-.476.859.859,0,0,0-.33-.329,1.055,1.055,0,0,0-.521-.118h-1.648v-1.181h1.517a.961.961,0,0,0,.625-.192.721.721,0,0,0,.238-.592.7.7,0,0,0-.238-.58.958.958,0,0,0-.625-.194h-1.517v-1.21h1.814a2.414,2.414,0,0,1,1.146.249,1.774,1.774,0,0,1,.719.664,1.769,1.769,0,0,1,.249.923,1.535,1.535,0,0,1-.417,1.09,2.266,2.266,0,0,1-1.231.616l.041-.526a2.408,2.408,0,0,1,1.364.684,1.788,1.788,0,0,1,.482,1.268,1.936,1.936,0,0,1-.284,1.039,1.946,1.946,0,0,1-.812.727,2.8,2.8,0,0,1-1.275.27Z" transform="translate(-2525.486 3781.242)" fill="#333132"/>
    <path id="Path_82720" data-name="Path 82720" d="M776.54-81.419l-2.7-4.4h1.805l2.074,3.552H776.56l2.074-3.552H780.4l-2.718,4.4Zm-.188-.714h1.559v3.323h-1.559Z" transform="translate(-2530.954 3781.242)" fill="#333132"/>
    <g id="Group_41416" data-name="Group 41416" transform="translate(-1744.434 3691.784)">
      <path id="Path_82724" data-name="Path 82724" d="M811.376-85.524V-89.28s-.759-2.177-4.189-3.1-9.188.543-9.354,3.426c0,0-.541,2.448.218,3.81s1.824,2.664,6.46,4.949,3.821,4.406,3.821,4.9-.378,2.447-4.024,2.447-5.332-2.991-5.712-5.711h-.953v4.08s.79,2.718,5.961,3.048,7.887-1.469,8.373-3.971.164-4.97-3.1-6.619-7.671-3.88-7.614-6.439,2.662-2.721,3.914-2.774,4.822.941,5.165,5.713Z" transform="translate(-797.642 92.654)" fill="#333132" fill-rule="evenodd"/>
      <path id="Path_82725" data-name="Path 82725" d="M835.553-81.011H832.18a3.263,3.263,0,0,0-3.483,1.96v2.012h1.742a3.2,3.2,0,0,1,3.155-2.722c2.2-.122,2.694,2.694,2.694,2.694v2.161c-8.24-.324-8.57,3.266-8.57,3.266v1.918c.163,2.9,3.183,3.509,3.183,3.509H834a5.852,5.852,0,0,0,2.585-1.632c.382.163,1.139,1.412,1.139,1.412h2.452V-75.9a5.052,5.052,0,0,0-4.624-5.114m.735,11.614a2.84,2.84,0,0,1-2.654,1.715c-2.158.161-1.836-2.177-1.8-2.966s.245-2.941,4.451-2.966Z" transform="translate(-811.698 87.214)" fill="#333132" fill-rule="evenodd"/>
      <path id="Path_82726" data-name="Path 82726" d="M950.762-81.011h-3.37a3.26,3.26,0,0,0-3.481,1.96v2.012h1.737a3.209,3.209,0,0,1,3.157-2.722c2.206-.122,2.692,2.694,2.692,2.694v2.161c-8.242-.324-8.561,3.266-8.561,3.266v1.918c.159,2.9,3.177,3.509,3.177,3.509h3.1a5.845,5.845,0,0,0,2.583-1.632c.378.163,1.143,1.412,1.143,1.412h2.445V-75.9a5.048,5.048,0,0,0-4.622-5.114M951.5-69.4a2.827,2.827,0,0,1-2.648,1.715c-2.166.161-1.838-2.177-1.8-2.966s.245-2.941,4.444-2.966Z" transform="translate(-865.545 87.214)" fill="#333132" fill-rule="evenodd"/>
      <path id="Path_82727" data-name="Path 82727" d="M852.224-80.805v.9s2.315-.246,2.369,1.932v11.339h3.832V-77.621s-.375-.765,0-1.147,3.755-2.745,4.787,1.335v10.8h3.84V-76.97a2.907,2.907,0,0,0-.466-1.387c-.382-.411,4.052-3.4,4.981,1.116v10.606h3.941V-76.48a4.725,4.725,0,0,0-4.652-4.652c-3.725-.217-4.948,1.608-4.948,1.608s-.9-1.751-4.136-1.627-3.806,1.435-3.806,1.435a3.493,3.493,0,0,0-2.206-1.2Z" transform="translate(-823.151 87.281)" fill="#333132" fill-rule="evenodd"/>
      <path id="Path_82728" data-name="Path 82728" d="M907.422-71.911c-3.3,1.958-3.548-1.143-3.548-1.143V-83.5h3.305v-1.147h-3.305v-4.635h-2.531L900-87.172v2.529h-1.862V-83.5H900v10.156c.691,3.957,6.445,4,7.872,2.528s-.448-1.1-.448-1.1" transform="translate(-844.607 91.077)" fill="#333132" fill-rule="evenodd"/>
      <path id="Path_82729" data-name="Path 82729" d="M920.679-66.6h3.876V-78.035a2.175,2.175,0,0,1,2.369-1.347c1.878.162,1.715.65,1.715.65s.609.7,1.587-.079-.161-1.593-.894-1.958-3.673-.695-5.268.772h-.4a3.784,3.784,0,0,0-1.139-.814h-4.573V-80h1.223a1.7,1.7,0,0,1,1.471,1.839Z" transform="translate(-853.866 87.245)" fill="#333132" fill-rule="evenodd"/>
      <path id="Path_82730" data-name="Path 82730" d="M980.931-91.3h-4.408v.9c2.7-.206,2.328,1.713,2.328,1.713v3.628c-1.832-2.04-9.955-1.262-9.668,6.634s5.425,7.4,7.34,7.4a2.615,2.615,0,0,0,2.489-1.63h.408l1.021,1.276h2.489V-88.891a2.486,2.486,0,0,0-2-2.4m-2,16.929a2.925,2.925,0,0,1-2.688,1.96c-2.128.08-3.106-2.241-2.986-6.4s1.308-7.141,5.674-4.979Z" transform="translate(-877.808 92.019)" fill="#333132" fill-rule="evenodd"/>
      <path id="Path_82731" data-name="Path 82731" d="M1011.707-73.108V-75.84s-.249-5.124-6.524-5.172-6.654,5.1-6.612,7.4c0,0-.9,6.844,6.57,7.408a5.86,5.86,0,0,0,6.038-2.906l-1.1-.854s-.856,2.327-4.239,2.446-3.47-4.609-3.388-5.588Zm-6.668-6.73a2.991,2.991,0,0,1,2.507,2.731v2.571h-5.018c-.207-1.022.161-5.631,2.511-5.3" transform="translate(-891.529 87.213)" fill="#333132" fill-rule="evenodd"/>
    </g>
  </g>
</svg>
