<svg xmlns="http://www.w3.org/2000/svg" width="66.216" height="79.895" viewBox="0 0 66.216 79.895">
  <g id="Group_41357" data-name="Group 41357" transform="translate(-5.25 0)">
    <path id="Path_82570" data-name="Path 82570" d="M-5606.854,8686.479s.96,16.587-.813,28.506-7.651,22.913-7.651,22.913a68.336,68.336,0,0,1-17.424,18.225c-10.85,7.484-24.609,7.967-24.609,7.967a65.935,65.935,0,0,1-1.612-23.877,52.223,52.223,0,0,1,7.952-21.714c3.711-5.7,5.218-8.874,16.084-16.912S-5606.854,8686.479-5606.854,8686.479Z" transform="translate(5676.836 -8685.336)" fill="#eaefed"/>
    <g id="Group_41244" data-name="Group 41244" transform="translate(-758.54 -1542.025)">
      <g id="Group_41243" data-name="Group 41243" transform="translate(764.541 1547.599)">
        <path id="Path_2097" data-name="Path 2097" d="M-372.642,350.382h29.921v-.506a17.221,17.221,0,0,0-9.59-15.437,17.162,17.162,0,0,0-4.378-1.46,16.7,16.7,0,0,0-3.237-.31h-9.478a16.7,16.7,0,0,0-3.237.31,16.884,16.884,0,0,0-4.379,1.468,17.215,17.215,0,0,0-9.59,15.429v.506h9.59v-5.048h4.379" transform="translate(386.612 -303.586)" fill="#eaefed" stroke="#2d5f4f" stroke-linecap="round" stroke-linejoin="round" stroke-width="1.5"/>
        <path id="Path_2095" data-name="Path 2095" d="M-373.368,305.129c.848-4.721,5.538-8.329,11.207-8.329s10.358,3.607,11.207,8.329v.008" transform="translate(384.107 -296.8)" fill="#eaefed" stroke="#2d5f4f" stroke-linecap="round" stroke-linejoin="round" stroke-width="1.5"/>
        <path id="Path_2096" data-name="Path 2096" d="M-352.95,311.133c3.684-.515,6.036-1.3,6.036-2.172,0-.816-2.026-1.554-5.272-2.06v-.009a75.167,75.167,0,0,0-11.2-.747,75.186,75.186,0,0,0-11.2.747v.009c-3.245.506-5.271,1.245-5.271,2.06,0,.876,2.352,1.657,6.036,2.172" transform="translate(385.336 -298.568)" fill="#eaefed" stroke="#2d5f4f" stroke-linecap="round" stroke-linejoin="round" stroke-width="1.5"/>
        <path id="Path_2093" data-name="Path 2093" d="M-353.13,310.214a1.589,1.589,0,0,1,1.589,1.589v5.774a10.648,10.648,0,0,1-10.442,10.848,10.647,10.647,0,0,1-10.441-10.848V311.8a1.589,1.589,0,0,1,1.588-1.589Z" transform="translate(383.928 -299.338)" fill="#eaefed" stroke="#2d5f4f" stroke-linecap="round" stroke-linejoin="round" stroke-width="1.5"/>
        <path id="Path_2098" data-name="Path 2098" d="M-374.784,334.862V350.8h4.379" transform="translate(384.374 -304.001)" fill="#eaefed" stroke="#2d5f4f" stroke-linecap="round" stroke-linejoin="round" stroke-width="1.5"/>
        <line id="Line_107" data-name="Line 107" y1="12.355" transform="translate(13.969 29.394)" fill="none" stroke="#2d5f4f" stroke-linecap="round" stroke-linejoin="round" stroke-width="1.5"/>
        <path id="Path_2099" data-name="Path 2099" d="M-345.33,334.852V350.8h-4.379" transform="translate(379.631 -303.999)" fill="#eaefed" stroke="#2d5f4f" stroke-linecap="round" stroke-linejoin="round" stroke-width="1.5"/>
        <line id="Line_108" data-name="Line 108" y1="12.355" transform="translate(29.922 29.394)" fill="none" stroke="#2d5f4f" stroke-linecap="round" stroke-linejoin="round" stroke-width="1.5"/>
        <path id="Path_2100" data-name="Path 2100" d="M-350.074,348.289h-24.71" transform="translate(384.374 -306.541)" fill="#eaefed" stroke="#2d5f4f" stroke-linecap="round" stroke-linejoin="round" stroke-width="1.5"/>
        <path id="Path_2101" data-name="Path 2101" d="M-368.4,315.291s-1.027,7.823,4.387,9.286" transform="translate(383.181 -300.298)" fill="#eaefed" stroke="#2d5f4f" stroke-linecap="round" stroke-linejoin="round" stroke-width="1.5"/>
        <path id="Path_2094" data-name="Path 2094" d="M-368.377,332.882a8.155,8.155,0,0,0,7.16,3.867,8.156,8.156,0,0,0,7.16-3.867" transform="translate(383.162 -302.856)" fill="#eaefed" stroke="#2d5f4f" stroke-linecap="round" stroke-linejoin="round" stroke-width="1.5"/>
      </g>
      <path id="Subtraction_3" data-name="Subtraction 3" d="M2.893,79.895h0l-.206-.528a31.549,31.549,0,0,1-.992-3.243,54.46,54.46,0,0,1-1.465-8.6,56.646,56.646,0,0,1-.053-9.552l1.37,1A55.362,55.362,0,0,0,1.661,67.4,48.867,48.867,0,0,0,3.837,78.309a70.518,70.518,0,0,0,12.209-2.884A56.022,56.022,0,0,0,26.486,70.7a49.6,49.6,0,0,0,8.338-6.141A49.679,49.679,0,0,0,41.3,57.342a59.733,59.733,0,0,0,8.978-18.508,85.054,85.054,0,0,0,3.2-18.27,102.236,102.236,0,0,0,0-13.943c-.147-2.094-.328-3.681-.455-4.643A125,125,0,0,0,35.279,10.4c-1,.583-2,1.187-2.963,1.8l-1.251-.909c1.142-.729,2.316-1.444,3.491-2.128A127.473,127.473,0,0,1,53.349.312L54.172,0l.142.869,0,.01c.059.373.366,2.4.592,5.642a103.55,103.55,0,0,1,0,14.144,86.44,86.44,0,0,1-3.253,18.579,61.163,61.163,0,0,1-9.2,18.951,51.139,51.139,0,0,1-6.664,7.422,51.169,51.169,0,0,1-8.58,6.32,57.412,57.412,0,0,1-10.709,4.851A72.292,72.292,0,0,1,3.456,79.817l-.563.078Z" transform="translate(774.856 1542.025)" fill="#2d5f4f"/>
    </g>
  </g>
</svg>
