<svg xmlns="http://www.w3.org/2000/svg" width="70.194" height="77.031" viewBox="0 0 70.194 77.031">
  <g id="Group_1211" data-name="Group 1211" transform="translate(94.154 96.936)">
    <g id="Group_104" data-name="Group 104" transform="translate(-93.386 -96.186)">
      <path id="Path_1972" data-name="Path 1972" d="M-74.617-35.164l-9.059,5.174-7.115-7.628a9.658,9.658,0,0,1-2.485-8.034L-91.356-58.3l23.415,3.554L-69.861-42.1A9.654,9.654,0,0,1-74.617-35.164Z" transform="translate(93.386 105.521)" fill="none" stroke="#2d5f4f" stroke-linecap="round" stroke-linejoin="round" stroke-width="1.5"/>
      <path id="Path_1973" data-name="Path 1973" d="M-69.355-86.2l-7.457,3.355-6.125-5.417,1.2-7.923,13.582,2.061Z" transform="translate(95.96 96.186)" fill="none" stroke="#2d5f4f" stroke-linecap="round" stroke-linejoin="round" stroke-width="1.5"/>
      <line id="Line_26" data-name="Line 26" y1="37.15" x2="5.639" transform="translate(11.406 11.488)" fill="none" stroke="#2d5f4f" stroke-linecap="round" stroke-linejoin="round" stroke-width="1.5"/>
      <line id="Line_27" data-name="Line 27" y1="37.161" x2="5.64" transform="translate(16.077 12.186)" fill="none" stroke="#2d5f4f" stroke-linecap="round" stroke-linejoin="round" stroke-width="1.5"/>
      <path id="Path_1974" data-name="Path 1974" d="M-88.817-55.128l-1.207,7.479s-.543,4.222,2.11,5.67" transform="translate(94.203 106.304)" fill="none" stroke="#2d5f4f" stroke-linecap="round" stroke-linejoin="round" stroke-width="1.5"/>
    </g>
    <g id="Group_106" data-name="Group 106" transform="translate(-58.49 -96.148)">
      <path id="Path_1975" data-name="Path 1975" d="M-50.383-88.287l-5.905,5.656-7.584-3.056-1.516-7.869,13.489-2.6Z" transform="translate(65.389 96.156)" fill="none" stroke="#2d5f4f" stroke-linecap="round" stroke-linejoin="round" stroke-width="1.5"/>
      <line id="Line_28" data-name="Line 28" x1="9.487" y1="49.226" transform="translate(6.498 12.485)" fill="none" stroke="#2d5f4f" stroke-linecap="round" stroke-linejoin="round" stroke-width="1.5"/>
      <line id="Line_29" data-name="Line 29" x1="9.489" y1="49.237" transform="translate(11.135 11.579)" fill="none" stroke="#2d5f4f" stroke-linecap="round" stroke-linejoin="round" stroke-width="1.5"/>
      <g id="Group_105" data-name="Group 105" transform="translate(5.556 59.268)">
        <path id="Path_1976" data-name="Path 1976" d="M-32.835-38.61l-1.4-7.29a3.335,3.335,0,0,0-3.906-2.644l-20.081,3.87a3.334,3.334,0,0,0-2.644,3.905l1.406,7.292" transform="translate(60.932 48.605)" fill="none" stroke="#2d5f4f" stroke-linecap="round" stroke-linejoin="round" stroke-width="1.5"/>
        <line id="Line_30" data-name="Line 30" x2="2.036" y2="10.566" transform="translate(6.088 3.279)" fill="none" stroke="#2d5f4f" stroke-linecap="round" stroke-linejoin="round" stroke-width="1.5"/>
        <line id="Line_31" data-name="Line 31" x2="2.036" y2="10.566" transform="translate(12.745 1.996)" fill="none" stroke="#2d5f4f" stroke-linecap="round" stroke-linejoin="round" stroke-width="1.5"/>
        <line id="Line_32" data-name="Line 32" x2="2.036" y2="10.566" transform="translate(19.403 0.713)" fill="none" stroke="#2d5f4f" stroke-linecap="round" stroke-linejoin="round" stroke-width="1.5"/>
      </g>
    </g>
  </g>
</svg>
