<svg xmlns="http://www.w3.org/2000/svg" width="68.026" height="69.729" viewBox="0 0 68.026 69.729">
  <g id="Group_119" data-name="Group 119" transform="translate(193.85 96.762)">
    <g id="Group_118" data-name="Group 118" transform="translate(-193.067 -52.887)">
      <path id="Path_1997" data-name="Path 1997" d="M-193.067-32.841s31.524.093,38.822-.245,12.689-5.726,12.689-5.726l14.151-13.47c1.722-1.865.053-8.145-4.113-4.558l-9.086,6.816a17.886,17.886,0,0,1-10.732,3.577h-10.653" transform="translate(193.067 57.927)" fill="none" stroke="#326220" stroke-linecap="round" stroke-linejoin="round" stroke-width="1.5"/>
      <path id="Path_1998" data-name="Path 1998" d="M-193.067-48.843l13.569.607c7.831.084,7.663-5.727,15.148-5.3h7.683c5.357.027,6.386,6.512,4.261,6.512" transform="translate(193.067 58.505)" fill="none" stroke="#326220" stroke-linecap="round" stroke-linejoin="round" stroke-width="1.5"/>
    </g>
    <path id="Path_1999" data-name="Path 1999" d="M-183.548-48.754s.879-14.683,13.466-12.525c0,0,8.2-9.923,16.246,1.826,0,0,15.575-6.317,19.277,4.911" transform="translate(1.26 4.078)" fill="none" stroke="#326220" stroke-linecap="round" stroke-linejoin="round" stroke-width="1.5"/>
    <path id="Path_2000" data-name="Path 2000" d="M-161.916-61.561s.606-16.143,6.051-24.951" transform="translate(4.122 1.257)" fill="none" stroke="#326220" stroke-linecap="round" stroke-linejoin="round" stroke-width="1.5"/>
    <path id="Path_2001" data-name="Path 2001" d="M-160.567-74.029s2.972-3.551,9.928-4.472c5.025-.665,6.932.562,10.665-.063C-139.973-78.564-149.738-61.513-160.567-74.029Z" transform="translate(4.301 2.29)" fill="none" stroke="#326220" stroke-linecap="round" stroke-linejoin="round" stroke-width="1.5"/>
    <path id="Path_2002" data-name="Path 2002" d="M-159.1-77.663s4.268-1.8,7.193-8.174c2.113-4.607,1.5-6.791,3.2-10.175C-148.707-96.012-167.874-91.691-159.1-77.663Z" transform="translate(4.191 0)" fill="none" stroke="#326220" stroke-linecap="round" stroke-linejoin="round" stroke-width="1.5"/>
    <path id="Path_2003" data-name="Path 2003" d="M-158.327-73.549s-2.155-4.1-8.76-6.468c-4.772-1.711-6.894-.914-10.411-2.313C-177.5-82.33-171.552-63.6-158.327-73.549Z" transform="translate(2.06 1.811)" fill="none" stroke="#326220" stroke-linecap="round" stroke-linejoin="round" stroke-width="1.5"/>
    <path id="Path_2004" data-name="Path 2004" d="M-160.567-74.57s5.08,1,8.3-.043" transform="translate(4.301 2.832)" fill="none" stroke="#326220" stroke-linecap="round" stroke-linejoin="round" stroke-width="1.5"/>
    <path id="Path_2005" data-name="Path 2005" d="M-159.621-74.311s-5.385.231-8.093-2.257" transform="translate(3.355 2.573)" fill="none" stroke="#326220" stroke-linecap="round" stroke-linejoin="round" stroke-width="1.5"/>
  </g>
</svg>
