<svg xmlns="http://www.w3.org/2000/svg" width="69.82" height="74.344" viewBox="0 0 69.82 74.344">
  <g id="Group_36769" data-name="Group 36769" transform="translate(387.362 -296.05)">
    <path id="Path_2093" data-name="Path 2093" d="M-342.392,310.214a2.474,2.474,0,0,1,2.474,2.474v8.988c0,9.33-7.274,16.886-16.254,16.886s-16.252-7.556-16.252-16.886v-8.988a2.473,2.473,0,0,1,2.473-2.474Z" transform="translate(3.719 3.516)" fill="none" stroke="#326220" stroke-linecap="round" stroke-linejoin="round" stroke-width="1.5"/>
    <path id="Path_2094" data-name="Path 2094" d="M-368.377,332.882a12.372,12.372,0,0,0,11.146,7.217,12.374,12.374,0,0,0,11.146-7.217" transform="translate(4.78 9.458)" fill="none" stroke="#326220" stroke-linecap="round" stroke-linejoin="round" stroke-width="1.5"/>
    <path id="Path_2095" data-name="Path 2095" d="M-373.368,309.764c1.32-7.349,8.62-12.964,17.445-12.964s16.124,5.615,17.445,12.964v.013" transform="translate(3.472)" fill="none" stroke="#326220" stroke-linecap="round" stroke-linejoin="round" stroke-width="1.5"/>
    <path id="Path_2096" data-name="Path 2096" d="M-337.969,313.91c5.734-.8,9.4-2.018,9.4-3.381,0-1.27-3.154-2.42-8.206-3.207v-.014a117,117,0,0,0-17.44-1.163,117.032,117.032,0,0,0-17.441,1.163v.014c-5.051.788-8.205,1.937-8.205,3.207,0,1.363,3.661,2.58,9.4,3.381" transform="translate(1.768 2.45)" fill="none" stroke="#326220" stroke-linecap="round" stroke-linejoin="round" stroke-width="1.5"/>
    <path id="Path_2097" data-name="Path 2097" d="M-364.867,360.241h46.575v-.788a26.806,26.806,0,0,0-14.928-24.03,26.714,26.714,0,0,0-6.815-2.272,26,26,0,0,0-5.038-.482h-14.754a25.988,25.988,0,0,0-5.038.482,26.28,26.28,0,0,0-6.817,2.284,26.8,26.8,0,0,0-14.928,24.017v.788h14.928v-7.858h6.817" transform="translate(0 9.402)" fill="none" stroke="#326220" stroke-linecap="round" stroke-linejoin="round" stroke-width="1.5"/>
    <path id="Path_2098" data-name="Path 2098" d="M-374.784,334.862v24.8h6.816" transform="translate(3.1 9.977)" fill="none" stroke="#326220" stroke-linecap="round" stroke-linejoin="round" stroke-width="1.5"/>
    <line id="Line_107" data-name="Line 107" y1="19.232" transform="translate(-364.867 342.554)" fill="none" stroke="#326220" stroke-linecap="round" stroke-linejoin="round" stroke-width="1.5"/>
    <path id="Path_2099" data-name="Path 2099" d="M-342.893,334.852V359.67h-6.816" transform="translate(9.673 9.974)" fill="none" stroke="#326220" stroke-linecap="round" stroke-linejoin="round" stroke-width="1.5"/>
    <line id="Line_108" data-name="Line 108" y1="19.232" transform="translate(-340.036 342.554)" fill="none" stroke="#326220" stroke-linecap="round" stroke-linejoin="round" stroke-width="1.5"/>
    <path id="Path_2101" data-name="Path 2101" d="M-368.352,315.291s-1.6,12.177,6.829,14.455" transform="translate(4.755 4.847)" fill="none" stroke="#326220" stroke-linecap="round" stroke-linejoin="round" stroke-width="1.5"/>
  </g>
</svg>
