<svg xmlns="http://www.w3.org/2000/svg" width="68.82" height="63.087" viewBox="0 0 68.82 63.087">
  <g id="Group_36767" data-name="Group 36767" transform="translate(96.393 -3.971)">
    <g id="Group_94" data-name="Group 94" transform="translate(-87.576 4.824)">
      <g id="Group_91" data-name="Group 91" transform="translate(0 22.191)">
        <path id="Path_1932" data-name="Path 1932" d="M-79.325,32.813c.968,5.1-2.76,10.086-2.76,10.086s-5.3-3.275-6.266-8.372,2.76-10.086,2.76-10.086S-80.293,27.716-79.325,32.813Z" transform="translate(88.512 -24.441)" fill="none" stroke="#326220" stroke-linecap="round" stroke-linejoin="round" stroke-width="1.5"/>
        <path id="Path_1933" data-name="Path 1933" d="M-74.453,35.243c-5.1.967-8.372,6.265-8.372,6.265s4.99,3.73,10.086,2.761S-64.367,38-64.367,38-69.356,34.274-74.453,35.243Z" transform="translate(89.258 -23.045)" fill="none" stroke="#326220" stroke-linecap="round" stroke-linejoin="round" stroke-width="1.5"/>
      </g>
      <g id="Group_92" data-name="Group 92" transform="translate(9.015 11.706)">
        <path id="Path_1934" data-name="Path 1934" d="M-72.262,22.717c.872,4.593-2.489,9.089-2.489,9.089s-4.775-2.951-5.647-7.545,2.489-9.089,2.489-9.089S-73.135,18.123-72.262,22.717Z" transform="translate(80.543 -15.172)" fill="none" stroke="#326220" stroke-linecap="round" stroke-linejoin="round" stroke-width="1.5"/>
        <path id="Path_1935" data-name="Path 1935" d="M-67.872,24.906c-4.594.873-7.545,5.647-7.545,5.647s4.5,3.361,9.091,2.489,7.545-5.647,7.545-5.647S-63.278,24.034-67.872,24.906Z" transform="translate(81.215 -13.914)" fill="none" stroke="#326220" stroke-linecap="round" stroke-linejoin="round" stroke-width="1.5"/>
      </g>
      <g id="Group_93" data-name="Group 93" transform="translate(17.292 2.305)">
        <path id="Path_1936" data-name="Path 1936" d="M-65.854,13.58c.777,4.09-2.216,8.094-2.216,8.094s-4.251-2.628-5.027-6.718,2.215-8.094,2.215-8.094S-66.631,9.49-65.854,13.58Z" transform="translate(73.226 -6.862)" fill="none" stroke="#326220" stroke-linecap="round" stroke-linejoin="round" stroke-width="1.5"/>
        <path id="Path_1937" data-name="Path 1937" d="M-61.944,15.53c-4.09.776-6.718,5.028-6.718,5.028s4,2.992,8.094,2.215,6.718-5.028,6.718-5.028S-57.853,14.753-61.944,15.53Z" transform="translate(73.825 -5.741)" fill="none" stroke="#326220" stroke-linecap="round" stroke-linejoin="round" stroke-width="1.5"/>
      </g>
      <path id="Path_1938" data-name="Path 1938" d="M-54.755,12.361c-3.5,2.251-8.336.974-8.336.974s.847-4.926,4.35-7.176,8.336-.974,8.336-.974S-51.253,10.111-54.755,12.361Z" transform="translate(91.848 -4.824)" fill="none" stroke="#326220" stroke-linecap="round" stroke-linejoin="round" stroke-width="1.5"/>
      <path id="Path_1939" data-name="Path 1939" d="M-86.882,55.889A56.331,56.331,0,0,1-82.122,44.6c.239-.454.489-.919.74-1.372.011-.012.011-.024.024-.036,2.087-3.793,4.52-7.67,6.979-11.344.811-1.217,1.633-2.422,2.445-3.579,1.9-2.732,3.747-5.273,5.393-7.491.525-.68,1.014-1.336,1.491-1.957,3.007-3.96,5.081-6.477,5.081-6.477" transform="translate(88.726 -3.837)" fill="none" stroke="#326220" stroke-linecap="round" stroke-linejoin="round" stroke-width="1.5"/>
    </g>
    <g id="Group_98" data-name="Group 98" transform="translate(-53.13 11.775)">
      <g id="Group_95" data-name="Group 95" transform="translate(0 28.054)">
        <path id="Path_1940" data-name="Path 1940" d="M-46.964,40.371c-3.25,2.13-4,6.734-4,6.734s4.52,1.152,7.77-.979,4-6.734,4-6.734S-43.714,38.24-46.964,40.371Z" transform="translate(58.993 -35.334)" fill="none" stroke="#326220" stroke-linecap="round" stroke-linejoin="round" stroke-width="1.5"/>
        <path id="Path_1941" data-name="Path 1941" d="M-51.017,39.768c2.13,3.25.979,7.77.979,7.77s-4.6-.749-6.734-4-.979-7.77-.979-7.77S-53.147,36.518-51.017,39.768Z" transform="translate(58.062 -35.769)" fill="none" stroke="#326220" stroke-linecap="round" stroke-linejoin="round" stroke-width="1.5"/>
      </g>
      <g id="Group_96" data-name="Group 96" transform="translate(3.066 18.299)">
        <path id="Path_1942" data-name="Path 1942" d="M-45.35,31.292c-2.929,1.92-3.6,6.069-3.6,6.069s4.075,1.038,7-.881,3.6-6.069,3.6-6.069S-42.421,29.373-45.35,31.292Z" transform="translate(56.191 -26.753)" fill="none" stroke="#326220" stroke-linecap="round" stroke-linejoin="round" stroke-width="1.5"/>
        <path id="Path_1943" data-name="Path 1943" d="M-49,30.749c1.92,2.929.882,7,.882,7s-4.149-.674-6.069-3.6-.882-7-.882-7S-50.922,27.819-49,30.749Z" transform="translate(55.351 -27.145)" fill="none" stroke="#326220" stroke-linecap="round" stroke-linejoin="round" stroke-width="1.5"/>
      </g>
      <g id="Group_97" data-name="Group 97" transform="translate(5.932 9.506)">
        <path id="Path_1944" data-name="Path 1944" d="M-43.913,23.065c-2.607,1.708-3.209,5.4-3.209,5.4s3.628.923,6.236-.786,3.208-5.4,3.208-5.4S-41.3,21.356-43.913,23.065Z" transform="translate(53.566 -19.023)" fill="none" stroke="#326220" stroke-linecap="round" stroke-linejoin="round" stroke-width="1.5"/>
        <path id="Path_1945" data-name="Path 1945" d="M-47.165,22.58c1.709,2.609.786,6.236.786,6.236s-3.7-.6-5.4-3.209-.785-6.235-.785-6.235S-48.873,19.973-47.165,22.58Z" transform="translate(52.818 -19.372)" fill="none" stroke="#326220" stroke-linecap="round" stroke-linejoin="round" stroke-width="1.5"/>
      </g>
      <path id="Path_1946" data-name="Path 1946" d="M-49.28,17.046c.61,3.059,3.811,5,3.811,5s2.214-3.018,1.605-6.077-3.812-5-3.812-5S-49.889,13.988-49.28,17.046Z" transform="translate(59.2 -10.969)" fill="none" stroke="#326220" stroke-linecap="round" stroke-linejoin="round" stroke-width="1.5"/>
      <path id="Path_1947" data-name="Path 1947" d="M-53.052,55.226a53.846,53.846,0,0,0,2.195-5.75c.131-.382.25-.764.37-1.145,0-.012.011-.036.011-.049.955-3.089,1.778-6.394,2.469-9.6.239-1.074.454-2.135.656-3.161.49-2.458.895-4.784,1.229-6.836.107-.644.2-1.264.3-1.837.561-3.674.835-6.084.835-6.084" transform="translate(58.719 -9.684)" fill="none" stroke="#326220" stroke-linecap="round" stroke-linejoin="round" stroke-width="1.5"/>
    </g>
    <line id="Line_23" data-name="Line 23" x2="67.32" transform="translate(-95.643 66.304)" fill="none" stroke="#326220" stroke-linecap="round" stroke-linejoin="round" stroke-width="1.5"/>
    <path id="Path_1948" data-name="Path 1948" d="M-29.475,57.178A3.128,3.128,0,0,1-32.6,60.3H-90.98a3.129,3.129,0,0,1-3.126-3.126v-.5a3.5,3.5,0,0,1,.035-.489c.191-1.133,1.253-5.548,6.012-4.915a2.9,2.9,0,0,0,1.456-.179c1.181-.466,3.554-1.086,5.021.572a3.112,3.112,0,0,0,3.6.692c2.756-1.265,7.3-2.4,11.369.906a3.034,3.034,0,0,0,3.089.394c4.139-1.73,14.673-5.141,23.393.465a3.134,3.134,0,0,0,2.887.251c2.028-.824,5.584-1.706,7.348,1.216A3.18,3.18,0,0,1-29.475,57.178Z" transform="translate(0.202 6.005)" fill="none" stroke="#326220" stroke-linecap="round" stroke-linejoin="round" stroke-width="1.5"/>
  </g>
</svg>
