<svg xmlns="http://www.w3.org/2000/svg" width="30" height="30" viewBox="0 0 30 30">
  <g id="Group_36486" data-name="Group 36486" transform="translate(-157 -636)">
    <path id="Path_82354" data-name="Path 82354" d="M15,0A15,15,0,1,1,0,15,15,15,0,0,1,15,0Z" transform="translate(157 636)" fill="#2d5f4f"/>
    <path id="whatsapp" d="M11.427,10.469a5.3,5.3,0,0,1,1.131.51,5.026,5.026,0,0,1,1.038.615.492.492,0,0,1,.023.174,2.444,2.444,0,0,1-.2.882,1.557,1.557,0,0,1-.823.76,2.744,2.744,0,0,1-1.183.308A6.268,6.268,0,0,1,9.211,13a6.614,6.614,0,0,1-1.972-1.369A15.3,15.3,0,0,1,5.522,9.483,4.057,4.057,0,0,1,4.7,7.232V7.139a2.566,2.566,0,0,1,.858-1.833.878.878,0,0,1,.6-.255,1.833,1.833,0,0,1,.209.018,1.865,1.865,0,0,0,.22.018.477.477,0,0,1,.307.075.837.837,0,0,1,.18.319q.093.232.383,1.021a6.894,6.894,0,0,1,.29.87,1.179,1.179,0,0,1-.4.667q-.4.424-.4.539a.331.331,0,0,0,.058.174,5.231,5.231,0,0,0,1.183,1.59,7.4,7.4,0,0,0,1.752,1.171.514.514,0,0,0,.255.081q.174,0,.626-.563t.6-.563ZM9.072,16.618a7.092,7.092,0,0,0,2.825-.58,7.175,7.175,0,0,0,3.881-3.881,7.169,7.169,0,0,0,0-5.65A7.175,7.175,0,0,0,11.9,2.627a7.169,7.169,0,0,0-5.65,0A7.175,7.175,0,0,0,2.367,6.507,7.214,7.214,0,0,0,3.179,13.6l-.916,2.7,2.808-.893a7.133,7.133,0,0,0,4,1.207Zm0-16.033a8.5,8.5,0,0,1,3.393.7,8.647,8.647,0,0,1,4.658,4.658,8.619,8.619,0,0,1,0,6.786,8.647,8.647,0,0,1-4.658,4.658,8.5,8.5,0,0,1-3.393.7,8.614,8.614,0,0,1-4.235-1.091L0,18.544l1.578-4.7a8.7,8.7,0,0,1-.557-7.906A8.647,8.647,0,0,1,5.679,1.281a8.486,8.486,0,0,1,3.393-.7Z" transform="translate(163 641.415)" fill="#fff"/>
  </g>
</svg>
