<svg xmlns="http://www.w3.org/2000/svg" xmlns:xlink="http://www.w3.org/1999/xlink" width="144.374" height="62.001" viewBox="0 0 144.374 62.001">
  <defs>
    <linearGradient id="linear-gradient" y1="0.811" x2="1" y2="0.175" gradientUnits="objectBoundingBox">
      <stop offset="0" stop-color="#56926e"/>
      <stop offset="1" stop-color="#76bd87"/>
    </linearGradient>
    <linearGradient id="linear-gradient-2" x1="0.039" y1="0.936" x2="1" gradientUnits="objectBoundingBox">
      <stop offset="0" stop-color="#457767"/>
      <stop offset="1" stop-color="#75a889"/>
    </linearGradient>
  </defs>
  <g id="Group_41428" data-name="Group 41428" transform="translate(1926 -3597)">
    <path id="Path_82702" data-name="Path 82702" d="M467.1-160.35a3.419,3.419,0,0,1-1.035,2.5,3.462,3.462,0,0,1-2.53,1.035,3.424,3.424,0,0,1-2.5-1.035,3.439,3.439,0,0,1-1.064-2.5v-7.963h-3.2v7.963a7.779,7.779,0,0,0,.441,2.634,6.508,6.508,0,0,0,1.258,2.14,5.9,5.9,0,0,0,1.95,1.437,6.08,6.08,0,0,0,2.521.529,5.588,5.588,0,0,0,2.17-.414,6.823,6.823,0,0,0,1.742-1.071l.247-.211v1.284h3.2v-14.29h-3.2Z" transform="translate(-2382.773 3799.799)" fill="#215c50"/>
    <path id="Path_82703" data-name="Path 82703" d="M540.414-168.044a5.89,5.89,0,0,0-1.953-1.453,6.029,6.029,0,0,0-2.533-.524,5.485,5.485,0,0,0-2.158.41,6.768,6.768,0,0,0-1.742,1.071l-.247.211v-1.285h-3.2v14.291h3.2v-7.932a3.455,3.455,0,0,1,1.038-2.527,3.442,3.442,0,0,1,2.524-1.036,3.432,3.432,0,0,1,2.507,1.041,3.343,3.343,0,0,1,1.058,2.522v7.932h3.2v-7.932a7.779,7.779,0,0,0-.445-2.634,6.665,6.665,0,0,0-1.252-2.154" transform="translate(-2437.483 3801.101)" fill="#215c50"/>
    <rect id="Rectangle_6986" data-name="Rectangle 6986" width="3.202" height="14.29" transform="translate(-1891.808 3631.487)" fill="#215c50"/>
    <path id="Path_82704" data-name="Path 82704" d="M633.077-192.312a6.8,6.8,0,0,0-2.225,1.484,6.777,6.777,0,0,0-1.485,2.215,7.277,7.277,0,0,0-.542,2.62V-172.7h3.2v-9.949h2.9l-.8-3.2h-2.1V-186a3.354,3.354,0,0,1,.3-1.419,3.879,3.879,0,0,1,.8-1.14,3.908,3.908,0,0,1,1.151-.772,3.431,3.431,0,0,1,1.029-.271l.24-.024v-3.2l-.282.016a6.918,6.918,0,0,0-2.2.5" transform="translate(-2513.861 3818.479)" fill="#215c50"/>
    <path id="Path_82705" data-name="Path 82705" d="M677.508-167.808a7.7,7.7,0,0,0-2.4-1.618,7.76,7.76,0,0,0-5.9,0,7.56,7.56,0,0,0-2.4,1.617,7.563,7.563,0,0,0-1.616,2.4,7.4,7.4,0,0,0-.587,2.947,7.313,7.313,0,0,0,.587,2.917,7.547,7.547,0,0,0,1.616,2.405,7.581,7.581,0,0,0,2.4,1.617,7.624,7.624,0,0,0,2.962.586,7.578,7.578,0,0,0,3.16-.673,7.2,7.2,0,0,0,2.073-1.424l.285-.285-3.39-1.356-.107.057a4.562,4.562,0,0,1-3.7.16,4.257,4.257,0,0,1-1.428-.955,3.782,3.782,0,0,1-.869-1.237l-.091-.21h11.435l.039-.218a7.231,7.231,0,0,0,.131-1.383,7.407,7.407,0,0,0-.591-2.945,7.549,7.549,0,0,0-1.613-2.4m-9.4,3.749.091-.209a4.224,4.224,0,0,1,.869-1.267,4.369,4.369,0,0,1,3.088-1.273,4.214,4.214,0,0,1,3.082,1.267,4.167,4.167,0,0,1,.876,1.273l.091.209Z" transform="translate(-2541.122 3801.09)" fill="#215c50"/>
    <path id="Path_82706" data-name="Path 82706" d="M747.683-169.734a7.4,7.4,0,0,0-1.817,1.087l-.242.2v-1.306h-3.2v14.319h3.2v-7.174a4.343,4.343,0,0,1,1.261-3.076,4.221,4.221,0,0,1,2.7-1.26l.243-.019v-3.2l-.282.016a5.659,5.659,0,0,0-1.859.413" transform="translate(-2600.412 3801.21)" fill="#215c50"/>
    <path id="Path_82707" data-name="Path 82707" d="M793.5-169.318h-2.215a1.368,1.368,0,0,1-1.012-.423,1.424,1.424,0,0,1-.422-1.04v-4.671h2.874l-.8-3.2h-2.076v-5.531l-3.2.8v12.6a4.541,4.541,0,0,0,.367,1.809,4.905,4.905,0,0,0,.992,1.485,4.532,4.532,0,0,0,1.467,1,4.535,4.535,0,0,0,1.81.368H794.3Z" transform="translate(-2634.109 3811.893)" fill="#215c50"/>
    <path id="Path_82708" data-name="Path 82708" d="M603.092-96.076a1.827,1.827,0,0,1-1.827,1.827,1.827,1.827,0,0,1-1.827-1.827,1.827,1.827,0,0,1,1.827-1.827,1.827,1.827,0,0,1,1.827,1.827" transform="translate(-2491.471 3746.153)" fill="#76bd87"/>
    <path id="Path_82709" data-name="Path 82709" d="M832.01-168.162H834.7v14.177H832.01Zm9.581,14.177v-8.566a3.249,3.249,0,0,0-.97-2.492,3.416,3.416,0,0,0-2.432-.911,3.651,3.651,0,0,0-1.761.418,3.362,3.362,0,0,0-1.254,1.164,3.251,3.251,0,0,0-.478,1.791l-1.1-.538a5.438,5.438,0,0,1,.7-2.805,4.952,4.952,0,0,1,1.925-1.866,5.617,5.617,0,0,1,2.745-.67,5.558,5.558,0,0,1,2.7.657,4.873,4.873,0,0,1,1.91,1.85,5.5,5.5,0,0,1,.7,2.835v9.133Zm9.58,0v-8.566a3.25,3.25,0,0,0-.97-2.492,3.376,3.376,0,0,0-2.4-.911,3.739,3.739,0,0,0-1.776.418,3.325,3.325,0,0,0-1.268,1.164,3.244,3.244,0,0,0-.478,1.791l-1.522-.538a5.5,5.5,0,0,1,.881-2.82,5.616,5.616,0,0,1,2.044-1.851,5.729,5.729,0,0,1,2.746-.67,5.778,5.778,0,0,1,2.776.657,5.068,5.068,0,0,1,1.955,1.85,5.389,5.389,0,0,1,.731,2.865v9.1Z" transform="translate(-2668.671 3799.911)" fill="#76bd87"/>
    <rect id="Rectangle_6987" data-name="Rectangle 6987" width="2.686" height="11.654" transform="translate(-1811.113 3634.272)" fill="#76bd87"/>
    <rect id="Rectangle_6988" data-name="Rectangle 6988" width="2.686" height="1.537" transform="translate(-1811.113 3631.633)" fill="#76bd87"/>
    <path id="Path_82710" data-name="Path 82710" d="M967.766-153.688a7.9,7.9,0,0,1-2.254-.313,7.451,7.451,0,0,1-1.955-.895,6.717,6.717,0,0,1-1.552-1.388l1.731-1.731a4.937,4.937,0,0,0,1.791,1.419,5.4,5.4,0,0,0,2.269.463,3.639,3.639,0,0,0,1.94-.434,1.355,1.355,0,0,0,.685-1.208,1.446,1.446,0,0,0-.552-1.208,4.635,4.635,0,0,0-1.418-.717c-.576-.19-1.188-.377-1.835-.567a10.245,10.245,0,0,1-1.835-.73,3.933,3.933,0,0,1-1.418-1.224,3.484,3.484,0,0,1-.552-2.06,3.924,3.924,0,0,1,.626-2.224,4.065,4.065,0,0,1,1.746-1.448,6.542,6.542,0,0,1,2.7-.506,7.179,7.179,0,0,1,2.969.582,5.185,5.185,0,0,1,2.134,1.746l-1.731,1.73a4.005,4.005,0,0,0-1.477-1.194,4.577,4.577,0,0,0-1.984-.418,3.231,3.231,0,0,0-1.777.4,1.268,1.268,0,0,0-.612,1.118,1.281,1.281,0,0,0,.538,1.1,4.822,4.822,0,0,0,1.417.657q.881.269,1.836.553a9.121,9.121,0,0,1,1.82.761,4.082,4.082,0,0,1,1.418,1.283,3.679,3.679,0,0,1,.552,2.118,3.878,3.878,0,0,1-1.417,3.164,5.821,5.821,0,0,1-3.806,1.164" transform="translate(-2767.717 3799.912)" fill="#76bd87"/>
    <path id="Path_82711" data-name="Path 82711" d="M1020.8-168.164h2.687v14.177H1020.8Zm2.687,6.089-1.014-.448a6.869,6.869,0,0,1,1.253-4.328,4.3,4.3,0,0,1,3.612-1.612,4.864,4.864,0,0,1,1.94.374,4.522,4.522,0,0,1,1.612,1.238l-1.761,1.821a2.678,2.678,0,0,0-.985-.686,3.442,3.442,0,0,0-1.254-.21,3.313,3.313,0,0,0-2.447.955,3.937,3.937,0,0,0-.955,2.895" transform="translate(-2812.51 3799.914)" fill="#76bd87"/>
    <path id="Path_82712" data-name="Path 82712" d="M654.454-85.814h.7v3.131h-.7Zm.533,1.991v-.54h.674a.524.524,0,0,0,.236-.054.425.425,0,0,0,.168-.155.482.482,0,0,0,.062-.248.471.471,0,0,0-.062-.244.414.414,0,0,0-.168-.155.524.524,0,0,0-.236-.054h-.674v-.541h.775a1.192,1.192,0,0,1,.537.12.925.925,0,0,1,.379.344.98.98,0,0,1,.14.53.978.978,0,0,1-.14.529.943.943,0,0,1-.379.346,1.174,1.174,0,0,1-.537.121Z" transform="translate(-2533.389 3736.942)" fill="#333132"/>
    <path id="Path_82713" data-name="Path 82713" d="M668.442-82.8a1.677,1.677,0,0,1-.654-.125,1.633,1.633,0,0,1-.526-.346,1.569,1.569,0,0,1-.351-.517,1.64,1.64,0,0,1-.124-.636,1.645,1.645,0,0,1,.124-.639,1.6,1.6,0,0,1,.346-.511,1.588,1.588,0,0,1,.521-.341,1.725,1.725,0,0,1,.654-.122,1.716,1.716,0,0,1,.649.122,1.623,1.623,0,0,1,.524.341,1.567,1.567,0,0,1,.348.514,1.64,1.64,0,0,1,.124.642,1.625,1.625,0,0,1-.124.636,1.57,1.57,0,0,1-.346.514,1.6,1.6,0,0,1-.52.344,1.657,1.657,0,0,1-.645.125m-.009-.634a.957.957,0,0,0,.49-.124.851.851,0,0,0,.326-.348,1.122,1.122,0,0,0,.115-.517,1.149,1.149,0,0,0-.067-.4.9.9,0,0,0-.191-.31.817.817,0,0,0-.294-.2,1.018,1.018,0,0,0-.379-.068.958.958,0,0,0-.491.122.827.827,0,0,0-.325.342,1.087,1.087,0,0,0-.116.516,1.158,1.158,0,0,0,.067.4.9.9,0,0,0,.189.313.822.822,0,0,0,.294.2,1,1,0,0,0,.382.071" transform="translate(-2542.785 3737.111)" fill="#333132"/>
    <path id="Path_82714" data-name="Path 82714" d="M683.345-82.683l-1.006-3.131h.691l.737,2.408H683.5l.718-2.408h.545l.718,2.408h-.266l.731-2.408h.688l-1.006,3.131h-.545l-.723-2.408h.257l-.723,2.408Z" transform="translate(-2554.635 3736.942)" fill="#333132"/>
    <path id="Path_82715" data-name="Path 82715" d="M703.249-85.814h.7v3.131h-.7Zm.533,0h1.694v.6h-1.694Zm0,1.242h1.561v.581h-1.561Zm0,1.285H705.5v.6h-1.716Z" transform="translate(-2570.566 3736.942)" fill="#333132"/>
    <path id="Path_82716" data-name="Path 82716" d="M716.01-85.814h.7v3.131h-.7Zm.532,1.841v-.515h.661a.446.446,0,0,0,.321-.106.376.376,0,0,0,.114-.289.376.376,0,0,0-.111-.279.429.429,0,0,0-.319-.111h-.665v-.541h.745a1.209,1.209,0,0,1,.546.118.911.911,0,0,1,.368.326.873.873,0,0,1,.133.479.873.873,0,0,1-.133.482.9.9,0,0,1-.373.322,1.291,1.291,0,0,1-.564.115Zm1.17,1.29-.976-1.349.639-.172,1.161,1.521Z" transform="translate(-2580.289 3736.942)" fill="#333132"/>
    <path id="Path_82717" data-name="Path 82717" d="M729.2-85.814h.7v3.131h-.7Zm.532,0h1.694v.6h-1.694Zm0,1.242h1.561v.581h-1.561Zm0,1.285h1.716v.6h-1.716Z" transform="translate(-2590.337 3736.942)" fill="#333132"/>
    <path id="Path_82718" data-name="Path 82718" d="M741.955-85.814h.7v3.131h-.7Zm.47,3.131V-83.3h.775a1.038,1.038,0,0,0,.5-.113.776.776,0,0,0,.328-.33,1.078,1.078,0,0,0,.115-.515,1.025,1.025,0,0,0-.118-.51.808.808,0,0,0-.327-.328,1.006,1.006,0,0,0-.495-.115h-.8v-.608h.807a1.821,1.821,0,0,1,.654.114,1.541,1.541,0,0,1,.523.323,1.455,1.455,0,0,1,.346.5,1.6,1.6,0,0,1,.122.633,1.6,1.6,0,0,1-.122.629,1.446,1.446,0,0,1-.343.5,1.576,1.576,0,0,1-.521.323,1.8,1.8,0,0,1-.65.115Z" transform="translate(-2600.058 3736.942)" fill="#333132"/>
    <path id="Path_82719" data-name="Path 82719" d="M762.143-85.814h.688v3.131h-.688Zm.533,3.131v-.541h.737a.418.418,0,0,0,.318-.12.4.4,0,0,0,.115-.293.419.419,0,0,0-.054-.213.384.384,0,0,0-.148-.147.471.471,0,0,0-.233-.053h-.737v-.528h.678a.429.429,0,0,0,.28-.086.322.322,0,0,0,.106-.265.315.315,0,0,0-.106-.259.428.428,0,0,0-.28-.087h-.678v-.541h.811A1.079,1.079,0,0,1,764-85.7a.792.792,0,0,1,.322.3.791.791,0,0,1,.111.413.686.686,0,0,1-.186.487,1.013,1.013,0,0,1-.55.275l.018-.235a1.076,1.076,0,0,1,.609.306.8.8,0,0,1,.215.567.865.865,0,0,1-.127.464.87.87,0,0,1-.363.325,1.251,1.251,0,0,1-.57.12Z" transform="translate(-2615.439 3736.942)" fill="#333132"/>
    <path id="Path_82720" data-name="Path 82720" d="M775.048-83.849l-1.206-1.965h.807l.927,1.588h-.519l.927-1.588h.789l-1.215,1.965Zm-.084-.319h.7v1.485h-.7Z" transform="translate(-2624.353 3736.942)" fill="#333132"/>
    <path id="Path_82721" data-name="Path 82721" d="M891.737-259.623a5.983,5.983,0,0,0-.317.6l-.435,1.029.977.542a5.886,5.886,0,0,0,.622.28c2.018.8,8.6,2.595,14.458-4.992.092-.118.187-.24.278-.364l1.1-1.485-1.781-.492c-.148-.041-.3-.079-.443-.115a17.66,17.66,0,0,0-4.345-.579,11.359,11.359,0,0,0-10.113,5.572" transform="translate(-2713.606 3873.615)" fill="url(#linear-gradient)"/>
    <path id="Path_82722" data-name="Path 82722" d="M842.672-303.347c-.22.006-.44.019-.654.032-13.717.753-16.8,10.032-17.447,13.086a8.206,8.206,0,0,0-.159.967l-.129,1.6,1.575.325a8.283,8.283,0,0,0,.972.118c3.111.238,12.884-.129,17.446-13.086.073-.2.147-.411.215-.619l.827-2.517Z" transform="translate(-2662.784 3902.753)" fill="url(#linear-gradient-2)"/>
    <path id="Path_82723" data-name="Path 82723" d="M755.578-311.856c-.265.105-.526.221-.78.334-16.3,7.108-16.073,19.764-15.544,23.76a10.62,10.62,0,0,0,.221,1.245l.529,2.005,2.05-.318a10.808,10.808,0,0,0,1.23-.3c3.873-1.116,15.561-5.975,15.544-23.76,0-.277,0-.564-.006-.848l-.074-3.428Z" transform="translate(-2597.874 3910.162)" fill="#215c50"/>
    <g id="Group_41416" data-name="Group 41416" transform="translate(-1844.844 3649.5)">
      <path id="Path_82724" data-name="Path 82724" d="M803.781-89.467v-1.679a2.578,2.578,0,0,0-1.873-1.385c-1.53-.414-4.107.243-4.181,1.531a3.013,3.013,0,0,0,.1,1.7c.34.608.815,1.191,2.888,2.212s1.708,1.969,1.708,2.188-.169,1.094-1.8,1.094a2.649,2.649,0,0,1-2.553-2.553h-.426v1.824s.353,1.215,2.664,1.362,3.525-.656,3.742-1.775a2.418,2.418,0,0,0-1.385-2.958c-1.458-.738-3.429-1.734-3.4-2.878s1.19-1.216,1.75-1.24a2.451,2.451,0,0,1,2.309,2.553Z" transform="translate(-797.642 92.654)" fill="#333132" fill-rule="evenodd"/>
      <path id="Path_82725" data-name="Path 82725" d="M831.22-81.013h-1.508a1.458,1.458,0,0,0-1.557.876v.9h.779a1.43,1.43,0,0,1,1.41-1.217c.984-.055,1.2,1.2,1.2,1.2v.966c-3.683-.145-3.831,1.46-3.831,1.46v.857A1.791,1.791,0,0,0,829.14-74.4h1.386a2.616,2.616,0,0,0,1.155-.729c.171.073.509.631.509.631h1.1v-4.23a2.258,2.258,0,0,0-2.067-2.286m.328,5.191a1.269,1.269,0,0,1-1.186.766c-.965.072-.82-.973-.8-1.326s.109-1.315,1.99-1.326Z" transform="translate(-820.557 83.786)" fill="#333132" fill-rule="evenodd"/>
      <path id="Path_82726" data-name="Path 82726" d="M946.434-81.013h-1.506a1.457,1.457,0,0,0-1.556.876v.9h.776a1.435,1.435,0,0,1,1.411-1.217c.986-.055,1.2,1.2,1.2,1.2v.966c-3.684-.145-3.827,1.46-3.827,1.46v.857a1.788,1.788,0,0,0,1.42,1.569h1.386a2.612,2.612,0,0,0,1.155-.729c.169.073.511.631.511.631H948.5v-4.23a2.256,2.256,0,0,0-2.066-2.286m.328,5.191a1.264,1.264,0,0,1-1.184.766c-.968.072-.821-.973-.8-1.326s.109-1.315,1.986-1.326Z" transform="translate(-908.344 83.786)" fill="#333132" fill-rule="evenodd"/>
      <path id="Path_82727" data-name="Path 82727" d="M852.224-81v.4s1.035-.11,1.059.864v5.068H855v-4.911s-.168-.342,0-.513,1.678-1.227,2.14.6v4.826h1.716v-4.62a1.3,1.3,0,0,0-.208-.62c-.171-.184,1.811-1.52,2.226.5v4.741h1.761v-4.4a2.112,2.112,0,0,0-2.079-2.079,2.409,2.409,0,0,0-2.211.719s-.4-.783-1.849-.727-1.7.641-1.7.641a1.561,1.561,0,0,0-.986-.536Z" transform="translate(-839.229 83.894)" fill="#333132" fill-rule="evenodd"/>
      <path id="Path_82728" data-name="Path 82728" d="M902.287-81.516c-1.476.875-1.586-.511-1.586-.511v-4.668h1.477v-.513H900.7v-2.072H899.57l-.6.942v1.13h-.832v.513h.832v4.54c.309,1.769,2.881,1.787,3.519,1.13s-.2-.491-.2-.491" transform="translate(-874.21 90.083)" fill="#333132" fill-rule="evenodd"/>
      <path id="Path_82729" data-name="Path 82729" d="M919.168-74.608H920.9V-79.72a.972.972,0,0,1,1.059-.6c.839.072.767.29.767.29s.272.311.709-.035-.072-.712-.4-.875a2.585,2.585,0,0,0-2.354.345H920.5a1.691,1.691,0,0,0-.509-.364h-2.044v.364h.546a.76.76,0,0,1,.658.822Z" transform="translate(-889.304 83.837)" fill="#333132" fill-rule="evenodd"/>
      <path id="Path_82730" data-name="Path 82730" d="M974.43-91.295h-1.97v.4c1.2-.092,1.04.766,1.04.766v1.622c-.819-.912-4.45-.564-4.321,2.965s2.425,3.309,3.281,3.309a1.169,1.169,0,0,0,1.113-.729h.182l.456.57h1.112v-7.83a1.111,1.111,0,0,0-.894-1.075m-.893,7.567a1.308,1.308,0,0,1-1.2.876c-.951.036-1.388-1-1.335-2.863s.584-3.192,2.536-2.226Z" transform="translate(-928.336 91.619)" fill="#333132" fill-rule="evenodd"/>
      <path id="Path_82731" data-name="Path 82731" d="M1004.424-77.479V-78.7s-.111-2.29-2.916-2.312-2.974,2.279-2.955,3.307a2.915,2.915,0,0,0,2.937,3.311,2.619,2.619,0,0,0,2.7-1.3l-.494-.382a1.974,1.974,0,0,1-1.895,1.093c-1.515.055-1.551-2.06-1.515-2.5Zm-2.981-3.008a1.337,1.337,0,0,1,1.121,1.221v1.149h-2.243c-.093-.457.072-2.517,1.123-2.37" transform="translate(-950.707 83.784)" fill="#333132" fill-rule="evenodd"/>
    </g>
  </g>
</svg>
