<svg xmlns="http://www.w3.org/2000/svg" xmlns:xlink="http://www.w3.org/1999/xlink" width="820.954" height="340.021" viewBox="0 0 820.954 340.021">
  <defs>
    <clipPath id="clip-path">
      <path id="Path_82761" data-name="Path 82761" d="M679.857,1041.14c-.049,1.523-.049,3.065-.031,4.552-.093,95.491,62.659,121.58,83.455,127.566a57.359,57.359,0,0,0,6.6,1.59l11,1.7,2.843-10.765a57.163,57.163,0,0,0,1.187-6.682c2.843-21.451,4.078-89.4-83.454-127.566-1.364-.612-2.768-1.227-4.194-1.794l-17.014-7.01Z" transform="translate(-679.816 -1022.735)" fill="#215c50"/>
    </clipPath>
    <linearGradient id="linear-gradient" x1="1" y1="0.811" x2="0" y2="0.175" gradientUnits="objectBoundingBox">
      <stop offset="0" stop-color="#56926e"/>
      <stop offset="1" stop-color="#76bd87"/>
    </linearGradient>
    <linearGradient id="linear-gradient-2" x1="0.961" y1="0.936" x2="0" gradientUnits="objectBoundingBox">
      <stop offset="0" stop-color="#457767"/>
      <stop offset="1" stop-color="#75a889"/>
    </linearGradient>
  </defs>
  <g id="Group_41461" data-name="Group 41461" transform="translate(0 0)">
    <path id="Path_82733" data-name="Path 82733" d="M697.03,1074.328a10.378,10.378,0,1,1-10.376-10.38,10.376,10.376,0,0,1,10.376,10.38" transform="translate(-302.175 -881.437)" fill="#215c50"/>
    <path id="Path_82734" data-name="Path 82734" d="M702.264,1074.328a10.378,10.378,0,1,1-10.376-10.38,10.376,10.376,0,0,1,10.376,10.38" transform="translate(-284.23 -881.437)" fill="#215c50"/>
    <path id="Path_82735" data-name="Path 82735" d="M734.85,1066.62a10.378,10.378,0,1,1-10.376-10.375,10.376,10.376,0,0,1,10.376,10.375" transform="translate(-172.51 -907.85)" fill="#215c50"/>
    <path id="Path_82736" data-name="Path 82736" d="M761.179,1066.62a10.378,10.378,0,1,1-10.376-10.375,10.376,10.376,0,0,1,10.376,10.375" transform="translate(-82.242 -907.85)" fill="#76bd87"/>
    <path id="Path_82737" data-name="Path 82737" d="M750.8,1094.868a10.378,10.378,0,1,1-10.376-10.376,10.376,10.376,0,0,1,10.376,10.376" transform="translate(-117.819 -811.004)" fill="#215c50"/>
    <path id="Path_82738" data-name="Path 82738" d="M786.739,1094.868a10.378,10.378,0,1,1-10.38-10.376,10.377,10.377,0,0,1,10.38,10.376" transform="translate(5.39 -811.004)" fill="#215c50"/>
    <path id="Path_82739" data-name="Path 82739" d="M756.25,1094.868a10.378,10.378,0,1,1-10.376-10.376,10.376,10.376,0,0,1,10.376,10.376" transform="translate(-99.14 -811.004)" fill="#215c50"/>
    <path id="Path_82740" data-name="Path 82740" d="M792.381,1094.868A10.378,10.378,0,1,1,782,1084.492a10.377,10.377,0,0,1,10.38,10.376" transform="translate(24.733 -811.004)" fill="#215c50"/>
    <path id="Path_82741" data-name="Path 82741" d="M790.37,1118.663a21.745,21.745,0,0,1-6.8,16.014,22.43,22.43,0,0,1-16.23,6.677h-76.7a22.429,22.429,0,0,1-16.23-6.677,21.745,21.745,0,0,1-6.8-16.014v-54.714h17.563v54.714c0,3.733,1.847,5.6,5.465,5.6h76.7c3.618,0,5.465-1.864,5.465-5.6v-54.714H790.37Z" transform="translate(-331.868 -881.434)" fill="#215c50"/>
    <path id="Path_82742" data-name="Path 82742" d="M845.836,1141.354H729.766c-3.494,0-5.341-.394-5.58-1.16v3.6q0,20.718-14.893,34.679l-13.161-11.514q10.488-9.9,10.491-26.761v-76.245h17.563v54.475c0,3.893,1.847,5.837,5.58,5.837h116.07Z" transform="translate(-234.092 -881.434)" fill="#215c50"/>
    <path id="Path_82743" data-name="Path 82743" d="M775.339,1141.354h-8.6a21.939,21.939,0,0,1-14.658-5.225c-3.5,3.476-8.1,5.225-13.87,5.225h-8.6V1124.26h8.6c3.653,0,5.5-1.864,5.5-5.6v-54.714h17.563v54.714c0,3.733,1.811,5.6,5.465,5.6h8.6Z" transform="translate(-119.341 -881.434)" fill="#215c50"/>
    <path id="Path_82744" data-name="Path 82744" d="M763.63,1118.663a21.746,21.746,0,0,1-6.8,16.014,22.307,22.307,0,0,1-16.23,6.677h-1.178V1124.26H740.6c3.653,0,5.465-1.864,5.465-5.6v-54.714H763.63Z" transform="translate(-85.667 -881.434)" fill="#215c50"/>
    <path id="Path_82745" data-name="Path 82745" d="M795.919,1118.663a21.745,21.745,0,0,1-6.8,16.014,22.308,22.308,0,0,1-16.23,6.677h-1.178V1124.26h1.178c3.654,0,5.465-1.864,5.465-5.6v-54.714h17.563Z" transform="translate(25.035 -881.434)" fill="#215c50"/>
    <path id="Path_82746" data-name="Path 82746" d="M787.066,1145.283a40.917,40.917,0,1,1,40.91-40.923,40.961,40.961,0,0,1-40.91,40.923m0-64.137a23.216,23.216,0,1,0,23.223,23.214,23.25,23.25,0,0,0-23.223-23.214" transform="translate(-62.587 -883.145)" fill="#215c50"/>
    <path id="Path_82747" data-name="Path 82747" d="M748.441,1144.782a40.917,40.917,0,1,1,40.91-40.919,40.957,40.957,0,0,1-40.91,40.919m0-64.133a23.216,23.216,0,1,0,23.223,23.214,23.25,23.25,0,0,0-23.223-23.214" transform="translate(-195.011 -884.862)" fill="#215c50"/>
    <path id="Path_82748" data-name="Path 82748" d="M818.925,1111.393h-27c-3.5,0-5.345-.394-5.58-1.16v3.6q0,20.718-14.893,34.679l-13.166-11.514q10.5-9.9,10.491-26.761v-37.544h17.568v15.774c0,3.893,1.847,5.837,5.58,5.837h27Z" transform="translate(-20.999 -851.473)" fill="#215c50"/>
    <path id="Path_82749" data-name="Path 82749" d="M661.081,1123.11h10.832v13.3H659.438a29.978,29.978,0,0,1-14.45-3.281q-1.468,16.247-11.324,25.937-9.034,8.862-22.656,8.861a40.818,40.818,0,0,1-19.211-4.92V1150.7a34.576,34.576,0,0,0,16.749,4.592q10.5,0,16.416-7.058t5.912-19.534V1072.71l14.114-7.55v.164l.164-.164v44.816q1.482,13.139,15.929,13.135" transform="translate(-591.798 -877.282)" fill="#76bd87"/>
    <path id="Path_82750" data-name="Path 82750" d="M775.774,1124.76h10.832v13.3H774.127q-13.784,0-21.5-8.538-7.719,8.536-21.5,8.538H663.154q-13.631,0-21.509-8.7-7.872,8.708-21.5,8.7H607.665v-13.3H618.5q16.088,0,16.089-16.417v-22.979l14.118-7.56v30.539q0,13.79,10.668,15.925,6.57-24.791,21.673-41.371,16.906-18.221,39.4-18.219,18.719,0,29.879,12.962,9.366,11.007,9.362,27.093v3.937q0,16.1,16.088,16.088m-45.476,0q15.272,0,15.265-17.072v-2.954q0-12.807-7.878-20.358a23.819,23.819,0,0,0-17.076-6.572q-17.4,0-31.354,16.093-10.675,12.315-16.416,30.862Z" transform="translate(-537.398 -878.931)" fill="#76bd87"/>
    <path id="Path_82751" data-name="Path 82751" d="M672.773,1093.569q0-14.283,8.534-22.165,7.553-6.722,19.7-6.727,15.6,0,23.971,11.492,7.221,9.686,7.218,25.283,0,17.729-9.193,27.743-8.044,8.863-21.013,8.862-14.767,0-22.488-8.206-7.878,8.21-21.177,8.206H645.848v-13.3h10.836q16.089,0,16.089-16.417Zm14.118,15.924q0,15.265,14.942,15.265a13.9,13.9,0,0,0,12.068-6.235q4.345-6.238,4.349-17.4,0-10.994-4.6-17.156a14.928,14.928,0,0,0-12.643-6.156q-14.122,0-14.118,16.421Z" transform="translate(-406.489 -878.935)" fill="#76bd87"/>
    <path id="Path_82752" data-name="Path 82752" d="M735.209,1108a1.6,1.6,0,0,0-1.435,1.886c.088,3.552.075,7.113.009,10.668-.075,3.861-2.236,6.479-6.014,6.873-3.065.323-6.178.15-9.269.275-1.032.039-1.319-.306-1.31-1.315.044-5.067.017-10.129.017-15.195v-1.355c-2.307.664-4.4,1.315-6.528,1.86-.894.23-1.107.677-1.1,1.55.044,4.446-.009,8.892.04,13.338.009,1.027-.327,1.328-1.333,1.315q-6.915-.067-13.821,0c-.979.009-1.249-.328-1.24-1.271.049-3.941.022-7.887.017-11.833,0-.4-.04-.8-.066-1.342-2.272.638-4.362,1.3-6.492,1.8-1.094.257-1.227.788-1.192,1.785.124,3.242.12,6.488.178,9.734.008.611-.191.917-.864.917-5.11-.022-10.221.035-15.327-.049-2.232-.04-3.441-1.373-3.623-3.6-.035-.46-.022-.926-.022-1.39q.013-14.555.018-29.108a21.439,21.439,0,0,0-.288-3.574c-.386-2.2-1.315-4.1-3.689-4.74-3.3-.885-6.661-.3-9.982-.451-.279,2.241-.279,2.241,1.7,2.4,2.4.186,3.809,1.329,4.194,3.72a37.473,37.473,0,0,1,.447,5.761c.022,9.278-.075,18.555-.017,27.833a9.262,9.262,0,0,0,4.924,8.609,12.493,12.493,0,0,0,6.169,1.293q28.4,0,56.786-.013a21.224,21.224,0,0,0,4.034-.35c5.438-1.076,9.269-4.056,10.872-9.526.257-.881.421-1.789.629-2.683v-15.779c-2.139.66-4.26,1.381-6.421,1.957" transform="translate(-386.205 -810.221)" fill="#262525"/>
    <path id="Path_82753" data-name="Path 82753" d="M734.2,1088.48a29.782,29.782,0,0,0-5.987-.443c-7.17.151-12.041,4.167-13.8,11.133a38.3,38.3,0,0,0-.709,9.211c-.036,4.38-1.86,7.289-5.615,7.745a49.077,49.077,0,0,1-10.85,0c-3.118-.319-4.951-2.546-5.425-5.536a21.314,21.314,0,0,1-.253-3.228c-.017-4.641.009-9.282.018-13.918,0-.42,0-.833,0-1.43-2.259.669-4.349,1.333-6.466,1.887a1.29,1.29,0,0,0-1.129,1.523q.073,6.841.018,13.688a6.662,6.662,0,0,1-5.27,6.868,12.472,12.472,0,0,1-2.87.328c-6.541.026-13.086.018-19.627.013-1.505,0-1.515,0-1.519-1.537q-.039-10.668-.075-21.341v-1.417c-2.48.722-4.813,1.373-7.121,2.117-.244.075-.447.664-.447,1.014-.022,8.507-.005,17.015-.018,25.522a16.577,16.577,0,0,1-.244,3.108c-.8,4.114-3.118,6.943-7.271,7.985a17.629,17.629,0,0,1-8.171-.066c-2.413-.545-4.761-1.4-7.156-2.117.934,1.98,1.873,4.087,2.936,6.129a3.729,3.729,0,0,0,1.479,1.5,17.53,17.53,0,0,0,10.872,1.4c8.432-1.222,13.294-5.908,14.959-14.193.226-1.112.638-1.417,1.718-1.408,6.62.044,13.241,0,19.861.026,4.358.013,8.353-.961,11.612-4.065.075-.071.213-.071.385-.128a14.936,14.936,0,0,0,10.606,4.163c2.941.043,5.885.013,8.826-.04a14.863,14.863,0,0,0,10.544-4.078c.044-.04.146-.023.274-.04a13.127,13.127,0,0,0,7.157,3.733,28.46,28.46,0,0,0,6.687.293c4.8-.416,8.746-2.556,10.912-6.988a23.033,23.033,0,0,0,.177-20.459,11.866,11.866,0,0,0-9.016-6.953m1.1,25.566a13.516,13.516,0,0,1-1.183,3.122c-2.077,3.879-6.767,3.986-9.061.23a15.474,15.474,0,0,1-1.886-6.5c-.2-1.762-.239-3.543-.345-5.31a32.651,32.651,0,0,1,1.244-9.605,10.988,10.988,0,0,1,1.138-2.52c2.21-3.547,6.647-3.441,8.787.151a16.54,16.54,0,0,1,1.953,7.2,41.286,41.286,0,0,1-.646,13.237" transform="translate(-480.685 -798.872)" fill="#262525"/>
    <path id="Path_82754" data-name="Path 82754" d="M662.73,1119.551a13.292,13.292,0,0,0,11.341-12.427c.226-5.868.084-11.749.1-17.625a2.8,2.8,0,0,0-.146-.553c-2.068.6-4.088,1.231-6.134,1.758a1.447,1.447,0,0,0-1.244,1.705c.071,4.1.133,8.2.057,12.293a12.936,12.936,0,0,1-.74,4.3c-1.2,3.131-3.91,4.119-6.992,4.167-4.686.071-9.371.019-14.056.019-1.621,0-1.616,0-1.625-1.661-.035-4.947,0-9.9-.124-14.844-.111-4.415-2.312-6.475-6.709-6.491-3.056-.014-6.116-.031-9.171,0-2.723.035-2.4-.58-2.444,2.586-.013.792.261,1.076,1.072,1.076,1.855,0,3.715.04,5.562.195a3.769,3.769,0,0,1,3.618,3.069,20.067,20.067,0,0,1,.523,4c.075,3.6-.013,7.191.066,10.787.027,1.156-.266,1.519-1.466,1.506-5.925-.062-11.85-.035-17.771-.014-.429,0-1.054.049-1.257.32-1.417,1.921-2.745,3.906-4.318,6.177h1.6q23.17,0,46.339-.014a25.3,25.3,0,0,0,3.924-.336" transform="translate(-526.413 -795.733)" fill="#262525"/>
    <path id="Path_82755" data-name="Path 82755" d="M625.613,1097.3a4.13,4.13,0,1,0,4.074,4.048,4.124,4.124,0,0,0-4.074-4.048" transform="translate(-490.863 -767.08)" fill="#262525"/>
    <path id="Path_82756" data-name="Path 82756" d="M641.973,1093.616a4.024,4.024,0,0,0,4.109-4.083,4.134,4.134,0,1,0-4.109,4.083" transform="translate(-434.03 -808.037)" fill="#262525"/>
    <path id="Path_82757" data-name="Path 82757" d="M623.018,1097.3a4.13,4.13,0,1,0,4.043,4.078,4.148,4.148,0,0,0-4.043-4.078" transform="translate(-499.383 -767.08)" fill="#262525"/>
    <path id="Path_82758" data-name="Path 82758" d="M639.414,1093.616a4.13,4.13,0,1,0-.031-8.259,4.13,4.13,0,0,0,.031,8.259" transform="translate(-442.484 -808.037)" fill="#262525"/>
    <g id="Group_41422" data-name="Group 41422" transform="translate(389.783)">
      <g id="Group_41421" data-name="Group 41421" clip-path="url(#clip-path)">
        <rect id="Rectangle_6992" data-name="Rectangle 6992" width="156.964" height="113.737" transform="matrix(0.029, -1, 1, 0.029, -4.602, 153.685)" fill="#215c50"/>
      </g>
    </g>
    <path id="Path_82762" data-name="Path 82762" d="M983.606-234.26a33.156,33.156,0,0,1,1.758,3.356l2.414,5.716-5.427,3.009a32.61,32.61,0,0,1-3.454,1.552c-11.206,4.465-47.754,14.407-80.272-27.718-.512-.656-1.04-1.332-1.544-2.02l-6.1-8.247,9.888-2.729c.82-.229,1.648-.44,2.458-.637a98.053,98.053,0,0,1,24.124-3.215c34.759,0,51.13,22.3,56.15,30.934" transform="translate(-686.827 325.179)" fill="url(#linear-gradient)"/>
    <path id="Path_82763" data-name="Path 82763" d="M838.978-302.934c1.219.033,2.445.106,3.631.178,76.157,4.181,93.3,55.7,96.865,72.653a45.729,45.729,0,0,1,.883,5.368l.715,8.9-8.743,1.8a46,46,0,0,1-5.4.656c-17.274,1.323-71.532-.719-96.865-72.653-.4-1.122-.816-2.28-1.191-3.439l-4.593-13.972Z" transform="translate(-551.95 312.868)" fill="url(#linear-gradient-2)"/>
  </g>
</svg>
