<svg xmlns="http://www.w3.org/2000/svg" width="54.804" height="54.805" viewBox="0 0 54.804 54.805">
  <g id="agriculture_sowing_seed_soil_ground_hole" data-name="agriculture, sowing, seed, soil, ground, hole" transform="translate(-10 -10)">
    <path id="Path_82543" data-name="Path 82543" d="M61.271,23.4l-13.2-12.145a4.972,4.972,0,0,0-6.6,0l-19.8,18.216,13.2,12.146a9.918,9.918,0,0,1,13.2,0l13.2-12.146A4.066,4.066,0,0,0,61.271,23.4Zm-33,6.071,3.3-3.036,9.147,8.418a14.982,14.982,0,0,0-5.28,1.211Zm19.8,6.074L34.867,23.4l9.9-9.107,13.2,12.143Z" transform="translate(-4.153 0)" fill="#fff"/>
    <path id="Path_82544" data-name="Path 82544" d="M46.426,28.5a6.122,6.122,0,0,0,9.094,0A6.126,6.126,0,0,0,46.426,28.5Z" transform="translate(-11.152 -5.134)" fill="#fff"/>
    <path id="Path_82545" data-name="Path 82545" d="M59.436,29.632a6.125,6.125,0,0,0,0,9.1A6.127,6.127,0,0,0,59.436,29.632Z" transform="translate(-14.767 -6.01)" fill="#fff"/>
    <path id="Path_82546" data-name="Path 82546" d="M51.667,70.478a5.576,5.576,0,0,0,2.147,4.293,5.576,5.576,0,0,0,2.147-4.293,2.147,2.147,0,1,0-4.293,0Z" transform="translate(-12.968 -17.482)" fill="#fff"/>
    <path id="Path_82547" data-name="Path 82547" d="M46.85,61.924A5.592,5.592,0,0,0,42.3,63.442a2.147,2.147,0,1,0,3.037,3.036A5.578,5.578,0,0,0,46.85,61.924Z" transform="translate(-9.827 -16.098)" fill="#fff"/>
    <path id="Path_82548" data-name="Path 82548" d="M47.172,76.665l-1.269.989c-5.644,4.4-11.36,4.4-17,0l-1.27-.989H10v4.293H25.985c7.61,5.942,15.779,5.51,22.835,0H64.8V76.665Z" transform="translate(0 -20.449)" fill="#fff"/>
  </g>
</svg>
