<svg xmlns="http://www.w3.org/2000/svg" width="48.575" height="48.575" viewBox="0 0 48.575 48.575">
  <g id="garden_watering_can_watering_plants_water" data-name="garden, watering can, watering, plants, water" transform="translate(113 92)">
    <path id="Path_82539" data-name="Path 82539" d="M64.235,23.524l1.431-1.431A7.084,7.084,0,1,0,55.646,12.075l-1.431,1.431L53.5,12.79a4.06,4.06,0,0,0-5.724,0l-1.431,1.431-2.862-2.862-5.726,5.725,2.862,2.861-1.431,1.432a4.061,4.061,0,0,0,0,5.724l7.187,7.187H37.381V31.252H33.333v10.12h4.048V38.336H50.422l.216.215a4.059,4.059,0,0,0,5.724,0l8.588-8.587a4.06,4.06,0,0,0,0-5.724ZM53.5,35.691,42.052,24.24l8.586-8.587L62.086,27.1Zm9.3-16.46-1.429,1.43-4.295-4.293,1.431-1.431A3.036,3.036,0,0,1,62.8,19.231Z" transform="translate(-132.165 -102)" fill="#fff"/>
    <path id="Path_82540" data-name="Path 82540" d="M20.119,54.048a6.072,6.072,0,0,0-6.071,6.072v2.024H10V60.12A10.119,10.119,0,0,1,20.119,50Z" transform="translate(-123 -117.712)" fill="#fff"/>
    <rect id="Rectangle_6878" data-name="Rectangle 6878" width="4.048" height="8.096" transform="translate(-113 -51.521)" fill="#fff"/>
    <rect id="Rectangle_6879" data-name="Rectangle 6879" width="4.048" height="10.119" transform="translate(-105.916 -57.592)" fill="#fff"/>
    <path id="Path_82541" data-name="Path 82541" d="M42.57,76.786h-.006a7.675,7.675,0,0,0-1.137-10.119A7.683,7.683,0,0,0,40.29,76.786h0a8.039,8.039,0,0,0-6.955-4.048,8.1,8.1,0,0,0,16.192,0A8.041,8.041,0,0,0,42.57,76.786Z" transform="translate(-132.165 -124.259)" fill="#fff"/>
    <path id="Path_82542" data-name="Path 82542" d="M72.678,76.6h-.006a7.66,7.66,0,0,0-1.245-9.93,7.669,7.669,0,0,0-1.243,9.93h0a8.038,8.038,0,0,0-6.847-3.858,8.1,8.1,0,0,0,16.192,0A8.038,8.038,0,0,0,72.678,76.6Z" transform="translate(-143.95 -124.259)" fill="#fff"/>
  </g>
</svg>
