<svg xmlns="http://www.w3.org/2000/svg" width="44.36" height="44.36" viewBox="0 0 44.36 44.36">
  <g id="garden_seed_seedling_plant" data-name="garden, seed, seedling, plant" transform="translate(-10 -10)">
    <path id="Path_82526" data-name="Path 82526" d="M39.573,17.393V10H13.7v7.393c-4.928,8.164-4.928,21.409,0,29.573V54.36H39.573V46.967C44.5,38.8,44.5,25.557,39.573,17.393Zm-22.18-3.7H35.876v3.7H17.393ZM35.876,50.664H17.393v-3.7H35.876Zm1.473-7.394H15.92a28.816,28.816,0,0,1,0-22.18H37.35A28.808,28.808,0,0,1,37.349,43.27Z" transform="translate(0)" fill="#fff"/>
    <path id="Path_82527" data-name="Path 82527" d="M32.568,55.9a8.793,8.793,0,0,0-9.229-9.231A8.8,8.8,0,0,0,32.568,55.9Z" transform="translate(-5.94 -16.334)" fill="#fff"/>
    <path id="Path_82528" data-name="Path 82528" d="M49.234,46.672A8.79,8.79,0,0,0,40,55.9,8.8,8.8,0,0,0,49.234,46.672Z" transform="translate(-13.364 -16.335)" fill="#fff"/>
    <circle id="Ellipse_812" data-name="Ellipse 812" cx="2.772" cy="2.772" r="2.772" transform="translate(23.862 24.787)" fill="#fff"/>
    <path id="Path_82529" data-name="Path 82529" d="M76.667,53.515a4.806,4.806,0,0,0,1.848,3.7,4.806,4.806,0,0,0,1.848-3.7,1.848,1.848,0,0,0-3.7,0Z" transform="translate(-29.7 -18.563)" fill="#fff"/>
    <path id="Path_82530" data-name="Path 82530" d="M87.03,23.7A4.808,4.808,0,0,0,85.182,20a4.809,4.809,0,0,0-1.849,3.7,1.848,1.848,0,1,0,3.7,0Z" transform="translate(-32.67 -4.455)" fill="#fff"/>
    <path id="Path_82531" data-name="Path 82531" d="M73.876,33.154a4.8,4.8,0,0,0,3.92,1.307,4.8,4.8,0,0,0-1.306-3.92,1.848,1.848,0,0,0-2.613,2.613Z" transform="translate(-28.215 -8.91)" fill="#fff"/>
    <path id="Path_82532" data-name="Path 82532" d="M73.155,19.175a4.807,4.807,0,0,0,1.306-3.921,4.8,4.8,0,0,0-3.92,1.306,1.849,1.849,0,0,0,2.614,2.614Z" transform="translate(-26.73 -2.322)" fill="#fff"/>
    <path id="Path_82533" data-name="Path 82533" d="M85.033,43.962a4.8,4.8,0,0,0,1.306-3.92,4.8,4.8,0,0,0-3.92,1.306,1.848,1.848,0,0,0,2.614,2.614Z" transform="translate(-32.022 -13.365)" fill="#fff"/>
  </g>
</svg>
