<svg xmlns="http://www.w3.org/2000/svg" width="44.786" height="33.341" viewBox="0 0 44.786 33.341">
  <g id="Group_146" data-name="Group 146" transform="translate(292.427 -302.925)">
    <g id="Group_142" data-name="Group 142" transform="translate(-289.826 321.24)">
      <line id="Line_94" data-name="Line 94" x2="35.386" transform="translate(2.098 0)" fill="none" stroke="#326220" stroke-linecap="round" stroke-linejoin="round" stroke-width="1.5"/>
      <line id="Line_95" data-name="Line 95" x1="2.922" y2="14.14" transform="translate(0 0)" fill="none" stroke="#326220" stroke-linecap="round" stroke-linejoin="round" stroke-width="1.5"/>
      <line id="Line_96" data-name="Line 96" x1="2.922" y2="14.14" transform="translate(4.205 0)" fill="none" stroke="#326220" stroke-linecap="round" stroke-linejoin="round" stroke-width="1.5"/>
      <line id="Line_97" data-name="Line 97" x1="2.037" y2="14.14" transform="translate(8.359 0)" fill="none" stroke="#326220" stroke-linecap="round" stroke-linejoin="round" stroke-width="1.5"/>
      <line id="Line_98" data-name="Line 98" x1="2.037" y2="14.14" transform="translate(12.477 0)" fill="none" stroke="#326220" stroke-linecap="round" stroke-linejoin="round" stroke-width="1.5"/>
      <line id="Line_99" data-name="Line 99" x1="2.922" y1="14.14" transform="translate(36.393 0)" fill="none" stroke="#326220" stroke-linecap="round" stroke-linejoin="round" stroke-width="1.5"/>
      <line id="Line_100" data-name="Line 100" x1="2.922" y1="14.14" transform="translate(32.188 0)" fill="none" stroke="#326220" stroke-linecap="round" stroke-linejoin="round" stroke-width="1.5"/>
      <line id="Line_101" data-name="Line 101" x1="2.037" y1="14.14" transform="translate(28.911 0)" fill="none" stroke="#326220" stroke-linecap="round" stroke-linejoin="round" stroke-width="1.5"/>
      <line id="Line_102" data-name="Line 102" x1="2.037" y1="14.14" transform="translate(24.794 0)" fill="none" stroke="#326220" stroke-linecap="round" stroke-linejoin="round" stroke-width="1.5"/>
      <line id="Line_103" data-name="Line 103" x1="0.776" y2="14.14" transform="translate(16.928 0)" fill="none" stroke="#326220" stroke-linecap="round" stroke-linejoin="round" stroke-width="1.5"/>
      <line id="Line_104" data-name="Line 104" x1="0.776" y1="14.14" transform="translate(21.633 0)" fill="none" stroke="#326220" stroke-linecap="round" stroke-linejoin="round" stroke-width="1.5"/>
    </g>
    <line id="Line_105" data-name="Line 105" x1="43.286" transform="translate(-291.677 335.38)" fill="none" stroke="#326220" stroke-linecap="round" stroke-linejoin="round" stroke-width="1.5"/>
    <g id="Group_143" data-name="Group 143" transform="translate(-283.233 303.675)">
      <path id="Path_2084" data-name="Path 2084" d="M-279.967,311.356h12.272l-6.136-7.681Z" transform="translate(279.967 -303.675)" fill="none" stroke="#326220" stroke-linecap="round" stroke-linejoin="round" stroke-width="1.5"/>
      <path id="Path_2085" data-name="Path 2085" d="M-271.458,303.675h11.27l6.136,7.681h-11.4" transform="translate(277.594 -303.675)" fill="none" stroke="#326220" stroke-linecap="round" stroke-linejoin="round" stroke-width="1.5"/>
      <path id="Path_2086" data-name="Path 2086" d="M-278.513,324.21h21.351v-9.885h-21.351v9.885" transform="translate(279.561 -306.645)" fill="none" stroke="#326220" stroke-linecap="round" stroke-linejoin="round" stroke-width="1.5"/>
      <line id="Line_106" data-name="Line 106" y2="9.883" transform="translate(12.272 7.681)" fill="none" stroke="#326220" stroke-linecap="round" stroke-linejoin="round" stroke-width="1.5"/>
      <rect id="Rectangle_62" data-name="Rectangle 62" width="3.511" height="2.848" transform="translate(19.445 12.622) rotate(-180)" fill="none" stroke="#326220" stroke-linecap="round" stroke-linejoin="round" stroke-width="1.5"/>
      <rect id="Rectangle_63" data-name="Rectangle 63" width="3.511" height="5.492" transform="translate(7.892 17.564) rotate(-180)" fill="none" stroke="#326220" stroke-linecap="round" stroke-linejoin="round" stroke-width="1.5"/>
    </g>
    <g id="Group_144" data-name="Group 144" transform="translate(-258.07 316.297)">
      <path id="Path_2087" data-name="Path 2087" d="M-243.443,326.122s-.318-3.606,1.22-4.943" transform="translate(244.626 -321.179)" fill="none" stroke="#326220" stroke-linecap="round" stroke-linejoin="round" stroke-width="1.5"/>
      <path id="Path_2088" data-name="Path 2088" d="M-244.6,321.514l1.162,1.278,1.644-.376" transform="translate(244.941 -321.272)" fill="none" stroke="#326220" stroke-linecap="round" stroke-linejoin="round" stroke-width="1.5"/>
      <path id="Path_2089" data-name="Path 2089" d="M-245.073,324.606l1.065.946,1.644-.376" transform="translate(245.073 -322.135)" fill="none" stroke="#326220" stroke-linecap="round" stroke-linejoin="round" stroke-width="1.5"/>
    </g>
    <g id="Group_145" data-name="Group 145" transform="translate(-287.194 316.297)">
      <path id="Path_2090" data-name="Path 2090" d="M-283.831,326.122s-.318-3.606,1.221-4.943" transform="translate(285.013 -321.179)" fill="none" stroke="#326220" stroke-linecap="round" stroke-linejoin="round" stroke-width="1.5"/>
      <path id="Path_2091" data-name="Path 2091" d="M-284.989,321.514l1.162,1.278,1.644-.376" transform="translate(285.329 -321.272)" fill="none" stroke="#326220" stroke-linecap="round" stroke-linejoin="round" stroke-width="1.5"/>
      <path id="Path_2092" data-name="Path 2092" d="M-285.46,324.606l1.065.946,1.644-.376" transform="translate(285.46 -322.135)" fill="none" stroke="#326220" stroke-linecap="round" stroke-linejoin="round" stroke-width="1.5"/>
    </g>
  </g>
</svg>
