<svg id="_012-social_network" data-name="012-social network" xmlns="http://www.w3.org/2000/svg" width="50.292" height="50.292" viewBox="0 0 50.292 50.292">
  <path id="Path_82433" data-name="Path 82433" d="M207.787,5.992a5.894,5.894,0,1,0-11.787,0,5.894,5.894,0,1,0,11.787,0Zm-5.894,2.947a2.95,2.95,0,0,1-2.947-2.947,2.948,2.948,0,1,1,5.894,0A2.95,2.95,0,0,1,201.894,8.939Z" transform="translate(-176.747)" fill="#326220"/>
  <path id="Path_82434" data-name="Path 82434" d="M188.367,121A7.375,7.375,0,0,0,181,128.367a1.473,1.473,0,0,0,1.473,1.473h11.787a1.473,1.473,0,0,0,1.473-1.473A7.375,7.375,0,0,0,188.367,121Zm-4.168,5.894a4.421,4.421,0,0,1,8.336,0Z" transform="translate(-163.221 -109.114)" fill="#326220"/>
  <path id="Path_82435" data-name="Path 82435" d="M207.787,306.894a5.894,5.894,0,1,0-5.894,5.894A5.9,5.9,0,0,0,207.787,306.894Zm-5.894,2.947a2.947,2.947,0,1,1,2.947-2.947A2.95,2.95,0,0,1,201.894,309.84Z" transform="translate(-176.747 -271.434)" fill="#326220"/>
  <path id="Path_82436" data-name="Path 82436" d="M181,428.465a1.473,1.473,0,0,0,1.473,1.473h11.787a1.473,1.473,0,0,0,1.473-1.473,7.368,7.368,0,1,0-14.734,0Zm7.367-4.518a4.5,4.5,0,0,1,4.169,3.045H184.2A4.5,4.5,0,0,1,188.367,423.947Z" transform="translate(-163.221 -379.646)" fill="#326220"/>
  <path id="Path_82437" data-name="Path 82437" d="M27.787,156.894a5.894,5.894,0,1,0-5.894,5.894A5.9,5.9,0,0,0,27.787,156.894Zm-5.894,2.947a2.947,2.947,0,1,1,2.947-2.947A2.95,2.95,0,0,1,21.894,159.84Z" transform="translate(-14.428 -136.168)" fill="#326220"/>
  <path id="Path_82438" data-name="Path 82438" d="M1.473,279.84H13.359a1.473,1.473,0,0,0,1.473-1.473A7.375,7.375,0,0,0,7.465,271a7.469,7.469,0,0,0-5.247,2.146A7.256,7.256,0,0,0,0,278.367a1.473,1.473,0,0,0,1.473,1.473Zm5.992-5.894a4.428,4.428,0,0,1,4.168,2.947H3.215A4.586,4.586,0,0,1,7.465,273.947Z" transform="translate(0 -244.38)" fill="#326220"/>
  <path id="Path_82439" data-name="Path 82439" d="M387.787,156.894a5.894,5.894,0,1,0-5.894,5.894A5.9,5.9,0,0,0,387.787,156.894Zm-5.894,2.947a2.947,2.947,0,1,1,2.947-2.947A2.95,2.95,0,0,1,381.894,159.84Z" transform="translate(-339.066 -136.168)" fill="#326220"/>
  <path id="Path_82440" data-name="Path 82440" d="M375.832,278.367a7.416,7.416,0,0,0-14.832,0,1.473,1.473,0,0,0,1.473,1.473h11.885A1.473,1.473,0,0,0,375.832,278.367ZM364.2,276.894a4.428,4.428,0,0,1,4.168-2.947,4.586,4.586,0,0,1,4.25,2.947Z" transform="translate(-325.54 -244.38)" fill="#326220"/>
  <path id="Path_82441" data-name="Path 82441" d="M98.889,396.883a1.473,1.473,0,1,0,1.476-2.551,19.246,19.246,0,0,1-3.829-2.911,1.473,1.473,0,0,0-2.062,2.1A22.193,22.193,0,0,0,98.889,396.883Z" transform="translate(-84.794 -352.593)" fill="#326220"/>
  <path id="Path_82442" data-name="Path 82442" d="M100.9,59.827a1.473,1.473,0,0,0-2.013-.538,22.19,22.19,0,0,0-4.416,3.357,1.473,1.473,0,0,0,2.062,2.1,19.242,19.242,0,0,1,3.829-2.911A1.474,1.474,0,0,0,100.9,59.827Z" transform="translate(-84.794 -53.287)" fill="#326220"/>
  <path id="Path_82443" data-name="Path 82443" d="M346.2,396.345a1.473,1.473,0,0,0,2.013.538,22.191,22.191,0,0,0,4.416-3.357,1.473,1.473,0,1,0-2.062-2.1,19.244,19.244,0,0,1-3.829,2.911A1.474,1.474,0,0,0,346.2,396.345Z" transform="translate(-312.011 -352.593)" fill="#326220"/>
  <path id="Path_82444" data-name="Path 82444" d="M346.733,61.84a19.245,19.245,0,0,1,3.829,2.911,1.473,1.473,0,0,0,2.062-2.1,22.187,22.187,0,0,0-4.416-3.357,1.473,1.473,0,0,0-1.476,2.551Z" transform="translate(-312.011 -53.286)" fill="#326220"/>
</svg>
