<svg xmlns="http://www.w3.org/2000/svg" width="48.62" height="48.619" viewBox="0 0 48.62 48.619">
  <g id="_020-product" data-name="020-product" transform="translate(0.001)">
    <path id="Path_82462" data-name="Path 82462" d="M38.553,0h-5.7a1.424,1.424,0,0,0-1.424,1.424V22.885H28.582V7.122A1.424,1.424,0,0,0,27.158,5.7h-5.7a1.424,1.424,0,0,0-1.424,1.424V22.885H17.187V12.82A1.424,1.424,0,0,0,15.763,11.4h-5.7A1.424,1.424,0,0,0,8.641,12.82V22.885H7.216a1.424,1.424,0,0,0-1,.409l-5.793,5.7a1.424,1.424,0,0,0,1,2.44H5.792V47.195a1.424,1.424,0,0,0,1.424,1.424H41.4a1.424,1.424,0,0,0,1.424-1.424V31.432h4.368a1.424,1.424,0,0,0,1-2.44l-5.793-5.7a1.425,1.425,0,0,0-1-.409H39.977V1.424A1.424,1.424,0,0,0,38.553,0ZM34.28,2.849h2.849V22.885H34.28Zm-22.79,11.4h2.849v8.641H11.489ZM4.9,28.583l2.9-2.849H20.87l-2.849,2.849ZM22.885,45.771H8.641V31.432h9.971a1.424,1.424,0,0,0,1.007-.417l3.266-3.266Zm0-22.885V8.546h2.849V22.885ZM39.977,45.771H25.733V27.749L29,31.015a1.424,1.424,0,0,0,1.007.417h9.971Zm.841-20.037,2.9,2.849H30.6l-2.849-2.849Z" transform="translate(0)" fill="#326220"/>
  </g>
</svg>
