<svg xmlns="http://www.w3.org/2000/svg" width="51.477" height="39.211" viewBox="0 0 51.477 39.211">
  <g id="_021-growth" data-name="021-growth" transform="translate(0 -60.999)">
    <path id="Path_82445" data-name="Path 82445" d="M1.508,100.21H20.072a1.508,1.508,0,0,0,1.066-.442l6.335-6.335,6.247,6.335a1.508,1.508,0,0,0,2.133,0l8.575-8.575a1.508,1.508,0,0,0,0-2.133L42.3,86.928a7.555,7.555,0,0,0,0-8.319l2.239-2.239,3.2,3.2a1.508,1.508,0,0,0,2.571-.957l1.167-16A1.508,1.508,0,0,0,49.869,61l-16.1,1.066a1.508,1.508,0,0,0-.967,2.571l3.2,3.2-4.448,4.448a4.532,4.532,0,0,0-5.149.884l-6.4,6.4a4.525,4.525,0,0,0-.885,5.15L15.7,88.145H1.508A1.508,1.508,0,0,0,0,89.653V98.7a1.508,1.508,0,0,0,1.508,1.508Zm37.7-31.3a1.508,1.508,0,0,0,0-2.133L37.29,64.859l11.048-.732-.8,10.979L45.6,73.171a1.508,1.508,0,0,0-2.133,0L38.138,78.5l-4.266-4.266ZM22.142,81.7l6.4-6.4a1.51,1.51,0,0,1,2.133,0l6.4,6.4a1.509,1.509,0,0,0,2.133,0l.884-.884a4.532,4.532,0,0,1-.884,5.149,1.508,1.508,0,0,0,0,2.133l2.026,2.026-6.4,6.4L22.142,83.835a1.507,1.507,0,0,1,0-2.133ZM3.016,91.161H16.324a1.508,1.508,0,0,0,1.066-.442l3.685-3.685L25.341,91.3l-5.893,5.894H3.016Z" transform="translate(0 0)" fill="#326220"/>
    <path id="Path_82446" data-name="Path 82446" d="M141.59,111.591a1.508,1.508,0,0,0,0-2.133l-3.016-3.016a1.508,1.508,0,1,0-2.133,2.133l3.016,3.016A1.508,1.508,0,0,0,141.59,111.591Z" transform="translate(-122.326 -40.477)" fill="#326220"/>
    <path id="Path_82447" data-name="Path 82447" d="M106,227.508a1.508,1.508,0,0,0,1.508,1.508h3.016a1.508,1.508,0,1,0,0-3.016h-3.016A1.508,1.508,0,0,0,106,227.508Z" transform="translate(-95.343 -148.412)" fill="#326220"/>
    <path id="Path_82448" data-name="Path 82448" d="M259.016,80.524V77.508a1.508,1.508,0,1,0-3.016,0v3.016a1.508,1.508,0,1,0,3.016,0Z" transform="translate(-230.262 -13.493)" fill="#326220"/>
  </g>
</svg>
