<svg xmlns="http://www.w3.org/2000/svg" width="50.97" height="50.97" viewBox="0 0 50.97 50.97">
  <g id="_024-growth_chart" data-name="024-growth chart" transform="translate(0 0)">
    <path id="Path_82425" data-name="Path 82425" d="M50.351.283A1.493,1.493,0,0,0,48.821.151c-.075.036-7.512,3.659-11.08,4.861a1.493,1.493,0,0,0-.5,2.542l1.125.978C28.187,19.919,14.813,26.586,1.461,26.879A1.493,1.493,0,0,0,0,28.372v21.1a1.493,1.493,0,0,0,1.493,1.493H7.466A1.493,1.493,0,0,0,8.96,49.476v-14.4q1.493-.261,2.986-.608V49.476a1.493,1.493,0,0,0,1.493,1.493h5.973a1.493,1.493,0,0,0,1.493-1.493V31.611q1.5-.614,2.986-1.312V49.476a1.493,1.493,0,0,0,1.493,1.493h5.973a1.493,1.493,0,0,0,1.493-1.493V25.187q1.515-1.036,2.986-2.171v26.46a1.493,1.493,0,0,0,1.493,1.493H43.3A1.493,1.493,0,0,0,44.8,49.476V14.749c.106-.115.212-.23.317-.346l1.138.99a1.493,1.493,0,0,0,2.427-.759c1.106-4.35,2.229-12.591,2.277-12.94A1.494,1.494,0,0,0,50.351.283ZM5.973,47.983H2.987V35.775q1.488-.085,2.986-.261Zm11.946,0H14.933V33.692q1.5-.434,2.986-.952Zm11.946,0H26.878V28.8q1.511-.8,2.986-1.691Zm11.946,0H38.824V20.572q1.52-1.317,2.986-2.743ZM46.322,11.5l-.363-.316a1.493,1.493,0,0,0-2.106.146,64.6,64.6,0,0,1-18.99,15.157l-.009,0a54.846,54.846,0,0,1-21.867,6.3V29.81a49.562,49.562,0,0,0,20.662-5.883A62.242,62.242,0,0,0,41.608,9.356a1.493,1.493,0,0,0-.156-2.1l-.37-.322c2.17-.885,4.687-2.036,6.517-2.895C47.284,6.127,46.817,9.039,46.322,11.5Z" transform="translate(0 0)" fill="#326220"/>
  </g>
</svg>
