<svg xmlns="http://www.w3.org/2000/svg" width="39.599" height="42.615" viewBox="0 0 39.599 42.615">
  <g id="_035-growth" data-name="035-growth" transform="translate(-18.115 0)">
    <path id="Path_82449" data-name="Path 82449" d="M149.73,121a1.248,1.248,0,1,0,0,2.5h1.98l-4.477,4.477-4.111-4.111a1.248,1.248,0,0,0-1.766,0l-4.994,4.994a1.248,1.248,0,0,0,1.766,1.766l4.111-4.111,4.111,4.111a1.248,1.248,0,0,0,1.766,0l5.36-5.36v1.98a1.248,1.248,0,0,0,2.5,0v-4.994A1.249,1.249,0,0,0,154.724,121Z" transform="translate(-108.07 -110.929)" fill="#2d5f4f"/>
    <path id="Path_82450" data-name="Path 82450" d="M70.015,309.661a1.249,1.249,0,0,0-1.924,1.591,20.231,20.231,0,0,0,1.826,1.933,1.248,1.248,0,1,0,1.7-1.831A17.73,17.73,0,0,1,70.015,309.661Z" transform="translate(-45.553 -283.473)" fill="#2d5f4f"/>
    <path id="Path_82451" data-name="Path 82451" d="M18.127,198.074a19.873,19.873,0,0,0,1.511,5.3,1.248,1.248,0,1,0,2.283-1.01,17.377,17.377,0,0,1-1.322-4.638,1.248,1.248,0,0,0-2.473.344Z" transform="translate(0 -180.286)" fill="#2d5f4f"/>
    <path id="Path_82452" data-name="Path 82452" d="M19.251,82.244a1.248,1.248,0,0,0,1.409-1.064,17.64,17.64,0,0,1,1.315-4.645,1.249,1.249,0,0,0-2.287-1,20.143,20.143,0,0,0-1.5,5.3A1.249,1.249,0,0,0,19.251,82.244Z" transform="translate(-0.055 -68.561)" fill="#2d5f4f"/>
    <path id="Path_82453" data-name="Path 82453" d="M69.724.332A19.841,19.841,0,0,0,67.9,2.271a1.248,1.248,0,0,0,1.928,1.586,17.343,17.343,0,0,1,1.6-1.694,1.248,1.248,0,1,0-1.7-1.831Z" transform="translate(-45.378 0)" fill="#2d5f4f"/>
    <path id="Path_82454" data-name="Path 82454" d="M397.745,2.271A19.841,19.841,0,0,0,395.918.333a1.248,1.248,0,1,0-1.7,1.831,17.329,17.329,0,0,1,1.6,1.694,1.248,1.248,0,1,0,1.928-1.587Z" transform="translate(-344.435 0)" fill="#2d5f4f"/>
    <path id="Path_82455" data-name="Path 82455" d="M449.7,82.2a1.248,1.248,0,0,0,1.064-1.409,20.138,20.138,0,0,0-1.5-5.3,1.249,1.249,0,0,0-2.287,1,17.64,17.64,0,0,1,1.316,4.645A1.249,1.249,0,0,0,449.7,82.2Z" transform="translate(-393.071 -68.525)" fill="#2d5f4f"/>
    <path id="Path_82456" data-name="Path 82456" d="M447.616,203.973a1.248,1.248,0,0,0,1.647-.637,19.882,19.882,0,0,0,1.51-5.3,1.248,1.248,0,1,0-2.473-.343,17.388,17.388,0,0,1-1.321,4.638A1.248,1.248,0,0,0,447.616,203.973Z" transform="translate(-393.07 -180.247)" fill="#2d5f4f"/>
    <path id="Path_82457" data-name="Path 82457" d="M397.364,309.493a1.248,1.248,0,0,0-1.758.167,17.723,17.723,0,0,1-1.6,1.694,1.248,1.248,0,1,0,1.7,1.831,20.252,20.252,0,0,0,1.826-1.933A1.249,1.249,0,0,0,397.364,309.493Z" transform="translate(-344.238 -283.471)" fill="#2d5f4f"/>
    <path id="Path_82458" data-name="Path 82458" d="M90.979,0a15.024,15.024,0,0,0-4.994,29.18v7.193a1.249,1.249,0,0,0,1.248,1.248h7.491a1.249,1.249,0,0,0,1.248-1.248V29.18A15.024,15.024,0,0,0,90.979,0Zm3.405,27.067a1.248,1.248,0,0,0-.908,1.2v6.856H88.482V28.268a1.248,1.248,0,0,0-.908-1.2,12.485,12.485,0,1,1,6.81,0Z" transform="translate(-53.064 0)" fill="#2d5f4f"/>
    <path id="Path_82459" data-name="Path 82459" d="M212.245,482a1.248,1.248,0,0,0,0,2.5h4.994a1.248,1.248,0,1,0,0-2.5Z" transform="translate(-176.828 -441.883)" fill="#2d5f4f"/>
  </g>
</svg>
