<svg xmlns="http://www.w3.org/2000/svg" width="42.769" height="45.621" viewBox="0 0 42.769 45.621">
  <g id="_049-target" data-name="049-target" transform="translate(-16 -0.001)">
    <path id="Path_82461" data-name="Path 82461" d="M57.433,5.347h-4.01V1.337A1.337,1.337,0,0,0,51.142.392L46.134,5.4A20.04,20.04,0,0,0,23,37.926L18.93,43.5a1.337,1.337,0,0,0,2.159,1.576l4.044-5.542a20.006,20.006,0,0,0,21.829,0l4.044,5.542A1.337,1.337,0,0,0,53.166,43.5L49.1,37.926a20.02,20.02,0,0,0,4.269-25.29l5.008-5.008a1.337,1.337,0,0,0-.945-2.282ZM48.077,22.722a12.043,12.043,0,1,1-4.525-9.394l-1.9,1.9a9.364,9.364,0,1,0,1.89,1.89l1.9-1.9A11.971,11.971,0,0,1,48.077,22.722ZM36.048,24.058h2.673a1.336,1.336,0,0,0,.468-2.587l2.432-2.432a6.691,6.691,0,1,1-1.89-1.89L37.3,19.581a1.336,1.336,0,0,0-2.587.468v2.673A1.34,1.34,0,0,0,36.048,24.058Zm17.375-1.337A17.388,17.388,0,1,1,45.4,8.087v3.3a14.718,14.718,0,1,0,1.977,1.977h3.3A17.241,17.241,0,0,1,53.423,22.722Zm-1.89-12.029H48.077V7.237L50.75,4.564V6.683A1.337,1.337,0,0,0,52.087,8.02h2.119Z" transform="translate(0 0)" fill="#326220"/>
  </g>
</svg>
