<svg id="Accessibility_Checkmark" data-name="Accessibility Checkmark" xmlns="http://www.w3.org/2000/svg" width="36.262" height="36.262" viewBox="0 0 36.262 36.262">
  <path id="Path_82357" data-name="Path 82357" d="M17.171,9.333a2.72,2.72,0,1,1,2.72,2.72A2.718,2.718,0,0,1,17.171,9.333ZM19.89,4.8a4.532,4.532,0,0,0-4.533,4.533,4.455,4.455,0,0,0,.128,1.058L11.678,8.7a3.194,3.194,0,0,0-4.2,1.594,3.155,3.155,0,0,0,1.594,4.193l5.379,2.395v4.147l-3.4,8.423a3.169,3.169,0,0,0,5.878,2.372l.159-.385a9.757,9.757,0,0,1-.771-2.931l-1.065,2.637a1.361,1.361,0,1,1-2.523-1.02l3.407-8.416a1.905,1.905,0,0,0,.128-.68V16.88a1.809,1.809,0,0,0-1.073-1.654L9.8,12.823a1.339,1.339,0,0,1-.672-1.783,1.388,1.388,0,0,1,1.813-.687l7.1,3.165a4.541,4.541,0,0,0,3.687,0l7.1-3.165a1.388,1.388,0,0,1,1.813.687,1.339,1.339,0,0,1-.672,1.783l-5.386,2.4a1.809,1.809,0,0,0-1.073,1.654v.99a10.247,10.247,0,0,1,1.813-.34v-.65l5.379-2.395A3.155,3.155,0,0,0,32.3,10.292,3.194,3.194,0,0,0,28.1,8.7L24.295,10.39a4.455,4.455,0,0,0,.128-1.058A4.532,4.532,0,0,0,19.89,4.8ZM34.4,27.464A8.159,8.159,0,1,1,26.236,19.3,8.164,8.164,0,0,1,34.4,27.464ZM30.5,24.1a.907.907,0,0,0-1.284,0l-4.8,4.8-1.171-1.171a.908.908,0,0,0-1.284,1.284l1.813,1.813a.907.907,0,0,0,1.284,0L30.5,25.386A.907.907,0,0,0,30.5,24.1Z" transform="translate(-2.663 -2.08)" fill="#585858"/>
  <path id="Path_82358" data-name="Path 82358" d="M0,0H36.262V36.262H0Z" fill="none"/>
</svg>
