<svg id="checklist" xmlns="http://www.w3.org/2000/svg" width="35.843" height="35.843" viewBox="0 0 35.843 35.843">
  <path id="Path_82359" data-name="Path 82359" d="M6.24,6.614a.37.37,0,0,1,.373-.373H26.775a.37.37,0,0,1,.373.373V21.548a1.12,1.12,0,0,0,2.24,0V6.614A2.616,2.616,0,0,0,26.775,4H6.614A2.616,2.616,0,0,0,4,6.614V31.256a2.616,2.616,0,0,0,2.614,2.614H17.068a1.12,1.12,0,1,0,0-2.24H6.614a.37.37,0,0,1-.373-.373Z" transform="translate(-1.013 -1.013)" fill="#585858"/>
  <path id="Path_82360" data-name="Path 82360" d="M12.12,14a1.12,1.12,0,1,0,0,2.24H24.814a1.12,1.12,0,1,0,0-2.24ZM11,21.094a1.119,1.119,0,0,1,1.12-1.12h6.721a1.12,1.12,0,1,1,0,2.24H12.12A1.119,1.119,0,0,1,11,21.094Zm24.314,6.765a1.12,1.12,0,1,0-1.583-1.583L26.308,33.7l-2.942-2.942a1.12,1.12,0,1,0-1.583,1.583l3.734,3.734a1.127,1.127,0,0,0,1.583,0Z" transform="translate(-2.786 -3.546)" fill="#585858"/>
  <path id="Path_82361" data-name="Path 82361" d="M0,0H35.843V35.843H0Z" fill="none"/>
</svg>
