<svg id="ellipsis_dots_h" data-name="ellipsis dots h" xmlns="http://www.w3.org/2000/svg" width="36.262" height="36.262" viewBox="0 0 36.262 36.262">
  <path id="Path_82364" data-name="Path 82364" d="M9.065,22.533A4.533,4.533,0,1,1,4.533,18,4.531,4.531,0,0,1,9.065,22.533Z" transform="translate(0 -4.402)" fill="#585858"/>
  <path id="Path_82365" data-name="Path 82365" d="M27.065,22.533A4.533,4.533,0,1,1,22.533,18,4.527,4.527,0,0,1,27.065,22.533Z" transform="translate(-4.402 -4.402)" fill="#585858"/>
  <path id="Path_82366" data-name="Path 82366" d="M45.065,22.533A4.533,4.533,0,1,1,40.533,18,4.531,4.531,0,0,1,45.065,22.533Z" transform="translate(-8.804 -4.402)" fill="#585858"/>
  <path id="Path_82367" data-name="Path 82367" d="M0,0H36.262V36.262H0Z" fill="none"/>
</svg>
