<svg id="_6mVtjE" data-name="6mVtjE" xmlns="http://www.w3.org/2000/svg" width="168.78" height="39.716" viewBox="0 0 168.78 39.716">
  <g id="Group_3931" data-name="Group 3931" transform="translate(0 0)">
    <path id="Path_4796" data-name="Path 4796" d="M-2773.133,1056.888a.137.137,0,0,0-.106.023c-.237-.01-.475-.03-.711-.03-6.994,0-13.988-.009-20.982.015-.62,0-.709-.14-.582-.721.255-1.162.592-2.3.91-3.444l.055-.179,1.627-3.6.176-.345a37.442,37.442,0,0,1,3.6-5l.173-.2a4.9,4.9,0,0,0,.917-.94l-.006,0,.137-.142-.01.01.146-.135-.011.011.141-.141-.011.011.142-.141-.011.011.142-.142-.012.012.148-.135-.011.011.142-.141,0,.007.13-.13-.007.006.208-.179.148-.14c1.528-1.34,3.067-2.669,4.582-4.025a12.15,12.15,0,0,0,2.7-3.122.283.283,0,0,0,.147-.255,6.165,6.165,0,0,0-1.443-8.1,18.722,18.722,0,0,0-3.491-2,8.7,8.7,0,0,1-1.849-1.076,1.387,1.387,0,0,1,.041-2.361,4.377,4.377,0,0,1,1.263-.658c.979-.352,1.966-.68,2.94-1.044a1.956,1.956,0,0,0,1.224-.906c.151-.329.358-.365.663-.364,1.974.008,3.948,0,5.922,0,.975,0,.844-.106.844.814q0,18.873,0,37.745C-2773.108,1056.151-2773.125,1056.519-2773.133,1056.888Z" transform="translate(2941.883 -1017.194)" fill="#383535"/>
    <path id="Path_4797" data-name="Path 4797" d="M-2927.075,1017.024c1.6.011,3.207.031,4.811.032q10.669,0,21.338,0c.216,0,.433-.014.649-.022.111.532-.359.6-.653.739a16.34,16.34,0,0,1-2.533.814,11.431,11.431,0,0,0-3.064,1.23c-1.606,1.03-1.675,2.632-.149,3.753.662.486,1.388.885,2.068,1.347a3.314,3.314,0,0,1,.762,5.2,9.946,9.946,0,0,1-2.3,2c-2.366,1.576-4.917,2.832-7.381,4.24a45.563,45.563,0,0,0-12.5,9.944c-.369.436-.727.882-1.178,1.43-.013-.246-.022-.344-.022-.443q0-14.83,0-29.66C-2927.223,1017.417-2927.283,1017.186-2927.075,1017.024Z" transform="translate(3056.407 -1017.024)" fill="#383535"/>
    <path id="Path_4798" data-name="Path 4798" d="M-3402.3,1078.6c.012-1.477.038-2.955.029-4.432,0-.385.081-.561.5-.51a2.957,2.957,0,0,0,.838,0c.543-.092.735.148.708.651a1.12,1.12,0,0,0,.013.682l.634-.714.285-.228.42-.25a5.256,5.256,0,0,1,2.593-.325l0,0,1.242.429.688.574a5.3,5.3,0,0,1,.805,3.677c-.022.442.083.591.557.587q3.862-.036,7.725,0c.435,0,.543-.126.535-.546-.026-1.341-.012-2.683-.007-4.025,0-.215-.1-.506.28-.527l.262,0,.259,0,1.129.033c.008,1.517.021,3.033.019,4.55,0,.313,0,.517.428.515,4.638-.023,9.277-.025,13.915-.033l.151-.054-.119-.129a3.277,3.277,0,0,1-.827-2.135,2.394,2.394,0,0,1,.169-.727,5.808,5.808,0,0,1,.792-1.338c1.329-1.385,4.774-1.164,5.4.745a5.093,5.093,0,0,1,.295,1.585c0,1.084-.024,2.17.026,3.253.024.522-.163.586-.622.586q-17.669-.018-35.338-.009c-4.664,0-9.328-.007-13.992.014-.49,0-.61-.118-.605-.606q.036-4.588,0-9.176c0-.42.092-.555.531-.553,1.435.006,1.435-.013,1.435,1.4q0,3.319,0,6.638c0,.278-.068.547.4.542,2.776-.026,5.552-.026,8.328-.034C-3402.323,1078.732-3402.282,1078.7-3402.3,1078.6Zm4.373.127c.692,0,1.383,0,2.075,0,.22,0,.373-.019.366-.3a7.731,7.731,0,0,0-.167-2.06,1.587,1.587,0,0,0-1.612-1.245,2.85,2.85,0,0,0-3.066,3.257c.024.3.134.358.393.353C-3399.264,1078.725-3398.594,1078.732-3397.924,1078.732Zm33.394-1.334h.019c-.021-.432-.013-.868-.071-1.295a1.057,1.057,0,0,0-.906-.972,1.244,1.244,0,0,0-1.34.445,2.154,2.154,0,0,0-.172,2.11,1.586,1.586,0,0,0,1.45,1.029c1.02.1,1.02.107,1.02-.926Z" transform="translate(3479.023 -1063.245)" fill="#383535"/>
    <path id="Path_4799" data-name="Path 4799" d="M-3145.138,1208.288c.365-.936.533-1.94.992-2.843l.069-.28q.248-.726.5-1.453a2.227,2.227,0,0,0,.293-.728l2.461-.033c.148.148.044.357.124.521-.011,2.982-.039,5.965-.023,8.947,0,.926.06.943-.865.917-.4-.011-.88.194-1.179-.121-.258-.272.023-.685.02-1.038-.014-1.426-.021-2.852-.031-4.278v-1l-.109-.011-.289,1.008c-.5,1.237-.914,2.5-1.3,3.778a.268.268,0,0,0-.1.262c-.081.175-.17.346-.241.524-.115.285.044.76-.348.832a6.493,6.493,0,0,1-1.6.032c-.225-.015-.208-.325-.268-.5-.332-.969-.619-1.953-.948-2.922-.288-.847-.613-1.681-.921-2.521a.908.908,0,0,0-.267-.681c.017.4.029.669.041.938-.009,1.733-.03,3.466-.019,5.2,0,.383-.072.521-.492.522-1.467,0-1.468.021-1.468-1.424,0-2.774.017-5.548-.014-8.322-.006-.56.165-.709.687-.653a5.5,5.5,0,0,0,1.233,0c.55-.066.777.151.944.674.723,2.255,1.5,4.494,2.253,6.739,0,.062-.008.141.075.128.04-.006.07-.084.1-.13l.6-1.813A.252.252,0,0,0-3145.138,1208.288Z" transform="translate(3251.153 -1178.739)" fill="#383535"/>
    <path id="Path_4800" data-name="Path 4800" d="M-3663.345,1101.572l-.437-.414-.427-.641a4.765,4.765,0,0,1-.085-3.361l.2-.411a2.772,2.772,0,0,1,2.685-1.383,3.7,3.7,0,0,1,2.764.951.053.053,0,0,0,.05.063,5.5,5.5,0,0,1,.607,3.179c-.006.322.019.644.029.967-.02.1.031.119.115.1q6.222.013,12.444.024c.54,0,1.079-.016,1.619-.024.09.026.129,0,.112-.1a18.909,18.909,0,0,0-.147-4.165l-.11-.262a3.042,3.042,0,0,1,.945-.493c.795-.391.983-.319,1.2.553a5.009,5.009,0,0,1,.119,1.158c.014,1.538,0,3.076.015,4.614,0,.349-.069.483-.46.482-6.175-.014-12.349,0-18.523-.022a3.191,3.191,0,0,1-1.621-.249Zm3.426-2.185c-.033-.4-.062-.873-.113-1.347a.989.989,0,0,0-.916-1.006,1.245,1.245,0,0,0-1.432.644,2.28,2.28,0,0,0,.082,2.184,2.081,2.081,0,0,0,2.137.76C-3659.659,1100.4-3660.069,1099.849-3659.919,1099.387Z" transform="translate(3697.739 -1085.161)" fill="#383535"/>
    <path id="Path_4801" data-name="Path 4801" d="M-3309.161,1202.93q-.017,4.645-.033,9.289c0,.842,0,.842-.834.843a2.942,2.942,0,0,0-.519,0,.787.787,0,0,1-.99-.551l-1.255-1.945a.62.62,0,0,0-.229-.369,1.928,1.928,0,0,0-.426-.662c-.56-.724-.942-1.559-1.437-2.323-.09-.139-.16-.341-.381-.278s-.152.283-.153.439c-.006,1.71-.021,3.421.009,5.13.009.472-.141.57-.583.566-1.559-.014-1.559,0-1.559-1.526,0-2.728.021-5.455-.017-8.182-.009-.6.2-.626.716-.71a1.8,1.8,0,0,1,2.041,1.21,4.955,4.955,0,0,0,.659,1.035,5.866,5.866,0,0,0,.8,1.3l.276.41.887,1.416a6.545,6.545,0,0,0,.851,1.323c0-.425,0-.723,0-1.022,0-.105-.02-.211-.03-.316q0-2.408,0-4.817c-.035-.416.156-.548.563-.511a10.642,10.642,0,0,0,1.213,0C-3309.4,1202.679-3309.209,1202.674-3309.161,1202.93Zm-6.071,3.794-.1-.19a.168.168,0,0,0-.08.212c.016.042.075.069.114.1Z" transform="translate(3395.925 -1178.458)" fill="#383535"/>
    <path id="Path_4802" data-name="Path 4802" d="M-3752.552,1208.695a3.252,3.252,0,0,1-.338,3.784l-.477.351a5.353,5.353,0,0,1-2.677.571q-1.724-.027-3.449,0c-.343.005-.5-.053-.5-.449.015-3.167.01-6.334.005-9.5,0-.268.007-.455.37-.439a40.693,40.693,0,0,1,4.671.125c.4.064.787.178,1.181.27l.681.46a3.157,3.157,0,0,1,.515,3.041,3.274,3.274,0,0,1-.959.969Zm-5.33,1.59c0,.347.006.694,0,1.041-.006.22.019.389.3.378a12.588,12.588,0,0,0,2.27-.091,1.265,1.265,0,0,0,1.1-1.447,1.184,1.184,0,0,0-1.216-1.255,9.154,9.154,0,0,0-1.039-.035C-3757.88,1208.873-3757.88,1208.875-3757.881,1210.285Zm1.251-3.129a12.016,12.016,0,0,0,1.224-.092,1.016,1.016,0,0,0,.9-1.147,1.011,1.011,0,0,0-.888-1.1,6.1,6.1,0,0,0-1.354-.095c-1.136,0-1.136,0-1.134,1.164C-3757.878,1207.128-3757.878,1207.128-3756.63,1207.155Z" transform="translate(3780.743 -1178.792)" fill="#383535"/>
    <path id="Path_4803" data-name="Path 4803" d="M-3401.7,1200.9a6.617,6.617,0,0,1,2.945.685l.55.415.121.1.917,1.228-.005.04.035.021.122.261a8.051,8.051,0,0,1,.129,4.981,4.395,4.395,0,0,1-2.756,2.964,6.83,6.83,0,0,1-3.165.115,2.994,2.994,0,0,1-2.041-1.022l-.245-.248a4.589,4.589,0,0,1-1.212-2.494l-.069-.266a12.634,12.634,0,0,1,.015-2.822,4.42,4.42,0,0,1,1.112-2.3c.111-.13.214-.266.321-.4l.233-.207a4.219,4.219,0,0,1,1.952-.926Zm2.878,5.484a4.773,4.773,0,0,0-.292-1.982,2.357,2.357,0,0,0-2.425-1.6,2.327,2.327,0,0,0-2.359,1.689,6.012,6.012,0,0,0,0,3.776,2.268,2.268,0,0,0,2.293,1.674,2.324,2.324,0,0,0,2.47-1.517A4.692,4.692,0,0,0-3398.818,1206.381Z" transform="translate(3473.228 -1176.958)" fill="#383535"/>
    <path id="Path_4804" data-name="Path 4804" d="M-3230.679,1204.061a8.7,8.7,0,0,1-.145,5.328,8.607,8.607,0,0,1-1.033,1.432,4.873,4.873,0,0,1-2.85,1.181l-1.823-.116-.91-.281-.755-.432-.512-.433-.3-.317a5.4,5.4,0,0,1-1.117-2.286,15.95,15.95,0,0,1-.031-2.688,4.93,4.93,0,0,1,2.37-3.829,4.378,4.378,0,0,1,2.16-.529,12.75,12.75,0,0,1,1.3.008.273.273,0,0,0,.273.068,5.384,5.384,0,0,1,2.231,1.136l.325.337.465.686Zm-1.913,2.623a4.987,4.987,0,0,0-.412-2.4,2.289,2.289,0,0,0-2.2-1.328,2.233,2.233,0,0,0-2.277,1.295,5.464,5.464,0,0,0,.031,4.644,2.025,2.025,0,0,0,1.427,1.129,2.524,2.524,0,0,0,3.29-1.987A6.145,6.145,0,0,0-3232.592,1206.683Z" transform="translate(3328.628 -1177.113)" fill="#383535"/>
    <path id="Path_4805" data-name="Path 4805" d="M-3912.572,1212.613a7.2,7.2,0,0,1-4.192.762c-.693-.006-1.387-.018-2.08.006-.4.014-.559-.061-.555-.527.025-3.12.011-6.24.014-9.36,0-.219-.1-.514.3-.5,1.83.078,3.677-.206,5.489.258.167.043.333.092.5.139l.256.136.511.289a5.363,5.363,0,0,1,1.24,1.357,7.169,7.169,0,0,1,.3,5.108,4.474,4.474,0,0,1-1.164,1.849Zm-4.65-4.424q0,.844,0,1.688c0,1.822,0,1.822,1.878,1.613a2.554,2.554,0,0,0,2.471-2.022,5.325,5.325,0,0,0-.015-2.761,2.3,2.3,0,0,0-2.244-1.821c-.539-.032-1.083,0-1.622-.024-.357-.017-.49.086-.479.469C-3917.2,1206.283-3917.223,1207.236-3917.222,1208.189Z" transform="translate(3919.398 -1178.771)" fill="#383535"/>
    <path id="Path_4806" data-name="Path 4806" d="M-3544.223,1208.991c-1.344,0-2.689.022-4.033,0-.422-.007-.575.1-.54.539a8.585,8.585,0,0,1,0,1.495c-.043.465.159.532.556.526,1.388-.018,2.777.01,4.164-.014.4-.007.537.065.462.5-.233,1.354-.219,1.357-1.615,1.357-1.692,0-3.384-.018-5.075.01-.533.009-.718-.028-.7-.7.068-2.991.05-5.986.012-8.978-.008-.622.183-.737.755-.727,1.951.035,3.9.027,5.856,0,.437-.005.539.123.535.546-.012,1.337.006,1.337-1.352,1.338-1.041,0-2.083.017-3.123,0-.367-.008-.494.1-.469.471.038.561-.183,1.288.093,1.642.294.377,1.055.105,1.611.121.78.022,1.564.042,2.342-.008.515-.033.64.154.593.622a7.442,7.442,0,0,0,.024.972Z" transform="translate(3598.973 -1178.784)" fill="#383535"/>
    <path id="Path_4807" data-name="Path 4807" d="M-3838.587,1211.433a5.547,5.547,0,0,1-.482-2.832c.012-1.864.01-3.728-.032-5.59,0-.219.052-.25.184-.3a.707.707,0,0,1,.193-.007c1.862-.125,1.862-.125,1.863,1.727,0,1.5-.007,2.991,0,4.486a9.266,9.266,0,0,0,.1,1.1,1.533,1.533,0,0,0,1.28,1.39,2.067,2.067,0,0,0,2.006-.477,2.771,2.771,0,0,0,.615-1.966c-.025-1.907.006-3.815-.018-5.722-.005-.422.089-.593.53-.539.531.066,1.243-.232,1.553.12.262.3.086.99.088,1.508.006,1.561-.006,3.121.009,4.682a5.3,5.3,0,0,1-.428,2.385,3.072,3.072,0,0,1-1.777,1.62c-.2.064-.389.148-.583.223a12.618,12.618,0,0,1-2.34.089,3.648,3.648,0,0,1-1.847-.734l-.5-.481-.253-.309C-3838.394,1211.64-3838.507,1211.544-3838.587,1211.433Z" transform="translate(3849.557 -1178.477)" fill="#383535"/>
    <path id="Path_4808" data-name="Path 4808" d="M-3485.319,1203.191l.062-.117.211-.309q.406-.439.809-.878c.17.009.224-.1.251-.245a6.8,6.8,0,0,1,3.511-.655.542.542,0,0,0,.406.087l.365.076.656.236.256.144.653.51a5.752,5.752,0,0,1,1,2c.1.357.082.536-.37.6a3.757,3.757,0,0,0-1.232.228c-.277.138-.48-.029-.591-.356-.452-1.333-.885-1.675-1.989-1.641a2.227,2.227,0,0,0-2.212,1.824,5.363,5.363,0,0,0,.277,4.083l.235.38.193.189.147.137a1.9,1.9,0,0,0,1.816.483,1.289,1.289,0,0,0,1.214-.668.465.465,0,0,0,.086-.095c.184-.371.157-1.02.478-1.1a6.7,6.7,0,0,1,1.989-.056c.477.025.1.4.183.6l-.085.4-.234.637-.241.436-.266.374-.646.618a.13.13,0,0,0-.108.064l-.579.345a7.339,7.339,0,0,1-3.582.275c-.507-.08-.848-.455-1.318-.568l-.521-.412-.376-.388-.49-.734a3.454,3.454,0,0,1-.683-2.019,7.943,7.943,0,0,1,.508-4.074Z" transform="translate(3542.503 -1177.027)" fill="#383535"/>
    <path id="Path_4809" data-name="Path 4809" d="M-3685.717,1213.379a6.432,6.432,0,0,0-1.794-.066c-.383,0-.607-.1-.636-.5,0-.038-.036-.073-.049-.111-.585-1.779-.585-1.78-2.44-1.779a6.625,6.625,0,0,1-.97-.005c-.656-.1-.97.169-1,.815a1.06,1.06,0,0,0-.205.528l-.034.142a.5.5,0,0,0-.134.405.741.741,0,0,1-.878.508c-.488-.037-.982.005-1.473.013-.135-.179.049-.346.02-.521a3.235,3.235,0,0,0,.393-1.038.264.264,0,0,0,.1-.268l.744-1.929.181-.54,1.22-3.238.308-.8.058-.191a2.725,2.725,0,0,0,.365-.98.525.525,0,0,0,.146-.386.506.506,0,0,0,.143-.383l.105-.128.516-.024h1.3c.276.018.321.238.4.441.2.521.417,1.037.627,1.555.86,2.321,1.732,4.638,2.57,6.967.175.485.513.943.391,1.511Zm-4.859-7.946-1.225,3.663h2.469Z" transform="translate(3724.544 -1178.699)" fill="#383535"/>
    <path id="Path_4810" data-name="Path 4810" d="M-3056.729,1205.392a16.457,16.457,0,0,0,1.272-2.364.917.917,0,0,1,.971-.635,3.694,3.694,0,0,0,1.579-.089h0c.2.319-.093.513-.2.746a16.093,16.093,0,0,0-.819,1.529,1.729,1.729,0,0,0-.388.675.9.9,0,0,0-.269.478.756.756,0,0,0-.249.435l-.448.761-.161.284a3.785,3.785,0,0,0-.83,2.7c.078.791,0,1.6.022,2.394.008.335-.04.522-.447.493-.558-.04-1.286.188-1.633-.088s-.082-1.03-.1-1.576c-.017-.647-.024-1.3,0-1.942a1.485,1.485,0,0,0-.324-1.067.608.608,0,0,0-.229-.435,36.746,36.746,0,0,0-2.179-3.62,1.419,1.419,0,0,0-.418-.82c-.124-.086-.078-.3-.255-.344a.477.477,0,0,0-.154-.38.106.106,0,0,0,.006-.1l.769-.043h.78l.881.049-.007-.007.558,1.01a3.809,3.809,0,0,0,.631,1.179.947.947,0,0,0,.275.515,1.009,1.009,0,0,0,.271.517l.464.977Z" transform="translate(3173.61 -1178.18)" fill="#383535"/>
    <path id="Path_4811" data-name="Path 4811" d="M-3471.524,1097.419c.515,1.531.24,3.115.313,4.676.013.286-.145.306-.364.3q-3.113-.025-6.225-.04l-.061-.173c.009-.042.021-.084.027-.127.068-.459-.215-1.077.14-1.343.294-.221.872-.07,1.324-.072.931,0,1.862-.01,2.793,0,.3.005.432-.08.411-.4a7.27,7.27,0,0,0-.085-1.421.967.967,0,0,0-.156-.542c-.231-.8-.9-.983-1.6-1.113l-.281,0a.5.5,0,0,0-.394.05l-.256.049a.792.792,0,0,0-.494.076c-.16.077-.37-.015-.362-.136.033-.539-.506-.946-.323-1.506l.037-.017v-.041a6.055,6.055,0,0,1,4.115.148l.633.447.4.46Z" transform="translate(3535.362 -1085.156)" fill="#383535"/>
    <path id="Path_4812" data-name="Path 4812" d="M-3606.531,1207.963c0,1.538-.012,3.076.009,4.614.005.4-.046.614-.515.554-.531-.067-1.241.225-1.553-.116-.265-.289-.1-.985-.1-1.5,0-2.708.007-5.415-.011-8.123,0-.467.057-.74.616-.65.5.081,1.188-.228,1.481.132.246.3.071.954.072,1.452C-3606.529,1205.537-3606.531,1206.75-3606.531,1207.963Z" transform="translate(3649.187 -1178.521)" fill="#383535"/>
    <path id="Path_4813" data-name="Path 4813" d="M-3008.642,1075.272c0,1.517-.016,3.034.01,4.55.008.473-.062.685-.623.668-1.372-.042-1.37-.009-1.369-1.4,0-2.773.014-5.547-.011-8.32,0-.483.1-.627.6-.616,1.392.032,1.393.006,1.393,1.416Q-3008.643,1073.42-3008.642,1075.272Z" transform="translate(3128.953 -1063.234)" fill="#383535"/>
    <g id="Group_3930" data-name="Group 3930" transform="translate(0.253 8.881)">
      <path id="Path_4814" data-name="Path 4814" d="M-3906.629,1089.518c.06.114.018.318.25.28l.021.022c-.056.24.142.292.283.387a.5.5,0,0,0,.408.19l.126.025a.234.234,0,0,0,.266.068q2.981.023,5.962.048c.189,0,.338-.011.33-.268a20.388,20.388,0,0,0-.157-3.88,2.629,2.629,0,0,0-.2-.464l.875-.37.989-.321a3.012,3.012,0,0,1,.458,1.665c.008,1.648,0,3.3.006,4.944,0,.255.014.453-.355.456-2.709.023-5.419.071-8.128-.02a2.845,2.845,0,0,1-1.432-.366c-.252-.156-.378-.114-.481.154a4.466,4.466,0,0,1-2.031,2.255.857.857,0,0,0-.474.226,8.157,8.157,0,0,1-2.987.39,5.445,5.445,0,0,1-1.971-.639l-1.327-1.046c-1.3-1.359-1.281-3.058-1.236-4.767.006-.229.081-.316.3-.3.043,0,.087,0,.13,0,.517.01,1.178-.17,1.513.082.362.272.1.967.118,1.477a3.7,3.7,0,0,0,.569,1.982.614.614,0,0,0,.3.349c.217.243.413.515.773.559a1.391,1.391,0,0,0,.916.285,3.2,3.2,0,0,0,2.375-.335,1.3,1.3,0,0,0,.625-.448,1.668,1.668,0,0,0,.625-.859c.3-.909.041-1.659-1.182-1.865-.35-.059-.4-.15-.406-.458-.021-1.444-.03-1.444,1.409-1.305l.452.046a.277.277,0,0,0,.271.089,4.042,4.042,0,0,1,1.8,1.359Z" transform="translate(3917.453 -1085.235)" fill="#383535"/>
      <path id="Path_4815" data-name="Path 4815" d="M-3744.5,1086.407l.386.525.218.361c.573,1.568.333,3.2.386,4.811.009.276-.133.317-.36.316-1.971,0-3.942-.007-5.913,0-.3,0-.344-.123-.359-.386-.079-1.377-.086-1.376,1.312-1.375.974,0,1.949-.011,2.924.007.331.006.45-.081.447-.434a3.691,3.691,0,0,0-.479-2.322,1.765,1.765,0,0,0-1.012-.693,2.7,2.7,0,0,0-1.539.083c-.609.219-.652-.156-.729-.534a2.086,2.086,0,0,0-.434-1.031c1.758-.461,3.429-.646,4.982.5Z" transform="translate(3771.946 -1085.361)" fill="#383535"/>
      <path id="Path_4816" data-name="Path 4816" d="M-3873.276,1169.977c.522,0,1.044.01,1.564-.011.309-.013.453.035.462.409.03,1.271-.345,1.582-1.6,1.295-.3-.069-.2-.271-.232-.446-.076-.407.186-.866-.186-1.228Z" transform="translate(3879.028 -1158.932)" fill="#383535"/>
      <path id="Path_4817" data-name="Path 4817" d="M-3891.576,1170.246a.933.933,0,0,0-.021.128c-.042,1.434-.042,1.427-1.5,1.31-.236-.019-.327-.065-.352-.325-.133-1.376-.142-1.375,1.245-1.376.2,0,.389,0,.585.006Z" transform="translate(3896.627 -1158.949)" fill="#383535"/>
      <path id="Path_4818" data-name="Path 4818" d="M-3773.329,1148.579a.731.731,0,0,0-.03.126c-.06,1.263-.145,1.322-1.461,1.174-.268-.03-.3-.136-.315-.366-.092-1.3-.1-1.306,1.2-1.293.192,0,.384.036.576.055Z" transform="translate(3793.695 -1140.018)" fill="#383535"/>
    </g>
    <path id="Path_4819" data-name="Path 4819" d="M-3501.17,1159.987c-.856,0-.856,0-.857-.315-.006-1.3-.006-1.3.712-1.3,1.03,0,1.038,0,1.03.934C-3500.291,1160.1-3500.15,1159.976-3501.17,1159.987Z" transform="translate(3556.368 -1139.966)" fill="#383535"/>
    <path id="Path_4820" data-name="Path 4820" d="M-3519.384,1158.7c-.074,1.185-.074,1.175-1.305,1.151-.31-.006-.455-.043-.463-.417-.025-1.217-.044-1.223,1.166-1.2.209,0,.5-.143.6.2C-3519.385,1158.524-3519.385,1158.612-3519.384,1158.7Z" transform="translate(3573.008 -1139.824)" fill="#383535"/>
    <path id="Path_4821" data-name="Path 4821" d="M-3065.454,1076.3c-.632.125-.916-.028-.852-.744.077-.866.024-.811,1.1-.888,1.024-.073.566.637.643,1.057C-3064.4,1076.624-3065.114,1076.2-3065.454,1076.3Z" transform="translate(3177.383 -1067.159)" fill="#383535"/>
    <path id="Path_4822" data-name="Path 4822" d="M-3046.307,1076.267c-.464.052-.931.1-.815-.669.07-.47-.193-1.04.708-.963,1.013.086.95.026,1.039.955C-3045.3,1076.428-3045.792,1076.292-3046.307,1076.267Z" transform="translate(3160.704 -1067.128)" fill="#383535"/>
    <path id="Path_4823" data-name="Path 4823" d="M-3184.2,1076.284c-.333.026-.851.137-.716-.663.076-.451-.233-1.054.691-.979,1.027.085,1.032.018,1.033.877C-3183.191,1076.283-3183.191,1076.283-3184.2,1076.284Z" transform="translate(3280.561 -1067.135)" fill="#383535"/>
    <path id="Path_4824" data-name="Path 4824" d="M-3203.018,1076.315a2.133,2.133,0,0,0-.454-.01c-.574.108-.808-.109-.693-.686.061-.3-.184-.789.13-.885a5.035,5.035,0,0,1,1.484-.037c.038,0,.108.087.107.133a5.65,5.65,0,0,1-.048,1.416c-.01.041-.154.046-.235.068Z" transform="translate(3297.315 -1067.155)" fill="#383535"/>
    <path id="Path_4825" data-name="Path 4825" d="M-3635.216,1076.373c-.826,0-.77-.006-.843-.941-.054-.685.27-.706.782-.69.945.03.946.01.946,1.017C-3634.332,1076.374-3634.332,1076.374-3635.216,1076.373Z" transform="translate(3672.953 -1067.225)" fill="#383535"/>
    <path id="Path_4826" data-name="Path 4826" d="M-3654.545,1074.661c.566-.1,1.021-.065.864.7-.078.383.294.983-.6.926-1.134-.073-1.075-.021-1.155-1.021C-3655.5,1074.408-3654.944,1074.689-3654.545,1074.661Z" transform="translate(3689.805 -1067.123)" fill="#383535"/>
    <path id="Path_4827" data-name="Path 4827" d="M-3674.241,1218.976l-.308.8" transform="translate(3706.428 -1192.683)" fill="#383535"/>
    <path id="Path_4828" data-name="Path 4828" d="M-3662.313,1106l-.2.411" transform="translate(3695.958 -1094.412)" fill="#383535"/>
    <path id="Path_4829" data-name="Path 4829" d="M-3038.895,1243.642a.609.609,0,0,1,.229.435" transform="translate(3153.532 -1214.137)" fill="#383535"/>
    <path id="Path_4830" data-name="Path 4830" d="M-3011.76,1238.1l.161-.284" transform="translate(3129.93 -1209.067)" fill="#383535"/>
    <path id="Path_4831" data-name="Path 4831" d="M-3007.08,1231.966" transform="translate(3125.86 -1203.981)" fill="#383535"/>
    <path id="Path_4832" data-name="Path 4832" d="M-3005.169,1228.627" transform="translate(3124.198 -1201.077)" fill="#383535"/>
    <path id="Path_4833" data-name="Path 4833" d="M-3097.435,1219.988c-.023.093-.046.187-.069.28" transform="translate(3204.511 -1193.563)" fill="#383535"/>
    <path id="Path_4834" data-name="Path 4834" d="M-3334.829,1220.246l-.122-.261" transform="translate(3411.044 -1193.56)" fill="#383535"/>
    <path id="Path_4835" data-name="Path 4835" d="M-2992.314,1202.3l.091.087c-.012,0-.031.01-.034.006-.021-.03-.039-.062-.058-.094Z" transform="translate(3113.017 -1178.18)" fill="#383535"/>
    <path id="Path_4836" data-name="Path 4836" d="M-3621.327,1283.262l.02-.011a.122.122,0,0,0,0,.019Z" transform="translate(3660.135 -1248.589)" fill="#383535"/>
    <path id="Path_4837" data-name="Path 4837" d="M-3300.918,1232.859l-.069.124c-.039-.034-.1-.06-.114-.1a.168.168,0,0,1,.08-.212Z" transform="translate(3381.612 -1204.593)" fill="#383535"/>
  </g>
</svg>
