<svg id="Group_3894" data-name="Group 3894" xmlns="http://www.w3.org/2000/svg" width="110.914" height="29.434" viewBox="0 0 110.914 29.434">
  <g id="Group_3892" data-name="Group 3892" transform="translate(0.014 0)">
    <path id="Path_4067" data-name="Path 4067" d="M-914.361,41.311a.22.22,0,0,0,.121.033c.006.8-.012,1.61.029,2.412.025.491-.116.644-.63.642-5.028-.02-10.056-.006-15.084-.014a2.188,2.188,0,0,1-2.4-2.429q-.006-5.029,0-10.058a2.161,2.161,0,0,1,2.392-2.416q6.771-.012,13.542,0a2.145,2.145,0,0,1,2.333,2.34c.014,1.453.009,2.906,0,4.358a2.237,2.237,0,0,1-2.553,2.542c-3.8,0-7.6.011-11.4-.009-.512,0-.734.109-.681.659a9.785,9.785,0,0,1,0,1.474c-.022.391.136.5.506.494Q-921.265,41.315-914.361,41.311Zm-3.392-5.6c.013-.936.015-1.871.045-2.806.011-.356-.123-.458-.466-.457q-5.019.014-10.037,0c-.351,0-.467.123-.462.467.014.914,0,1.829,0,2.744.355.427.777.095,1.168.1h.3a1.689,1.689,0,0,0,.325.064q4.345.007,8.689.007A.6.6,0,0,0-917.753,35.712Zm.287.116c.015.007.032.022.043.019s.015-.027.022-.041c-.015-.007-.032-.022-.043-.018S-917.459,35.813-917.466,35.828Z" transform="translate(953.767 -29.448)" fill="#383535"/>
    <path id="Path_4068" data-name="Path 4068" d="M-610.606,37.885a2.612,2.612,0,0,1-.646-.683,6.819,6.819,0,0,1-.286-1.156c.014-1.471-.021-2.943.014-4.414a2.035,2.035,0,0,1,2.083-2.076c5.283-.015,10.565,0,15.848.009l.022.02c0,.826-.021,1.651,0,2.477.008.353-.112.469-.46.461-.781-.019-1.562,0-2.343,0-3.57,0-7.14.012-10.71-.012-.581,0-.876.1-.785.757a4.838,4.838,0,0,1,0,1.2c-.067.581.122.757.727.752,3.547-.03,7.1-.005,10.643-.022a3.593,3.593,0,0,1,2.105.448l-.011-.01a2.71,2.71,0,0,1,.833,2.161c-.017,1.34,0,2.681-.006,4.021,0,1.793-.855,2.635-2.672,2.636q-4.825,0-9.65,0c-1.675,0-3.351-.021-5.026.013-.515.01-.663-.151-.627-.644a11.131,11.131,0,0,0,0-1.674c-.041-.525.129-.684.664-.679,3.015.024,6.031.011,9.047.011,1.34,0,2.681,0,4.021,0,.322,0,.568-.014.552-.448-.034-.913-.038-1.827-.054-2.741-.048-.167-.167-.116-.278-.091l-11.924-.012-.8-.179v0C-610.377,37.883-610.463,37.822-610.606,37.885Z" transform="translate(676.033 -29.512)" fill="#383535"/>
    <path id="Path_4069" data-name="Path 4069" d="M-1091.92,30.48a.135.135,0,0,0,.027-.1,3.367,3.367,0,0,1,2.826-1.015c4.95.041,9.9.019,14.852.019l.012.035.036.006c0,.757-.036,1.517,0,2.272.027.524-.14.674-.669.671-3.944-.022-7.888-.013-11.832-.01-.555,0-1.272-.186-1.623.087-.418.325-.127,1.081-.144,1.648-.028.992-.008.993,1.019.93a.46.46,0,0,0,.065-.013h.268c.245.01.49.029.734.029,3.149,0,6.3.065,9.446-.023a2.418,2.418,0,0,1,2.745,2.779c-.087,1.29-.016,2.59-.018,3.885,0,1.8-.806,2.608-2.617,2.61q-6.365,0-12.729,0c-.871,0-1.741-.02-2.611-.03a.131.131,0,0,0-.029-.121c.013-.735.067-1.472.025-2.2-.03-.531.173-.64.65-.625.958.03,1.919.008,2.879.008,3.347,0,6.7-.015,10.042.015.6.006.779-.169.736-.754-.05-.688,0-1.383-.018-2.075,0-.174.153-.5-.26-.463l-11.929-.006-.261-.024a.128.128,0,0,0-.124-.016,3.117,3.117,0,0,1-1.472-1.093l.008.011A19.675,19.675,0,0,1-1091.92,30.48Z" transform="translate(1092.167 -29.354)" fill="#383535"/>
    <path id="Path_4070" data-name="Path 4070" d="M-751.639,44.194q-1.682.02-3.364.04c-.175,0-.3-.052-.335-.237.011-3.575.015-7.15.04-10.725,0-.51-.307-.44-.617-.44-3.084,0-6.167.017-9.251-.016-.613-.007-.731.182-.726.758.029,3.33,0,6.66.024,9.99,0,.514-.116.715-.664.681a18.173,18.173,0,0,0-2.278,0c-.575.036-.754-.12-.75-.729.031-4.157.018-8.313.019-12.47l.111-.362.028-.019-.008-.033a2.558,2.558,0,0,1,1.626-1.308l.266-.029c.266.01.533.027.8.027q6.643,0,13.285,0a2.23,2.23,0,0,1,1.789,2.474Q-751.64,38-751.639,44.194Z" transform="translate(812.837 -29.29)" fill="#383535"/>
    <path id="Path_4071" data-name="Path 4071" d="M-1091.974,176.915c-.167-.2-.044-.458-.118-.678l.3-.079.159,0h.672c.267.01.534.029.8.029q53.977,0,107.953,0c.333,0,.666.037,1,.057l-.012.624a.22.22,0,0,0-.115.047c-.245-.006-.491-.019-.736-.019H-1090.1C-1090.723,176.905-1091.349,176.912-1091.974,176.915Z" transform="translate(1092.102 -156.452)" fill="#383535"/>
    <path id="Path_4072" data-name="Path 4072" d="M-452.218,80.484c.012-2.791.043-5.582.021-8.373-.005-.628.127-.87.8-.814a22.615,22.615,0,0,0,2.411.01c.367-.009.507.106.5.491-.022,2.926-.026,5.852-.036,8.778A29.456,29.456,0,0,1-452.218,80.484Z" transform="translate(538.069 -65.651)" fill="#383535"/>
    <path id="Path_4073" data-name="Path 4073" d="M-448.494,29.262l.2.085q.01,1.391.02,2.781l-.054.134c-1,0-2-.028-3,.017-.547.025-.685-.176-.661-.682.035-.755.009-1.513.009-2.27a.056.056,0,0,0,.074-.044Z" transform="translate(537.878 -29.262)" fill="#383535"/>
    <path id="Path_4074" data-name="Path 4074" d="M-398.6,29.428q7.307,0,14.615.01c1.924,0,2.655.742,2.655,2.688q0,4.861,0,9.722a2.2,2.2,0,0,1-2.466,2.5q-6.5.014-13.006,0a2.226,2.226,0,0,1-2.453-2.509c0-1.5-.006-2.995,0-4.492A2.122,2.122,0,0,1-397,35.077c3.754-.014,7.509-.018,11.263.008.582,0,.812-.138.746-.742a8.163,8.163,0,0,1,0-1.407c.026-.411-.122-.543-.532-.534-1.117.024-2.235.01-3.352.01-3.017,0-6.034-.014-9.05.013-.567.005-.81-.108-.762-.729.057-.733.015-1.474.015-2.211A.067.067,0,0,0-398.6,29.428Zm8.331,8.62c-1.584,0-3.169.016-4.753-.01-.451-.008-.575.147-.558.573.028.735.036,1.474,0,2.209-.024.471.18.556.589.555,3.146-.011,6.292-.016,9.439,0,.466,0,.57-.175.556-.589-.023-.691-.035-1.385,0-2.075.028-.508-.106-.7-.657-.681C-387.188,38.073-388.729,38.047-390.268,38.048Z" transform="translate(492.213 -29.406)" fill="#383535"/>
  </g>
  <g id="Group_3893" data-name="Group 3893" transform="translate(0 24.889)">
    <path id="Path_4075" data-name="Path 4075" d="M-437.295,225.171l-.077.228c-.384.033-.575-.1-.532-.528a7.037,7.037,0,0,0,0-1c-.01-.24-.091-.455-.383-.447a.4.4,0,0,0-.405.438c-.01.467,0,.935,0,1.4a.127.127,0,0,0-.035.105c-.276.008-.608.125-.6-.362.012-.554,0-1.108,0-1.662,0-.185.034-.431.263-.348.451.163.854-.177,1.286-.057.21.172.4.276.684.08a1.657,1.657,0,0,1,.622-.125c.855.465.484,1.282.569,1.97.059.478-.19.578-.591.512a.182.182,0,0,0-.04-.113c.007-.442.016-.884.019-1.326,0-.262-.054-.516-.373-.518-.3,0-.42.227-.426.494C-437.32,224.332-437.3,224.751-437.295,225.171Z" transform="translate(526.923 -221.807)" fill="#383535"/>
    <path id="Path_4076" data-name="Path 4076" d="M-1092.179,220.378l-.089-.136q.019-1.543.038-3.087l.126-.052c.687.134,1.425-.133,2.08.263l-.009-.01a1.276,1.276,0,0,1,.138,1.135l.01-.01c-.384.232-.24.452.015.669l-.012.008q.007.607.013,1.213l-.006.008-.109.111-.364.016a1.053,1.053,0,0,1-.137-.7c.039-.52-.136-.768-.7-.773-.646-.005-.424.448-.416.736C-1091.59,220.207-1091.695,220.451-1092.179,220.378Zm.985-1.863c.357,0,.717.017.736-.413s-.32-.453-.647-.478c-.348-.026-.53.061-.523.464C-1091.621,218.447-1091.493,218.573-1091.194,218.515Z" transform="translate(1092.268 -216.792)" fill="#383535"/>
    <path id="Path_4077" data-name="Path 4077" d="M-774.448,224.309q0,.151,0,.3c-.01.088-.018.176-.029.264-.025.2.075.477-.282.49-.4.014-.316-.283-.323-.513-.009-.289,0-.578-.006-.867-.009-.263.019-.586-.374-.575-.342.01-.416.293-.433.571-.029.465-.039.93-.056,1.4l.006,0-.5,0,.006,0q-.023-1.189-.045-2.378l.132-.056c.528.266,1.089-.211,1.616.073l-.018,0c.137.253.261.183.381-.015l.32-.117c.67-.011.983.322.965.988a8.654,8.654,0,0,0,0,1c.038.426-.139.571-.54.5l-.069-.209c.009-.4.024-.794.027-1.19,0-.281-.042-.568-.4-.558s-.4.292-.4.574C-774.472,224.09-774.456,224.2-774.448,224.309Z" transform="translate(818.846 -221.79)" fill="#383535"/>
    <path id="Path_4078" data-name="Path 4078" d="M-330.354,224.671v-.038a1.829,1.829,0,0,1,.531-1.464h-.015c.515-.257,1.036.081,1.563-.017.257-.048.2.243.2.4.007.626,0,1.252,0,1.877a.934.934,0,0,1-.835,1.04c-.578.08-1.136.047-1.354-.653a.128.128,0,0,0,.042-.09.983.983,0,0,1,.674.162c.488.351.776.165.869-.505C-329.669,225.625-329.908,225.522-330.354,224.671Zm1-1.039a.087.087,0,0,0-.089.059.754.754,0,0,0,.01,1.2.269.269,0,0,0,.426.044l.03.021c.509-.251.376-.7.281-1.085a.4.4,0,0,0-.627-.241Z" transform="translate(432.569 -221.96)" fill="#383535"/>
    <path id="Path_4079" data-name="Path 4079" d="M-507.872,218.317q-.017-.351-.034-.7c.014-.177.041-.353.038-.529,0-.311.018-.683-.431-.677-.413.006-.463.342-.467.673s-.008.666-.01,1c0,.194-.1.277-.288.286s-.319-.059-.307-.254a16.346,16.346,0,0,1,.127-3.3l.006-.006.331-.012.021.026.091.132c-.027.6.085,1.055.864.968.314-.035.5.226.625.5.012.486.006.974.041,1.458C-507.227,218.379-507.475,218.438-507.872,218.317Z" transform="translate(587.588 -214.791)" fill="#383535"/>
    <path id="Path_4080" data-name="Path 4080" d="M-877.61,219.645a1.248,1.248,0,0,0,.142.359.424.424,0,0,1,0,.588c-.174.2-.388.123-.572-.03-.19-.891-.607-1.079-1.447-.651h0l-.294.654.008-.006-.489.019-.02-.015a18.687,18.687,0,0,1,.876-2.836.466.466,0,0,1,.509-.4.5.5,0,0,1,.567.422,1.566,1.566,0,0,0,.3.723l-.013-.018A4.075,4.075,0,0,0-877.61,219.645Zm-1.275-.415c.152-.037.444.081.362-.219-.074-.27-.03-.728-.4-.732-.234,0-.241.421-.314.665C-879.353,219.317-879.039,219.177-878.886,219.23Z" transform="translate(908.72 -216.983)" fill="#383535"/>
    <path id="Path_4081" data-name="Path 4081" d="M-402.515,215.905a.144.144,0,0,0,.041-.1c.57-.122.629.212.593.651-.025.294-.023.541.415.346s.767.069,1.085.329l-.01-.013a2.326,2.326,0,0,1,.166,1.1c-.082.661-.5,1.124-1.062,1.027a8.741,8.741,0,0,0-1.168-.035.155.155,0,0,0-.054-.1Q-402.513,217.508-402.515,215.905ZM-400.8,218c-.074-.345-.085-.757-.578-.746s-.533.409-.54.765.086.76.552.753S-400.871,218.35-400.8,218Z" transform="translate(495.048 -215.646)" fill="#383535"/>
    <path id="Path_4082" data-name="Path 4082" d="M-1011.251,216.029l.155-.275.426.02.081.236a6.394,6.394,0,0,0,.039,1.669,3.206,3.206,0,0,0,.777-.967c.231.032.562-.232.65.221l-.131.153.015-.018-.149.15.014-.016-.138.151,0,0c-.485.263-.336.552-.034.848l-.01-.026c.012.086.043.156.142.168l-.038,0c.025.108.058.21.177.251l-.01,0,.269.487c-.456.42-.536.387-.984-.4-.083-.2-.124-.489-.388-.461-.224.024-.224.283-.235.488s.084.477-.279.484c-.4.008-.318-.286-.321-.515C-1011.235,217.8-1011.242,216.915-1011.251,216.029Z" transform="translate(1022.12 -215.625)" fill="#383535"/>
    <path id="Path_4083" data-name="Path 4083" d="M-652.936,223.493a2.845,2.845,0,0,1,1.66-.16c.319.05.445.356.457.668.017.446.012.894.017,1.34,0,.222-.032.4-.326.383-.266-.012-.264-.182-.265-.367q0-.5-.006-1.006c0-.289-.056-.568-.407-.578-.375-.011-.478.276-.492.589-.017.379.023.764-.023,1.138-.065.527-.3.477-.582.122A13.891,13.891,0,0,0-652.936,223.493Z" transform="translate(711.874 -222.141)" fill="#383535"/>
    <path id="Path_4084" data-name="Path 4084" d="M-464.313,222.809a.225.225,0,0,0,.017.118q-.022,1.1-.044,2.2l-.03.031c-.317.109-.611-.119-.966,0-.625.212-1.022-.129-1.065-.811-.029-.467-.025-.936-.036-1.4.011-.258.166-.322.392-.288a.606.606,0,0,1,.251.568,9.452,9.452,0,0,0,0,1c.008.232.061.46.354.477s.468-.114.446-.434a1.259,1.259,0,0,0,.031-.689C-464.87,223.217-465.124,222.561-464.313,222.809Z" transform="translate(550.396 -221.593)" fill="#383535"/>
    <path id="Path_4085" data-name="Path 4085" d="M-951.487,224.637q.012.12.025.24a1.316,1.316,0,0,1-1.559.495l.011.012a1.41,1.41,0,0,1,.243-2.474l.014-.007a2.025,2.025,0,0,1,.971.195l.01,0a1.788,1.788,0,0,1,.162.21c.419.746.275,1-.566,1l-.531,0c-.332,0-.312.189-.185.386a.445.445,0,0,0,.73.131A1.021,1.021,0,0,1-951.487,224.637Zm-.99-.706c.163-.049.453.121.433-.214a.377.377,0,0,0-.424-.337c-.242.005-.469.1-.464.366C-952.924,224.081-952.629,223.864-952.477,223.932Z" transform="translate(972.229 -221.812)" fill="#383535"/>
    <path id="Path_4086" data-name="Path 4086" d="M-847.84,223.648l.031-.15c.439-.1.654.029.624.53-.035.591-.005,1.185,0,1.778l-.118.093a2.406,2.406,0,0,0-.687-.084c-1.038.178-1.282-.008-1.291-1.055a6.919,6.919,0,0,0,0-.735c-.06-.515.183-.628.625-.513l.028.135c-.008.457-.024.915-.02,1.372a.339.339,0,0,0,.288.38c.2.029.4.033.442-.244l0,0A3.466,3.466,0,0,0-847.84,223.648Z" transform="translate(881.893 -222.304)" fill="#383535"/>
    <path id="Path_4087" data-name="Path 4087" d="M-1035.746,224.7l.357-.048c.341.075.223.256.1.433a1.045,1.045,0,0,1-1,.4.98.98,0,0,1-.871-.629,2.21,2.21,0,0,1-.079-1.12l-.012.021a.274.274,0,0,0,.116-.294,1.183,1.183,0,0,1,1.873-.065c.084.134.252.3-.008.442-.151.081-.3.213-.451-.012a.515.515,0,0,0-.582-.217c-.117-.052-.161.011-.18.113l0-.008a.875.875,0,0,0-.131.868.487.487,0,0,0,.375.42A.394.394,0,0,0-1035.746,224.7Z" transform="translate(1044.657 -221.875)" fill="#383535"/>
    <path id="Path_4088" data-name="Path 4088" d="M-534.677,222.829a.048.048,0,0,0,.072-.018l.5.034,0-.013c.178.1.331.249.554.239a.94.94,0,0,1,.117.642c-.212-.022-.438.018-.623-.134l.009.008c-.233-.371-.473-.372-.719-.013l.007,0a.88.88,0,0,0,.018,1.107l0,0c.236.327.473.243.7,0a.4.4,0,0,1,.538-.09c.2.142-.066.3-.064.467l.011-.013a1.223,1.223,0,0,1-1.529.121,1.323,1.323,0,0,1-.372-1.562c.024-.085.052-.168.078-.252l-.012.009.183-.263,0,.035Z" transform="translate(610.241 -221.735)" fill="#383535"/>
    <path id="Path_4089" data-name="Path 4089" d="M-610.1,222.869c.567-.011,1.178.039,1.022-.852-.026-.15.1-.232.259-.234s.279.079.25.233c-.146.769.286.886.9.842.134-.01.235.107.26.256-.134.1-.216.278-.432.239-.56-.1-.819.1-.728.7.063.416-.235.387-.513.347a.068.068,0,0,0-.031-.08c.045-.906.044-.906-.859-.981a1.335,1.335,0,0,1-.19-.043l.039.024Q-610.113,223.1-610.1,222.869Z" transform="translate(674.839 -220.846)" fill="#383535"/>
    <path id="Path_4090" data-name="Path 4090" d="M-824.083,219.619c.012-.4.6-.553.426-1.025.3-.011.658-.126.607.4-.015.158.09.2.235.252.364.121.363.264.01.44-.516.257-.158.736-.242,1.105-.059.259.06.427.36.393l-.007-.008c.059.227.115.454-.23.488s-.643-.062-.7-.441a5.847,5.847,0,0,1-.044-1.059C-823.659,219.854-823.75,219.654-824.083,219.619Z" transform="translate(860.061 -218.069)" fill="#383535"/>
    <path id="Path_4091" data-name="Path 4091" d="M-482.179,219.2q.012-1.666.023-3.332l.537-.056.087.233c-.009.886-.038,1.773-.02,2.658C-481.541,219.192-481.712,219.357-482.179,219.2Z" transform="translate(564.024 -215.672)" fill="#383535"/>
    <path id="Path_4092" data-name="Path 4092" d="M-715.177,220.081c-.008.278-.019.556-.022.833,0,.219.107.313.327.266a.6.6,0,0,1,.052.441l-.024.027c-.414.065-.855.119-.952-.432-.115-.648.12-1.369-.428-1.92l0,0c.149-.054.392-.012.38-.257-.028-.536.3-.46.636-.4l0,0c-.005.088-.049.224-.009.257C-714.731,219.281-714.927,219.678-715.177,220.081Z" transform="translate(766.672 -218.081)" fill="#383535"/>
    <path id="Path_4093" data-name="Path 4093" d="M-909.9,219.391c-.39.06-.564-.07-.548-.5.03-.823.006-1.648.013-2.471,0-.185-.06-.424.259-.438.372-.016.292.263.3.465.019.867.025,1.735.036,2.6Z" transform="translate(934.844 -215.821)" fill="#383535"/>
    <path id="Path_4094" data-name="Path 4094" d="M-348.679,223.216l.536-.016c.071.3.177.208.29.025h-.014l.189-.08,0,.029c.453-.113.318.243.364.455a.079.079,0,0,0-.03.079c-.211.036-.451,0-.586.229l-.015.032c-.268.356-.147.771-.177,1.163-.016.211.055.477-.308.46-.312-.015-.261-.249-.262-.439C-348.691,224.507-348.683,223.861-348.679,223.216Z" transform="translate(448.446 -222.023)" fill="#383535"/>
    <path id="Path_4095" data-name="Path 4095" d="M-695.591,225.735c.01-.6.022-1.2.03-1.8,0-.217.024-.4.317-.386.261.015.257.2.254.377q-.02,1.066-.044,2.132C-695.333,226.146-695.539,226.073-695.591,225.735Z" transform="translate(748.806 -222.373)" fill="#383535"/>
    <path id="Path_4096" data-name="Path 4096" d="M-695.28,215.677c.26.019.493.061.434.418-.036.218-.19.235-.347.2-.383-.083-.181-.381-.2-.6A.187.187,0,0,0-695.28,215.677Z" transform="translate(748.666 -215.558)" fill="#383535"/>
    <path id="Path_4097" data-name="Path 4097" d="M-563.482,217.018a1.694,1.694,0,0,1,1.595.136c.175.136.4.359.26.552-.16.219-.433.144-.612-.09a.633.633,0,0,0-.66-.218.337.337,0,0,0-.325.283.315.315,0,0,0,.2.379c.289.109.587.194.878.3a.907.907,0,0,1,.681.95.868.868,0,0,1-.788.861,1.427,1.427,0,0,1-1.528-.395c-.1-.13-.277-.315-.121-.459a.372.372,0,0,1,.54.053.819.819,0,0,0,.808.355c.21-.023.4-.093.436-.337a.412.412,0,0,0-.282-.475c-.205-.083-.425-.13-.636-.2-.962-.31-1.12-.916-.445-1.694Z" transform="translate(634.837 -216.605)" fill="#383535"/>
    <path id="Path_4098" data-name="Path 4098" d="M-925.791,217.672c0,.445,0,.891,0,1.336,0,.181,0,.359-.271.357s-.287-.158-.287-.351c0-.913,0-1.825,0-2.738,0-.211.073-.332.312-.323s.243.156.244.317c0,.468,0,.935,0,1.4Z" transform="translate(948.609 -215.796)" fill="#383535"/>
    <path id="Path_4099" data-name="Path 4099" d="M-302.7,224.205a1.129,1.129,0,0,1,1.049-1.239,1.04,1.04,0,0,1,1.122.845c.083.394-.021.6-.465.564a3.185,3.185,0,0,0-.6,0c-.161.016-.393-.1-.461.13a.483.483,0,0,0,.142.352.408.408,0,0,0,.545.1c.224-.131.415-.366.717-.209.1.054.075.148.027.229a1,1,0,0,1-.755.5C-302.188,225.595-302.72,225.082-302.7,224.205Zm1.08-.212c.162-.069.456.119.482-.166.021-.232-.181-.391-.443-.391s-.46.129-.459.378C-302.035,224.09-301.763,223.935-301.615,223.994Z" transform="translate(408.62 -221.867)" fill="#383535"/>
    <path id="Path_4100" data-name="Path 4100" d="M-986.256,223.523l.629,0,.276,1.209c.422-.246.372-.642.477-.952.078-.231.191-.341.432-.284.3.069.143.27.108.422-.069.3-.155.6-.234.9-.093.272-.191.542-.279.816a.356.356,0,0,1-.409.256.337.337,0,0,1-.374-.3c-.084-.383-.188-.762-.334-1.341-.145.548-.241.906-.334,1.266-.052.2-.109.371-.38.376a.4.4,0,0,1-.459-.363c-.144-.558-.32-1.108-.47-1.664-.033-.124-.18-.319.086-.369.191-.036.387-.065.478.213.1.3.067.847.428.8.311-.037.238-.6.348-.927A.364.364,0,0,0-986.256,223.523Z" transform="translate(1001.707 -222.311)" fill="#383535"/>
    <path id="Path_4101" data-name="Path 4101" d="M-740.493,223.14l.282-.109c.539-.066,1.064-.09,1.388.474.008.532.019,1.065.022,1.6,0,.123.029.363-.107.33-.542-.132-1.084.267-1.609-.019a.675.675,0,0,1-.363-.664.658.658,0,0,1,.408-.635,3.008,3.008,0,0,1,.648-.121c.15-.02.322.03.409-.148.06-.123-.02-.22-.1-.29a.4.4,0,0,0-.437-.065.44.44,0,0,0-.167.1c-.153.169-.379.259-.528.115C-740.867,223.494-740.575,223.326-740.493,223.14Zm.6,1.943a.491.491,0,0,0,.492-.468c.034-.253-.138-.3-.336-.261-.227.047-.523.037-.531.376C-740.276,224.978-740.082,225.052-739.895,225.083Z" transform="translate(788.021 -221.896)" fill="#383535"/>
    <path id="Path_4102" data-name="Path 4102" d="M-680.432,223.617l.144-.255a1.2,1.2,0,0,1,1.525-.274,1.229,1.229,0,0,1,.541,1.4,1.093,1.093,0,0,1-1.174.962,1.1,1.1,0,0,1-1.1-.972A2.171,2.171,0,0,1-680.432,223.617Zm1.415,1.165a.682.682,0,0,0,.228-.6c-.009-.32-.08-.635-.454-.734a.436.436,0,0,0-.557.248.966.966,0,0,0,.114,1.125.392.392,0,0,0,.673-.043Z" transform="translate(735.755 -221.833)" fill="#383535"/>
    <path id="Path_4103" data-name="Path 4103" d="M-274.974,223.858c-.295.369-.153.806-.189,1.216-.016.186.05.423-.259.442-.347.021-.321-.225-.322-.447,0-.531.014-1.063-.006-1.594-.014-.375.222-.437.459-.327.173.081.266.154.449.03.119-.08.331-.258.433.018a.322.322,0,0,1-.288.477c-.1.016-.177.114-.266.174Z" transform="translate(385.289 -221.941)" fill="#383535"/>
    <path id="Path_4104" data-name="Path 4104" d="M-1062.252,223.287l.093.164a4.451,4.451,0,0,1,.11.517,1.176,1.176,0,0,1-.645,1.33,1.083,1.083,0,0,1-1.337-.24,1.355,1.355,0,0,1-.149-1.608,2.354,2.354,0,0,1,.386-.446l.263-.136a1.962,1.962,0,0,1,1.152.282Zm-.609,1.453a.717.717,0,0,0,.226-.663.643.643,0,0,0-.437-.677.438.438,0,0,0-.561.24.983.983,0,0,0,.1,1.126.389.389,0,0,0,.671-.031Z" transform="translate(1068.116 -221.783)" fill="#383535"/>
    <path id="Path_4105" data-name="Path 4105" d="M-803.92,223.36l.218-.176a1.5,1.5,0,0,1,1.414.127c.563.877.414,1.867-.328,2.174a1.167,1.167,0,0,1-1.644-1.2,4.252,4.252,0,0,1,.15-.712Zm1.385.954c-.03-.379-.11-.757-.572-.757-.478,0-.543.4-.538.766s.083.765.553.759S-802.573,224.679-802.535,224.315Z" transform="translate(842.898 -221.953)" fill="#383535"/>
    <path id="Path_4106" data-name="Path 4106" d="M-374.2,223.1l.374.3c.054.168.118.333.16.5.086.355-.023.556-.428.527a3.808,3.808,0,0,0-.663,0c-.164.017-.469-.13-.435.206a.446.446,0,0,0,.569.41c.162-.034.294-.189.455-.251.136-.052.317-.1.42.057.085.134-.084.234-.1.361a1.19,1.19,0,0,1-1.578.091c-.618-.533-.465-1.224-.2-1.891A1.4,1.4,0,0,1-374.2,223.1Zm-.523.947c.157-.07.462.125.451-.2-.008-.245-.225-.365-.481-.356a.385.385,0,0,0-.415.353C-375.181,224.182-374.88,223.978-374.728,224.05Z" transform="translate(471.972 -221.927)" fill="#383535"/>
  </g>
</svg>
