<svg xmlns="http://www.w3.org/2000/svg" width="93.012" height="47.426" viewBox="0 0 93.012 47.426">
  <g id="Group_4169" data-name="Group 4169" transform="translate(0)">
    <path id="Path_4477" data-name="Path 4477" d="M-7617.895,844.688c0-4.755.034-9.51-.027-14.263-.014-1.011.317-1.182,1.225-1.17,3.7.047,7.411.018,11.117.02a6.006,6.006,0,0,1,6.232,6q.118,9.438,0,18.878a6.026,6.026,0,0,1-6.263,5.988c-3.775.016-7.551-.021-11.326.024-.811.01-.977-.24-.971-1C-7617.877,854.337-7617.895,849.512-7617.895,844.688Zm6.188-.107c0,2.862.015,5.724-.012,8.586-.005.618.151.892.816.848.764-.05,1.536.012,2.3-.017a3.05,3.05,0,0,0,3.07-3.062q.045-6.23,0-12.461a3.059,3.059,0,0,0-3.052-3.083c-.731-.031-1.47.038-2.2-.019s-.954.2-.944.935C-7611.684,839.065-7611.707,841.823-7611.707,844.58Z" transform="translate(7617.922 -829.142)" fill="#383535"/>
    <path id="Path_4478" data-name="Path 4478" d="M-7491.2,841.658c2.481,0,4.962.008,7.443,0a3.213,3.213,0,0,0,3.369-2.678,3.112,3.112,0,0,0-2.5-3.472c-.567-.152-.595-.415-.59-.863.016-1.433.1-2.873-.023-4.3-.095-1.1.436-1.11,1.215-1.018a9.337,9.337,0,0,1,7.806,6.956,9.243,9.243,0,0,1-9.023,11.506c-3.809.013-7.618.019-11.427-.013-.71-.006-.977.151-.952.916.058,1.745.038,3.494.014,5.241a6.134,6.134,0,0,1-6.25,6.237c-2.062.015-4.124.021-6.186,0a6.022,6.022,0,0,1-6.079-6.041c-.041-3.913,0-7.828-.028-11.741,0-.622.192-.775.767-.741.731.044,1.467,0,2.2.013a3.044,3.044,0,0,1,3.194,3.15c.037,1.956,0,3.914.011,5.87a3.114,3.114,0,0,0,3.316,3.353c.7.008,1.4-.035,2.1.011.651.043.838-.207.83-.842-.028-2.725-.017-5.451-.01-8.177a3.022,3.022,0,0,1,3.359-3.366C-7496.167,841.653-7493.686,841.658-7491.2,841.658Z" transform="translate(7536.131 -829.174)" fill="#383535"/>
    <path id="Path_4479" data-name="Path 4479" d="M-7301.311,847.658c-1.99,0-3.981-.027-5.97.015-.66.014-.85-.195-.8-.832.056-.764-.014-1.537.021-2.3a3.026,3.026,0,0,1,3.111-3.01c1.955-.021,3.911,0,5.865-.008a3.141,3.141,0,0,0,3.4-3.072,3.155,3.155,0,0,0-3.412-3.168c-1.391-.015-1.324-.018-1.4-1.379-.191-3.214.533-4.962,4.744-4.765a6.194,6.194,0,0,1,6.249,6.122q.094,3.139,0,6.284a6.111,6.111,0,0,1-6.352,6.115C-7297.68,847.662-7299.5,847.658-7301.311,847.658Z" transform="translate(7373.104 -829.038)" fill="#383535"/>
    <path id="Path_4480" data-name="Path 4480" d="M-7204.773,845.6q0-6.495,0-12.99c0-2.475,1.12-3.6,3.566-3.591.833,0,1.935-.28,2.432.139.586.495.186,1.636.188,2.492q.026,12.2.011,24.407c0,2.741-1.072,3.828-3.774,3.829-2.423,0-2.423,0-2.423-2.451Z" transform="translate(7291.467 -828.886)" fill="#383535"/>
    <path id="Path_4481" data-name="Path 4481" d="M-7404.652,923.259c-1.187,0-2.375.027-3.562-.007a2.978,2.978,0,0,1-2.971-3.022c-.026-2.374,0-4.749-.016-7.123-.006-.541.072-.831.724-.813,1.57.043,3.143.034,4.713,0,.549-.011.739.166.718.716a5.243,5.243,0,0,0,.139,1.867,3.1,3.1,0,0,0,3.99,2.055,3.054,3.054,0,0,0,1.808-4.17c-.279-.592-.307-.76.387-.954a9.474,9.474,0,0,0,4.11-2.416c.383-.377.536-.359.815.112,3.373,5.676-.874,13.473-7.5,13.736-1.115.044-2.235.006-3.352.006Z" transform="translate(7454.578 -892.259)" fill="#383535"/>
    <path id="Path_4482" data-name="Path 4482" d="M-7411.2,834.63c0-1.5.021-3-.01-4.5-.012-.584.074-.879.778-.864q3.138.071,6.277,0c.678-.014.813.238.8.847-.035,1.638-.014,3.278-.011,4.917,0,.349.028.689-.318.933a3.274,3.274,0,0,0-1.37,3.2c.072.782-.13,1.113-1,1.066-1.46-.078-2.93-.048-4.394-.009-.606.016-.771-.2-.759-.778C-7411.18,837.839-7411.2,836.234-7411.2,834.63Z" transform="translate(7454.588 -829.153)" fill="#383535"/>
    <path id="Path_4483" data-name="Path 4483" d="M-7242.823,909.135c0,4.694,0,9.147.006,13.6,0,.4-.147.573-.547.564-1.012-.023-2.032.043-3.035-.067a2.923,2.923,0,0,1-2.6-2.844c-.053-2.479-.016-4.959-.019-7.439,0-.324-.026-.615.446-.651A7.868,7.868,0,0,0-7242.823,909.135Z" transform="translate(7326.435 -892.262)" fill="#383535"/>
    <path id="Path_4484" data-name="Path 4484" d="M-7308.044,929.656c0-1.573.022-3.146-.012-4.718-.012-.556.167-.726.713-.716,1.607.028,3.216.025,4.824,0,.5-.007.671.168.667.666-.021,2.446.041,4.9-.04,7.339a2.958,2.958,0,0,1-3.151,2.955c-.769.012-1.54-.027-2.307.012-.552.028-.718-.167-.707-.715C-7308.022,932.872-7308.044,931.264-7308.044,929.656Z" transform="translate(7373.077 -904.183)" fill="#383535"/>
    <path id="Path_4485" data-name="Path 4485" d="M-7508.243,841.015c-1.655-1.494-3.472-1.257-5.233-1.219-.73.016-.953-.2-.937-.934.046-2.268,0-4.538.021-6.807a2.914,2.914,0,0,1,3.185-3.188c.963.012,2.243-.438,2.8.2.475.547.162,1.792.165,2.728C-7508.237,834.763-7508.243,837.73-7508.243,841.015Z" transform="translate(7536.134 -828.724)" fill="#383535"/>
    <path id="Path_4486" data-name="Path 4486" d="M-7455.331,841.39c0-3.962.007-7.7-.009-11.435,0-.519.2-.659.68-.642.768.027,1.537,0,2.306.008a2.958,2.958,0,0,1,3.148,2.947c.06,2.444,0,4.891.026,7.336,0,.514-.186.678-.673.646-.451-.03-.908.017-1.361-.01A5.591,5.591,0,0,0-7455.331,841.39Z" transform="translate(7489.455 -829.188)" fill="#383535"/>
    <path id="Path_4487" data-name="Path 4487" d="M-7308.049,841.4c0-2.255-.116-4.383.027-6.495a6.082,6.082,0,0,1,7.225-5.492c-1.1,1.251-1.126,2.735-1.1,4.249.033,1.922-.015,3.845.021,5.767.012.635-.172.884-.825.831-.625-.05-1.259.021-1.886-.017A5.064,5.064,0,0,0-7308.049,841.4Z" transform="translate(7373.106 -829.192)" fill="#383535"/>
    <path id="Path_4488" data-name="Path 4488" d="M-7488.814,982.1c.306,0,.516-.019.722,0a1.7,1.7,0,0,1,1.623,1.806,1.678,1.678,0,0,1-1.643,1.568,1.691,1.691,0,0,1-1.753-1.673c-.015-.172.016-.349-.008-.519C-7490,982.39-7489.763,981.851-7488.814,982.1Z" transform="translate(7516.767 -949.869)" fill="#383535"/>
    <path id="Path_4489" data-name="Path 4489" d="M-7468.136,983.233c-.143-.7.031-1.135,1.05-1.078,1.59.09,2.336.566,2.33,1.74a1.636,1.636,0,0,1-1.625,1.671C-7467.507,985.594-7468.128,984.816-7468.136,983.233Z" transform="translate(7499.6 -949.956)" fill="#383535"/>
    <path id="Path_4490" data-name="Path 4490" d="M-7374.088,924.074c1.517.006,2.229.525,2.265,1.58a1.61,1.61,0,0,1-1.338,1.74,1.638,1.638,0,0,1-1.914-1.077,3.8,3.8,0,0,1-.093-1.861C-7375.054,923.658-7374.328,924.345-7374.088,924.074Z" transform="translate(7426.162 -904.051)" fill="#383535"/>
    <g id="Group_3916" data-name="Group 3916" transform="translate(42.067 38.231)">
      <path id="Path_4491" data-name="Path 4491" d="M-7331.611,1017.124c1.12,0,2.238-.018,3.356.007.745.016,1.118-.266,1.057-1.048-.03-.382,0-.769-.005-1.153s.2-.466.531-.467.521.127.513.487.018.7,0,1.049c-.044.7.159,1.129.976,1.138.832.01.89-.475.851-1.094-.015-.244.015-.491-.009-.734-.037-.376.147-.5.487-.5.316,0,.545.065.52.466-.023.383,0,.769,0,1.153,0,.486.277.684.731.688a.619.619,0,0,0,.714-.7c0-.385.008-.769,0-1.154-.006-.306.131-.444.435-.451.332-.008.537.093.526.471s-.006.769.008,1.153c.014.4.2.664.635.668s.617-.26.622-.668c.006-.489.013-.979,0-1.468-.005-.339.115-.509.484-.518.4-.01.581.136.563.544-.016.349.015.7-.006,1.048-.038.652.123,1.084.9,1.086.761,0,1.058-.311,1.037-1.076-.038-1.432-.015-2.867-.01-4.3,0-.382-.049-.8.532-.83.646-.032.507.436.509.793.008,1.433.035,2.868-.005,4.3-.053,1.914-1.526,2.782-3.279,1.971-.062-.029-.144-.132-.162-.119-.914.62-1.9.178-2.849.2-.09,0-.182.1-.269.152-.77.5-1.4-.572-2.126-.205a2.194,2.194,0,0,1-2.187-.1c-.164-.089-.307-.4-.512-.159-.671.773-1.56.472-2.364.488-1.922.038-3.845.021-5.768.009-1.576-.01-2.007-.439-2.015-1.981-.007-1.5,0-3.007,0-4.51,0-.393-.032-.8.536-.83.642-.033.5.437.5.8.007,1.468.028,2.937-.007,4.4-.018.728.28,1.013.985,1C-7333.988,1017.11-7332.8,1017.123-7331.611,1017.124Z" transform="translate(7354.033 -1010.922)" fill="#383535"/>
      <path id="Path_4492" data-name="Path 4492" d="M-7403.027,1023.406a3.61,3.61,0,0,0-2.687-.722c-.183.038-.487.345-.581-.095-.063-.3-.086-.63.295-.8a2.456,2.456,0,0,1,2.03-.022c.482.2.951.436,1.437.631.852.343.99.875.362,1.54a4.279,4.279,0,0,1-3.157,1.425c-2.654.023-5.309.017-7.962.012a1.452,1.452,0,0,1-1.619-1.381,1.745,1.745,0,0,1-2.109,0,1.762,1.762,0,0,1-.386-1.663,1.459,1.459,0,0,1,.937-1.16c.585-.3,1.3-.307,1.714-1.031.21-.361.773-.216.768.439-.008.908.028,1.817-.012,2.723-.03.689.282.955.925.951,2.689-.016,5.378-.022,8.065-.046A2.853,2.853,0,0,0-7403.027,1023.406Zm-11.92-1.149c-.051-.2.126-.654-.318-.57-.507.1-1.177.105-1.237.872-.039.493.254.69.708.685C-7415.168,1023.237-7414.951,1022.855-7414.948,1022.257Z" transform="translate(7417.444 -1018.051)" fill="#383535"/>
      <path id="Path_4493" data-name="Path 4493" d="M-7229.574,1014.6c0-.977,0-1.954,0-2.932,0-.431.078-.772.62-.748.567.025.424.453.426.771q.013,2.827,0,5.654c0,.414.075.894-.572.9-.744,0-.448-.575-.462-.919C-7229.6,1016.416-7229.574,1015.508-7229.574,1014.6Z" transform="translate(7269.022 -1010.919)" fill="#383535"/>
      <path id="Path_4494" data-name="Path 4494" d="M-7290.639,1050.155c.019.442-.381.733-.466.615-.494-.69-1.542.688-1.8-.508-.065-.3.382-.637.5-.469C-7291.91,1050.495-7290.947,1049.123-7290.639,1050.155Z" transform="translate(7319.041 -1041.601)" fill="#383535"/>
    </g>
    <g id="Group_3917" data-name="Group 3917" transform="translate(6.313 38.718)">
      <path id="Path_4495" data-name="Path 4495" d="M-7464.9,1025.621c0-.664,0-1.328,0-1.992,0-.3.1-.727.4-.512.645.47,1.161-.136,1.684-.052a12.052,12.052,0,0,0,3.727.005c.778-.114,1.3.481,1.336,1.3.053,1.116.048,2.235.076,3.352.007.314-.039.559-.435.554s-.688-.1-.685-.581c.007-.874,0-1.748,0-2.622,0-.657-.211-1.07-.968-1.051-.731.018-.977.41-.971,1.073.007.839-.014,1.678,0,2.517.009.388,0,.684-.522.67-.47-.012-.6-.254-.6-.664,0-.839,0-1.678,0-2.517,0-.626-.153-1.1-.938-1.079-.727.017-.987.4-.985,1.062,0,.874-.009,1.748.005,2.622.007.382-.091.6-.527.569-.362-.028-.6-.15-.6-.56C-7464.9,1027.019-7464.9,1026.32-7464.9,1025.621Z" transform="translate(7490.702 -1020.997)" fill="#383535"/>
      <path id="Path_4496" data-name="Path 4496" d="M-7585.782,1017.381v-1.361c0-1.493,0-1.508-1.514-1.68-.4-.045-.531-.171-.539-.574-.009-.45.219-.521.575-.521,1.361,0,2.722.005,4.083,0,.366,0,.581.077.585.517.006.486-.23.556-.642.581-1.391.085-1.39.1-1.39,1.51,0,1.291,0,2.582,0,3.873,0,.373.09.777-.532.784-.643.007-.632-.38-.627-.823C-7585.776,1018.916-7585.782,1018.148-7585.782,1017.381Z" transform="translate(7587.835 -1013.242)" fill="#383535"/>
      <path id="Path_4497" data-name="Path 4497" d="M-7563.952,1025.614c-.012-1.746.463-2.519,1.634-2.767a2.031,2.031,0,0,1,2.727,2.024,5.985,5.985,0,0,1-.022,1.255,1.976,1.976,0,0,1-2.216,2c-1.333-.022-1.969-.654-2.1-2.092C-7563.948,1025.856-7563.949,1025.681-7563.952,1025.614Zm1.054-.2.047.006c0,.175-.013.351,0,.524.055.636.208,1.156,1.021,1.187.851.032,1.1-.463,1.151-1.164a4.11,4.11,0,0,0-.1-1.559c-.153-.491-.518-.605-.975-.612s-.85.1-.981.592A9.549,9.549,0,0,0-7562.9,1025.419Z" transform="translate(7568.964 -1020.769)" fill="#383535"/>
      <path id="Path_4498" data-name="Path 4498" d="M-7534.292,1025.661c0,.7,0,1.4,0,2.1,0,.244-.08.656-.329.487-.707-.478-1.255.127-1.878.141-1.142.026-1.744-.423-1.821-1.536-.073-1.043-.031-2.094-.068-3.14-.016-.466.18-.611.619-.6.42.007.521.194.511.586-.024.942,0,1.886-.01,2.828-.008.614.27.883.887.884s1.009-.227,1.009-.9c0-.908.012-1.816,0-2.724-.006-.395.038-.673.545-.673s.554.278.544.674C-7534.3,1024.4-7534.291,1025.032-7534.292,1025.661Z" transform="translate(7548.767 -1021.033)" fill="#383535"/>
      <path id="Path_4499" data-name="Path 4499" d="M-7483.549,1023.911c-.542.07-1.132-.163-1.262.454-.135.64.479.671.887.8.85.264,1.6.577,1.447,1.7-.12.854-.755,1.318-1.935,1.38a3.515,3.515,0,0,1-1.434-.236c-.425-.159-.335-.471-.26-.778.094-.39.365-.227.581-.155a3.186,3.186,0,0,0,1.341.167.54.54,0,0,0,.543-.407c.074-.337-.117-.524-.412-.626s-.594-.207-.9-.291a1.266,1.266,0,0,1-1.053-1.45,1.42,1.42,0,0,1,1.244-1.453,3.793,3.793,0,0,1,1.14-.065c.367.047.9-.046.869.625C-7482.791,1024.384-7483.348,1023.852-7483.549,1023.911Z" transform="translate(7507.501 -1020.892)" fill="#383535"/>
      <path id="Path_4500" data-name="Path 4500" d="M-7513.13,1025.248a10.288,10.288,0,0,1,.01-1.252c.065-.533-.4-1.757.979-.83.147.1.58-.308.9-.37.368-.07.893-.279,1.014.329.118.593-.3.662-.775.635-.774-.044-1.042.41-1.037,1.113.005.766.009,1.532-.006,2.3-.007.349.147.8-.493.807-.666.01-.591-.434-.592-.851C-7513.132,1026.5-7513.13,1025.875-7513.13,1025.248Z" transform="translate(7528.819 -1020.719)" fill="#383535"/>
      <path id="Path_4501" data-name="Path 4501" d="M-7495.425,1025.657c0-.662.007-1.324,0-1.986-.006-.326.08-.55.452-.549.345,0,.649.092.653.5.015,1.428,0,2.857.019,4.286,0,.341-.182.409-.454.418-.342.011-.648-.045-.654-.476-.01-.731,0-1.463,0-2.195Z" transform="translate(7514.819 -1021.049)" fill="#383535"/>
      <path id="Path_4502" data-name="Path 4502" d="M-7494.558,1014.225a.547.547,0,0,1-.656.508.509.509,0,0,1-.54-.61.542.542,0,0,1,.646-.516A.555.555,0,0,1-7494.558,1014.225Z" transform="translate(7515.079 -1013.527)" fill="#383535"/>
    </g>
  </g>
</svg>
