<svg xmlns="http://www.w3.org/2000/svg" width="131.551" height="40.911" viewBox="0 0 131.551 40.911">
  <g id="Group_3913" data-name="Group 3913" transform="translate(0)">
    <path id="Path_4438" data-name="Path 4438" d="M-6469.815,2135.538l.052.016c0,.063,0,.125,0,.188v23.444c0,.072,0,.144-.005.215a.133.133,0,0,1-.051.007Z" transform="translate(6469.815 -2135.531)" fill="#383535"/>
    <path id="Path_4439" data-name="Path 4439" d="M-6468.872,2159.323c0-.072.006-.143.006-.215v-23.445c0-.063,0-.125,0-.188.089-.005.178-.015.268-.015q7.052,0,14.105-.005a.6.6,0,0,1,.467.2q2.175,2.19,4.363,4.366a.512.512,0,0,1,.168.4q-.007,6.991,0,13.982a.483.483,0,0,1-.151.377q-2.216,2.206-4.42,4.424a.485.485,0,0,1-.378.156q-7.093-.005-14.186,0A.431.431,0,0,1-6468.872,2159.323Zm7.117-11.927c0,2.326,0,4.651,0,6.977,0,.2.042.259.25.258q2.306-.014,4.611,0c.222,0,.266-.071.266-.275q-.008-6.95,0-13.9c0-.215-.06-.268-.27-.267q-2.292.013-4.584,0c-.231,0-.276.067-.275.284C-6461.751,2142.781-6461.755,2145.089-6461.755,2147.4Z" transform="translate(6468.923 -2135.453)" fill="#383535"/>
    <path id="Path_4440" data-name="Path 4440" d="M-4366.108,2147.35v11.61c0,.353,0,.353-.34.353q-6.836,0-13.673,0a.658.658,0,0,1-.518-.212q-2.152-2.174-4.32-4.332a.572.572,0,0,1-.187-.446q.007-9.307,0-18.615c0-.226.041-.3.288-.3q3.289.017,6.58,0c.228,0,.276.06.276.281q-.009,9.281-.011,18.561c0,.27.06.341.335.338q2.063-.024,4.126,0c.257,0,.3-.078.3-.315q-.01-9.253,0-18.506c0-.351,0-.351.359-.351,2.167,0,4.333,0,6.5-.006.245,0,.292.066.292.3Q-4366.114,2141.531-4366.108,2147.35Z" transform="translate(4497.653 -2135.415)" fill="#383535"/>
    <path id="Path_4441" data-name="Path 4441" d="M-5155.711,2147.365q0,5.819.006,11.638c0,.259-.063.326-.325.325q-6.863-.013-13.727,0a.573.573,0,0,1-.446-.188q-2.173-2.191-4.36-4.369a.544.544,0,0,1-.174-.424q.006-9.321,0-18.642c0-.226.058-.279.28-.278q3.277.013,6.554,0c.238,0,.31.049.31.3q-.012,9.267-.012,18.535c0,.259.043.347.329.343,1.375-.018,2.751-.015,4.126,0,.247,0,.311-.062.31-.309q-.01-9.253,0-18.508c0-.355,0-.355.355-.355,2.148,0,4.3,0,6.445-.006.263,0,.343.049.342.33Q-5155.719,2141.56-5155.711,2147.365Z" transform="translate(5244.631 -2135.423)" fill="#383535"/>
    <path id="Path_4442" data-name="Path 4442" d="M-4773.071,2142.5a2.711,2.711,0,0,1,.186-.229q3.306-3.307,6.613-6.614a.6.6,0,0,1,.471-.194q2.265.011,4.531,0c.214,0,.269.061.267.271q-.013,2.1,0,4.2c0,.208-.062.251-.258.249-.989-.01-1.978,0-2.967-.005a.422.422,0,0,0-.34.112q-2.271,2.284-4.551,4.559c-.03.03-.055.064-.086.1.089.075.182.042.265.042.989,0,1.978,0,2.967,0a.483.483,0,0,1,.378.154q2.216,2.226,4.44,4.442a.48.48,0,0,1,.15.378q-.006,4.553,0,9.105c0,.209-.051.271-.267.271q-3.3-.012-6.607,0c-.226,0-.283-.063-.283-.285.008-3,0-6,.013-9,0-.279-.076-.337-.343-.335-1.465.014-2.931.012-4.4,0-.218,0-.264.064-.264.271.007,3.008,0,6.017.011,9.025,0,.263-.069.324-.327.323q-3.262-.016-6.526,0c-.228,0-.3-.043-.3-.291q.01-11.665,0-23.33c0-.223.053-.283.279-.282q3.3.014,6.607,0c.207,0,.27.046.269.263-.009,2.155-.005,4.31-.005,6.465v.291Z" transform="translate(4871.478 -2135.435)" fill="#383535"/>
    <path id="Path_4443" data-name="Path 4443" d="M-6101.186,2135.431c1.348,0,2.7,0,4.044,0,.173,0,.242.047.29.222q3.251,11.692,6.521,23.38c.074.264.006.291-.231.29q-3.291-.012-6.58,0c-.2,0-.274-.069-.318-.253-.281-1.177-.576-2.35-.854-3.528-.04-.174-.1-.229-.28-.229q-2.6.01-5.2,0c-.163,0-.228.042-.268.209-.284,1.194-.588,2.384-.871,3.578-.043.182-.119.22-.289.22q-3.316-.007-6.634,0c-.25,0-.25-.081-.194-.279q3.259-11.676,6.507-23.356a.294.294,0,0,1,.345-.26C-6103.865,2135.437-6102.525,2135.431-6101.186,2135.431Zm-.025,8.425-1.639,6.71c.085.005.147.013.209.013.953,0,1.906-.007,2.859.006.236,0,.234-.077.188-.265-.485-1.967-.961-3.935-1.445-5.9A1.808,1.808,0,0,0-6101.211,2143.855Z" transform="translate(6131.391 -2135.424)" fill="#383535"/>
    <path id="Path_4444" data-name="Path 4444" d="M-5515.48,2149.748q0-4.647,0-9.294a.6.6,0,0,1,.2-.468q2.188-2.175,4.365-4.364a.511.511,0,0,1,.4-.168q5.542.008,11.084,0c.214,0,.29.038.288.273-.012,1.4-.01,2.8,0,4.2,0,.211-.056.27-.269.269-2.876-.007-5.753,0-8.629-.01-.228,0-.3.041-.3.289q.021,2.141,0,4.283c0,.228.067.278.286.278,2.922-.008,5.844,0,8.765-.01.231,0,.3.049.3.292q-.02,2.074,0,4.148c0,.235-.054.3-.294.3q-4.356-.014-8.711-.005c-.394,0-.337-.039-.337.349q0,4.472,0,8.944c0,.219-.028.307-.285.305q-3.29-.018-6.58,0c-.232,0-.276-.07-.276-.287Q-5515.474,2154.408-5515.48,2149.748Z" transform="translate(5566.989 -2135.451)" fill="#383535"/>
    <path id="Path_4445" data-name="Path 4445" d="M-5680.352,2147.367q0,5.833.005,11.666c0,.232-.05.3-.292.3q-3.277-.016-6.554,0c-.234,0-.3-.053-.3-.294q.01-11.666,0-23.332c0-.226.059-.279.281-.278q3.29.013,6.581,0c.22,0,.282.047.282.276Q-5680.359,2141.534-5680.352,2147.367Z" transform="translate(5729.711 -2135.425)" fill="#383535"/>
    <path id="Path_4446" data-name="Path 4446" d="M-6084.4,2756.894c-.351,1.247-.7,2.47-1.035,3.7-.048.175-.113.245-.306.237-.431-.017-.862-.012-1.294,0a.229.229,0,0,1-.268-.187q-.8-2.454-1.61-4.9c-.072-.216-.021-.259.189-.251.4.014.791.012,1.186,0,.167-.005.23.051.269.213.278,1.168.566,2.333.853,3.5.021.086.045.172.085.324.235-.835.454-1.608.671-2.38.133-.475.271-.948.391-1.425a.259.259,0,0,1,.314-.231c.413.016.827.019,1.24,0,.2-.009.274.07.324.252.319,1.176.647,2.349.973,3.522.02.068.046.133.087.249l.721-2.774c.092-.355.186-.711.274-1.067.029-.119.075-.182.215-.179.449.009.9,0,1.347,0,.045.093-.008.162-.031.233-.561,1.626-1.126,3.251-1.679,4.88a.274.274,0,0,1-.322.225c-.4-.014-.809-.015-1.213,0-.2.007-.274-.053-.326-.246-.3-1.134-.617-2.264-.933-3.395A.52.52,0,0,0-6084.4,2756.894Z" transform="translate(6109.495 -2722.019)" fill="#383535"/>
    <path id="Path_4447" data-name="Path 4447" d="M-5059.671,2753.21c.02-.577.02-.577.556-.577.288,0,.576.006.863,0,.136,0,.192.035.19.18-.023,1.75.05,3.5-.041,5.252a1.944,1.944,0,0,1-1.854,1.956,4.521,4.521,0,0,1-2.154-.168,1.51,1.51,0,0,1-1.04-1.29c-.024-.165.012-.225.188-.219.378.012.755.005,1.133,0,.1,0,.157.009.2.121.159.41.386.538.885.533a.948.948,0,0,0,.986-.6,2.848,2.848,0,0,0,.09-1.23,2.022,2.022,0,0,1-2.694.313,2.309,2.309,0,0,1-.822-1.172,3.217,3.217,0,0,1,.345-2.911,2.082,2.082,0,0,1,2.319-.85C-5060.177,2752.64-5060.03,2752.753-5059.671,2753.21Zm-2.047,1.97a2.43,2.43,0,0,0,.159,1.027.872.872,0,0,0,.876.583.835.835,0,0,0,.85-.579,2.984,2.984,0,0,0-.013-2.1.826.826,0,0,0-.831-.566.866.866,0,0,0-.865.56A2.532,2.532,0,0,0-5061.719,2755.18Z" transform="translate(5139.283 -2719.163)" fill="#383535"/>
    <path id="Path_4448" data-name="Path 4448" d="M-4793.294,2719.991c-.5,0-.993-.006-1.486,0-.149,0-.177-.086-.212-.189-.141-.416-.291-.829-.42-1.249a.231.231,0,0,0-.269-.19q-1.321.009-2.643,0a.239.239,0,0,0-.268.2c-.141.416-.292.829-.438,1.243-.032.092-.046.19-.185.188-.474-.005-.947,0-1.451,0l.916-2.53c.591-1.635,1.186-3.269,1.771-4.907a.283.283,0,0,1,.324-.23c.512.014,1.024.007,1.537,0,.12,0,.2.022.241.152q1.283,3.71,2.574,7.418A.516.516,0,0,1-4793.294,2719.991Zm-3.676-6.161c-.363,1.056-.713,2.08-1.071,3.1-.058.165.028.158.138.158.6,0,1.2,0,1.806,0,.164,0,.2-.036.142-.2-.258-.773-.5-1.551-.754-2.326A4.245,4.245,0,0,0-4796.97,2713.83Z" transform="translate(4890.747 -2681.189)" fill="#383535"/>
    <path id="Path_4449" data-name="Path 4449" d="M-6276.125,2719.967c.211-.59.412-1.153.615-1.715.686-1.9,1.375-3.789,2.053-5.687a.33.33,0,0,1,.383-.266c.493.019.988.012,1.481,0a.238.238,0,0,1,.269.192q1.251,3.619,2.513,7.233c.066.188.047.251-.167.245q-.606-.02-1.213,0a.229.229,0,0,1-.263-.193c-.134-.418-.289-.829-.42-1.248a.232.232,0,0,0-.269-.188q-1.321.011-2.641,0a.237.237,0,0,0-.269.191c-.138.417-.293.827-.432,1.243a.234.234,0,0,1-.265.195C-6275.2,2719.959-6275.644,2719.967-6276.125,2719.967Zm3.708-6.2c-.379,1.1-.732,2.124-1.087,3.147-.035.1-.021.152.1.152.673,0,1.345,0,2.048,0C-6271.708,2715.971-6272.05,2714.907-6272.417,2713.766Z" transform="translate(6286.578 -2681.165)" fill="#383535"/>
    <path id="Path_4450" data-name="Path 4450" d="M-5287.566,2716.2c0-1.194,0-2.388,0-3.582,0-.195.041-.26.25-.259q2.319.014,4.637,0c.2,0,.272.042.257.25a5.868,5.868,0,0,0,0,.781c.012.19-.053.242-.24.24-.989-.009-1.978,0-2.966-.01-.236,0-.314.055-.3.3.021.421.017.844,0,1.265-.008.208.065.256.261.254.917-.009,1.834,0,2.75-.01.231,0,.293.066.276.286a5.318,5.318,0,0,0,0,.754c.014.2-.064.235-.245.234-.907-.008-1.815,0-2.724-.009-.235,0-.333.043-.32.305.021.5.014,1.006,0,1.508,0,.187.052.245.241.243,1.034-.008,2.067,0,3.1-.009.23,0,.3.066.281.287-.019.268-.009.539,0,.808,0,.128-.021.194-.174.194q-2.454-.007-4.907,0c-.212,0-.171-.128-.171-.247Q-5287.567,2717.993-5287.566,2716.2Z" transform="translate(5351.374 -2681.224)" fill="#383535"/>
    <path id="Path_4451" data-name="Path 4451" d="M-4330.4,2719.3a2.058,2.058,0,0,1-3.625-.452,3.3,3.3,0,0,1,.294-3.4,2.135,2.135,0,0,1,2.847-.6,3.028,3.028,0,0,1,.489.462c0-.548,0-1.036,0-1.525,0-.4.007-.808,0-1.211,0-.164.041-.22.21-.214.377.012.755.016,1.131,0,.209-.01.252.063.251.259q-.01,2.988,0,5.976c0,.412.02.825.044,1.237.009.157-.042.2-.192.2q-.593-.013-1.186,0c-.141,0-.215-.026-.216-.184S-4330.384,2719.512-4330.4,2719.3Zm-2.3-1.929a3.694,3.694,0,0,0,.157,1.074.955.955,0,0,0,.831.668.931.931,0,0,0,1.01-.512,2.572,2.572,0,0,0,0-2.474.929.929,0,0,0-1.007-.518.959.959,0,0,0-.843.689A3.82,3.82,0,0,0-4332.7,2717.375Z" transform="translate(4449.606 -2681.229)" fill="#383535"/>
    <path id="Path_4452" data-name="Path 4452" d="M-5177,2719.327a2.05,2.05,0,0,1-3.588-.382,3.3,3.3,0,0,1,.247-3.448,2.13,2.13,0,0,1,2.862-.614,2.955,2.955,0,0,1,.486.463v-1.933c0-.278.006-.557,0-.834,0-.14.041-.187.183-.185.4.008.791.011,1.186,0,.184-.006.224.063.223.232q-.012,1.2,0,2.4c.012,1.605-.043,3.212.044,4.816.01.184-.045.229-.219.224-.377-.011-.755-.01-1.132,0-.162,0-.249-.028-.245-.213A4.975,4.975,0,0,0-5177,2719.327Zm-2.3-1.947a3.894,3.894,0,0,0,.146,1.059.961.961,0,0,0,.834.7.937.937,0,0,0,1.028-.527,2.584,2.584,0,0,0,0-2.451.933.933,0,0,0-1-.525.959.959,0,0,0-.849.682A3.729,3.729,0,0,0-5179.306,2717.381Z" transform="translate(5250.519 -2681.254)" fill="#383535"/>
    <path id="Path_4453" data-name="Path 4453" d="M-4651.371,2715.336a1.9,1.9,0,0,1,1.667-.826,1.763,1.763,0,0,1,1.833,1.753c.027,1.184.008,2.369.017,3.554,0,.165-.067.19-.208.188-.386-.007-.773-.012-1.159,0-.183.006-.225-.058-.223-.229.008-.943,0-1.885,0-2.827a2.642,2.642,0,0,0-.088-.718.8.8,0,0,0-.681-.641.869.869,0,0,0-.941.431,1.636,1.636,0,0,0-.215.876c0,.952-.006,1.9,0,2.854,0,.2-.047.265-.252.255a10.246,10.246,0,0,0-1.078,0c-.225.012-.262-.074-.261-.274q.009-3.312,0-6.624c0-.179.009-.36,0-.538s.032-.241.219-.234q.579.02,1.159,0c.178-.006.206.065.2.219-.006.817,0,1.634,0,2.45Z" transform="translate(4751.005 -2681.201)" fill="#383535"/>
    <path id="Path_4454" data-name="Path 4454" d="M-4946.2,2755.668c-.5,0-1.006.008-1.509,0-.184,0-.243.06-.22.232.011.08.005.162.014.242.053.5.288.792.677.856a.941.941,0,0,0,1.139-.535.224.224,0,0,1,.247-.147c.341,0,.684.013,1.023,0,.21-.01.221.087.186.244a1.691,1.691,0,0,1-1.114,1.311,3.626,3.626,0,0,1-2.275.069,1.9,1.9,0,0,1-1.342-1.285,3.98,3.98,0,0,1-.08-2.357,2.461,2.461,0,0,1,2.824-1.852,2.317,2.317,0,0,1,2.16,2.337c.016.232.007.467.029.7.016.165-.051.2-.2.2C-4945.16,2755.664-4945.682,2755.668-4946.2,2755.668Zm-.807-1.051c.25,0,.5,0,.752,0,.128,0,.168-.042.167-.17a.871.871,0,0,0-.947-.956.864.864,0,0,0-.892.955c0,.129.039.175.167.171C-4947.51,2754.612-4947.259,2754.617-4947.009,2754.617Z" transform="translate(5031.641 -2719.112)" fill="#383535"/>
    <path id="Path_4455" data-name="Path 4455" d="M-4539.669,2755.68c-.485,0-.971.014-1.456-.006-.257-.01-.32.084-.263.312a.93.93,0,0,1,.013.134c.045.512.256.8.644.882a.961.961,0,0,0,1.165-.529.231.231,0,0,1,.249-.148c.35,0,.7.008,1.051,0,.162,0,.2.046.166.2a1.721,1.721,0,0,1-1.238,1.392,3.677,3.677,0,0,1-2.125.038,1.91,1.91,0,0,1-1.372-1.289,3.955,3.955,0,0,1-.062-2.435,2.445,2.445,0,0,1,2.8-1.781,2.348,2.348,0,0,1,2.18,2.465c.04.762.04.762-.726.762Zm-.808-1.051c.25,0,.5,0,.752,0,.076,0,.157.02.177-.1a.9.9,0,0,0-.78-1.014.876.876,0,0,0-1.059.945c-.006.129.022.18.156.177C-4540.979,2754.625-4540.729,2754.629-4540.478,2754.629Z" transform="translate(4647.042 -2719.125)" fill="#383535"/>
    <path id="Path_4456" data-name="Path 4456" d="M-4435.2,2756.973a1.926,1.926,0,0,1-2.242.764,1.646,1.646,0,0,1-.626-2.792,2.586,2.586,0,0,1,1.661-.674,8.282,8.282,0,0,1,.86-.041c.144,0,.2-.049.18-.187a.637.637,0,0,1,0-.081c0-.521-.182-.8-.57-.872-.434-.076-.7.109-.868.634a.143.143,0,0,1-.169.118c-.4,0-.791-.009-1.186,0-.179.005-.187-.084-.17-.215a1.322,1.322,0,0,1,.665-1.081,3.2,3.2,0,0,1,3.026-.049,1.775,1.775,0,0,1,.873,1.783c0,.88,0,1.76,0,2.639,0,.081,0,.162.006.242.011.158.1.388.022.458-.117.113-.34.033-.518.039-.225.007-.45-.007-.674,0-.158.008-.23-.037-.228-.206A4.671,4.671,0,0,0-4435.2,2756.973Zm-.168-1.524c-.036-.11.1-.316-.167-.3a3.281,3.281,0,0,0-.953.126.721.721,0,0,0-.558.8.725.725,0,0,0,.6.665.791.791,0,0,0,.909-.455A2.462,2.462,0,0,0-4435.364,2755.449Z" transform="translate(4548.213 -2718.86)" fill="#383535"/>
    <path id="Path_4457" data-name="Path 4457" d="M-5557.368,2757.185a1.814,1.814,0,0,1-1.033.79,2.15,2.15,0,0,1-1.6-.149,1.714,1.714,0,0,1-.05-2.828,2.857,2.857,0,0,1,1.462-.494c.286-.029.574-.036.861-.042.122,0,.187-.031.175-.166-.008-.089,0-.18,0-.27a.677.677,0,0,0-.6-.708.681.681,0,0,0-.806.543c-.042.181-.119.222-.29.216-.359-.013-.719-.014-1.078,0-.188.008-.207-.074-.186-.224a1.437,1.437,0,0,1,.984-1.238,3.546,3.546,0,0,1,2.353-.05,1.729,1.729,0,0,1,1.225,1.825c.013.916,0,1.832,0,2.748,0,.144,0,.288.016.431.032.326.036.326-.3.326-.288,0-.576-.01-.863,0-.173.008-.248-.043-.242-.221C-5557.338,2757.54-5557.355,2757.4-5557.368,2757.185Zm-.184-1.485c-.052-.1.111-.312-.144-.314a2.482,2.482,0,0,0-1.107.178.682.682,0,0,0-.425.578.734.734,0,0,0,.493.8.8.8,0,0,0,.966-.325A1.962,1.962,0,0,0-5557.552,2755.7Z" transform="translate(5609.828 -2719.094)" fill="#383535"/>
    <path id="Path_4458" data-name="Path 4458" d="M-5910.1,2757.238a1.79,1.79,0,0,1-1.72.891,1.569,1.569,0,0,1-1.508-.857,1.724,1.724,0,0,1,.2-1.833,2.372,2.372,0,0,1,1.816-.859c.276-.032.556-.029.833-.046.074,0,.159.028.2-.086a.779.779,0,0,0-.792-1.055.671.671,0,0,0-.621.577c-.028.15-.084.187-.225.184q-.58-.012-1.16,0c-.149,0-.179-.051-.163-.191a1.469,1.469,0,0,1,1.107-1.315,3.7,3.7,0,0,1,1.943-.086,1.751,1.751,0,0,1,1.508,1.849c.012.862,0,1.724,0,2.586a3.168,3.168,0,0,0,.046.778c.037.15-.011.208-.173.2-.342-.011-.684-.016-1.025,0-.189.01-.233-.078-.24-.231S-5910.086,2757.464-5910.1,2757.238Zm-.19-1.446c-.049-.1.131-.339-.17-.333a2.871,2.871,0,0,0-.955.132.729.729,0,0,0-.551.765.751.751,0,0,0,.607.7.786.786,0,0,0,.9-.429A1.915,1.915,0,0,0-5910.289,2755.792Z" transform="translate(5943.528 -2719.169)" fill="#383535"/>
    <path id="Path_4459" data-name="Path 4459" d="M-5449.795,2753.364a2.1,2.1,0,0,1,1.489-.723,1.834,1.834,0,0,1,2.034,1.972c.024,1.1,0,2.208.01,3.313,0,.172-.061.21-.219.206-.4-.009-.791-.012-1.187,0-.177.006-.2-.063-.2-.218.006-.979,0-1.958,0-2.936a2.038,2.038,0,0,0-.108-.714.79.79,0,0,0-.645-.546.858.858,0,0,0-.866.313,1.435,1.435,0,0,0-.286.933c0,.961-.007,1.921,0,2.882,0,.217-.044.3-.276.287a9.557,9.557,0,0,0-1.051,0c-.22.012-.287-.045-.285-.276.012-1.508.006-3.017.006-4.525,0-.537,0-.537.525-.537.279,0,.558.011.836,0,.186-.01.236.063.22.232C-5449.8,2753.136-5449.795,2753.25-5449.795,2753.364Z" transform="translate(5506.343 -2719.325)" fill="#383535"/>
    <path id="Path_4460" data-name="Path 4460" d="M-5810.307,2758.684c.324-1,.631-1.957.942-2.91.083-.254.106-.588.282-.737.192-.161.534-.049.81-.048.228,0,.543-.108.657.053.1.138-.1.407-.18.616-.775,2.14-1.557,4.278-2.326,6.42a.343.343,0,0,1-.4.281c-.322-.022-.646-.005-.97-.006s-.322,0-.223-.292c.171-.51.339-1.021.519-1.527a.551.551,0,0,0-.01-.413q-.932-2.392-1.854-4.789c-.134-.346-.134-.346.248-.346.351,0,.7.013,1.051,0a.3.3,0,0,1,.354.254c.322,1.054.662,2.1,1,3.152C-5810.385,2758.472-5810.354,2758.554-5810.307,2758.684Z" transform="translate(5848.582 -2721.515)" fill="#383535"/>
    <path id="Path_4461" data-name="Path 4461" d="M-5705.595,2756.4c.1,0,.2,0,.3,0,.243-.012.423-.008.554.293a.976.976,0,0,0,1.36.167.476.476,0,0,0-.052-.746,2.118,2.118,0,0,0-.769-.31,8.179,8.179,0,0,1-1.11-.32,1.378,1.378,0,0,1-.949-1.223,1.368,1.368,0,0,1,.79-1.41,3.119,3.119,0,0,1,2.68-.176,1.453,1.453,0,0,1,.943,1.154c.03.153.008.237-.18.227-.25-.013-.5,0-.755,0s-.461.045-.6-.276c-.131-.3-.854-.338-1.1-.117a.4.4,0,0,0,.057.646,2.162,2.162,0,0,0,.649.252,6.164,6.164,0,0,1,1.442.508,1.426,1.426,0,0,1,.712,1.67,1.588,1.588,0,0,1-.794.946,3.23,3.23,0,0,1-2.928.175,1.5,1.5,0,0,1-.96-1.176c-.035-.19-.013-.314.233-.283A4,4,0,0,0-5705.595,2756.4Z" transform="translate(5747.53 -2719.157)" fill="#383535"/>
    <path id="Path_4462" data-name="Path 4462" d="M-6129.006,2716.188c0-1.194,0-2.388,0-3.581,0-.193.037-.271.249-.261.386.018.772.01,1.159,0,.147,0,.2.038.2.2q-.007,3.635,0,7.27c0,.18-.072.2-.224.2-.368-.008-.738-.016-1.1,0-.219.011-.288-.046-.286-.276C-6129,2718.557-6129.006,2717.372-6129.006,2716.188Z" transform="translate(6147.404 -2681.209)" fill="#383535"/>
  </g>
</svg>
