<svg id="Group_3914" data-name="Group 3914" xmlns="http://www.w3.org/2000/svg" width="113.549" height="32.508" viewBox="0 0 113.549 32.508">
  <path id="Path_4463" data-name="Path 4463" d="M-8001.357,791.179c-.8-.622-1.822-.545-2.732-.81-7.349-2.131-12.487-9.03-11.98-16.169a16.99,16.99,0,0,1,14.313-15.286,19.479,19.479,0,0,1,12.008,1.893,1.59,1.59,0,0,1,1.07,1.657c-.082,2.473-.028,4.95-.028,7.729a13.194,13.194,0,0,0-7.5-4.086c-5.1-.928-9.86,1.552-11.307,5.966-2.158,6.586,3.512,12.839,10.533,11.654a19.652,19.652,0,0,0,8.269-3.783c0,2.755-.018,5.267.013,7.779.007.625-.372.843-.819,1.068a17.674,17.674,0,0,1-6.691,2.1c-.208.015-.379.056-.426.291Z" transform="translate(8075.265 -758.671)" fill="#383535"/>
  <path id="Path_4464" data-name="Path 4464" d="M-7910.081,791.166c-.4-.535-1.042-.425-1.571-.548-7.935-1.844-13.248-8.568-12.937-16.418.3-7.527,6.567-14.142,14.4-15.31a19.415,19.415,0,0,1,11.735,1.828,1.769,1.769,0,0,1,1.145,1.911c-.079,2.417-.025,4.839-.025,7.553a12.685,12.685,0,0,0-9.877-4.258,9.129,9.129,0,0,0-9.312,9.688,9.23,9.23,0,0,0,10.9,8.117,16.188,16.188,0,0,0,4.333-1.35,21.876,21.876,0,0,0,3.956-2.451c0,2.814-.015,5.37.011,7.925.005.579-.386.736-.77.933a18.8,18.8,0,0,1-6.394,2.086c-.233.027-.5-.034-.571.3h-.886a2.676,2.676,0,0,0-2.658,0Z" transform="translate(8010.856 -758.658)" fill="#383535"/>
  <path id="Path_4465" data-name="Path 4465" d="M-7870.575,867.6a2.675,2.675,0,0,1,2.657,0Z" transform="translate(7972.828 -835.094)" fill="#383535"/>
  <path id="Path_4466" data-name="Path 4466" d="M-8172.525,777.8c2.556-5.525,5.041-10.814,7.433-16.144a1.639,1.639,0,0,1,1.852-1.163c1.767.08,3.542.056,5.311.007.721-.02.9.215.9.907q-.031,14.789,0,29.578c0,.712-.214.907-.913.892-2.017-.043-4.035-.058-6.05.005-.861.027-1.051-.262-1.042-1.067.041-3.757.018-7.515.018-11.507a10.644,10.644,0,0,0-1.479,2.717c-1.427,2.935-2.875,5.864-4.178,8.853-.521,1.194-1.4.907-2.284,1s-1.265-.285-1.613-1.059c-1.713-3.81-3.5-7.589-5.506-11.374v2.791c0,2.831-.032,5.662.019,8.492.015.852-.134,1.2-1.1,1.158-1.865-.087-3.741-.1-5.605,0-1.1.058-1.269-.362-1.256-1.331.054-3.953.029-7.906.014-11.86a2.209,2.209,0,0,0-.224-1.5,25.348,25.348,0,0,1-.837,4.526c-1.934,5.836-6.474,8.411-12.15,9.548-4.575.916-9.213.476-13.826.6-1.148.031-.795-.743-.795-1.282q-.023-12.226-.011-24.453c0-1.611.012-3.221-.007-4.832-.006-.508.055-.822.7-.8,4.8.144,9.638-.388,14.4.756,7.337,1.764,11.728,6.143,12.671,13.769.03-.19.075-.379.087-.57.015-.243,0-.488,0-.732,0-4.051.021-8.1-.018-12.153-.008-.812.188-1.109,1.053-1.08,1.868.063,3.742.093,5.606-.01a1.625,1.625,0,0,1,1.839,1.2c2.136,5.018,4.329,10.012,6.5,15.014C-8172.88,777.015-8172.738,777.325-8172.525,777.8Zm-35.849-1.619c0,2.441.028,4.882-.016,7.321-.015.791.156,1.134,1.042,1.1a35.386,35.386,0,0,0,5.289-.361c3.351-.622,5.781-3.578,6.129-7.47a7.537,7.537,0,0,0-4.727-8.086,18.952,18.952,0,0,0-6.675-.92c-.859,0-1.077.275-1.061,1.09C-8208.343,771.3-8208.374,773.742-8208.374,776.183Z" transform="translate(8215.894 -759.943)" fill="#383535"/>
</svg>
