<svg id="kJHBis.tif" xmlns="http://www.w3.org/2000/svg" width="93.012" height="39.716" viewBox="0 0 93.012 39.716">
  <g id="Group_3923" data-name="Group 3923" transform="translate(0 0)">
    <path id="Path_4565" data-name="Path 4565" d="M343.268-782.378h40c.084.228.285.237.485.288,4,1.025,6.662,3.482,7.462,7.512a9.614,9.614,0,0,1-4.034,10.232c-.3.221-.613.426-1.063.738a11.225,11.225,0,0,1,6.445,6.688c.2.547.093,1.215.626,1.635v.924a1.377,1.377,0,0,0,0,1.847v1.232c-.516.137-.455.627-.575.98a10.725,10.725,0,0,1-7.965,7.293c-.273.07-.64-.053-.761.348h-1.24c-.567-.536-1.273-.3-1.914-.3q-18.7-.039-37.394-.043c-.014-.357-.006-.717-.045-1.071-.133-1.189,0-2.037,1.482-2.428a2.706,2.706,0,0,0,1.841-2.773q.043-13.271,0-26.543a2.715,2.715,0,0,0-1.933-2.857c-1.5-.346-1.47-1.224-1.4-2.323C343.319-781.456,343.277-781.918,343.268-782.378Zm29.912,19.827c0,4.2-.022,8.4.007,12.605.021,3.078,2.037,4.462,4.943,3.452a7.431,7.431,0,0,0,4.985-7.077,7.1,7.1,0,0,0-5.31-6.938c-1.6-.388-1.256-1.345-1.352-2.351-.1-1.029.186-1.475,1.3-1.757a7.3,7.3,0,0,0,5.382-6.765,7.488,7.488,0,0,0-4.63-7.171c-3.174-1.295-5.315.12-5.328,3.55C373.167-770.853,373.18-766.7,373.181-762.551Zm-10-.051c0-4.2.006-8.409,0-12.614-.005-2.4-1.228-3.81-3.265-3.815s-3.311,1.431-3.314,3.792q-.014,12.691,0,25.382c0,2.281,1.4,3.812,3.37,3.773,1.923-.039,3.2-1.511,3.206-3.75C363.192-754.09,363.183-758.346,363.183-762.6Z" transform="translate(-300.173 782.378)" fill="#383535"/>
    <path id="Path_4566" data-name="Path 4566" d="M244.312-782.378c.527,3.345.527,3.345-2.744,3.345q-11.535,0-23.07,0c-2.673,0-3.9,1.195-3.9,3.828q-.014,12.608,0,25.215c0,2.655,1.293,3.908,4.019,3.911,7.9.007,15.793-.015,23.689.013,2.4.009,2.128-.559,2.152,2.213a6.83,6.83,0,0,1-.111.905q-17.289-.015-34.577-.026c-.39,0-.84-.144-1.11.309h-.31c-1.724-1.024-3.352-2.131-3.72-4.31v-31.4a5.606,5.606,0,0,1,4.031-4Z" transform="translate(-204.627 782.378)" fill="#383535"/>
    <path id="Path_4567" data-name="Path 4567" d="M380.766-655.651c.64,0,1.347-.237,1.914.3H343.305l.068-.342" transform="translate(-300.209 695.069)" fill="#383535"/>
    <path id="Path_4568" data-name="Path 4568" d="M217.6-655.309c.27-.453.72-.309,1.11-.309q17.289.007,34.577.025a.228.228,0,0,1-.033.284Z" transform="translate(-213.566 695.025)" fill="#383535"/>
    <path id="Path_4569" data-name="Path 4569" d="M503.143-690.375a1.377,1.377,0,0,1,0-1.847Z" transform="translate(-410.131 720.239)" fill="#383535"/>
    <path id="Path_4570" data-name="Path 4570" d="M265.86-734.775a13.23,13.23,0,0,1-13.23-13.27A13.271,13.271,0,0,1,265.995-761.2a13.278,13.278,0,0,1,13.235,13.288A13.244,13.244,0,0,1,265.86-734.775Zm-5.876-11.97c-1.233,0-2.467.034-3.7-.012-.882-.033-1.075.351-.882,1.115a12.953,12.953,0,0,0,1.4,3.377c.419.717.785.733,1.428.243a10.862,10.862,0,0,1,5.338-2.225c1.3-.151,1.071-.915,1.1-1.705.035-1.044-.743-.769-1.3-.785C262.245-746.768,261.114-746.746,259.984-746.745Zm11.882,0c-1.182,0-2.364-.007-3.545,0-.552,0-1.215-.114-1.134.793.062.688-.334,1.524.946,1.664A11.362,11.362,0,0,1,272.6-742.7c2.235,1.306,2.257,1.3,3.274-1.2.229-.565.4-1.156.571-1.742.226-.763,0-1.143-.878-1.11C274.334-746.711,273.1-746.745,271.866-746.745ZM260-749.243c1.135,0,2.269.014,3.4-.006.573-.01,1.31.215,1.263-.82-.034-.76.168-1.535-1.031-1.634a13.888,13.888,0,0,1-4.086-1.343c-.818-.338-1.373-1.709-2.409-.991a5.05,5.05,0,0,0-1.381,2.53c-.143.383-.232.785-.342,1.18-.21.754-.046,1.148.869,1.1C257.524-749.292,258.765-749.243,260-749.243Zm11.871,0a8.483,8.483,0,0,0,1.082-.007c1.174-.152,2.985.614,3.389-.4.522-1.3-.6-2.789-1.342-4.087-.364-.637-.693-.7-1.309-.247a11.145,11.145,0,0,1-5.353,2.249c-1.182.139-1.184.8-1.164,1.687.026,1.172.881.758,1.448.786C269.705-749.2,270.791-749.243,271.874-749.243Zm-7.206-6.969c0-2.7-.007-2.723-2.4-1.824-1.046.392-2.687.758-2.677,1.723.009.923,1.658,1.307,2.7,1.7C264.6-753.751,264.667-753.815,264.668-756.212Zm2.517-.142c0,2.571.069,2.64,2.491,1.694,1.01-.394,2.582-.714,2.584-1.738,0-.826-1.577-1.233-2.575-1.609C267.188-758.948,267.184-758.937,267.184-756.354Zm-2.517,16.737c0-2.612-.012-2.641-2.463-1.686-1.022.4-2.617.7-2.626,1.738-.007.831,1.6,1.242,2.6,1.624C264.661-736.994,264.668-737.012,264.668-739.617Zm7.876,0a6.814,6.814,0,0,0-2.357-1.479c-3-1.3-3-1.3-3,1.827,0,.409.015.819,0,1.227-.022.552.208.712.752.593A9.756,9.756,0,0,0,272.544-739.619Z" transform="translate(-237.712 767.781)" fill="#383535"/>
  </g>
</svg>
