<svg xmlns="http://www.w3.org/2000/svg" width="18.706" height="12.348" viewBox="0 0 18.706 12.348">
  <path id="behance" d="M7.551,11.641a2.062,2.062,0,0,0,1.77-2.3A3.018,3.018,0,0,0,6.038,6.122H0V18.214H6.037s3.687.121,3.687-3.57c0,0,.16-3-2.173-3ZM2.66,8.27H6.037s.821,0,.821,1.257-.483,1.442-1.031,1.442H2.66Zm3.206,7.795H2.66V12.832H6.037s1.223-.017,1.223,1.66c0,1.415-.914,1.561-1.395,1.572ZM14.639,9.2c-4.463,0-4.46,4.647-4.46,4.647s-.305,4.622,4.46,4.622c0,0,3.969.238,3.969-3.215H16.567s.068,1.3-1.86,1.3a1.912,1.912,0,0,1-2.043-2.1h6.008s.663-5.25-4.034-5.25Zm1.816,3.635H12.644a2.121,2.121,0,0,1,2.041-1.864,1.78,1.78,0,0,1,1.77,1.864Zm.474-6H12.142V8.323h4.787V6.832Z" transform="translate(0 -6.122)" fill="#a1a1a1"/>
</svg>
