<svg xmlns="http://www.w3.org/2000/svg" width="13.602" height="13.602" viewBox="0 0 13.602 13.602">
  <g id="Icon_Social_Google" data-name="Icon/Social/Google" transform="translate(-0.5 -0.5)">
    <path id="google" d="M13.481,5.443H6.945c0,.68,0,2.039,0,2.719h3.787a3.669,3.669,0,0,1-1.387,2.111s0,0,0,0a4.471,4.471,0,0,1-3.189.593A4.206,4.206,0,0,1,3.012,8.13s0-.021.007-.022a4.064,4.064,0,0,1,0-2.664h0A4.174,4.174,0,0,1,6.1,2.742a3.966,3.966,0,0,1,3.537.95c.132-.129,1.826-1.784,1.953-1.918A7,7,0,0,0,.741,3.748h0s0,0,0,.007h0a6.642,6.642,0,0,0,.007,6.1l-.007.005A6.924,6.924,0,0,0,5.144,13.37a7.113,7.113,0,0,0,6.4-1.409l0,0a7.027,7.027,0,0,0,1.935-6.52" transform="translate(0.5 0.5)" fill="#a1a1a1"/>
  </g>
</svg>
