<svg id="search" xmlns="http://www.w3.org/2000/svg" width="16.001" height="16.001" viewBox="0 0 16.001 16.001">
  <path id="Path_82421" data-name="Path 82421" d="M23.13,23.128a1,1,0,0,1,1.415,0l3.85,3.85a1,1,0,1,1-1.414,1.415l-3.85-3.85a1,1,0,0,1,0-1.415Z" transform="translate(-12.687 -12.686)" fill="#a1a1a1" fill-rule="evenodd"/>
  <path id="Path_82422" data-name="Path 82422" d="M6.5,12A5.5,5.5,0,1,0,1,6.5,5.5,5.5,0,0,0,6.5,12ZM13,6.5A6.5,6.5,0,1,1,6.5,0,6.5,6.5,0,0,1,13,6.5Z" fill="#a1a1a1" fill-rule="evenodd"/>
</svg>
