<svg xmlns="http://www.w3.org/2000/svg" width="17.036" height="13.839" viewBox="0 0 17.036 13.839">
  <path id="twitter-bird" d="M17.036,1.639a7.077,7.077,0,0,1-1.746,1.8q.01.2.01.452a10.039,10.039,0,0,1-1.657,5.5,10.618,10.618,0,0,1-2,2.276A8.919,8.919,0,0,1,8.851,13.25a10.194,10.194,0,0,1-3.494.59A9.728,9.728,0,0,1,0,12.269a7.557,7.557,0,0,0,.834.048,6.853,6.853,0,0,0,4.341-1.5,3.391,3.391,0,0,1-2.03-.7,3.435,3.435,0,0,1-1.234-1.73A3.494,3.494,0,0,0,3.49,8.334a3.406,3.406,0,0,1-2.006-1.2,3.382,3.382,0,0,1-.8-2.221V4.865A3.449,3.449,0,0,0,2.27,5.3,3.472,3.472,0,0,1,1.134,4.057a3.41,3.41,0,0,1-.42-1.662A3.434,3.434,0,0,1,1.187.639,9.951,9.951,0,0,0,4.374,3.218,9.712,9.712,0,0,0,8.39,4.291,3.418,3.418,0,0,1,8.3,3.5,3.367,3.367,0,0,1,9.322,1.025a3.5,3.5,0,0,1,5.022.078A6.961,6.961,0,0,0,16.563.254a3.379,3.379,0,0,1-1.535,1.934,6.985,6.985,0,0,0,2.008-.549Z" fill="#a2ce4b"/>
</svg>
