<svg xmlns="http://www.w3.org/2000/svg" width="69.409" height="69.41" viewBox="0 0 69.409 69.41">
  <g id="flag_country_national_nation_world_pin_sign_213" data-name="flag, country, national, nation, world, pin, sign, 213" transform="translate(1 1)">
    <rect id="Rectangle_6792" data-name="Rectangle 6792" width="4.213" height="67.409" transform="translate(0 0)" fill="#2d5f4f" stroke="#2d5f4f" stroke-linecap="round" stroke-linejoin="round" stroke-width="2"/>
    <path id="Path_33857" data-name="Path 33857" d="M15,17.851V47.916a26.816,26.816,0,0,1,37.918,0V17.853A26.812,26.812,0,0,0,15,17.851Z" transform="translate(-10.787 -9.999)" fill="none" stroke="#2d5f4f" stroke-linecap="round" stroke-linejoin="round" stroke-width="2"/>
    <path id="Path_33858" data-name="Path 33858" d="M57.639,32.07V50.279A26.66,26.66,0,0,0,45,43.209V55.066a26.814,26.814,0,0,0,37.918,0V25A26.77,26.77,0,0,1,57.639,32.07Z" transform="translate(-15.508 -12.361)" fill="none" stroke="#2d5f4f" stroke-linecap="round" stroke-linejoin="round" stroke-width="2"/>
    <path id="Path_33859" data-name="Path 33859" d="M45,58.467V46.61a26.66,26.66,0,0,1,12.639,7.07Z" transform="translate(-15.508 -15.761)" fill="#2d5f4f" stroke="#2d5f4f" stroke-linecap="round" stroke-linejoin="round" stroke-width="2"/>
  </g>
</svg>
