<svg xmlns="http://www.w3.org/2000/svg" width="362" height="124.33" viewBox="0 0 362 124.33">
  <g id="Group_36888" data-name="Group 36888" transform="translate(-163 -457)">
    <path id="Path_4107" data-name="Path 4107" d="M-1398.211-13.169c-.164.084-.413.125-.48.258-4.234,8.34-11.633,11.411-20.413,12.117a48.259,48.259,0,0,1-17.634-1.5,19.865,19.865,0,0,1-13.806-16.979c-.1-1.327.155-1.916,1.623-1.9q7.033.093,14.068,0c1.34-.018,1.736.643,2.138,1.767,2.117,5.925,6.986,8.467,12.884,6.8,2.717-.77,4.638-2.442,4.858-5.347.2-2.706-1.46-4.423-3.792-5.526-2.964-1.4-6.187-1.96-9.339-2.742a45.013,45.013,0,0,1-12.559-4.739c-10.48-6.294-10.458-20.521.02-26.858a23.206,23.206,0,0,1,9.163-3.119c6.5-.836,12.982-.942,19.363.834,7.036,1.959,11.2,6.594,12.7,13.689.377,1.775.1,2.6-2.019,2.527-4.3-.147-8.612-.089-12.919-.018a2.546,2.546,0,0,1-2.8-1.758,8.741,8.741,0,0,0-11.6-4.234,4.2,4.2,0,0,0-2.771,3.983c.027,1.758,1.252,2.74,2.746,3.318a36.339,36.339,0,0,0,4.114,1.239c2.316.59,4.653,1.1,6.975,1.673,7.685,1.892,14.985,4.433,19.477,11.634Z" transform="translate(1923.211 562.851)" fill="#383535"/>
    <path id="Path_4108" data-name="Path 4108" d="M-1989.307-44.791c4.539-2.833,8.089-6.85,12.24-10.148,1.161-.923,2.1-2.151,3.829-2.889-.442,1.668-.726,3.055-1.18,4.384-.825,2.415-.388,3.585,2.462,4.285,7.128,1.753,14.138,3.984,21.2,6.024q-.117.446-.233.892l-.934.162c-.711-.695-1.613-.457-2.444-.458q-10.577-.009-21.153.023l-13.781.015Z" transform="translate(2152.307 561.273)" fill="#383535"/>
    <path id="Path_4109" data-name="Path 4109" d="M-1640.526-19.694c0-5.342.062-10.686-.037-16.026-.032-1.723.433-2.357,2.241-2.316,4.69.109,9.385.092,14.076.006,1.65-.03,2.112.556,2.093,2.153-.078,6.391.042,12.784-.076,19.174-.036,1.9.526,2.564,2.413,2.387,2.188-.206,4.4-.155,6.589-.344,4.4-.38,6.943-2.975,7.915-7.105a36.763,36.763,0,0,0,.154-15.905q-1.835-8.958-11.8-9.108-10.34-.173-20.683.01c-2.175.038-3.132-.418-2.94-2.81a77.359,77.359,0,0,0,.028-8.295c-.039-1.429.372-2.073,1.929-2.039,10.144.217,20.308-.464,30.436.383,10.276.86,17.434,6.745,20.37,16.615a45.469,45.469,0,0,1,.48,24.054c-2.567,10.518-10.841,17.053-22.99,17.677-9.457.486-18.956.134-28.435.231-1.705.017-1.789-.859-1.782-2.143C-1640.506-8.627-1640.526-14.161-1640.526-19.694Z" transform="translate(2004.023 562.187)" fill="#383535"/>
    <path id="Path_4110" data-name="Path 4110" d="M-1726.351-39.463c-1.077.922-1.159,2.031-1.5,2.993-3.91,11.06-7.818,22.12-11.635,33.212-.578,1.681-1.311,2.422-3.216,2.358-4.59-.153-9.189-.1-13.782-.022-1.758.031-2.148-.393-1.5-2.107q10.4-27.406,20.672-54.861a2.634,2.634,0,0,1,2.94-2.005c5.264.089,10.53.063,15.795.011,1.284-.013,2.117.239,2.622,1.588q10.578,28.259,21.232,56.491a3.1,3.1,0,0,1-.037.849c-5.692,0-11.4-.018-17.11.011-1.683.008-1.649-1.381-1.992-2.365q-5.861-16.88-11.649-33.785C-1725.753-37.812-1726.016-38.524-1726.351-39.463Z" transform="translate(2054.063 562.156)" fill="#383535"/>
    <path id="Path_4111" data-name="Path 4111" d="M-1515.22-21.655c6.793,0,13.589.1,20.379-.056,2.34-.055,2.978.708,2.817,2.911a45.417,45.417,0,0,0,.009,7.427c.222,2.423-.826,2.792-2.944,2.761-7.558-.11-15.119.017-22.676-.085-1.951-.026-2.789.448-2.618,2.521a40.6,40.6,0,0,1,.007,6c-.117,1.793.6,2.268,2.319,2.251,7.558-.075,15.121.106,22.674-.1,2.774-.078,3.427.856,3.234,3.376a75.782,75.782,0,0,0-.022,8c.042,1.412-.311,2.049-1.9,2.043q-21.384-.072-42.769,0c-1.623.006-1.863-.692-1.858-2.06.037-10.961.066-21.923-.022-32.884-.016-1.939.847-2.141,2.414-2.129C-1529.189-21.626-1522.2-21.655-1515.22-21.655Z" transform="translate(1960.643 545.842)" fill="#383535"/>
    <path id="Path_4112" data-name="Path 4112" d="M-1515.52-59.869c6.979,0,13.959.073,20.937-.045,2.046-.035,2.656.615,2.548,2.594-.153,2.849-.1,5.715-.015,8.569.044,1.489-.5,1.986-1.987,1.982q-21.224-.06-42.45.007c-1.664.006-2.15-.574-2.1-2.155.1-2.854.145-5.72-.014-8.569-.107-1.916.554-2.448,2.425-2.423C-1529.289-59.813-1522.4-59.87-1515.52-59.869Z" transform="translate(1960.651 562.165)" fill="#383535"/>
    <path id="Path_4113" data-name="Path 4113" d="M-1893.905,46.335c-.842.32-1.219-.345-1.636-.818q-6.611-7.481-13.186-14.993a6.944,6.944,0,0,1-.633-1.216c2.115.482,3.958.871,5.783,1.328,1.4.35,2.058-.116,2.436-1.53,1.814-6.782,3.743-13.533,5.573-20.31.205-.759.206-1.507,1.151-1.707l.576.49.06-.053c-1.222,6.7-.312,13.461-.574,20.189a7.089,7.089,0,0,0,.489,3.911Q-1893.887,38.979-1893.905,46.335Z" transform="translate(2118.31 533.536)" fill="#383535"/>
    <path id="Path_4114" data-name="Path 4114" d="M-1882.757-138.923c5.328,5.183,9.817,11.1,14.618,17.055-1.3-.347-2.623-.6-3.878-1.06-2.56-.927-3.815-.414-4.539,2.534-1.631,6.648-3.739,13.18-5.653,19.759l-.923-.005-.112-23.442c.734-.8.442-1.789.45-2.7C-1882.756-130.828-1882.764-134.876-1882.757-138.923Z" transform="translate(2107.204 595.923)" fill="#383535"/>
    <path id="Path_4115" data-name="Path 4115" d="M-1827.858,23.785l-22-1.218-.162-.584c1.474-.889,2.912-1.844,4.431-2.649,1.6-.848,1.846-1.739.881-3.374-3.3-5.586-6.451-11.265-9.647-16.914-.547-.966-1.421-1.824-1.138-3.1l1.17.031h-.006c.11.351.113.808.344,1.037,5.43,5.376,10.59,11.025,16.354,16.064,1.229,1.325,2.5,2.617,3.677,3.984C-1831.974,19.357-1829.208,20.935-1827.858,23.785Z" transform="translate(2095.425 538.294)" fill="#383535"/>
    <path id="Path_4116" data-name="Path 4116" d="M-1959.4,22.959c-.24-6.463.615-12.871,1-19.3.032-.534-.05-1.188.7-1.383.849-.22,1.146.415,1.542.956,2.665,3.629,2.662,3.61,6.612,1.416q8.857-4.923,17.736-9.81l.665.661,0-.006a.857.857,0,0,0-.669,1.085v-.007a1.76,1.76,0,0,0-1.494.672q-7.612,7.663-15.219,15.331a1.979,1.979,0,0,0-1.13.767A109.24,109.24,0,0,1-1959.4,22.959Z" transform="translate(2139.608 538.771)" fill="#383535"/>
    <path id="Path_4117" data-name="Path 4117" d="M-1959.409-107.474c.309-.172.626-.511.923-.493,7.2.428,14.4.895,22.468,1.409-2.223,1.353-3.723,2.366-5.315,3.207-1.537.812-1.644,1.657-.787,3.152,3.732,6.508,7.34,13.087,10.992,19.64-.257.474-.737.478-1.183.556h.008c-.115-.349-.127-.8-.359-1.033-5.416-5.393-10.617-11-16.342-16.083A111.77,111.77,0,0,0-1959.409-107.474Z" transform="translate(2139.594 582.696)" fill="#383535"/>
    <path id="Path_4118" data-name="Path 4118" d="M-1805.126-30.561-1821.3-16.166l-.56-.376c.369-1.43.674-2.881,1.124-4.286.688-2.152.111-3.225-2.236-3.838-7.117-1.861-14.171-3.969-21.25-5.981.877-.833,1.975-.5,2.981-.509,7.2-.054,14.394-.07,21.592-.1,3.112.027,6.228-.023,9.335.113C-1808.585-31.066-1806.738-31.752-1805.126-30.561Z" transform="translate(2090.613 549.925)" fill="#383535"/>
    <path id="Path_4119" data-name="Path 4119" d="M-1826.864-107.022a158.8,158.8,0,0,1-1.82,22.156c-.759-1.258-1.621-2.467-2.254-3.785-1.009-2.1-2.174-2.339-4.241-1.153-5.447,3.123-10.822,6.386-16.511,9.089a6.492,6.492,0,0,1-2.685.637q-.056-.336-.111-.671v0c5.858-3.9,10.113-9.51,15.213-14.22a3.86,3.86,0,0,0,1.613-2.286c1.16-.12,1.728-1.072,2.463-1.77C-1832.408-101.679-1829.64-104.355-1826.864-107.022Z" transform="translate(2094.975 582.292)" fill="#383535"/>
    <path id="Path_4120" data-name="Path 4120" d="M-1894.215-138.923c-.007,4.047,0,8.095-.035,12.142-.008.911.283,1.9-.451,2.7a22.9,22.9,0,0,0-7.081.649c-2.611-.117-5,1.005-8.4,1.661,3.928-4.479,7.256-8.421,10.757-12.2C-1897.809-135.724-1896.8-138.168-1894.215-138.923Z" transform="translate(2118.662 595.923)" fill="#383535"/>
    <path id="Path_4121" data-name="Path 4121" d="M-1823.379-107.519c-2.776,2.667-5.544,5.343-8.334,8-.734.7-1.3,1.649-2.462,1.769l-5.786-4.63-6.329-4.008c2.506-.9,4.871-.5,7.146-.71,4.476-.4,8.965-.682,13.452-.944C-1824.919-108.093-1823.947-108.543-1823.379-107.519Z" transform="translate(2091.491 582.789)" fill="#383535"/>
    <path id="Path_4122" data-name="Path 4122" d="M-1959.437-107.106a111.677,111.677,0,0,1,10.4,10.357c-1.032,2.092-3.949,2.841-4.032,5.61-2.685,1.288-3.059,4.376-5.153,6.707C-1958.695-92.254-1959.676-99.641-1959.437-107.106Z" transform="translate(2139.622 582.328)" fill="#383535"/>
    <path id="Path_4123" data-name="Path 4123" d="M-1788.243-40.784c-1.612-1.192-3.458-.505-5.191-.581-3.107-.136-6.222-.085-9.334-.112.351-2.53-.271-4.985-.59-7.464-.314-1.368-.654-2.73-.929-4.1-.138-.693-.586-1.534.3-2.015.672-.363,1.294.066,1.8.51q6.969,6.073,13.92,12.169C-1787.7-41.889-1787.409-41.324-1788.243-40.784Z" transform="translate(2073.729 560.148)" fill="#383535"/>
    <path id="Path_4124" data-name="Path 4124" d="M-1814.6,27.617c-1.35-2.85-4.117-4.428-6.092-6.719-1.18-1.368-2.449-2.659-3.677-3.984,1.285-1.923,3.306-3.325,4.035-5.642,2.229-1.5,2.864-4.19,4.632-6.354.89,1.451.566,2.9.666,4.241q.613,8.114,1.051,16.24C-1813.945,26.145-1813.433,27.151-1814.6,27.617Z" transform="translate(2082.169 534.463)" fill="#383535"/>
    <path id="Path_4125" data-name="Path 4125" d="M-1959.373,36.191a109.2,109.2,0,0,0,9.736-9.619,1.983,1.983,0,0,1,1.131-.767c1.433,2.257,3.78,3.525,5.71,5.244l6.409,3.974c-3.484.9-6.706.49-9.833.868-3.669.444-7.382.546-11.078.754C-1958,36.684-1958.832,37.016-1959.373,36.191Z" transform="translate(2139.579 525.538)" fill="#383535"/>
    <path id="Path_4126" data-name="Path 4126" d="M-1882.471,63.061q.019-7.355.039-14.712a21.049,21.049,0,0,0,6.845-.935c2.579.349,4.937-.946,8.177-1.182C-1872.672,52.175-1877.193,57.942-1882.471,63.061Z" transform="translate(2106.876 516.81)" fill="#383535"/>
    <path id="Path_4127" data-name="Path 4127" d="M-1821.283-44.274c.318,2.479.941,4.933.59,7.464-7.2.027-14.4.044-21.593.1-1.006.007-2.1-.324-2.98.509-.447-.085-1.163-.033-1.289-.281-.444-.871.462-.809.9-.935q8.613-2.48,17.239-4.905C-1826.044-42.993-1823.661-43.626-1821.283-44.274Z" transform="translate(2091.654 555.482)" fill="#383535"/>
    <path id="Path_4128" data-name="Path 4128" d="M-1875.982,31.014a21.05,21.05,0,0,1-6.845.935,7.091,7.091,0,0,1-.488-3.911c.261-6.728-.648-13.489.574-20.189,2.062,3.505,2.4,7.556,3.588,11.338A88.314,88.314,0,0,1-1875.982,31.014Z" transform="translate(2107.27 533.21)" fill="#383535"/>
    <path id="Path_4129" data-name="Path 4129" d="M-1843.445-98.058l5.786,4.63a3.859,3.859,0,0,1-1.613,2.287c-5.1,4.709-9.354,10.316-15.213,14.22,1.526-4.857,4.719-8.85,6.963-13.335C-1846.208-92.88-1844.345-95.22-1843.445-98.058Z" transform="translate(2094.974 578.462)" fill="#383535"/>
    <path id="Path_4130" data-name="Path 4130" d="M-1948.324-83.413c.083-2.77,3-3.518,4.033-5.61,5.725,5.08,10.926,10.69,16.342,16.083.233.231.245.684.359,1.033-5.034-1.77-9.35-4.9-14-7.4C-1943.894-80.548-1946.375-81.564-1948.324-83.413Z" transform="translate(2134.879 574.602)" fill="#383535"/>
    <path id="Path_4131" data-name="Path 4131" d="M-1832.69,7.464c-.73,2.317-2.75,3.719-4.035,5.642-5.763-5.038-10.923-10.688-16.354-16.064-.232-.229-.234-.686-.344-1.037,5.027,1.765,9.34,4.879,13.969,7.39C-1837.149,4.647-1834.611,5.564-1832.69,7.464Z" transform="translate(2094.524 538.271)" fill="#383535"/>
    <path id="Path_4132" data-name="Path 4132" d="M-1934.755,19.1c-1.93-1.719-4.276-2.987-5.71-5.244q7.608-7.666,15.219-15.331a1.762,1.762,0,0,1,1.5-.672c-1.941,5.459-5.5,10.067-8.049,15.205C-1932.8,15.067-1934.427,16.769-1934.755,19.1Z" transform="translate(2131.537 537.486)" fill="#383535"/>
    <path id="Path_4133" data-name="Path 4133" d="M-1964.655-24.107c-.949-2.274-.623-4.671-.682-7.031q10.576-.017,21.153-.023c.831,0,1.734-.237,2.444.458-2.516,1.657-5.5,1.942-8.3,2.727C-1954.892-26.617-1959.666-24.951-1964.655-24.107Z" transform="translate(2142.117 549.896)" fill="#383535"/>
    <path id="Path_4134" data-name="Path 4134" d="M-1895.564-112.392a22.9,22.9,0,0,1,7.081-.649q.057,11.72.111,23.442l-.6.007c-1.686-3.306-2.257-6.966-3.292-10.474C-1893.465-104.144-1894.472-108.281-1895.564-112.392Z" transform="translate(2112.444 584.883)" fill="#383535"/>
    <path id="Path_4135" data-name="Path 4135" d="M-1671.538,64.9c0-1.787-.027-3.575.015-5.361.015-.645.071-1.464,1.017-1.39.7.054.83.731.836,1.3.029,2.762.025,5.523.019,8.285a1.271,1.271,0,0,1-.791,1.379c-.773.257-1.273-.2-1.671-.781a32.161,32.161,0,0,0-4.929-6.043c0,1.854.015,3.708-.009,5.562-.008.591-.181,1.192-.907,1.216s-.972-.566-.978-1.158q-.039-4.285.007-8.57a1.209,1.209,0,0,1,.917-1.293,1.557,1.557,0,0,1,1.657.875c1.4,2.023,2.771,4.067,4.152,6.1Z" transform="translate(2020.333 511.776)" fill="#383535"/>
    <path id="Path_4136" data-name="Path 4136" d="M-1596.828,62.31c0,1.856,0,3.712,0,5.569,0,.594-.112,1.247-.84,1.241s-.825-.664-.826-1.258c-.009-2.661-.022-5.322,0-7.983,0-.632-.2-1.428.6-1.742.911-.357,1.4.343,1.853.954,1.378,1.853,2.386,4,4.679,6.14,0-2.244-.03-3.81.014-5.373.02-.723-.061-1.75,1.024-1.665,1.008.078.884,1.085.891,1.816.025,2.47.014,4.941.008,7.412,0,.667.021,1.4-.777,1.658-.774.247-1.267-.293-1.658-.838-1.438-2-2.845-4.022-4.264-6.035Z" transform="translate(1986.128 511.765)" fill="#383535"/>
    <path id="Path_4137" data-name="Path 4137" d="M-1744.588,64.961c0-1.881-.011-3.762.006-5.642.005-.582.106-1.253.847-1.236s.784.711.786,1.281q.021,4.14.005,8.28c0,.551.091,1.208-.6,1.449-.792.273-1.239-.255-1.629-.829-1.385-2.036-2.768-4.074-4.433-6.526-.685,2.152-.3,3.918-.427,5.629-.055.741.071,1.7-1.033,1.678-.9-.018-.879-.876-.885-1.522-.024-2.57-.017-5.14,0-7.709,0-.667.009-1.418.741-1.718.893-.365,1.443.266,1.879.91,1.375,2.031,2.72,4.083,4.076,6.126Z" transform="translate(2051.382 511.787)" fill="#383535"/>
    <path id="Path_4138" data-name="Path 4138" d="M-1381.109,63.587a2.763,2.763,0,0,1,.013-.854c.595-1.719-1.655-4.763,2.368-4.9,4.7-.155,6.662.974,7.127,4.284.552,3.933-.9,6.387-4.156,6.957-.654.115-1.344.011-2,.112-2.639.4-3.76-.647-3.366-3.315A15.794,15.794,0,0,0-1381.109,63.587Zm1.991-.316c0,4.3,0,4.3,2.112,4.3,2.574,0,3.75-1.373,3.716-4.289-.026-2.383-1.068-3.7-3.6-3.814C-1380.486,59.306-1378.588,62.034-1379.118,63.271Z" transform="translate(1893.717 511.858)" fill="#383535"/>
    <path id="Path_4139" data-name="Path 4139" d="M-1450.619,64.953c0-1.9-.032-3.8.02-5.7.015-.55.222-1.2,1-1.074.629.1.556.706.56,1.147q.037,4.147.011,8.294c0,.546.123,1.212-.572,1.467-.817.3-1.219-.306-1.6-.86a34.575,34.575,0,0,0-4.911-6c0,1.721.02,3.443-.009,5.163-.013.738.081,1.7-1.039,1.659-.887-.036-.883-.879-.888-1.536-.022-2.574-.017-5.148,0-7.722,0-.669.029-1.414.786-1.69.911-.333,1.4.315,1.842.972q2.054,3.04,4.116,6.076Z" transform="translate(1926.402 511.776)" fill="#383535"/>
    <path id="Path_4140" data-name="Path 4140" d="M-1431.07,62.934c.915.121,2.179-.315,2.473.894.3,1.24.612,2.657-.454,3.783-1.748,1.844-5.778,1.932-7.994.209-2.066-1.606-2.555-5.22-1.058-7.83a5.26,5.26,0,0,1,6.694-2.234,6.107,6.107,0,0,1,1.838,1.3c.454.444,1,1.116.34,1.722-.749.685-1.1-.141-1.565-.593a3.751,3.751,0,0,0-5.208-.31c-1.521,1.344-1.563,3.689-.692,5.621.889,1.972,2.739,2.163,4.664,1.817a1.649,1.649,0,0,0,1.553-1.437c.09-.783-.257-1.232-1.108-1.32-.677-.069-1.875.237-1.677-.9C-1433.07,62.541-1431.839,63.1-1431.07,62.934Z" transform="translate(1918.283 512.072)" fill="#383535"/>
    <path id="Path_4141" data-name="Path 4141" d="M-1711.638,57.8c1.073.523,3.5-.98,3.587.935.062,1.369-2.414.446-3.732.689-.959.177-2.209-.32-2.291,1.365-.088,1.8,1.151,1.528,2.291,1.686,1.172.162,3.247-.789,3.28.892.025,1.277-2.069.579-3.209.661-1.3.094-2.46-.05-2.406,1.875.05,1.792,1.169,1.633,2.326,1.631.954,0,1.909-.008,2.863.017.571.015,1.283.048,1.237.81-.043.712-.745.734-1.324.766-.1.005-.192,0-.286.009-6.776.62-6.776.62-6.776-6.139,0-.285,0-.57,0-.855C-1716.036,57.352-1716.637,57.841-1711.638,57.8Z" transform="translate(2036.121 511.897)" fill="#383535"/>
    <path id="Path_4142" data-name="Path 4142" d="M-1484.585,63.511a3.551,3.551,0,0,1,.016-1.137c.565-1.6-1.661-4.52,2.295-4.554,4.746-.041,6.659,1.174,6.958,4.794.409,4.96-3.184,7.824-8.137,6.559-1.006-.257-1.132-.85-1.13-1.661Q-1484.579,65.511-1484.585,63.511Zm1.569-.074c.866,1.347-1.47,4.173,2.176,4.141,2.515-.022,3.721-1.24,3.776-3.939.06-2.815-1.235-4.163-3.838-4.167C-1484.314,59.469-1482.233,62.1-1483.016,63.437Z" transform="translate(1937.725 511.859)" fill="#383535"/>
    <path id="Path_4143" data-name="Path 4143" d="M-1510.442,63.288c-.023,3.417-2.213,5.754-5.4,5.763a5.446,5.446,0,0,1-5.449-5.764,5.8,5.8,0,0,1,5.641-6C-1512.584,57.343-1510.418,59.841-1510.442,63.288Zm-1.763.1c.033-2.492-1.491-4.4-3.534-4.418-2.147-.021-3.72,1.717-3.793,4.189-.077,2.55,1.319,4.234,3.564,4.3C-1513.682,67.527-1512.239,65.966-1512.2,63.393Z" transform="translate(1953.287 512.089)" fill="#383535"/>
    <path id="Path_4144" data-name="Path 4144" d="M-1530.975,63.84c0,1.33.007,2.66-.009,3.989-.006.566,0,1.265-.742,1.321-.987.074-.9-.751-.944-1.4a5.419,5.419,0,0,1,0-1.139c.32-2.116-.767-2.518-2.643-2.493-1.785.024-3.034.224-2.712,2.425a8.033,8.033,0,0,1,0,1.423c-.021.591-.1,1.193-.868,1.215a1,1,0,0,1-1.044-1.107q-.044-4.415.016-8.83c.009-.582.314-1.17,1.029-1.121.951.065.929.878.856,1.506-.247,2.122.38,3.077,2.78,2.969,1.928-.088,2.849-.517,2.607-2.569-.081-.688-.274-1.817.753-1.852,1.342-.045.851,1.216.9,1.958C-1530.912,61.367-1530.971,62.606-1530.975,63.84Z" transform="translate(1961.226 511.73)" fill="#383535"/>
    <path id="Path_4145" data-name="Path 4145" d="M-1609.412,63.262c.016,3.358-2.2,5.767-5.332,5.807a5.471,5.471,0,0,1-5.488-5.7c-.027-3.231,2.331-5.948,5.246-6.042C-1611.833,57.221-1609.429,59.782-1609.412,63.262Zm-5.386,4.226c2.244,0,3.625-1.577,3.637-4.144s-1.667-4.5-3.812-4.4c-2,.093-3.527,2.013-3.512,4.425C-1618.469,65.892-1617.037,67.491-1614.8,67.487Z" transform="translate(1995.361 512.073)" fill="#383535"/>
    <path id="Path_4146" data-name="Path 4146" d="M-1697.688,63.1c0-.1,0-.19,0-.285,0-5.514.694-6.085,6.218-5.114,2.207.388,3.726,2.924,2.258,4.424-1.9,1.944-1.044,3.086.119,4.677.372.509,1.712,1.259.51,2.03-.827.531-1.555-.271-2.053-1.05-.613-.961-1.346-1.852-1.9-2.841-.676-1.2-1.758-.973-2.758-.868-1.314.139-.823,1.253-.932,2.021-.04.279.019.573-.017.853-.078.6.193,1.551-.776,1.476-.907-.07-.617-1.022-.644-1.619C-1697.725,65.573-1697.686,64.337-1697.688,63.1Zm3.833-.481c1.428-.044,3.2.052,3.134-1.939-.062-1.776-1.752-1.656-3.091-1.69-1.3-.033-2.432-.058-2.466,1.837C-1696.314,62.782-1695.162,62.691-1693.855,62.62Z" transform="translate(2028.304 512.074)" fill="#383535"/>
    <path id="Path_4147" data-name="Path 4147" d="M-1570.814,67.708c.143.828.014,1.2-.4,1.308-.866.229-1.286-.381-1.417-1.045-.457-2.316-2.131-2.187-3.925-2.21-1.821-.023-1.735,1.431-2.28,2.436-.289.531-.708,1.011-1.344.7-.488-.243-.4-.817-.221-1.277,1.12-2.93,2.223-5.868,3.394-8.778.46-1.144,1.6-1.522,2.145-.419C-1573.3,61.56-1572.036,64.849-1570.814,67.708Zm-4.856-7.215c-.682,1.2-1.947,2.3-.944,3.75a1.94,1.94,0,0,0,1.824.1C-1573.76,62.927-1575.2,61.82-1575.67,60.493Z" transform="translate(1978.484 511.884)" fill="#383535"/>
    <path id="Path_4148" data-name="Path 4148" d="M-1650.755,68.007a.781.781,0,0,1-.413.978c-.809.273-1.27-.249-1.5-.928-.447-1.314-.891-2.4-2.7-2.317-1.629.074-3.053.036-3.414,2.073-.118.667-.521,1.391-1.344,1.094-.679-.245-.432-.966-.233-1.491,1.079-2.843,2.152-5.689,3.285-8.511.537-1.335,1.665-1.609,2.291-.332C-1653.283,61.641-1652.079,64.853-1650.755,68.007Zm-5.139-7.581c-.36,1.374-1.872,2.474-1,3.88a2.255,2.255,0,0,0,2.076.027C-1653.8,62.829-1655.383,61.75-1655.894,60.426Z" transform="translate(2012.516 511.891)" fill="#383535"/>
    <path id="Path_4149" data-name="Path 4149" d="M-1394.811,64.133c0-.664-.03-1.33.007-1.993.083-1.537.06-2.935-2.147-2.661-.571.071-1.261-.073-1.23-.82.029-.729.716-.777,1.295-.779,2.1-.01,4.191-.014,6.286.006.585.005,1.208.12,1.141.905-.051.592-.592.739-1.067.684-2.264-.259-2.436,1.105-2.346,2.817.08,1.514.058,3.037,0,4.553-.033.871.334,2.213-1.084,2.182-1.254-.028-.78-1.283-.836-2.051C-1394.863,66.034-1394.81,65.082-1394.811,64.133Z" transform="translate(1900.937 511.837)" fill="#383535"/>
    <path id="Path_4150" data-name="Path 4150" d="M-1407.351,69.318c-2.725.813-3.129-.934-2.96-3.449.14-2.08.019-4.176.04-6.265.007-.648-.045-1.471.908-1.457.882.013.978.8.992,1.463.04,1.9.139,3.806,0,5.695s.564,2.549,2.436,2.455c.921-.047,2.664-.581,2.65.675-.018,1.589-1.808.6-2.788.873A6.665,6.665,0,0,1-1407.351,69.318Z" transform="translate(1906.109 511.719)" fill="#383535"/>
    <path id="Path_4151" data-name="Path 4151" d="M-1499.975,63.7c0-1.423-.03-2.846.014-4.268.021-.708.311-1.382,1.167-1.3.719.072.76.742.764,1.32.011,1.993.1,3.99-.016,5.975-.1,1.69.422,2.5,2.23,2.29a12.151,12.151,0,0,1,2.279.057c.418.03.769.343.681.728a1.075,1.075,0,0,1-.726.7,50.664,50.664,0,0,1-5.415-.02c-.94-.071-1-1-1-1.787-.006-1.233,0-2.467,0-3.7Z" transform="translate(1944.235 511.726)" fill="#383535"/>
    <path id="Path_4152" data-name="Path 4152" d="M-1729.02,57.833a13.805,13.805,0,0,1,1.715.013c.874.111,2.284-.484,2.433.747s-1.233.819-1.992.879c-1.448.113-1.288,1.133-1.295,2.071-.017,2.09-.009,4.181-.023,6.272,0,.6-.15,1.23-.877,1.209s-.82-.67-.824-1.263c-.01-1.711-.051-3.422,0-5.131.051-1.78.25-3.577-2.49-3.218a.73.73,0,0,1-.875-.849c.079-.57.591-.694,1.08-.7,1.049-.021,2.1-.006,3.148-.006Z" transform="translate(2043.424 511.868)" fill="#383535"/>
    <path id="Path_4153" data-name="Path 4153" d="M-1639.745,57.825a6.5,6.5,0,0,1,1.143.009c.958.17,2.541-.57,2.716.726.182,1.346-1.392.761-2.212.932-1.237.258-1.017,1.2-1.031,2.012-.032,1.995-.013,3.99-.032,5.985-.005.593-.14,1.253-.843,1.266-.723.013-.845-.654-.85-1.243-.02-1.995-.071-3.992,0-5.984.046-1.376-.294-2.2-1.884-2.085-.628.047-1.544.086-1.471-.855.068-.873.963-.736,1.607-.753C-1641.653,57.808-1640.7,57.827-1639.745,57.825Z" transform="translate(2005.561 511.878)" fill="#383535"/>
    <path id="Path_4154" data-name="Path 4154" d="M-1558.455,69.319c-2.629.766-3.189-.821-3-3.407.162-2.17.033-4.361.053-6.542,0-.585.117-1.244.855-1.219.713.025.828.675.833,1.266.015,1.9.118,3.8-.011,5.689s.343,2.816,2.476,2.672c.934-.062,2.808-.755,2.749.782-.05,1.307-1.912.561-2.964.755A8.242,8.242,0,0,1-1558.455,69.319Z" transform="translate(1970.38 511.718)" fill="#383535"/>
    <path id="Path_4155" data-name="Path 4155" d="M-1757.038,63.822c0,1.324.013,2.648,0,3.972-.009.664,0,1.427-.971,1.378-.685-.034-.963-.585-.968-1.187q-.041-4.4-.01-8.792c0-.608.285-1.128,1.015-1.09s.919.574.927,1.182c.016,1.513,0,3.026,0,4.538Z" transform="translate(2054.374 511.739)" fill="#383535"/>
    <path id="Path_4156" data-name="Path 4156" d="M-1463.107,63.767c0,1.334.014,2.668-.005,4-.01.659.038,1.463-.942,1.42-.864-.038-1.023-.754-1.026-1.453-.009-2.762-.013-5.525.025-8.287.009-.714.324-1.387,1.178-1.3.713.075.761.748.766,1.33C-1463.1,60.909-1463.107,62.338-1463.107,63.767Z" transform="translate(1929.387 511.721)" fill="#383535"/>
    <path id="Path_4157" data-name="Path 4157" d="M-1624.707,63.611c0,1.425.009,2.85,0,4.275,0,.581-.042,1.241-.781,1.3s-.922-.551-.924-1.151q-.016-4.417.012-8.834c0-.5.217-.994.777-1.027.774-.046.893.581.9,1.162C-1624.693,60.761-1624.711,62.186-1624.707,63.611Z" transform="translate(1997.991 511.709)" fill="#383535"/>
    <path id="Path_4158" data-name="Path 4158" d="M-1912.262-59.554c.445-.078.925-.082,1.183-.556.512.407,1.117,1.215.678,1.515C-1911.208-58.045-1911.864-58.769-1912.262-59.554Z" transform="translate(2119.543 562.248)" fill="#383535"/>
    <path id="Path_4159" data-name="Path 4159" d="M-1884.089-72.071l.6-.007.923.005a2.276,2.276,0,0,1-.483,1.763l-.579-.04Z" transform="translate(2107.564 567.362)" fill="#383535"/>
    <path id="Path_4160" data-name="Path 4160" d="M-1910.707-5.09l-.666-.661c.418-.479.947-1.153,1.517-.543C-1909.565-5.983-1910.146-5.323-1910.707-5.09Z" transform="translate(2119.166 539.358)" fill="#383535"/>
    <path id="Path_4161" data-name="Path 4161" d="M-1922.65-31.282q.117-.446.233-.892c.427.031.995.013.841.636C-1921.715-30.975-1922.227-31.12-1922.65-31.282Z" transform="translate(2123.962 550.312)" fill="#383535"/>
    <path id="Path_4162" data-name="Path 4162" d="M-1854.828-61.149l.111.671c-.135.249-.35.413-.509.086C-1855.394-60.738-1855.219-61.03-1854.828-61.149Z" transform="translate(2095.317 562.692)" fill="#383535"/>
    <path id="Path_4163" data-name="Path 4163" d="M-1911.4-2.936a.857.857,0,0,1,.669-1.085C-1910.72-3.516-1910.832-3.086-1911.4-2.936Z" transform="translate(2119.185 538.283)" fill="#383535"/>
    <path id="Path_4164" data-name="Path 4164" d="M-1854.329-4.568-1855.5-4.6l.049.023a3.544,3.544,0,0,0-.118-.479c.088-.093.176-.186.263-.28C-1854.867-5.221-1854.434-5.1-1854.329-4.568Z" transform="translate(2095.436 538.844)" fill="#383535"/>
    <path id="Path_4165" data-name="Path 4165" d="M-1856.878-5.459c-.223-.218-.234-.518.071-.53.286-.012.583.239.875.375-.086.093-.174.186-.261.278Z" transform="translate(2096.063 539.124)" fill="#383535"/>
    <path id="Path_4166" data-name="Path 4166" d="M-1883.291-69.06l.578.04C-1882.946-68.454-1883.138-68.466-1883.291-69.06Z" transform="translate(2107.224 566.072)" fill="#383535"/>
    <path id="Path_4167" data-name="Path 4167" d="M-1882.786,7.559l-.576-.49C-1882.955,6.982-1882.761,7.142-1882.786,7.559Z" transform="translate(2107.255 533.554)" fill="#383535"/>
    <path id="Path_4168" data-name="Path 4168" d="M-1856.758-5.063l.685.123a3.526,3.526,0,0,1,.117.481C-1856.432-4.388-1856.569-4.759-1856.758-5.063Z" transform="translate(2095.942 538.728)" fill="#383535"/>
  </g>
</svg>
