<svg xmlns="http://www.w3.org/2000/svg" width="169.006" height="167.541" viewBox="0 0 169.006 167.541">
  <g id="Group_35223" data-name="Group 35223" transform="translate(-18.531 -18.361)">
    <g id="Group_35903" data-name="Group 35903" transform="translate(18.532 18.361)">
      <g id="Group_35896" data-name="Group 35896" transform="translate(0 0)" style="mix-blend-mode: normal;isolation: isolate">
        <path id="Path_33175" data-name="Path 33175" d="M-8023.735,2879.072c-.865-1.339-1.846-2.584-2.781-3.859-2.916-3.948-5.86-7.87-8.415-12.061a65.32,65.32,0,0,1-4.522-9.544c-.587-1.415-1.185-2.83-1.776-4.247a2.726,2.726,0,0,1,.471-3.2,2.466,2.466,0,0,1,3.7-.042c1.009.961,1.839,2.093,2.764,3.131,1.21,1.346,2.353,2.746,3.539,4.113q2.481,2.861,4.977,5.7a41.761,41.761,0,0,0,7.7,7.167,22.584,22.584,0,0,0,8.229,3.523c1.408.292,2.794.66,4.181,1.061a21.084,21.084,0,0,1,5.594,3.06,16.465,16.465,0,0,1,2.637,2.032,22.279,22.279,0,0,1,4.127,5.855,41.531,41.531,0,0,1,3.517,10.624c.361,1.817.608,3.651.87,5.579a13.547,13.547,0,0,0,.386-2.417c.229-1.621.539-3.224.89-4.819a36.2,36.2,0,0,1,1.867-6.086,27.3,27.3,0,0,1,3.982-7.133,16.188,16.188,0,0,1,3.891-3.508c1.146-.72,2.208-1.6,3.4-2.236a19.84,19.84,0,0,1,5.628-1.791,24.2,24.2,0,0,0,9.565-4.049c1.071-.773,2.079-1.637,3.081-2.511a42.674,42.674,0,0,0,3.225-3.261c1.234-1.326,2.389-2.736,3.591-4.1.828-.951,1.69-1.878,2.521-2.831.97-1.124,1.884-2.3,2.878-3.392.748-.815,1.442-1.677,2.189-2.485a17.827,17.827,0,0,1,1.53-1.606,2.5,2.5,0,0,1,3.069.23,2.5,2.5,0,0,1,.76,3.193c-1.56,3.714-2.953,7.5-4.755,11.1a65.939,65.939,0,0,1-5.575,8.852c-2.21,3.077-4.477,6.11-6.705,9.171-.093.119-.277.235-.185.506.342-.281.7-.517.991-.808,1.4-1.389,2.837-2.748,4.179-4.194,1.236-1.328,2.412-2.709,3.542-4.128,1.154-1.442,2.249-2.924,3.267-4.457a54.35,54.35,0,0,0,5.348-10.2,42.034,42.034,0,0,0,2.407-8.444,19.572,19.572,0,0,0,.338-3.549c0-.568.146-1.137.1-1.711-.137-1.58-.206-3.161-.487-4.73-.216-1.181-.3-2.387-.445-3.582-.14-1.163-.3-2.321-.417-3.484-.1-.943-.114-1.9-.209-2.841-.131-1.184-.215-2.374-.3-3.559a10.5,10.5,0,0,1,.262-3.924c.114-.344.205-.693.34-1.029a2.984,2.984,0,0,1,2.568-1.837c.744-.107,1.146.2,1.4.958a13.451,13.451,0,0,1,.428,2.241c.239,1.612.469,3.222.7,4.833.226,1.56.435,3.122.663,4.682.247,1.7.512,3.392.773,5.084.34,2.257.848,4.488,1.129,6.759a34.539,34.539,0,0,1,.162,6.63,58.678,58.678,0,0,1-2.5,13.251,52,52,0,0,1-3.857,9.265,46.947,46.947,0,0,1-10.981,13.625,93.8,93.8,0,0,1-11.961,8.263c-6.162,3.8-12.373,7.537-18.443,11.48a38.206,38.206,0,0,0-7.456,6.13,32.259,32.259,0,0,0-5.891,8.984c-.286.666-.574,1.333-.866,2.012a1.7,1.7,0,0,1-.437-.869,33.058,33.058,0,0,0-4.829-8.363,32.409,32.409,0,0,0-3.5-3.773,44.507,44.507,0,0,0-5.946-4.447c-3.881-2.547-7.881-4.9-11.806-7.375-3.143-1.992-6.368-3.865-9.5-5.887-2.191-1.412-4.378-2.834-6.456-4.407a50.8,50.8,0,0,1-5.329-4.783,45.884,45.884,0,0,1-9.079-13.2,53.1,53.1,0,0,1-3.819-11.575c-.411-1.9-.7-3.816-.973-5.739a43.12,43.12,0,0,1-.271-7.382,29.068,29.068,0,0,1,.659-4.854c.3-1.55.535-3.118.782-4.679q.381-2.257.721-4.522c.163-1.1.273-2.216.437-3.32.191-1.341.411-2.677.612-4.018.188-1.205.355-2.414.553-3.619.2-1.293.977-1.677,2.214-1.224,1.593.579,2.079,1.873,2.378,3.351a19.348,19.348,0,0,1-.045,4.95c-.091,1.444-.25,2.882-.372,4.321q-.354,4.194-.994,8.354a27.438,27.438,0,0,0-.185,6.678c.6,6.557,3,12.506,6.229,18.16a68.506,68.506,0,0,0,12.98,15.866,5.221,5.221,0,0,0,1.112.938c.031.055.066.093.138.074.015.021.021.042.036.063v-.031a.137.137,0,0,0-.045-.024Zm69.856-.109.091-.045a.781.781,0,0,0-.062-.051c0-.005-.043.011-.043.021A.608.608,0,0,0-7953.879,2878.963Z" transform="translate(8073.65 -2793.905)" fill="#f3a772"/>
        <path id="Path_33176" data-name="Path 33176" d="M-7837.72,2776.75a21.087,21.087,0,0,0,.184-4.369,29.572,29.572,0,0,0-1.187-6.585,49.5,49.5,0,0,0-2.317-6.016,60.849,60.849,0,0,0-5.12-8.834c-.943-1.391-1.986-2.715-3.045-4.031-.991-1.232-2.037-2.412-3.088-3.586-.977-1.089-2.075-2.064-3.1-3.11-1.248-1.265-2.579-2.45-3.921-3.6-1.548-1.323-3.141-2.6-4.759-3.838a58.833,58.833,0,0,0-5.7-4.065c-2.02-1.19-4.04-2.383-5.985-3.7a21.489,21.489,0,0,1-3.93-3.227,2.614,2.614,0,0,1-.9-1.728,1.344,1.344,0,0,1,.94-1.3,6.906,6.906,0,0,1,2.948-.094c1.079.1,2.156.283,3.243.387,1.674.156,3.34.391,4.994.656,1.983.318,3.967.688,5.938,1.108a71.057,71.057,0,0,1,9.7,2.77,47.9,47.9,0,0,1,12.786,6.9,42.579,42.579,0,0,1,7.3,7.131,41.018,41.018,0,0,1,7.585,14.018,34.7,34.7,0,0,1,1.245,6.063,34.52,34.52,0,0,1,.27,5.048,38.614,38.614,0,0,1-3.215,14.231,47.308,47.308,0,0,1-6.719,10.962,58.159,58.159,0,0,1-5.354,5.655,1.022,1.022,0,0,1-1.751-.211,1.056,1.056,0,0,1,.021-1.026,53.566,53.566,0,0,0,3.58-6.6,48.564,48.564,0,0,0,1.96-4.854,43.972,43.972,0,0,0,1.481-5.549c.243-1.282.453-2.565.586-3.856.089-.748.126-1.508.141-2.269a37.341,37.341,0,0,0,0-3.8,38.19,38.19,0,0,0-1.217-7.184,40.4,40.4,0,0,0-6.192-12.893,43.141,43.141,0,0,0-3.25-4.1c-.855-.934-1.645-1.929-2.576-2.783-1.15-1.05-2.334-2.066-3.5-3.1-.111-.1-.214-.069-.347-.05.906,1.069,1.827,2.112,2.708,3.186a53.039,53.039,0,0,1,5.143,7.5,44.737,44.737,0,0,1,3.877,8.941,41.063,41.063,0,0,1,1.574,7.475,38.775,38.775,0,0,1,.279,5.989,39.944,39.944,0,0,1-1.128,8.2.74.74,0,0,0,0,.154C-7837.6,2776.762-7837.661,2776.756-7837.72,2776.75Z" transform="translate(7921.18 -2706.393)" fill="#206d30"/>
        <path id="Path_33177" data-name="Path 33177" d="M-7520.507,2620.994a9.267,9.267,0,0,1-5.765-2.193,8.857,8.857,0,0,1-3.329-5.681,8.6,8.6,0,0,1,1.881-6.931,9.608,9.608,0,0,1,6.656-3.54,10.153,10.153,0,0,1,5.8.956,8.881,8.881,0,0,1,5.227,6.774c.593,3.828-.962,6.751-4.051,8.916A10.476,10.476,0,0,1-7520.507,2620.994Z" transform="translate(7607.079 -2602.571)" fill="#206d30"/>
        <path id="Path_33178" data-name="Path 33178" d="M-7689.236,3853.066V3849.3c0-2.423.026-4.851.015-7.279,0-.4.092-.525.516-.523q5.594.048,11.205.039c.387,0,.476.124.449.476a10.783,10.783,0,0,0,0,1.465c.026.389-.089.5-.486.5-2.654-.017-5.312.007-7.965-.022-.512-.008-.638.136-.616.632a25.43,25.43,0,0,1,0,2.617c-.021.492.1.654.619.645,2.481-.03,4.966,0,7.442-.021.395-.005.512.094.486.489a9.946,9.946,0,0,0,0,1.516c.019.351-.1.441-.438.435-2.511-.011-5.027.007-7.541-.019-.476-.005-.571.131-.568.579.03,1.849,0,3.7.02,5.553.011.42-.085.581-.542.562-.885-.035-1.776-.021-2.665-.005a.921.921,0,0,1-.833-.385c-1.475-1.885-2.988-3.737-4.445-5.635-1.021-1.336-2.141-2.6-3.181-3.924a10.943,10.943,0,0,1-1.168-1.564.809.809,0,0,0-.093.568c0,3.474-.007,6.949.008,10.423,0,.407-.1.547-.516.525-.73-.035-1.471-.022-2.2-.006-.292.006-.4-.062-.4-.374q.016-7.337,0-14.667c0-.275.089-.359.356-.354,1.032.015,2.064.007,3.1,0a.51.51,0,0,1,.438.214q4.219,5.371,8.466,10.729C-7689.624,3852.669-7689.446,3852.835-7689.236,3853.066Z" transform="translate(7761.428 -3711.652)" fill="#155e2d"/>
        <path id="Path_33179" data-name="Path 33179" d="M-7290.127,2760.314a1.634,1.634,0,0,1-.688,2,74.823,74.823,0,0,0-7.567,5.028,67.856,67.856,0,0,0-7.7,6.859,53.326,53.326,0,0,0-9.668,13.569,40.783,40.783,0,0,0-1.728,4.091c-.306-.822-.575-1.536-.83-2.259-.435-1.227-.858-2.457-1.283-3.687-.265-.758-.485-1.528-.81-2.266-.229-.5.1-.9.324-1.285a31.706,31.706,0,0,1,3.777-5.138c1.072-1.2,2.2-2.336,3.357-3.436,1.21-1.148,2.519-2.19,3.815-3.243,1.8-1.457,3.719-2.734,5.62-4.04.162-.118.428-.107.513-.347,2.009-1,4.076-1.867,6.118-2.794C-7294.63,2762.345-7292.378,2761.333-7290.127,2760.314Z" transform="translate(7419.773 -2743.783)" fill="#211e1c"/>
        <path id="Path_33180" data-name="Path 33180" d="M-7323.136,2751.215c-2.251,1.015-4.511,2.026-6.756,3.052-2.038.934-4.108,1.794-6.11,2.8a4.782,4.782,0,0,0-1.736.615,63.9,63.9,0,0,0-10.946,5.787,24.1,24.1,0,0,0-5.348,4.766,9.075,9.075,0,0,0-1.453,2.494c-.121.336-.231.291-.391.066a7.585,7.585,0,0,1-1.422-3.34,6.256,6.256,0,0,1,1.573-4.839c1.714-2.2,4.117-3.4,6.567-4.533,2.105-.967,4.235-1.863,6.389-2.706,2.774-1.081,5.591-2.038,8.447-2.894,3-.9,6.033-1.637,9.1-2.267A1.68,1.68,0,0,1-7323.136,2751.215Z" transform="translate(7452.78 -2734.683)" fill="#e41d1f"/>
        <path id="Path_33181" data-name="Path 33181" d="M-6988.606,2785.94c-.479-.513-.782-1.033-1.172-1.478a2.8,2.8,0,0,0-3.2-.865c-.671.205-.712.185-.693-.489.022-1,.11-2,.162-3,.048-.936.1-1.874.15-2.81.052-1.018.078-2.034.174-3.054.089-.984.069-1.976.144-2.964.077-1.07.093-2.142.155-3.211s.106-2.152.151-3.228c.044-1.123.121-2.245.188-3.368.04-.812.037-1.626.1-2.443.085-1.1.162-2.209.214-3.314a11.608,11.608,0,0,1,.457-3,6.321,6.321,0,0,1,1.327-2.943,1.9,1.9,0,0,1,2.458-.075,2.659,2.659,0,0,1,.862,1.673,7.96,7.96,0,0,1-.235,3.912,2.72,2.72,0,0,1-.62,1.013,6.154,6.154,0,0,0-1.743,4.284c-.025,1.688.163,3.366.3,5.046.092,1.127.154,2.255.236,3.382.132,1.889.279,3.776.395,5.667.065,1.057.161,2.114.206,3.172.063,1.667.3,3.331.225,5C-6988.412,2783.844-6988.518,2784.837-6988.606,2785.94Z" transform="translate(7127.221 -2733.904)" fill="#f3a772"/>
        <path id="Path_33182" data-name="Path 33182" d="M-7987.051,2785.932a31.509,31.509,0,0,1-.181-5.616c.081-1.27.185-2.538.265-3.807q.322-4.484.619-8.967c.156-2.175.337-4.346.432-6.522a6.341,6.341,0,0,0-1.968-4.953,3.1,3.1,0,0,1-.72-1.787,7.186,7.186,0,0,1,.152-3.334,2.068,2.068,0,0,1,1.585-1.646,2.014,2.014,0,0,1,2.2,1.24,13.48,13.48,0,0,1,1.068,3.734c.2,1.534.232,3.083.324,4.624.121,2.171.232,4.343.321,6.515.06,1.425.144,2.848.2,4.274.092,2.2.258,4.4.391,6.609.044.659.041,1.319.089,1.979.125,1.682.167,3.372.247,5.059.025.43-.1.469-.517.348-1.75-.516-2.521-.307-3.626,1.061C-7986.456,2785.09-7986.706,2785.46-7987.051,2785.932Z" transform="translate(8017.991 -2733.908)" fill="#f3a772"/>
        <path id="Path_33183" data-name="Path 33183" d="M-7449.854,3853.959a11.712,11.712,0,0,1-4.681-.945,4.463,4.463,0,0,1-2.631-3.581c-.134-.916-.122-.916.821-.916h2.3c.155,0,.295-.04.32.214a2.813,2.813,0,0,0,2.358,2.523,7.763,7.763,0,0,0,4,0,2.974,2.974,0,0,0,.862-.363,1.749,1.749,0,0,0,.943-1.738,1.742,1.742,0,0,0-1.309-1.47,19.744,19.744,0,0,0-3.729-.759,12.268,12.268,0,0,1-4.445-1.226,3.386,3.386,0,0,1-1.828-2.882,4.221,4.221,0,0,1,1.354-3.656,5.954,5.954,0,0,1,3.047-1.284,13.466,13.466,0,0,1,6.037.28,4.914,4.914,0,0,1,3.631,3.232c.365,1.174.376,1.174-.833,1.174-.7,0-1.4,0-2.1,0-.141,0-.3.05-.357-.19a2.837,2.837,0,0,0-2.595-2.156,6.926,6.926,0,0,0-3.162.122,2.989,2.989,0,0,0-.852.381,1.678,1.678,0,0,0-.8,1.61,1.483,1.483,0,0,0,1.046,1.261,10.747,10.747,0,0,0,2.9.63,21.39,21.39,0,0,1,4.762.927,3.73,3.73,0,0,1,2.69,3.044,4.231,4.231,0,0,1-1.795,4.344,8.342,8.342,0,0,1-4.029,1.316C-7448.568,3853.918-7449.213,3853.926-7449.854,3853.959Z" transform="translate(7542.191 -3708.225)" fill="#155e2d"/>
        <path id="Path_33184" data-name="Path 33184" d="M-6997.94,4103.282c.736,0,1.437.013,2.134,0,.729-.014,1.047-.333,1.062-1.065.011-.84.015-1.675,0-2.512-.015-.32.077-.431.4-.414.472.023.944.005,1.415,0,.178,0,.3.018.3.25a23.793,23.793,0,0,1-.141,3.741c.748,0,1.512,0,2.27.008.281.005.248-.109.192-.317a2.512,2.512,0,0,1,1.938-3.311,2.875,2.875,0,0,1,3.513,1.868,2.4,2.4,0,0,1,.022,1.448c-.066.207-.037.257.188.281,1.039.108,1.239-.085,1.05-1.112-.294-1.6-1.031-2.812-2.76-3.151a.287.287,0,0,1-.27-.358c.008-.158-.007-.31-.007-.471,0-.953-.225-.947.892-.674a5.163,5.163,0,0,1,3.984,5.28c0,.405.081.567.5.523.365-.039.729,0,1.1-.005.967-.011,1.36-.406,1.36-1.379.008-1.75.022-3.49,0-5.233-.012-.468.106-.634.578-.575.445.061,1.036-.187,1.3.105.222.247.082.827.082,1.264,0,1.728-.049,3.456.018,5.183a2.079,2.079,0,0,1-2.063,2.215c-.247.019-.493.017-.737.017q-11.366,0-22.733.005a3.261,3.261,0,0,1-3.181-1.47c-.162-.275-.31-.066-.432.005a3.537,3.537,0,0,1-3.217.232,2.808,2.808,0,0,1-1.674-3.2,3.565,3.565,0,0,1,3.155-3.027c1.2-.153,2.406-.047,3.611-.092.295-.005.34.125.34.37,0,1.154.007,2.3.015,3.459,0,.07-.015.141-.015.21-.037,1.574.294,1.915,1.854,1.905.328,0,.663.01.991-.005a.925.925,0,0,0,1.036-1.036c.011-.862.011-1.719-.008-2.572-.007-.3.089-.4.384-.383.556.028,1.268-.174,1.625.1s.107,1.006.1,1.542A6.708,6.708,0,0,1-6997.94,4103.282Zm-7.8-3.466c-.019-1.449-.019-1.455-1.415-1.215a2,2,0,0,0-1.581,2.633,1.759,1.759,0,0,0,1.551,1.326,1.592,1.592,0,0,0,1.438-1.543C-7005.706,4100.621-7005.736,4100.216-7005.736,4099.816Zm18.156,3.5a1.082,1.082,0,0,0,1.168-1.177,1.044,1.044,0,0,0-1.076-1.145,1.042,1.042,0,0,0-1.194,1.128A1.093,1.093,0,0,0-6987.58,4103.317Z" transform="translate(7142.642 -3939.541)" fill="#155e2d"/>
        <path id="Path_33185" data-name="Path 33185" d="M-7283.754,3857.249c-1.187,0-2.277-.009-3.376,0-.266.005-.31-.179-.387-.35-.436-1.024-.873-2.05-1.3-3.08a.514.514,0,0,0-.557-.4c-2.16.018-4.331.016-6.491,0a.456.456,0,0,0-.5.333c-.424,1.05-.866,2.09-1.29,3.138a.5.5,0,0,1-.542.363c-.87-.022-1.744-.029-2.617,0-.424.011-.493-.055-.309-.468q2.216-4.9,4.385-9.824c.693-1.559,1.394-3.116,2.075-4.681a.594.594,0,0,1,.656-.433c1.014.031,2.021.015,3.033.008a.434.434,0,0,1,.487.276C-7288.258,3847.145-7286.027,3852.154-7283.754,3857.249Zm-6.2-6.248c-.869-2.143-1.721-4.234-2.624-6.459-.918,2.234-1.784,4.329-2.657,6.459Z" transform="translate(7402.533 -3711.971)" fill="#155e2d"/>
        <path id="Path_33186" data-name="Path 33186" d="M-7741.46,4104.456c-3.648,0-7.306-.013-10.95.005-.413,0-.571-.061-.557-.525.037-1.11.015-1.11,1.109-1.112.347,0,.822.12,1.014-.057.228-.214-.125-.6-.207-.914-.441-1.643-.885-3.287-1.394-4.913-.117-.38-.024-.373.252-.371.261.008.526.006.784.006.9,0,.9-.006,1.176.871.5,1.644.984,3.29,1.489,4.934.055.169.026.5.328.447a.875.875,0,0,0,.733-.392,1.894,1.894,0,0,0,.2-.843c-.012-1.849,0-3.7-.012-5.55,0-.37.107-.49.469-.462.486.039,1.132-.153,1.419.092.306.258.089.919.089,1.4,0,1.8.015,3.6-.011,5.4,0,.315.1.377.379.37.615-.019,1.224,0,1.835-.011a.857.857,0,0,0,.934-.942c.007-.894.014-1.782,0-2.674,0-.287.066-.381.372-.391,1.463-.031,1.463-.044,1.463,1.4,0,.75.008,1.5-.007,2.25-.008.269.051.4.336.365.209-.021.415,0,.629-.005.668-.022.959-.3.963-.964.011-.875.018-1.75,0-2.621,0-.306.06-.455.4-.42.464.054,1.064-.193,1.349.107.221.232.077.826.077,1.26,0,.769.015,1.54,0,2.306-.007.276.063.388.343.348a2.634,2.634,0,0,1,.311,0c.751-.031,1.027-.291,1.034-1.013q.018-1.308,0-2.617c0-.291.074-.42.373-.391.49.05,1.112-.2,1.415.109.231.243.069.864.069,1.315.012.713.022,1.432,0,2.148,0,.325.049.472.417.443.454-.039.906-.009,1.363-.017.937-.018,1.327-.412,1.335-1.357.015-1.745.022-3.487-.008-5.238-.015-.5.151-.635.615-.587a8.51,8.51,0,0,0,1.047,0c.232-.012.3.074.3.3-.007,2.236.015,4.473-.019,6.7a1.994,1.994,0,0,1-2.023,1.759c-.295.022-.6.015-.885.015h-10.323Z" transform="translate(7806.937 -3939.081)" fill="#155e2d"/>
        <path id="Path_33187" data-name="Path 33187" d="M-7249.8,4103.274c-1.828-1.866-1.965-3.533-.476-4.929a3.27,3.27,0,0,1,4.371.175,3.166,3.166,0,0,1-.472,4.665,1.12,1.12,0,0,0,.7.094c.719.012,1.438.005,2.148-.005.966-.01,1.353-.406,1.359-1.383.009-1.749.016-3.5-.007-5.241,0-.413.066-.62.531-.561s1.087-.2,1.349.111c.236.264.073.862.073,1.319.008,1.707-.047,3.422.022,5.134a2.048,2.048,0,0,1-2.078,2.193c-1.486.045-2.971.022-4.449.013a1.54,1.54,0,0,1-.977-.335.4.4,0,0,0-.59-.026,1.908,1.908,0,0,1-1.227.371c-1.019-.005-2.032.009-3.042-.005a.455.455,0,0,0-.516.36c-.57,1.58-2.017,1.854-3.306,1.845-.178,0-.2-.1-.191-.24a3.4,3.4,0,0,0,0-.468c-.04-.37.044-.549.487-.557a1.367,1.367,0,0,0,1.309-1.149,4.927,4.927,0,0,1-2.064.188,2.665,2.665,0,0,1-2.389-2.729,2.861,2.861,0,0,1,2.369-2.9,3.819,3.819,0,0,1,1.766.047,2.857,2.857,0,0,1,2.2,3.091c-.008.906-.008.906.892.912C-7251.3,4103.274-7250.59,4103.274-7249.8,4103.274Zm1.555-4.166a1.4,1.4,0,0,0-1.441,1.5,1.943,1.943,0,0,0,1.475,1.743,1.7,1.7,0,0,0,1.456-1.59A1.5,1.5,0,0,0-7248.25,4099.108Zm-7.806,4.4a1.394,1.394,0,0,0,1.374-1.505c0-.975-.531-1.639-1.3-1.639a1.52,1.52,0,0,0-1.489,1.56A1.4,1.4,0,0,0-7256.056,4103.513Z" transform="translate(7364.948 -3939.529)" fill="#155e2d"/>
        <path id="Path_33188" data-name="Path 33188" d="M-7463.02,4114.231c.76,0,1.459-.015,2.152.012.291.009.351-.123.38-.356a2.756,2.756,0,0,1,1.983-2.5,3.434,3.434,0,0,1,3.629.848,2.735,2.735,0,0,1-.272,3.957c-1.253,1-3.7,1.087-4.622-.21-.154-.214-.372-.16-.571-.16-2.322,0-4.644-.021-6.966.005a3.246,3.246,0,0,1-3.187-1.474c-.162-.269-.31-.063-.424.016a3.6,3.6,0,0,1-3.174.254,2.837,2.837,0,0,1-1.725-3.226,3.661,3.661,0,0,1,3.789-3.089c.991-.053,1.986-.011,2.985-.031.295-.008.339.125.339.376-.008,1.15,0,2.3.008,3.453,0,.085-.008.177-.008.262-.029,1.523.3,1.859,1.8,1.854.336,0,.671.015,1-.005a.912.912,0,0,0,.973-1c.015-.855.015-1.707,0-2.567-.007-.3.04-.449.388-.424.472.028.943.006,1.415.006.165,0,.313-.01.313.233-.022,1.076-.022,2.162-.044,3.242A2.566,2.566,0,0,1-7463.02,4114.231Zm-7.666-3.4h.021a1.81,1.81,0,0,1-.011-.2c-.04-1.251-.04-1.251-1.294-1.1a1.993,1.993,0,0,0-1.751,2.565,1.819,1.819,0,0,0,1.559,1.4,1.588,1.588,0,0,0,1.464-1.564A10.779,10.779,0,0,0-7470.686,4110.834Zm13.43,1.611a1.512,1.512,0,0,0-1.5,1.6,1.428,1.428,0,0,0,1.467,1.545,1.456,1.456,0,0,0,1.345-1.5A1.5,1.5,0,0,0-7457.256,4112.445Z" transform="translate(7558.869 -3950.475)" fill="#155e2d"/>
        <path id="Path_33189" data-name="Path 33189" d="M-8159.013,4099.774v2.987a1.991,1.991,0,0,1-1.937,2.068c-1.6.052-3.207.052-4.81-.005a1.97,1.97,0,0,1-1.234-.553c-.163-.158-.318-.222-.487-.048a2.671,2.671,0,0,1-1.946.588c-3.263.036-6.523.027-9.788.061-.348,0-.437-.1-.437-.44,0-1.172-.015-1.172,1.17-1.172,1.157,0,2.3-.01,3.456.011.329.007.435-.1.409-.42a2.437,2.437,0,0,0-2.314-2.086c-1.168.079-1.245-.022-1.136-1.187.016-.19.063-.266.277-.28a5.764,5.764,0,0,1,3.427.786,3.272,3.272,0,0,1,1.488,2.75c.034.379.152.49.5.455,1-.107,2.016-.069,3.021-.082a.192.192,0,0,0,.056,0,.731.731,0,0,0,.741-.45.768.768,0,0,0-.425-.7,4.135,4.135,0,0,0-1.282-.6c-.295-.058-.522-.186-.483-.579.034-.318-.319-.667-.024-.968a2.614,2.614,0,0,1,.91-.525,6.213,6.213,0,0,1,5.591.286,3.368,3.368,0,0,1,.517.342c.432.384.387.727-.118,1.013a6.3,6.3,0,0,0-1.717,1.719c-.126.164-.122.257.076.339.045.022.084.068.137.071a25.208,25.208,0,0,0,3.583.017c.556-.041.832-.566.832-1.251,0-1.764.012-3.521-.011-5.287,0-.43.106-.6.553-.558s1.024-.186,1.306.085.084.857.1,1.311C-8159,4098.241-8159.013,4099-8159.013,4099.774Zm-9.364.835a2.858,2.858,0,0,1,1.22,1.175c.379-.379.729-.729,1.095-1.105A2.605,2.605,0,0,0-8168.377,4100.609Z" transform="translate(8188.905 -3939.514)" fill="#155e2d"/>
        <path id="Path_33190" data-name="Path 33190" d="M-7908.742,4110.744c.076.768-.089,1.588.056,2.4a1.051,1.051,0,0,0,1.187,1.03c.088,0,.18,0,.271,0a4.673,4.673,0,0,0,1.4-.034c.483-.155.263-.765.417-1.154a2.779,2.779,0,0,1,2.639-1.82,3.066,3.066,0,0,1,3.06,1.365c1.08,1.732.357,3.686-1.913,4.246a3.19,3.19,0,0,1-2.653-.291c-.06-.04-.129-.069-.158-.123-.395-.721-1.065-.6-1.714-.6-.7,0-1.4-.021-2.1-.016a2.628,2.628,0,0,1-2.227-1.307c-.214-.3-.346-.255-.566-.122a3.52,3.52,0,0,1-3.981-.2,2.223,2.223,0,0,1-.84-1.582,3.491,3.491,0,0,1,3.019-4.208,28.407,28.407,0,0,1,3.76-.112c.3-.008.342.132.339.374C-7908.757,4109.3-7908.742,4110-7908.742,4110.744Zm-1.987.029h.026a2.084,2.084,0,0,0-.022-.208c-.025-1.229-.025-1.229-1.242-1.1a1.988,1.988,0,0,0-1.8,2.53,1.824,1.824,0,0,0,1.578,1.446,1.6,1.6,0,0,0,1.463-1.578C-7910.7,4111.507-7910.729,4111.136-7910.729,4110.773Zm8.414,1.62a1.492,1.492,0,0,0-1.5,1.58,1.426,1.426,0,0,0,1.44,1.567,1.451,1.451,0,0,0,1.36-1.486A1.5,1.5,0,0,0-7902.315,4112.394Z" transform="translate(7952.797 -3950.422)" fill="#155e2d"/>
        <path id="Path_33191" data-name="Path 33191" d="M-7972.361,4100.595c0-1.309.007-2.619-.009-3.932-.007-.348.063-.509.447-.478a6.961,6.961,0,0,0,1.15,0c.275-.011.4.047.4.361q-.021,4.033,0,8.063c0,.3-.073.405-.372.391-.523-.029-1.2.172-1.525-.087s-.088-.979-.1-1.492c-.025-.943-.007-1.888-.007-2.826Z" transform="translate(8003.418 -3939.649)" fill="#155e2d"/>
        <path id="Path_33192" data-name="Path 33192" d="M-8205.795,4100.275c0,1.328-.017,2.656,0,3.98,0,.313-.062.437-.406.413-.427-.029-.861-.014-1.308,0-.218.01-.295-.057-.295-.289.008-2.746.008-5.484.015-8.227,0-.186.048-.3.261-.286a.457.457,0,0,0,.052,0c.535.01,1.206-.167,1.574.09.324.224.088.944.092,1.439C-8205.788,4098.358-8205.795,4099.318-8205.795,4100.275Z" transform="translate(8214.1 -3939.322)" fill="#155e2d"/>
        <path id="Path_33193" data-name="Path 33193" d="M-7065.482,4100.219c0,1.309-.019,2.618,0,3.929.007.352-.111.442-.443.427-.493-.031-1.161.165-1.467-.084-.316-.266-.092-.954-.092-1.453,0-2.268.019-4.541,0-6.808,0-.363.089-.5.469-.464.493.052,1.156-.221,1.444.1.243.274.077.927.077,1.414C-7065.482,4098.266-7065.482,4099.239-7065.482,4100.219Z" transform="translate(7193.358 -3939.224)" fill="#155e2d"/>
        <path id="Path_33194" data-name="Path 33194" d="M-6675.465,4100.167c0-1.33.008-2.656-.008-3.986-.007-.321.082-.439.409-.408.513.048,1.19-.219,1.5.107.246.254.076.927.076,1.412,0,2.27-.014,4.542.012,6.809,0,.407-.118.507-.5.478-.479-.038-1.12.16-1.411-.083-.307-.256-.085-.919-.1-1.4-.011-.977,0-1.955,0-2.93Z" transform="translate(6842.431 -3939.231)" fill="#155e2d"/>
        <path id="Path_33195" data-name="Path 33195" d="M-8267.075,4142.777a2.248,2.248,0,0,1,.611-2.637,2.524,2.524,0,0,1,3.477.615c.125.2.125.3-.1.4a5.636,5.636,0,0,0-.529.314c-.138.083-.226.1-.322-.085a1.448,1.448,0,0,0-.929-.568,1.024,1.024,0,0,0-1.1.574,1.275,1.275,0,0,0,.232,1.351.615.615,0,0,0,.442.086c.66.007,1.327.018,1.987,0,.32-.009.463.051.463.425-.011.717.011.717-.727.717-1.286,0-2.583-.015-3.872.011-.376.007-.542-.083-.483-.484.037-.326-.146-.788.494-.687A1.6,1.6,0,0,0-8267.075,4142.777Z" transform="translate(8267.938 -3978.6)" fill="#155e2d"/>
        <path id="Path_33196" data-name="Path 33196" d="M-6906.53,4101.288h-1.1c-.141,0-.295.02-.272-.2.018-.145-.081-.379.147-.379.365,0,.258-.221.247-.414a1.043,1.043,0,0,1,.593-1.115,1.243,1.243,0,0,1,1.4.228c.107.106.361.21.162.4-.14.136-.339.344-.56.046a.725.725,0,0,0-.306-.185.5.5,0,0,0-.563.166.556.556,0,0,0-.1.588c.085.262.284.266.5.264.265,0,.523.008.78,0,.236-.016.354.034.358.3s-.133.308-.354.3C-6905.908,4101.281-6906.22,4101.288-6906.53,4101.288Z" transform="translate(7050.439 -3942.23)" fill="#206d30"/>
        <path id="Path_33197" data-name="Path 33197" d="M-6988.6,4089.471c-.748,0-1.084-.414-.759-1.114.206-.448.748-.109,1.131-.177.145-.028.392-.1.405.17.022.313,0,.628,0,.939,0,.176-.126.185-.259.183C-6988.247,4089.467-6988.423,4089.471-6988.6,4089.471Z" transform="translate(7123.467 -3932.43)" fill="#206d30"/>
        <path id="Path_33198" data-name="Path 33198" d="M-7149.833,4095.971c-.222-.066-.62.158-.733-.115a2.9,2.9,0,0,1-.033-1.032.134.134,0,0,1,.125-.146c.432-.007.873-.007,1.3,0,.11,0,.133.107.133.2s0,.209.008.313C-7149.033,4095.971-7149.033,4095.971-7149.833,4095.971Z" transform="translate(7267.724 -3938.297)" fill="#206d30"/>
        <path id="Path_33199" data-name="Path 33199" d="M-7453.337,4089.885c-.8,0-1.013-.3-.807-1.1.029-.118.077-.195.2-.195.4,0,.8,0,1.194,0,.146,0,.177.1.177.215s.008.2.008.312C-7452.566,4089.885-7452.566,4089.885-7453.337,4089.885Z" transform="translate(7539.499 -3932.849)" fill="#206d30"/>
        <path id="Path_33200" data-name="Path 33200" d="M-7174.608,4094.574c.763,0,.987.327.789,1.121-.07.269-.266.2-.417.18-.379-.063-.881.23-1.128-.164-.147-.24-.025-.643-.025-.973,0-.139.1-.164.21-.164Z" transform="translate(7289.932 -3938.21)" fill="#206d30"/>
        <path id="Path_33201" data-name="Path 33201" d="M-6847.718,4189.685c-.207-.054-.59.14-.682-.094a2.944,2.944,0,0,1-.033-1.036.144.144,0,0,1,.162-.151c.409,0,.812,0,1.206,0a.155.155,0,0,1,.169.16c.007.107.007.208.007.314C-6846.877,4189.685-6846.877,4189.685-6847.718,4189.685Z" transform="translate(6997.227 -4022.205)" fill="#155e2d"/>
        <path id="Path_33202" data-name="Path 33202" d="M-7363.233,4189.256c-.777,0-1.072-.349-.748-1.1.185-.446.74-.107,1.123-.181.145-.027.384-.088.395.191.012.3,0,.594,0,.892,0,.167-.106.2-.246.194Z" transform="translate(7458.835 -4021.778)" fill="#155e2d"/>
        <path id="Path_33203" data-name="Path 33203" d="M-8163.08,4107.316c.307.052.7-.115.785.092a1.36,1.36,0,0,1,.025,1.056c-.232.389-.748.1-1.138.159-.134.02-.351.1-.368-.159a2.789,2.789,0,0,1,.024-.984C-8163.644,4107.136-8163.268,4107.448-8163.08,4107.316Z" transform="translate(8174.723 -3949.603)" fill="#206d30"/>
        <path id="Path_33204" data-name="Path 33204" d="M-7892.792,4089.655c-.155,0-.283-.011-.4,0-.279.039-.395-.055-.395-.362-.007-.938-.018-.945.956-.933.2,0,.5-.116.556.1a1.608,1.608,0,0,1-.019,1.115C-7892.2,4089.786-7892.574,4089.614-7892.792,4089.655Z" transform="translate(7932.818 -3932.622)" fill="#206d30"/>
        <path id="Path_33205" data-name="Path 33205" d="M-7867.979,4088.34c.221.037.623-.123.7.072a3.039,3.039,0,0,1,.059,1.072c0,.1-.069.151-.169.151-.395,0-.8,0-1.19,0-.163,0-.206-.1-.206-.237.007-.086,0-.172,0-.258C-7868.789,4088.34-7868.789,4088.34-7867.979,4088.34Z" transform="translate(7910.618 -3932.606)" fill="#206d30"/>
        <path id="Path_33206" data-name="Path 33206" d="M-6963.846,4089.431c-.814,0-1.072-.271-.767-1.084.191-.516.818-.112,1.235-.214.217-.049.327.056.306.286a1.879,1.879,0,0,0,0,.21C-6963.071,4089.431-6963.071,4089.431-6963.846,4089.431Z" transform="translate(7101.312 -3932.394)" fill="#206d30"/>
        <path id="Path_33207" data-name="Path 33207" d="M-7387.914,4189.265c-.8,0-1.073-.291-.756-1.08.188-.472.789-.106,1.193-.2.188-.039.351.01.336.264a2.2,2.2,0,0,0,0,.52c.063.424-.125.556-.52.5A2.193,2.193,0,0,0-7387.914,4189.265Z" transform="translate(7480.935 -4021.79)" fill="#155e2d"/>
        <path id="Path_33208" data-name="Path 33208" d="M-6872.236,4188.378c.807,0,1.068.288.776,1.08-.176.482-.729.11-1.1.191-.14.028-.42.136-.428-.2-.014-.292,0-.587,0-.88,0-.163.093-.205.232-.2C-6872.583,4188.379-6872.41,4188.378-6872.236,4188.378Z" transform="translate(7019.188 -4022.182)" fill="#155e2d"/>
        <path id="Path_33209" data-name="Path 33209" d="M-7428.129,4089.935c-.217-.041-.611.129-.7-.08a3.2,3.2,0,0,1-.055-1.07.136.136,0,0,1,.125-.139c.432,0,.866-.007,1.3,0,.1,0,.137.087.137.179s.007.208.007.314C-7427.311,4089.935-7427.311,4089.935-7428.129,4089.935Z" transform="translate(7516.834 -3932.899)" fill="#206d30"/>
        <path id="Path_33210" data-name="Path 33210" d="M-8069.533,4098.275c-.758,0-1.064-.382-.758-1.112.168-.4.671-.131,1.02-.164.166-.015.461-.162.506.164a7.014,7.014,0,0,1,0,.94c0,.172-.135.17-.247.17C-8069.182,4098.275-8069.363,4098.273-8069.533,4098.275Z" transform="translate(8091.11 -3940.33)" fill="#206d30"/>
        <path id="Path_33211" data-name="Path 33211" d="M-7473.813,3273.909c.06,0,.118.011.177.017-.114.442-.221.886-.328,1.333l-.106-.021C-7473.987,3274.8-7473.9,3274.353-7473.813,3273.909Z" transform="translate(7557.271 -3203.552)" fill="#f3a772"/>
        <path id="Path_33212" data-name="Path 33212" d="M-7125.218,3413.357a.273.273,0,0,1-.014-.072c0-.009.029-.026.04-.02a.766.766,0,0,1,.059.05C-7125.162,3413.332-7125.191,3413.344-7125.218,3413.357Z" transform="translate(7244.987 -3328.303)" fill="#fefefe"/>
        <path id="Path_33213" data-name="Path 33213" d="M-7791.956,3415.321a.1.1,0,0,1-.132-.072.256.256,0,0,1,.036-.04c.03.04.06.077.093.118Z" transform="translate(7841.959 -3330.042)" fill="#fefefe"/>
        <path id="Path_33214" data-name="Path 33214" d="M-7790.856,3416.269a.047.047,0,0,1,.033.022.1.1,0,0,1,0,.032c-.007-.019-.018-.041-.024-.061Z" transform="translate(7840.855 -3330.984)" fill="#fefefe"/>
      </g>
    </g>
  </g>
</svg>
