<svg xmlns="http://www.w3.org/2000/svg" width="59.371" height="64.999" viewBox="0 0 59.371 64.999">
  <g id="Group_16961" data-name="Group 16961" transform="translate(1 1)">
    <path id="Path_82316" data-name="Path 82316" d="M-163.931,592.141c2.04,0,4.081.022,6.12-.013.605-.01.752.184.76.769a13.825,13.825,0,0,0,14.086,13.656,13.848,13.848,0,0,0,13.332-10.9,18.348,18.348,0,0,0,.315-2.857c.027-.46.128-.663.632-.661q6.327.021,12.653,0c.393,0,.52.149.507.522-.018.529,0,1.059,0,1.588-.01.957-.379,1.332-1.351,1.4-1.193.084-2.386.17-3.579.266-.9.072-1.1.262-1.321,1.131-.234.91-.469,1.821-.734,2.723a1.119,1.119,0,0,0,.479,1.377c1.037.706,2.08,1.405,3.11,2.122a1.224,1.224,0,0,1,.449,1.941q-.783,1.381-1.587,2.75a1.16,1.16,0,0,1-1.7.5c-1.115-.531-2.224-1.076-3.335-1.615-.846-.41-1.157-.318-1.793.373-.6.648-1.242,1.251-1.879,1.862a1.119,1.119,0,0,0-.3,1.611q.821,1.693,1.637,3.388a1.156,1.156,0,0,1-.515,1.733c-.967.56-1.933,1.122-2.908,1.669a1.092,1.092,0,0,1-1.665-.388c-.726-1.047-1.43-2.11-2.151-3.16a1.151,1.151,0,0,0-1.555-.549c-.9.261-1.813.5-2.72.742-.8.216-.99.446-1.046,1.258-.087,1.252-.173,2.5-.278,3.753a1.144,1.144,0,0,1-1.288,1.211q-1.647.022-3.3.008a1.15,1.15,0,0,1-1.308-1.193c-.113-1.249-.189-2.5-.287-3.753-.069-.887-.253-1.092-1.128-1.321-.928-.242-1.855-.492-2.781-.74a1.144,1.144,0,0,0-1.369.524c-.661,1-1.331,1.987-2,2.978-.645.956-1.089,1.061-2.111.485q-1.333-.75-2.654-1.521a1.143,1.143,0,0,1-.52-1.687c.529-1.137,1.081-2.264,1.621-3.4.377-.789.3-1.092-.342-1.7s-1.287-1.263-1.918-1.907c-.6-.611-.87-.668-1.661-.288q-1.564.751-3.126,1.508c-1.045.505-1.508.366-2.071-.62-.505-.886-1.017-1.767-1.519-2.655a1.121,1.121,0,0,1,.38-1.715c1.065-.735,2.132-1.468,3.212-2.181a1.149,1.149,0,0,0,.5-1.421c-.267-.962-.526-1.928-.756-2.9a1.109,1.109,0,0,0-1.11-.941c-1.232-.088-2.464-.181-3.7-.263-1.077-.071-1.424-.429-1.43-1.5,0-.431.02-.864,0-1.294-.03-.521.156-.723.707-.716,2.1.027,4.2.011,6.3.011Z" transform="translate(171.034 -557.357)" fill="none" stroke="#fff" stroke-width="2"/>
    <path id="Path_82317" data-name="Path 82317" d="M-141.815,415.1a28.149,28.149,0,0,1,11.2,2.69c.388.177.528.338.205.725-.589.707-1.15,1.439-1.7,2.176a.63.63,0,0,1-.889.24,23.709,23.709,0,0,0-9.02-1.969,24.463,24.463,0,0,0-18.357,7.353,24.288,24.288,0,0,0-6.365,11.088,25.124,25.124,0,0,0-.831,6.274,1.9,1.9,0,0,1-1.971,1.963,1.913,1.913,0,0,1-1.881-2.114,27.167,27.167,0,0,1,1.046-7.427A28.451,28.451,0,0,1-155.72,418.2C-151.728,416.1-147.451,415.142-141.815,415.1Z" transform="translate(171.426 -415.097)" fill="none" stroke="#fff" stroke-width="2"/>
    <path id="Path_82318" data-name="Path 82318" d="M-42.295,451.116a9.319,9.319,0,0,1,.874-1.87c2.017-2.624,4.1-5.2,6.151-7.8,2.027-2.569,4.037-5.15,6.064-7.718s4.061-5.131,6.105-7.687a1.6,1.6,0,0,1,2.125-.3,1.567,1.567,0,0,1,.5,2.21c-.885,1.457-1.794,2.9-2.706,4.34q-3.113,4.915-6.239,9.823-3.147,4.963-6.288,9.932a10.692,10.692,0,0,1-.848,1.266,3.135,3.135,0,0,1-3.587.866,3.194,3.194,0,0,1-2-2.991Z" transform="translate(67.658 -423.431)" fill="none" stroke="#fff" stroke-width="2"/>
    <path id="Path_82319" data-name="Path 82319" d="M62.208,450.646c.58.547,1.1,1.011,1.594,1.509a28.165,28.165,0,0,1,7.659,14.173,46.519,46.519,0,0,1,.659,5.884,1.866,1.866,0,0,1-1.428,1.923,1.809,1.809,0,0,1-2.083-.822,2.549,2.549,0,0,1-.311-1.166,24.516,24.516,0,0,0-7.731-17.768c-.348-.337-.4-.579-.121-.988C61.042,452.526,61.584,451.625,62.208,450.646Z" transform="translate(-14.758 -443.664)" fill="none" stroke="#fff" stroke-width="2"/>
  </g>
</svg>
