<svg xmlns="http://www.w3.org/2000/svg" width="65.028" height="79.895" viewBox="0 0 65.028 79.895">
  <g id="Group_41355" data-name="Group 41355" transform="translate(-6.437 0)">
    <path id="Path_82570" data-name="Path 82570" d="M-5606.854,8686.479s.96,16.587-.813,28.506-7.651,22.913-7.651,22.913a68.336,68.336,0,0,1-17.424,18.225c-10.85,7.484-24.609,7.967-24.609,7.967a65.935,65.935,0,0,1-1.612-23.877,52.223,52.223,0,0,1,7.952-21.714c3.711-5.7,5.218-8.874,16.084-16.912S-5606.854,8686.479-5606.854,8686.479Z" transform="translate(5676.836 -8685.336)" fill="#F4F1EA"/>
    <g id="Group_41244" data-name="Group 41244" transform="translate(-758.541 -1542.025)">
      <path id="Subtraction_3" data-name="Subtraction 3" d="M2.893,79.895h0l-.206-.528a31.549,31.549,0,0,1-.992-3.243,54.46,54.46,0,0,1-1.465-8.6,56.646,56.646,0,0,1-.053-9.552l1.37,1A55.362,55.362,0,0,0,1.661,67.4,48.867,48.867,0,0,0,3.837,78.309a70.518,70.518,0,0,0,12.209-2.884A56.022,56.022,0,0,0,26.486,70.7a49.6,49.6,0,0,0,8.338-6.141A49.679,49.679,0,0,0,41.3,57.342a59.733,59.733,0,0,0,8.978-18.508,85.054,85.054,0,0,0,3.2-18.27,102.236,102.236,0,0,0,0-13.943c-.147-2.094-.328-3.681-.455-4.643A125,125,0,0,0,35.279,10.4c-1,.583-2,1.187-2.963,1.8l-1.251-.909c1.142-.729,2.316-1.444,3.491-2.128A127.473,127.473,0,0,1,53.349.312L54.172,0l.142.869,0,.01c.059.373.366,2.4.592,5.642a103.55,103.55,0,0,1,0,14.144,86.44,86.44,0,0,1-3.253,18.579,61.163,61.163,0,0,1-9.2,18.951,51.139,51.139,0,0,1-6.664,7.422,51.169,51.169,0,0,1-8.58,6.32,57.412,57.412,0,0,1-10.709,4.851A72.292,72.292,0,0,1,3.456,79.817l-.563.078Z" transform="translate(774.856 1542.025)" fill="#326220"/>
      <g id="Group_41247" data-name="Group 41247" transform="translate(859.125 1646.338)">
        <g id="Group_104" data-name="Group 104" transform="translate(-93.386 -96.186)">
          <path id="Path_1972" data-name="Path 1972" d="M-82.251-44.576l-5.375,3.07-4.221-4.526A5.73,5.73,0,0,1-93.321-50.8l1.14-7.507L-78.289-56.2l-1.14,7.507A5.727,5.727,0,0,1-82.251-44.576Z" transform="translate(93.386 86.318)" fill="#F4F1EA" stroke="#326220" stroke-linecap="round" stroke-linejoin="round" stroke-width="1.5"/>
          <path id="Path_1973" data-name="Path 1973" d="M-74.879-90.263-79.3-88.272l-3.634-3.214.713-4.7,8.058,1.223Z" transform="translate(90.664 96.186)" fill="#F4F1EA" stroke="#326220" stroke-linecap="round" stroke-linejoin="round" stroke-width="1.5"/>
          <line id="Line_26" data-name="Line 26" y1="22.041" x2="3.345" transform="translate(6.767 6.816)" fill="none" stroke="#326220" stroke-linecap="round" stroke-linejoin="round" stroke-width="1.5"/>
          <line id="Line_27" data-name="Line 27" y1="22.047" x2="3.346" transform="translate(9.538 7.23)" fill="none" stroke="#326220" stroke-linecap="round" stroke-linejoin="round" stroke-width="1.5"/>
          <path id="Path_1974" data-name="Path 1974" d="M-89.327-55.128l-.716,4.437s-.322,2.5,1.252,3.364" transform="translate(92.522 85.49)" fill="#F4F1EA" stroke="#326220" stroke-linecap="round" stroke-linejoin="round" stroke-width="1.5"/>
        </g>
        <g id="Group_106" data-name="Group 106" transform="translate(-72.682 -96.164)">
          <path id="Path_1975" data-name="Path 1975" d="M-56.486-91.487l-3.5,3.356-4.5-1.813-.9-4.669,8-1.542Z" transform="translate(65.389 96.156)" fill="#F4F1EA" stroke="#326220" stroke-linecap="round" stroke-linejoin="round" stroke-width="1.5"/>
          <line id="Line_28" data-name="Line 28" x1="5.628" y1="29.205" transform="translate(3.855 7.407)" fill="none" stroke="#326220" stroke-linecap="round" stroke-linejoin="round" stroke-width="1.5"/>
          <line id="Line_29" data-name="Line 29" x1="5.63" y1="29.212" transform="translate(6.606 6.87)" fill="none" stroke="#326220" stroke-linecap="round" stroke-linejoin="round" stroke-width="1.5"/>
          <g id="Group_105" data-name="Group 105" transform="translate(3.296 35.163)">
            <path id="Path_1976" data-name="Path 1976" d="M-44.262-42.675-45.1-47a1.979,1.979,0,0,0-2.318-1.568l-11.914,2.3A1.978,1.978,0,0,0-60.9-43.956l.834,4.326" transform="translate(60.932 48.605)" fill="#F4F1EA" stroke="#326220" stroke-linecap="round" stroke-linejoin="round" stroke-width="1.5"/>
            <line id="Line_30" data-name="Line 30" x2="1.208" y2="6.269" transform="translate(3.612 1.945)" fill="none" stroke="#326220" stroke-linecap="round" stroke-linejoin="round" stroke-width="1.5"/>
            <line id="Line_31" data-name="Line 31" x2="1.208" y2="6.269" transform="translate(7.562 1.184)" fill="none" stroke="#326220" stroke-linecap="round" stroke-linejoin="round" stroke-width="1.5"/>
            <line id="Line_32" data-name="Line 32" x2="1.208" y2="6.269" transform="translate(11.512 0.423)" fill="none" stroke="#326220" stroke-linecap="round" stroke-linejoin="round" stroke-width="1.5"/>
          </g>
        </g>
      </g>
    </g>
  </g>
</svg>
