<svg id="Group_16960" data-name="Group 16960" xmlns="http://www.w3.org/2000/svg" width="58.885" height="46.335" viewBox="0 0 58.885 46.335">
  <path id="Path_82310" data-name="Path 82310" d="M-347.656-19.667a13.605,13.605,0,0,1-.207,1.443,2.93,2.93,0,0,1-2.849,2.212c-1.542.009-3.086-.055-4.624.018a3.264,3.264,0,0,1-3.338-3.358c.026-5.074.009-10.149.009-15.224,0-1.569-.008-3.138,0-4.706a3.049,3.049,0,0,1,2.559-3.131,4.438,4.438,0,0,1,.734-.043c1.405,0,2.813.055,4.215-.015a3.187,3.187,0,0,1,3.562,3.252c.173-.077.327-.14.476-.213a16.547,16.547,0,0,1,8.436-1.884,12.7,12.7,0,0,1,7,2.66,1.421,1.421,0,0,0,.929.315q4.482-.019,8.964-.006a4.173,4.173,0,0,1,4.242,3.368,10.368,10.368,0,0,1,.116,1.035c.435-.185.843-.355,1.247-.532,3.694-1.615,7.384-3.239,11.083-4.844a3.784,3.784,0,0,1,4.855,1.662,3.736,3.736,0,0,1-1.306,4.95L-326.474-16.2a7.7,7.7,0,0,1-6.836.93q-5.485-1.688-10.972-3.367c-.989-.3-1.976-.613-2.964-.919C-347.386-19.595-347.527-19.631-347.656-19.667Zm-.061-2.2.222.067q4.447,1.376,8.893,2.752c2.081.641,4.158,1.3,6.25,1.9a5.262,5.262,0,0,0,4.538-.688c3.193-2.116,6.371-4.254,9.554-6.384,5.177-3.465,10.346-6.942,15.538-10.385a1.784,1.784,0,0,0,.636-2.284,1.71,1.71,0,0,0-2.258-.693q-6.988,3.088-13.973,6.183a2.006,2.006,0,0,0-.522.309A4.178,4.178,0,0,1-321.755-30c-1.268-.011-2.537,0-3.806,0q-3.847,0-7.693,0a.949.949,0,0,1-1.043-.669,1.006,1.006,0,0,1,1.062-1.378c3.806,0,7.612.014,11.417-.02a2.822,2.822,0,0,0,1.411-.422,2.106,2.106,0,0,0,.756-2.473,2.138,2.138,0,0,0-2.051-1.413q-4.911-.006-9.822,0a1.345,1.345,0,0,1-.928-.326,10.882,10.882,0,0,0-6.675-2.64,14.8,14.8,0,0,0-8.221,2.306.689.689,0,0,0-.375.685q.016,7.038.005,14.075Zm-8.873-7.36V-24.4c0,1.718-.005,3.436,0,5.154,0,.83.376,1.189,1.206,1.19,1.486,0,2.973,0,4.459,0a1.006,1.006,0,0,0,1.129-1.1c.011-.422,0-.845,0-1.268q0-9.367,0-18.734c0-.895-.338-1.224-1.244-1.225q-2.107,0-4.214,0c-1.025,0-1.338.312-1.338,1.345Q-356.592-34.137-356.591-29.229Z" transform="translate(358.674 61.196)" fill="#fff"/>
  <path id="Path_82311" data-name="Path 82311" d="M-282.23-163.467a5.927,5.927,0,0,1-6.857,5.3,5.9,5.9,0,0,1-4.659-7.527h-.659q-16.249,0-32.5,0a3.409,3.409,0,0,1-.65-.043.951.951,0,0,1-.82-.933c-.019-1.418-.023-2.837,0-4.255a.933.933,0,0,1,1-.967c.462-.015.926,0,1.439,0,.008-.169.021-.312.022-.456,0-1.8.013-3.6,0-5.4a1.166,1.166,0,0,1,.649-1.135,1.078,1.078,0,0,1,1.249.208c1.121.912,2.251,1.814,3.363,2.737a.4.4,0,0,0,.619,0c1.112-.923,2.237-1.831,3.365-2.736a1.083,1.083,0,0,1,1.631.084,1.475,1.475,0,0,1,.255.827c.022,1.773.011,3.546.012,5.32v.52h2.629c.008-.138.022-.282.022-.425,0-.8-.007-1.61,0-2.414.009-.652.279-1.009.808-1.111a1,1,0,0,1,1.262,1.06c.023.709.005,1.418.006,2.128v.765h2.159v-.473c0-1.841,0-3.683,0-5.525a.989.989,0,0,1,1.308-1.028.946.946,0,0,1,.743,1.031c0,1.855,0,3.71,0,5.566v.431h12.078a5.911,5.911,0,0,1,4.535-7.489,5.947,5.947,0,0,1,7,5.289c3.059-1.165,5.6-.482,7.479,2.222a5.527,5.527,0,0,1-.158,6.483C-276.8-162.891-279.306-162.375-282.23-163.467Zm-9.153-5.34a8.845,8.845,0,0,1-.817-.734.841.841,0,0,0-.71-.289q-16.449.008-32.9,0h-.472v2.054H-310.1q8.613,0,17.227,0a.794.794,0,0,0,.462-.083C-292.052-168.149-291.73-168.48-291.384-168.807Zm3.345-1.032a3.778,3.778,0,0,0,3.81-3.737A3.812,3.812,0,0,0-288-177.447a3.837,3.837,0,0,0-3.833,3.823A3.871,3.871,0,0,0-288.039-169.839Zm.024,2.187a3.876,3.876,0,0,0-3.817,3.76,3.829,3.829,0,0,0,3.8,3.847,3.806,3.806,0,0,0,3.8-3.789A3.847,3.847,0,0,0-288.015-167.652Zm8.5,2.653a3.805,3.805,0,0,0,3.843-3.751,3.892,3.892,0,0,0-3.814-3.854,3.86,3.86,0,0,0-3.785,3.784A3.769,3.769,0,0,0-279.514-165Zm-37.148-10.747c-.128.092-.206.142-.276.2-.772.628-1.541,1.261-2.315,1.886a1.14,1.14,0,0,1-1.685,0c-.1-.076-.189-.157-.284-.234l-2.181-1.768v3.742h6.741Z" transform="translate(332.527 179.507)" fill="#fff"/>
</svg>
