<svg xmlns="http://www.w3.org/2000/svg" width="58.443" height="50.833" viewBox="0 0 58.443 50.833">
  <g id="Group_16998" data-name="Group 16998" transform="translate(0 0)">
    <path id="Path_82301" data-name="Path 82301" d="M-68.493-117.884c-.392-.05-.754-.109-1.118-.139-.465-.038-.577.03-.769.457a9.214,9.214,0,0,0-.939,3.3,12.2,12.2,0,0,0,.235,3.9,10.509,10.509,0,0,0,3.839,5.65,10.016,10.016,0,0,0,7.984,1.913,10.291,10.291,0,0,0,8.487-9.147,9.817,9.817,0,0,0-1.659-6.746,9.964,9.964,0,0,0-8.643-4.636.214.214,0,0,0-.166.092c-.177.441-.342.887-.53,1.384a9.3,9.3,0,0,1,5.448,1.424,9.365,9.365,0,0,1,3.534,4.309,8.742,8.742,0,0,1,.2,5.581A8.81,8.81,0,0,1-64.1-104.729a8.512,8.512,0,0,1-5.135-5.013A8.925,8.925,0,0,1-68.493-117.884Zm5.484,7.288a2.263,2.263,0,0,0,1.1,2.592.556.556,0,0,1,.358.515c0,.186.121.261.29.256.264-.008.553.11.771-.142a.079.079,0,0,0,.015-.052c-.023-.376.239-.524.521-.664a1.573,1.573,0,0,0,.879-1.105,2.861,2.861,0,0,0-.648-2.774c-.432-.452-.888-.882-1.3-1.348a2.917,2.917,0,0,1-.547-.816c-.276-.682.07-1.151.788-1.133.028,0,.055,0,.083,0a.328.328,0,0,1,.356.278,4.605,4.605,0,0,0,.161.583c.039.1.141.232.224.24.323.028.649.011.973.011a2.121,2.121,0,0,0-1.167-2.357.6.6,0,0,1-.292-.4c-.032-.26-.16-.328-.379-.33-.147,0-.294,0-.441.007-.169.008-.282.086-.281.27a.543.543,0,0,1-.361.507,2.038,2.038,0,0,0-1.094,1.625,2.585,2.585,0,0,0,.784,2.285c.488.513.981,1.022,1.487,1.518a1.375,1.375,0,0,1,.369,1.318c-.066.374-.249.558-.559.579a.627.627,0,0,1-.753-.49,5.794,5.794,0,0,1-.146-.7.3.3,0,0,0-.316-.281C-62.425-110.6-62.709-110.6-63.008-110.6Z" transform="translate(89.676 137.965)" fill="#fff"/>
    <path id="Path_82302" data-name="Path 82302" d="M-365-73.926c.034-.549.059-1.1.1-1.648q.249-3.121.509-6.242a2.615,2.615,0,0,1,.509-1.35,1.336,1.336,0,0,1,1.666-.62,2.275,2.275,0,0,1,1.506,1.158,5.839,5.839,0,0,1,.7,2.279c.16,1.379.3,2.76.42,4.142.042.471.012.485-.431.617-.48.143-.967.264-1.509.41l-.689-5.683h-.118c-.057.448-.137.894-.167,1.344-.1,1.515-.181,3.031-.266,4.546a7.065,7.065,0,0,0,.637,3.515c1.018,2.13,2.028,4.264,3.013,6.41a5.566,5.566,0,0,0,2.234,2.441c1.838,1.136,3.677,2.272,5.5,3.431a28.66,28.66,0,0,1,2.494,1.722,4.13,4.13,0,0,1,1.624,3.357c0,.67.047,1.339.073,2.027h6.451c.006-.072.015-.143.019-.215.068-1.212.1-2.428.213-3.635a6.714,6.714,0,0,0-.54-3.334,12.727,12.727,0,0,0-4.058-5.172,7.377,7.377,0,0,0-3.087-1.261,23.667,23.667,0,0,0-2.91-.472,4.037,4.037,0,0,1-2.575-1.242c-.683-.68-1.329-1.4-1.946-2.143a11.5,11.5,0,0,0-3.2-2.841c-.12-.067-.247-.121-.373-.177a1.662,1.662,0,0,0-.217-.049c.166.232.274.406.4.562q1.909,2.272,3.825,4.539c.083.1.163.2.278.338l-1.52,1.482c-.375-.433-.726-.808-1.043-1.21-1.055-1.336-2.089-2.688-3.152-4.017a7.58,7.58,0,0,0-.9-.882,1.687,1.687,0,0,1-.621-1.7,1.762,1.762,0,0,1,1.473-1.362,3.74,3.74,0,0,1,2.432.4,11.9,11.9,0,0,1,3.947,3.177c.585.686,1.176,1.366,1.763,2.05a2.99,2.99,0,0,0,2.12,1.014c1.013.1,2.02.286,3.021.483a8.551,8.551,0,0,1,4.088,2.064,16.236,16.236,0,0,1,4.063,5.1A9.717,9.717,0,0,1-338.4-55.2c-.118,1.04-.117,2.094-.147,3.142-.019.68,0,1.361.006,2.042h-10.826c-.006-.856-.01-1.711-.02-2.567-.005-.451-.032-.9-.033-1.352a2.443,2.443,0,0,0-1.145-2.142c-.7-.466-1.391-.931-2.1-1.379q-2.808-1.779-5.628-3.539a7.187,7.187,0,0,1-2.633-2.83,69.076,69.076,0,0,1-3.415-7.527c-.228-.6-.44-1.2-.659-1.805Z" transform="translate(365 100.844)" fill="#fff"/>
    <path id="Path_82303" data-name="Path 82303" d="M134.259-50.166c-.054-1.453-.1-2.906-.163-4.359-.026-.653-.067-1.3-.1-1.957a8.469,8.469,0,0,1,.879-4.138,15.629,15.629,0,0,1,4.987-5.942A8.939,8.939,0,0,1,143.614-68c1-.188,2.015-.308,3.024-.451a1.864,1.864,0,0,0,1.057-.5,19.2,19.2,0,0,0,1.382-1.46,18.6,18.6,0,0,1,3.788-3.641,5.6,5.6,0,0,1,2.338-1,2.5,2.5,0,0,1,1.961.453,1.533,1.533,0,0,1,.222,2.389c-1.432,1.248-2.327,2.913-3.562,4.308-.494.558-.96,1.14-1.44,1.711-.082.1-.169.192-.3.338l-1.528-1.485,4.489-5.346-.072-.089c-.177.082-.359.152-.529.248a11.163,11.163,0,0,0-3,2.62c-.677.8-1.363,1.6-2.1,2.335a3.744,3.744,0,0,1-2.379,1.221,16.96,16.96,0,0,0-2.021.277c-.8.159-1.594.363-2.381.58a5.574,5.574,0,0,0-2.319,1.338,14.784,14.784,0,0,0-3.073,3.7,7.323,7.323,0,0,0-.983,4.042c.087,1.386.146,2.774.218,4.183h6.431c.008-.062.023-.132.026-.2.021-.552.066-1.1.054-1.655a4.558,4.558,0,0,1,1.977-3.872c.7-.532,1.482-.954,2.227-1.428l6.237-3.967a2.839,2.839,0,0,0,.955-1.049,66.856,66.856,0,0,0,3.816-8.13,5.337,5.337,0,0,0,.307-2.2c-.073-1.645-.19-3.287-.292-4.93-.023-.376-.057-.752-.088-1.128a1.1,1.1,0,0,0-.076-.343c-.433,1.887-.5,3.822-.807,5.756a1.748,1.748,0,0,1-.334-.036c-.464-.146-.924-.3-1.386-.455a.334.334,0,0,1-.241-.4c.113-1.135.208-2.272.337-3.4a18.98,18.98,0,0,1,.308-1.9,3.42,3.42,0,0,1,1.089-1.909,1.761,1.761,0,0,1,2.065-.322,2.082,2.082,0,0,1,.974,1.536c.17,1.433.348,2.869.432,4.309.095,1.625.092,3.256.126,4.884a1.025,1.025,0,0,1-.055.376c-1.032,2.727-2.254,5.369-3.511,8a9.461,9.461,0,0,1-3.792,4.071c-2.076,1.259-4.124,2.562-6.185,3.846a4.743,4.743,0,0,0-1.808,1.7,1.092,1.092,0,0,0-.148.481c-.012,1.371-.006,2.743-.007,4.114,0,.11-.009.22-.013.33Z" transform="translate(-102.104 100.998)" fill="#fff"/>
    <path id="Path_82304" data-name="Path 82304" d="M111.086-385c.367.074.738.133,1.1.226a6.53,6.53,0,0,1,4.97,5.778,6.521,6.521,0,0,1-4.257,6.689,6.51,6.51,0,0,1-8.779-5.369,6.552,6.552,0,0,1,5.732-7.276,1.416,1.416,0,0,0,.185-.048Zm-.458,11.55a4.933,4.933,0,0,0,4.995-5.162,5.035,5.035,0,0,0-5.044-4.871,5.111,5.111,0,0,0-4.982,5.313C105.653-375.972,107.915-373.226,110.627-373.45Z" transform="translate(-75.44 385)" fill="#fff"/>
    <path id="Path_82305" data-name="Path 82305" d="M-68.493-117.884a8.925,8.925,0,0,0-.744,8.142,8.512,8.512,0,0,0,5.135,5.013,8.81,8.81,0,0,0,11.512-5.823,8.742,8.742,0,0,0-.2-5.581,9.365,9.365,0,0,0-3.534-4.309,9.3,9.3,0,0,0-5.448-1.424c.188-.5.353-.943.53-1.384a.214.214,0,0,1,.166-.092,9.964,9.964,0,0,1,8.643,4.636,9.817,9.817,0,0,1,1.659,6.746,10.291,10.291,0,0,1-8.487,9.147,10.016,10.016,0,0,1-7.984-1.913,10.509,10.509,0,0,1-3.839-5.65,12.2,12.2,0,0,1-.235-3.9,9.214,9.214,0,0,1,.939-3.3c.193-.427.3-.5.769-.457C-69.247-117.993-68.885-117.934-68.493-117.884Z" transform="translate(89.676 137.965)" fill="#fff"/>
    <path id="Path_82306" data-name="Path 82306" d="M-121.839-270.723a6.538,6.538,0,0,1-6.893,6.4,6.643,6.643,0,0,1-6.174-6.76,6.7,6.7,0,0,1,6.891-6.361A6.636,6.636,0,0,1-121.839-270.723Zm-11.52-.152a9.015,9.015,0,0,0,.266,1.676,5.031,5.031,0,0,0,7.216,2.7,4.524,4.524,0,0,0,2.41-3.289,12.671,12.671,0,0,0,.014-2.2,1.718,1.718,0,0,0-.114-.509,5.275,5.275,0,0,0-4.65-3.437C-130.621-276.014-133.529-273.931-133.359-270.876Z" transform="translate(148.952 283.395)" fill="#fff"/>
    <path id="Path_82307" data-name="Path 82307" d="M79.408-6.1c.3,0,.583,0,.868,0a.3.3,0,0,1,.316.281,5.8,5.8,0,0,0,.146.7.627.627,0,0,0,.753.49c.311-.021.493-.206.559-.579a1.375,1.375,0,0,0-.369-1.318c-.506-.5-1-1-1.487-1.518a2.585,2.585,0,0,1-.784-2.285A2.038,2.038,0,0,1,80.5-11.956a.543.543,0,0,0,.361-.507c0-.184.112-.262.281-.27.147-.007.294-.008.441-.007.219,0,.347.07.379.33a.6.6,0,0,0,.293.4,2.121,2.121,0,0,1,1.167,2.357c-.325,0-.651.017-.973-.011-.083-.007-.185-.142-.224-.24a4.605,4.605,0,0,1-.161-.583.328.328,0,0,0-.356-.278c-.028,0-.055,0-.083,0-.718-.018-1.064.451-.788,1.133a2.917,2.917,0,0,0,.547.816c.417.465.873.9,1.3,1.348A2.861,2.861,0,0,1,83.341-4.7,1.573,1.573,0,0,1,82.462-3.6c-.282.14-.544.287-.521.664a.079.079,0,0,1-.015.052c-.218.252-.507.135-.771.142-.169,0-.288-.07-.29-.256a.556.556,0,0,0-.358-.515A2.263,2.263,0,0,1,79.408-6.1Z" transform="translate(-52.714 33.48)" fill="#fff"/>
    <path id="Path_82308" data-name="Path 82308" d="M197.872-304.447l-.908,3.077c.288,0,.54,0,.792,0,.175,0,.374,0,.387.246.014.274-.2.264-.384.281-.269.025-.538.042-.807.062l-.01.116c.149.03.3.069.448.087s.33.021.5.03.262.084.259.256-.11.241-.268.248c-.211.01-.423.022-.634.028s-.33.09-.313.32c.022.3-.168.353-.407.352s-.433-.048-.41-.347c.018-.229-.1-.315-.311-.322-.248-.008-.5-.019-.745-.03-.163-.007-.29-.055-.29-.253s.129-.242.291-.253c.345-.023.689-.049,1.034-.073l.009-.117a3.128,3.128,0,0,0-.371-.079c-.247-.024-.5-.014-.742-.056-.084-.015-.212-.152-.2-.219a.352.352,0,0,1,.206-.254,4.569,4.569,0,0,1,.632-.036c.324-.023.35-.064.258-.367q-.362-1.2-.725-2.4c-.026-.085-.042-.173-.063-.257.494-.158.764-.03.91.429.133.42.252.845.381,1.267.029.1.074.185.141.348.061-.166.106-.267.135-.373.11-.389.215-.779.321-1.17C197.143-304.5,197.217-304.551,197.872-304.447Z" transform="translate(-161.221 308.937)" fill="#fff"/>
    <path id="Path_82309" data-name="Path 82309" d="M-53.894-197.8l.824.07c.173.014.349.017.519.047.055.01.144.1.137.136a.258.258,0,0,1-.142.164,1.131,1.131,0,0,1-.325.043c-.266.012-.535,0-.8.034a1.058,1.058,0,0,0-.33.179,1.067,1.067,0,0,0,.329.176c.273.035.552.02.826.045.167.015.413-.062.43.2,0,.053-.27.157-.424.18-.244.036-.5.009-.743.037-.095.01-.246.087-.256.151a.355.355,0,0,0,.123.3,3.273,3.273,0,0,0,.756.289,1.926,1.926,0,0,0,.549-.017c.184-.013.3.053.332.246s.049.416-.2.472a2.058,2.058,0,0,1-2.315-.718c-.192-.3-.324-.636-.68-.807-.142-.068-.081-.261.083-.34a1.957,1.957,0,0,0,.232-.155,2.8,2.8,0,0,1-.2-.214.651.651,0,0,1-.167-.284c0-.055.144-.119.22-.183a2.287,2.287,0,0,0,.262-.238,2.018,2.018,0,0,0,.159-.258,1.935,1.935,0,0,1,2.281-.9.515.515,0,0,1,.258.638.214.214,0,0,1-.162.064,2.686,2.686,0,0,1-.327-.043A1.147,1.147,0,0,0-53.894-197.8Z" transform="translate(73.92 209.564)" fill="#fff"/>
  </g>
</svg>
