<svg xmlns="http://www.w3.org/2000/svg" width="67.685" height="79.895" viewBox="0 0 67.685 79.895">
  <g id="Group_41358" data-name="Group 41358" transform="translate(-3.781 0)">
    <path id="Path_82570" data-name="Path 82570" d="M-5606.854,8686.479s.96,16.587-.813,28.506-7.651,22.913-7.651,22.913a68.336,68.336,0,0,1-17.424,18.225c-10.85,7.484-24.609,7.967-24.609,7.967a65.935,65.935,0,0,1-1.612-23.877,52.223,52.223,0,0,1,7.952-21.714c3.711-5.7,5.218-8.874,16.084-16.912S-5606.854,8686.479-5606.854,8686.479Z" transform="translate(5676.836 -8685.336)" fill="#F4F1EA"/>
    <g id="Group_41244" data-name="Group 41244" transform="translate(-758.541 -1542.025)">
      <path id="Subtraction_3" data-name="Subtraction 3" d="M2.893,79.895h0l-.206-.528a31.549,31.549,0,0,1-.992-3.243,54.46,54.46,0,0,1-1.465-8.6,56.646,56.646,0,0,1-.053-9.552l1.37,1A55.362,55.362,0,0,0,1.661,67.4,48.867,48.867,0,0,0,3.837,78.309a70.518,70.518,0,0,0,12.209-2.884A56.022,56.022,0,0,0,26.486,70.7a49.6,49.6,0,0,0,8.338-6.141A49.679,49.679,0,0,0,41.3,57.342a59.733,59.733,0,0,0,8.978-18.508,85.054,85.054,0,0,0,3.2-18.27,102.236,102.236,0,0,0,0-13.943c-.147-2.094-.328-3.681-.455-4.643A125,125,0,0,0,35.279,10.4c-1,.583-2,1.187-2.963,1.8l-1.251-.909c1.142-.729,2.316-1.444,3.491-2.128A127.473,127.473,0,0,1,53.349.312L54.172,0l.142.869,0,.01c.059.373.366,2.4.592,5.642a103.55,103.55,0,0,1,0,14.144,86.44,86.44,0,0,1-3.253,18.579,61.163,61.163,0,0,1-9.2,18.951,51.139,51.139,0,0,1-6.664,7.422,51.169,51.169,0,0,1-8.58,6.32,57.412,57.412,0,0,1-10.709,4.851A72.292,72.292,0,0,1,3.456,79.817l-.563.078Z" transform="translate(774.856 1542.025)" fill="#326220"/>
      <g id="Group_41249" data-name="Group 41249" transform="translate(956.171 1643.201)">
        <path id="Path_1999" data-name="Path 1999" d="M-183.548-53.177s.591-10.733,9.058-9.155c0,0,5.513-7.253,10.928,1.335,0,0,9.968-5.2,12.458,3" transform="translate(-2.269 -7.345)" fill="#F4F1EA" stroke="#326220" stroke-linecap="round" stroke-linejoin="round" stroke-width="1.5"/>
        <path id="Path_2000" data-name="Path 2000" d="M-161.916-69.728s.407-10.858,4.07-16.784" transform="translate(-7.424 -2.264)" fill="none" stroke="#326220" stroke-linecap="round" stroke-linejoin="round" stroke-width="1.5"/>
        <path id="Path_2001" data-name="Path 2001" d="M-160.567-75.559s2-2.389,6.678-3.008c3.38-.447,4.663.378,7.174-.043C-146.714-78.61-153.283-67.14-160.567-75.559Z" transform="translate(-7.745 -4.125)" fill="#F4F1EA" stroke="#326220" stroke-linecap="round" stroke-linejoin="round" stroke-width="1.5"/>
        <path id="Path_2002" data-name="Path 2002" d="M-159.848-83.669s2.871-1.208,4.838-5.5c1.421-3.1,1.01-4.568,2.149-6.844C-152.861-96.012-165.754-93.105-159.848-83.669Z" transform="translate(-7.548 0)" fill="#F4F1EA" stroke="#326220" stroke-linecap="round" stroke-linejoin="round" stroke-width="1.5"/>
        <path id="Path_2003" data-name="Path 2003" d="M-164.6-76.423s-1.449-2.757-5.892-4.351c-3.21-1.151-4.637-.615-7-1.556C-177.5-82.33-173.5-69.733-164.6-76.423Z" transform="translate(-3.711 -3.261)" fill="#F4F1EA" stroke="#326220" stroke-linecap="round" stroke-linejoin="round" stroke-width="1.5"/>
        <path id="Path_2004" data-name="Path 2004" d="M-160.567-74.584s3.417.672,5.582-.029" transform="translate(-7.745 -5.1)" fill="none" stroke="#326220" stroke-linecap="round" stroke-linejoin="round" stroke-width="1.5"/>
        <path id="Path_2005" data-name="Path 2005" d="M-162.27-75.05s-3.623.155-5.444-1.518" transform="translate(-6.042 -4.634)" fill="none" stroke="#326220" stroke-linecap="round" stroke-linejoin="round" stroke-width="1.5"/>
        <g id="Group_118" data-name="Group 118" transform="translate(-193.067 -67.004)">
          <path id="Path_82572" data-name="Path 82572" d="M-5560.457,8708.274h17.472l-2.049,9.219h-15.422Z" transform="translate(5560.112 -8701.354)" fill="#F4F1EA"/>
          <path id="Path_1997" data-name="Path 1997" d="M-193.067-41.053s21.205.062,26.114-.165a14.4,14.4,0,0,0,8.535-3.852l9.519-9.061c1.159-1.254.036-5.479-2.766-3.066l-6.112,4.585A12.031,12.031,0,0,1-165-50.205h-7.166" transform="translate(193.067 57.927)" fill="none" stroke="#326220" stroke-linecap="round" stroke-linejoin="round" stroke-width="1.5"/>
          <path id="Path_1998" data-name="Path 1998" d="M-193.067-50.387l9.127.408c5.268.056,5.154-3.853,10.19-3.566h5.168c3.6.018,4.3,4.38,2.866,4.38" transform="translate(193.067 56.886)" fill="#F4F1EA" stroke="#326220" stroke-linecap="round" stroke-linejoin="round" stroke-width="1.5"/>
        </g>
      </g>
    </g>
  </g>
</svg>
